<svg width="258" height="193" viewBox="0 0 258 193" fill="none" xmlns="http://www.w3.org/2000/svg">
<g opacity="0.35">
<mask id="path-1-outside-1_407_211" maskUnits="userSpaceOnUse" x="0.771973" y="1.94214" width="195" height="192" fill="black">
<rect fill="white" x="0.771973" y="1.94214" width="195" height="192"/>
<path d="M99.437 171.578L83.7488 156.042L130.737 109.053H16.579V86.3588H130.737L83.7488 39.4466L99.437 23.8345L173.309 97.7061L99.437 171.578Z"/>
</mask>
<path d="M99.437 171.578L83.7488 156.042L130.737 109.053H16.579V86.3588H130.737L83.7488 39.4466L99.437 23.8345L173.309 97.7061L99.437 171.578Z" fill="#FFEAC8"/>
<path d="M99.437 171.578L88.5736 182.548L99.4901 193.358L110.354 182.494L99.437 171.578ZM83.7488 156.042L72.8321 145.125L61.8619 156.095L72.8854 167.012L83.7488 156.042ZM130.737 109.053L141.654 119.97L168.009 93.6148H130.737V109.053ZM16.579 109.053H1.14034V124.492H16.579V109.053ZM16.579 86.3588V70.9202H1.14034V86.3588H16.579ZM130.737 86.3588V101.797H168.052L141.645 75.4332L130.737 86.3588ZM83.7488 39.4466L72.8586 28.5033L61.8798 39.4288L72.8409 50.3722L83.7488 39.4466ZM99.437 23.8345L110.354 12.9178L99.4635 2.02751L88.5468 12.8912L99.437 23.8345ZM173.309 97.7061L184.225 108.623L195.142 97.7061L184.225 86.7894L173.309 97.7061ZM110.3 160.608L94.6122 145.072L72.8854 167.012L88.5736 182.548L110.3 160.608ZM94.6656 166.959L141.654 119.97L119.82 98.1366L72.8321 145.125L94.6656 166.959ZM130.737 93.6148H16.579V124.492H130.737V93.6148ZM32.0176 109.053V86.3588H1.14034V109.053H32.0176ZM16.579 101.797H130.737V70.9202H16.579V101.797ZM141.645 75.4332L94.6567 28.5209L72.8409 50.3722L119.829 97.2845L141.645 75.4332ZM94.639 50.3899L110.327 34.7778L88.5468 12.8912L72.8586 28.5033L94.639 50.3899ZM88.5202 34.7513L162.392 108.623L184.225 86.7894L110.354 12.9178L88.5202 34.7513ZM162.392 86.7894L88.5202 160.661L110.354 182.494L184.225 108.623L162.392 86.7894Z" fill="#FFEAC8" mask="url(#path-1-outside-1_407_211)"/>
</g>
<path d="M34.7113 97.3564C34.7113 96.2342 34.9042 95.1208 35.2899 94.0162C35.6932 92.894 36.2718 91.8946 37.0258 91.0179C37.7798 90.1412 38.7091 89.4311 39.8137 88.8875C40.9183 88.3265 42.172 88.0459 43.5747 88.0459C45.2404 88.0459 46.6607 88.4229 47.8354 89.1769C49.0277 89.9308 49.9044 90.9127 50.4655 92.1225L49.019 93.0168C48.7209 92.4031 48.3527 91.8858 47.9143 91.465C47.4935 91.0442 47.0376 90.7023 46.5467 90.4393C46.0557 90.1763 45.5473 89.9922 45.0212 89.887C44.4952 89.7642 43.978 89.7029 43.4695 89.7029C42.3473 89.7029 41.3567 89.9308 40.4975 90.3867C39.6383 90.8426 38.9107 91.4387 38.3145 92.1751C37.7359 92.9116 37.2976 93.7444 36.9995 94.6737C36.7014 95.5855 36.5524 96.5148 36.5524 97.4616C36.5524 98.4961 36.7277 99.4868 37.0784 100.434C37.4466 101.38 37.9376 102.222 38.5512 102.958C39.1825 103.677 39.9189 104.256 40.7605 104.694C41.6197 105.115 42.549 105.326 43.5484 105.326C44.0744 105.326 44.6092 105.264 45.1528 105.141C45.7138 105.001 46.2486 104.791 46.7571 104.51C47.2831 104.212 47.7653 103.853 48.2036 103.432C48.642 102.994 49.0102 102.468 49.3083 101.854L50.8337 102.643C50.5357 103.344 50.1148 103.967 49.5713 104.51C49.0277 105.036 48.4228 105.483 47.7565 105.852C47.0902 106.22 46.3801 106.5 45.6262 106.693C44.8897 106.886 44.1621 106.983 43.4432 106.983C42.1632 106.983 40.9885 106.702 39.9189 106.141C38.8493 105.58 37.9288 104.852 37.1573 103.958C36.3858 103.046 35.7809 102.02 35.3425 100.881C34.9217 99.7235 34.7113 98.5487 34.7113 97.3564ZM57.0551 107.088C56.4064 107.088 55.8014 106.983 55.2404 106.772C54.6968 106.544 54.2146 106.237 53.7938 105.852C53.3905 105.466 53.0749 105.019 52.847 104.51C52.619 103.984 52.5051 103.423 52.5051 102.827C52.5051 102.231 52.6453 101.679 52.9259 101.17C53.2064 100.662 53.6009 100.223 54.1094 99.855C54.6179 99.4868 55.2228 99.2062 55.9242 99.0134C56.6255 98.803 57.397 98.6978 58.2386 98.6978C58.94 98.6978 59.6501 98.7591 60.369 98.8819C61.0879 99.0046 61.7279 99.1799 62.289 99.4079V98.1717C62.289 96.9619 61.9471 96.0063 61.2632 95.3049C60.5794 94.5861 59.6326 94.2266 58.4228 94.2266C57.7214 94.2266 57.0025 94.3669 56.2661 94.6474C55.5297 94.928 54.7845 95.3312 54.0305 95.8573L53.3993 94.6737C55.1702 93.4814 56.8885 92.8853 58.5543 92.8853C60.2726 92.8853 61.6227 93.3674 62.6046 94.3318C63.5865 95.2962 64.0774 96.6288 64.0774 98.3295V104.51C64.0774 105.001 64.2966 105.247 64.735 105.247V106.825C64.4369 106.877 64.2089 106.904 64.0511 106.904C63.5953 106.904 63.2358 106.79 62.9728 106.562C62.7273 106.334 62.5958 106.018 62.5783 105.615L62.5257 104.537C61.8945 105.361 61.0967 105.992 60.1323 106.43C59.1855 106.869 58.1597 107.088 57.0551 107.088ZM57.4759 105.72C58.4052 105.72 59.2556 105.545 60.0271 105.194C60.8161 104.843 61.4123 104.379 61.8156 103.8C61.9734 103.642 62.0873 103.476 62.1575 103.3C62.2451 103.108 62.289 102.932 62.289 102.774V100.539C61.6928 100.311 61.0704 100.136 60.4216 100.013C59.7904 99.8901 59.1416 99.8287 58.4754 99.8287C57.2129 99.8287 56.1872 100.092 55.3982 100.618C54.6091 101.144 54.2146 101.836 54.2146 102.695C54.2146 103.116 54.2935 103.511 54.4513 103.879C54.6267 104.247 54.8546 104.572 55.1352 104.852C55.4332 105.115 55.7839 105.326 56.1872 105.483C56.5905 105.641 57.02 105.72 57.4759 105.72ZM77.5408 87.9933C77.5057 88.8174 77.1638 89.4486 76.5151 89.887C75.8838 90.3078 75.0071 90.5182 73.885 90.5182C72.7453 90.5182 71.8598 90.3078 71.2286 89.887C70.5974 89.4486 70.2555 88.8174 70.2029 87.9933H71.3338C71.3689 88.5895 71.5968 89.0103 72.0176 89.2558C72.4384 89.4837 73.0609 89.5977 73.885 89.5977C74.7091 89.5977 75.3227 89.4837 75.726 89.2558C76.1468 89.0278 76.3835 88.607 76.4361 87.9933H77.5408ZM69.7557 104.3L77.9353 93.122H79.3818V106.825H77.6197V95.8573L69.5979 106.825H67.9936V93.122H69.7557V104.3ZM88.4809 106.825H86.745V94.6737H81.932V93.122H93.294V94.6737H88.4809V106.825ZM95.8355 93.122H97.5976V97.9876H100.57C101.201 97.9876 101.797 98.0841 102.358 98.2769C102.919 98.4698 103.41 98.7504 103.831 99.1186C104.252 99.4868 104.585 99.9514 104.83 100.513C105.076 101.056 105.199 101.687 105.199 102.406C105.199 103.125 105.076 103.765 104.83 104.326C104.585 104.87 104.252 105.326 103.831 105.694C103.41 106.062 102.919 106.343 102.358 106.535C101.797 106.728 101.201 106.825 100.57 106.825H95.8355V93.122ZM106.908 93.122H108.644V106.825H106.908V93.122ZM100.57 105.299C101.481 105.299 102.183 105.045 102.674 104.537C103.182 104.011 103.436 103.3 103.436 102.406C103.436 101.512 103.182 100.811 102.674 100.302C102.165 99.7761 101.464 99.5131 100.57 99.5131H97.5976V105.299H100.57ZM118.416 99.5657L124.939 94.8841V96.4359L119.863 100.013L124.939 103.537V105.089L118.416 100.539V99.5657ZM124.202 99.5657L130.751 94.8841V96.4359L125.675 100.013L130.751 103.537V105.089L124.202 100.539V99.5657ZM145.197 106.825H143.461V94.6737H136.176V106.825H134.413V93.122H145.197V106.825ZM155.046 107.088C154.046 107.088 153.135 106.904 152.311 106.535C151.486 106.15 150.768 105.632 150.154 104.984C149.558 104.335 149.093 103.581 148.76 102.722C148.427 101.863 148.26 100.96 148.26 100.013C148.26 99.0484 148.427 98.1367 148.76 97.2775C149.111 96.4183 149.584 95.6644 150.18 95.0156C150.794 94.3669 151.513 93.8496 152.337 93.4639C153.161 93.0781 154.064 92.8853 155.046 92.8853C156.028 92.8853 156.931 93.0781 157.755 93.4639C158.596 93.8496 159.315 94.3669 159.911 95.0156C160.525 95.6644 160.999 96.4183 161.332 97.2775C161.682 98.1367 161.858 99.0484 161.858 100.013C161.858 100.96 161.691 101.863 161.358 102.722C161.025 103.581 160.551 104.335 159.938 104.984C159.342 105.632 158.623 106.15 157.781 106.535C156.957 106.904 156.045 107.088 155.046 107.088ZM150.075 100.039C150.075 100.811 150.206 101.529 150.469 102.196C150.732 102.845 151.083 103.423 151.522 103.932C151.977 104.423 152.503 104.808 153.1 105.089C153.713 105.369 154.362 105.51 155.046 105.51C155.73 105.51 156.37 105.369 156.966 105.089C157.579 104.791 158.114 104.396 158.57 103.905C159.026 103.397 159.385 102.809 159.648 102.143C159.911 101.477 160.043 100.758 160.043 99.9865C160.043 99.2325 159.911 98.5224 159.648 97.8561C159.385 97.1723 159.026 96.5849 158.57 96.094C158.114 95.5855 157.579 95.191 156.966 94.9104C156.37 94.6124 155.73 94.4633 155.046 94.4633C154.362 94.4633 153.722 94.6124 153.126 94.9104C152.53 95.191 152.004 95.5855 151.548 96.094C151.092 96.6025 150.732 97.1986 150.469 97.8824C150.206 98.5487 150.075 99.2676 150.075 100.039ZM162.759 105.273H163.548C163.934 105.185 164.267 104.992 164.547 104.694C164.846 104.379 165.109 103.905 165.336 103.274C165.564 102.625 165.766 101.784 165.941 100.749C166.117 99.6972 166.301 98.3909 166.494 96.8304L166.914 93.122H174.936V105.273H176.62V111.059H175.041V106.825H164.258V111.059H162.759V105.273ZM173.2 105.273V94.5422H168.571L168.177 97.5931C167.879 99.7673 167.554 101.468 167.204 102.695C166.871 103.923 166.467 104.782 165.994 105.273H173.2ZM194.268 93.122H196.267L191.086 99.7498L196.714 106.825H194.715L189.876 100.565H187.93V106.825H186.168V93.122H187.93V99.1712H189.718L194.268 93.122ZM197.066 105.326C197.557 105.29 197.986 105.159 198.355 104.931C198.723 104.686 199.038 104.256 199.302 103.642C199.582 103.011 199.819 102.152 200.012 101.065C200.222 99.9777 200.424 98.5662 200.617 96.8304L201.011 93.122H209.059V106.825H207.297V94.5422H202.668L202.3 97.5931C202.072 99.4166 201.818 100.925 201.537 102.117C201.257 103.292 200.923 104.238 200.538 104.957C200.169 105.659 199.722 106.158 199.196 106.456C198.67 106.737 198.057 106.895 197.355 106.93L197.066 105.326ZM217.057 99.1449C217.127 98.198 217.329 97.3389 217.662 96.5674C218.012 95.7784 218.46 95.1121 219.003 94.5685C219.547 94.025 220.178 93.6042 220.897 93.3061C221.616 93.008 222.387 92.859 223.211 92.859C224.158 92.859 225.017 93.0431 225.789 93.4113C226.578 93.762 227.244 94.2617 227.788 94.9104C228.349 95.5417 228.778 96.2956 229.076 97.1723C229.392 98.049 229.55 98.9958 229.55 100.013C229.55 101.1 229.383 102.082 229.05 102.958C228.734 103.818 228.287 104.554 227.709 105.168C227.148 105.781 226.481 106.255 225.71 106.588C224.938 106.921 224.097 107.088 223.185 107.088C222.308 107.088 221.51 106.939 220.792 106.641C220.073 106.325 219.441 105.895 218.898 105.352C218.372 104.791 217.951 104.116 217.635 103.327C217.32 102.538 217.127 101.67 217.057 100.723H214.795V106.825H213.059V93.122H214.795V99.1449H217.057ZM218.793 99.9865C218.793 101.74 219.196 103.099 220.003 104.063C220.809 105.027 221.879 105.51 223.211 105.51C223.913 105.51 224.544 105.378 225.105 105.115C225.683 104.852 226.166 104.484 226.551 104.011C226.937 103.52 227.235 102.941 227.446 102.275C227.656 101.591 227.761 100.828 227.761 99.9865C227.761 98.2506 227.34 96.9005 226.499 95.9362C225.657 94.9543 224.561 94.4633 223.211 94.4633C222.527 94.4633 221.914 94.5948 221.37 94.8578C220.827 95.1208 220.362 95.4978 219.976 95.9888C219.59 96.4622 219.292 97.0408 219.082 97.7246C218.889 98.4084 218.793 99.1624 218.793 99.9865ZM241.232 106.825H239.443V101.117C238.987 101.293 238.514 101.424 238.023 101.512C237.549 101.582 236.909 101.617 236.103 101.617C235.279 101.617 234.586 101.494 234.025 101.249C233.482 101.003 233.035 100.67 232.684 100.249C232.333 99.8287 232.079 99.329 231.921 98.7504C231.781 98.1542 231.711 97.5142 231.711 96.8304V93.122H233.473V96.5148C233.473 97.8123 233.727 98.7328 234.236 99.2764C234.744 99.8024 235.472 100.065 236.419 100.065C237.155 100.065 237.777 99.9953 238.286 99.855C238.794 99.6972 239.18 99.5131 239.443 99.3027V93.122H241.232V106.825ZM257.235 100.539L250.712 105.089V103.537L255.788 100.013L250.712 96.4359V94.8841L257.235 99.5657V100.539ZM251.449 100.539L244.9 105.089V103.537L249.976 100.013L244.9 96.4359V94.8841L251.449 99.5657V100.539Z" fill="#961600"/>
</svg>
