<svg width="244" height="194" viewBox="0 0 244 194" fill="none" xmlns="http://www.w3.org/2000/svg">
<g opacity="0.35">
<mask id="path-1-outside-1_407_235" maskUnits="userSpaceOnUse" x="0.771973" y="2.37183" width="195" height="192" fill="black">
<rect fill="white" x="0.771973" y="2.37183" width="195" height="192"/>
<path d="M99.437 172.007L83.7488 156.472L130.737 109.483H16.579V86.7885H130.737L83.7488 39.8763L99.437 24.2642L173.309 98.1358L99.437 172.007Z"/>
</mask>
<path d="M99.437 172.007L83.7488 156.472L130.737 109.483H16.579V86.7885H130.737L83.7488 39.8763L99.437 24.2642L173.309 98.1358L99.437 172.007Z" fill="#FFEAC8"/>
<path d="M99.437 172.007L88.5736 182.977L99.4901 193.788L110.354 182.924L99.437 172.007ZM83.7488 156.472L72.8321 145.555L61.8619 156.525L72.8854 167.441L83.7488 156.472ZM130.737 109.483L141.654 120.4L168.009 94.0444H130.737V109.483ZM16.579 109.483H1.14034V124.922H16.579V109.483ZM16.579 86.7885V71.3499H1.14034V86.7885H16.579ZM130.737 86.7885V102.227H168.052L141.645 75.8629L130.737 86.7885ZM83.7488 39.8763L72.8586 28.933L61.8798 39.8585L72.8409 50.8019L83.7488 39.8763ZM99.437 24.2642L110.354 13.3474L99.4635 2.4572L88.5468 13.3209L99.437 24.2642ZM173.309 98.1358L184.225 109.053L195.142 98.1358L184.225 87.219L173.309 98.1358ZM110.3 161.038L94.6122 145.502L72.8854 167.441L88.5736 182.977L110.3 161.038ZM94.6656 167.388L141.654 120.4L119.82 98.5663L72.8321 145.555L94.6656 167.388ZM130.737 94.0444H16.579V124.922H130.737V94.0444ZM32.0176 109.483V86.7885H1.14034V109.483H32.0176ZM16.579 102.227H130.737V71.3499H16.579V102.227ZM141.645 75.8629L94.6567 28.9506L72.8409 50.8019L119.829 97.7141L141.645 75.8629ZM94.639 50.8195L110.327 35.2075L88.5468 13.3209L72.8586 28.933L94.639 50.8195ZM88.5202 35.181L162.392 109.053L184.225 87.219L110.354 13.3474L88.5202 35.181ZM162.392 87.219L88.5202 161.091L110.354 182.924L184.225 109.053L162.392 87.219Z" fill="#FFEAC8" mask="url(#path-1-outside-1_407_235)"/>
</g>
<path d="M34.0538 105.624H34.4746C34.8253 105.589 35.1497 105.51 35.4477 105.387C35.7634 105.247 36.0527 105.019 36.3157 104.703C36.5962 104.37 36.8505 103.932 37.0784 103.388C37.3239 102.827 37.543 102.099 37.7359 101.205C37.9463 100.293 38.1392 99.2063 38.3145 97.9439C38.4899 96.6639 38.6477 95.1385 38.788 93.3676L39.1825 88.5808H48.9664V105.624H51.6228V112.146H49.9921V107.254H35.7108V112.146H34.0538V105.624ZM47.1516 105.624V90.2115H40.8657L40.6027 93.5254C40.4624 95.2963 40.2959 96.8568 40.103 98.2069C39.9277 99.5395 39.7085 100.705 39.4455 101.705C39.2 102.687 38.9107 103.502 38.5775 104.151C38.2444 104.782 37.8674 105.273 37.4466 105.624H47.1516ZM59.7053 107.517C58.7059 107.517 57.7941 107.333 56.97 106.965C56.146 106.579 55.4271 106.062 54.8134 105.413C54.2172 104.765 53.7526 104.011 53.4194 103.151C53.0863 102.292 52.9197 101.389 52.9197 100.442C52.9197 99.4781 53.0863 98.5664 53.4194 97.7072C53.7701 96.848 54.2435 96.0941 54.8397 95.4453C55.4534 94.7966 56.1723 94.2793 56.9963 93.8936C57.8204 93.5078 58.7234 93.315 59.7053 93.315C60.6872 93.315 61.5902 93.5078 62.4143 93.8936C63.2559 94.2793 63.9748 94.7966 64.571 95.4453C65.1847 96.0941 65.6581 96.848 65.9912 97.7072C66.3419 98.5664 66.5172 99.4781 66.5172 100.442C66.5172 101.389 66.3507 102.292 66.0175 103.151C65.6844 104.011 65.211 104.765 64.5973 105.413C64.0011 106.062 63.2822 106.579 62.4406 106.965C61.6165 107.333 60.7048 107.517 59.7053 107.517ZM54.7345 100.469C54.7345 101.24 54.866 101.959 55.129 102.625C55.392 103.274 55.7427 103.853 56.181 104.361C56.6369 104.852 57.1629 105.238 57.7591 105.519C58.3728 105.799 59.0215 105.939 59.7053 105.939C60.3892 105.939 61.0291 105.799 61.6253 105.519C62.239 105.22 62.7738 104.826 63.2296 104.335C63.6855 103.827 64.045 103.239 64.308 102.573C64.571 101.907 64.7025 101.188 64.7025 100.416C64.7025 99.6622 64.571 98.9521 64.308 98.2858C64.045 97.602 63.6855 97.0146 63.2296 96.5237C62.7738 96.0152 62.239 95.6207 61.6253 95.3401C61.0291 95.042 60.3892 94.893 59.7053 94.893C59.0215 94.893 58.3815 95.042 57.7854 95.3401C57.1892 95.6207 56.6632 96.0152 56.2073 96.5237C55.7514 97.0321 55.392 97.6283 55.129 98.3121C54.866 98.9784 54.7345 99.6973 54.7345 100.469ZM80.318 107.254H78.5821V95.1034H71.2968V107.254H69.5346V93.5517H80.318V107.254ZM90.167 107.517C89.1676 107.517 88.2558 107.333 87.4317 106.965C86.6077 106.579 85.8888 106.062 85.2751 105.413C84.6789 104.765 84.2143 104.011 83.8811 103.151C83.548 102.292 83.3814 101.389 83.3814 100.442C83.3814 99.4781 83.548 98.5664 83.8811 97.7072C84.2318 96.848 84.7052 96.0941 85.3014 95.4453C85.9151 94.7966 86.634 94.2793 87.458 93.8936C88.2821 93.5078 89.1851 93.315 90.167 93.315C91.1489 93.315 92.0519 93.5078 92.876 93.8936C93.7176 94.2793 94.4365 94.7966 95.0327 95.4453C95.6464 96.0941 96.1198 96.848 96.4529 97.7072C96.8036 98.5664 96.9789 99.4781 96.9789 100.442C96.9789 101.389 96.8124 102.292 96.4792 103.151C96.1461 104.011 95.6727 104.765 95.059 105.413C94.4628 106.062 93.7439 106.579 92.9023 106.965C92.0782 107.333 91.1665 107.517 90.167 107.517ZM85.1962 100.469C85.1962 101.24 85.3277 101.959 85.5907 102.625C85.8537 103.274 86.2044 103.853 86.6427 104.361C87.0986 104.852 87.6246 105.238 88.2208 105.519C88.8345 105.799 89.4832 105.939 90.167 105.939C90.8509 105.939 91.4908 105.799 92.087 105.519C92.7007 105.22 93.2355 104.826 93.6913 104.335C94.1472 103.827 94.5067 103.239 94.7697 102.573C95.0327 101.907 95.1642 101.188 95.1642 100.416C95.1642 99.6622 95.0327 98.9521 94.7697 98.2858C94.5067 97.602 94.1472 97.0146 93.6913 96.5237C93.2355 96.0152 92.7007 95.6207 92.087 95.3401C91.4908 95.042 90.8509 94.893 90.167 94.893C89.4832 94.893 88.8432 95.042 88.2471 95.3401C87.6509 95.6207 87.1249 96.0152 86.669 96.5237C86.2131 97.0321 85.8537 97.6283 85.5907 98.3121C85.3277 98.9784 85.1962 99.6973 85.1962 100.469ZM97.8214 105.755C98.3123 105.72 98.7419 105.589 99.1101 105.361C99.4783 105.115 99.794 104.686 100.057 104.072C100.338 103.441 100.574 102.582 100.767 101.495C100.977 100.407 101.179 98.9959 101.372 97.2601L101.767 93.5517H109.815V107.254H108.052V94.9719H103.423L103.055 98.0228C102.827 99.8463 102.573 101.354 102.293 102.547C102.012 103.721 101.679 104.668 101.293 105.387C100.925 106.088 100.478 106.588 99.9518 106.886C99.4257 107.167 98.8121 107.325 98.1107 107.36L97.8214 105.755ZM115.577 99.4693H123.257V93.5517H125.019V107.254H123.257V100.968H115.577V107.254H113.815V93.5517H115.577V99.4693ZM130.782 104.73L138.961 93.5517H140.408V107.254H138.646V96.2869L130.624 107.254H129.02V93.5517H130.782V104.73ZM149.533 107.254H147.797V95.1034H142.984V93.5517H154.346V95.1034H149.533V107.254ZM162.111 107.517C161.111 107.517 160.191 107.333 159.349 106.965C158.525 106.579 157.806 106.062 157.193 105.413C156.579 104.747 156.097 103.984 155.746 103.125C155.413 102.266 155.246 101.345 155.246 100.364C155.246 99.3992 155.413 98.4962 155.746 97.6546C156.097 96.7954 156.57 96.0502 157.166 95.419C157.78 94.7703 158.508 94.2618 159.349 93.8936C160.191 93.5078 161.103 93.315 162.085 93.315C163.084 93.315 163.996 93.5078 164.82 93.8936C165.662 94.2618 166.38 94.7703 166.977 95.419C167.573 96.0678 168.037 96.813 168.37 97.6546C168.704 98.4962 168.87 99.3904 168.87 100.337C168.87 100.478 168.87 100.618 168.87 100.758C168.87 100.898 168.861 100.995 168.844 101.047H157.114C157.166 101.784 157.333 102.468 157.613 103.099C157.912 103.713 158.289 104.247 158.744 104.703C159.2 105.159 159.718 105.519 160.296 105.782C160.892 106.027 161.524 106.15 162.19 106.15C162.628 106.15 163.066 106.088 163.505 105.966C163.943 105.843 164.346 105.676 164.715 105.466C165.083 105.256 165.416 105.001 165.714 104.703C166.012 104.388 166.24 104.046 166.398 103.677L167.95 104.098C167.739 104.607 167.441 105.071 167.055 105.492C166.67 105.896 166.223 106.255 165.714 106.571C165.206 106.869 164.645 107.097 164.031 107.254C163.417 107.43 162.777 107.517 162.111 107.517ZM167.161 99.6798C167.108 98.9433 166.933 98.277 166.635 97.6809C166.354 97.0672 165.986 96.5412 165.53 96.1028C165.092 95.6645 164.574 95.3226 163.978 95.0771C163.4 94.8316 162.777 94.7089 162.111 94.7089C161.445 94.7089 160.813 94.8316 160.217 95.0771C159.621 95.3226 159.095 95.6645 158.639 96.1028C158.201 96.5412 157.841 97.0672 157.561 97.6809C157.298 98.2946 157.14 98.9609 157.087 99.6798H167.161ZM169.558 105.755C170.049 105.72 170.478 105.589 170.847 105.361C171.215 105.115 171.53 104.686 171.794 104.072C172.074 103.441 172.311 102.582 172.504 101.495C172.714 100.407 172.916 98.9959 173.109 97.2601L173.503 93.5517H181.551V107.254H179.789V94.9719H175.16L174.792 98.0228C174.564 99.8463 174.31 101.354 174.029 102.547C173.749 103.721 173.415 104.668 173.03 105.387C172.661 106.088 172.214 106.588 171.688 106.886C171.162 107.167 170.549 107.325 169.847 107.36L169.558 105.755ZM185.551 93.5517H187.313V98.4173H190.285C190.916 98.4173 191.513 98.5138 192.074 98.7066C192.635 98.8995 193.126 99.18 193.547 99.5483C193.967 99.9165 194.301 100.381 194.546 100.942C194.791 101.486 194.914 102.117 194.914 102.836C194.914 103.555 194.791 104.195 194.546 104.756C194.301 105.299 193.967 105.755 193.547 106.123C193.126 106.492 192.635 106.772 192.074 106.965C191.513 107.158 190.916 107.254 190.285 107.254H185.551V93.5517ZM190.285 105.729C191.197 105.729 191.898 105.475 192.389 104.966C192.898 104.44 193.152 103.73 193.152 102.836C193.152 101.942 192.898 101.24 192.389 100.732C191.881 100.206 191.179 99.9428 190.285 99.9428H187.313V105.729H190.285ZM199.436 99.4693H207.116V93.5517H208.878V107.254H207.116V100.968H199.436V107.254H197.674V93.5517H199.436V99.4693ZM212.879 93.5517H214.641V98.4173H217.613C218.245 98.4173 218.841 98.5138 219.402 98.7066C219.963 98.8995 220.454 99.18 220.875 99.5483C221.296 99.9165 221.629 100.381 221.874 100.942C222.12 101.486 222.242 102.117 222.242 102.836C222.242 103.555 222.12 104.195 221.874 104.756C221.629 105.299 221.296 105.755 220.875 106.123C220.454 106.492 219.963 106.772 219.402 106.965C218.841 107.158 218.245 107.254 217.613 107.254H212.879V93.5517ZM223.952 93.5517H225.688V107.254H223.952V93.5517ZM217.613 105.729C218.525 105.729 219.227 105.475 219.718 104.966C220.226 104.44 220.48 103.73 220.48 102.836C220.48 101.942 220.226 101.24 219.718 100.732C219.209 100.206 218.508 99.9428 217.613 99.9428H214.641V105.729H217.613ZM235.568 107.517C234.569 107.517 233.648 107.333 232.807 106.965C231.983 106.579 231.264 106.062 230.65 105.413C230.036 104.747 229.554 103.984 229.203 103.125C228.87 102.266 228.704 101.345 228.704 100.364C228.704 99.3992 228.87 98.4962 229.203 97.6546C229.554 96.7954 230.028 96.0502 230.624 95.419C231.237 94.7703 231.965 94.2618 232.807 93.8936C233.648 93.5078 234.56 93.315 235.542 93.315C236.541 93.315 237.453 93.5078 238.277 93.8936C239.119 94.2618 239.838 94.7703 240.434 95.419C241.03 96.0678 241.495 96.813 241.828 97.6546C242.161 98.4962 242.328 99.3904 242.328 100.337C242.328 100.478 242.328 100.618 242.328 100.758C242.328 100.898 242.319 100.995 242.301 101.047H230.571C230.624 101.784 230.79 102.468 231.071 103.099C231.369 103.713 231.746 104.247 232.202 104.703C232.658 105.159 233.175 105.519 233.754 105.782C234.35 106.027 234.981 106.15 235.647 106.15C236.086 106.15 236.524 106.088 236.962 105.966C237.401 105.843 237.804 105.676 238.172 105.466C238.54 105.256 238.873 105.001 239.172 104.703C239.47 104.388 239.698 104.046 239.855 103.677L241.407 104.098C241.197 104.607 240.899 105.071 240.513 105.492C240.127 105.896 239.68 106.255 239.172 106.571C238.663 106.869 238.102 107.097 237.488 107.254C236.875 107.43 236.235 107.517 235.568 107.517ZM240.618 99.6798C240.565 98.9433 240.39 98.277 240.092 97.6809C239.811 97.0672 239.443 96.5412 238.987 96.1028C238.549 95.6645 238.032 95.3226 237.436 95.0771C236.857 94.8316 236.235 94.7089 235.568 94.7089C234.902 94.7089 234.271 94.8316 233.675 95.0771C233.078 95.3226 232.552 95.6645 232.097 96.1028C231.658 96.5412 231.299 97.0672 231.018 97.6809C230.755 98.2946 230.597 98.9609 230.545 99.6798H240.618ZM35.5793 141.884C35.8423 142.129 36.1053 142.296 36.3683 142.384C36.6313 142.471 36.9118 142.515 37.2099 142.515C37.4378 142.515 37.657 142.445 37.8674 142.305C38.0954 142.182 38.3145 141.954 38.5249 141.621C38.7529 141.305 38.9808 140.876 39.2088 140.332C39.4367 139.789 39.6909 139.096 39.9715 138.254L34.0012 124.552H35.8423L40.9183 136.597L45.6262 124.552H47.3357L40.9446 140.516C40.6816 141.2 40.4098 141.77 40.1293 142.226C39.8663 142.682 39.5857 143.05 39.2877 143.33C39.0071 143.611 38.7003 143.804 38.3671 143.909C38.0515 144.032 37.7009 144.093 37.3151 144.093C36.5261 144.093 35.9212 143.883 35.5003 143.462L35.5793 141.884ZM48.4249 131.364C48.4249 130.399 48.5915 129.487 48.9247 128.628C49.2578 127.769 49.7225 127.024 50.3186 126.393C50.9323 125.744 51.6599 125.235 52.5016 124.867C53.3432 124.499 54.2725 124.315 55.2895 124.315C56.587 124.315 57.7179 124.613 58.6823 125.209C59.6466 125.788 60.3743 126.577 60.8652 127.576L59.1294 128.129C58.7436 127.427 58.2001 126.884 57.4987 126.498C56.8149 126.095 56.0522 125.893 55.2106 125.893C54.5092 125.893 53.8517 126.033 53.238 126.314C52.6418 126.594 52.1158 126.98 51.6599 127.471C51.2216 127.944 50.8709 128.514 50.6079 129.181C50.3624 129.847 50.2397 130.575 50.2397 131.364C50.2397 132.135 50.3712 132.863 50.6342 133.547C50.8972 134.23 51.2567 134.827 51.7125 135.335C52.1684 135.826 52.6944 136.22 53.2906 136.519C53.9043 136.799 54.553 136.939 55.2369 136.939C55.6752 136.939 56.1048 136.878 56.5256 136.755C56.9639 136.633 57.3672 136.466 57.7354 136.256C58.1037 136.028 58.4193 135.773 58.6823 135.493C58.9453 135.212 59.1294 134.914 59.2346 134.599L60.9967 135.125C60.8039 135.616 60.5233 136.071 60.1551 136.492C59.7869 136.896 59.3486 137.255 58.8401 137.571C58.3491 137.869 57.7968 138.097 57.1831 138.254C56.587 138.43 55.9645 138.517 55.3158 138.517C54.3163 138.517 53.3958 138.333 52.5542 137.965C51.7125 137.579 50.9849 137.062 50.3712 136.413C49.7575 135.747 49.2753 134.984 48.9247 134.125C48.5915 133.266 48.4249 132.345 48.4249 131.364ZM61.8119 136.755C62.3028 136.72 62.7324 136.589 63.1006 136.361C63.4688 136.115 63.7844 135.686 64.0474 135.072C64.328 134.441 64.5647 133.582 64.7576 132.495C64.968 131.407 65.1696 129.996 65.3625 128.26L65.757 124.552H73.805V138.254H72.0429V125.972H67.4139L67.0457 129.023C66.8178 130.846 66.5635 132.354 66.283 133.547C66.0025 134.721 65.6693 135.668 65.2836 136.387C64.9154 137.088 64.4682 137.588 63.9422 137.886C63.4162 138.167 62.8025 138.325 62.1012 138.36L61.8119 136.755ZM77.7787 141.884C78.0417 142.129 78.3047 142.296 78.5678 142.384C78.8308 142.471 79.1113 142.515 79.4094 142.515C79.6373 142.515 79.8565 142.445 80.0669 142.305C80.2948 142.182 80.514 141.954 80.7244 141.621C80.9524 141.305 81.1803 140.876 81.4082 140.332C81.6362 139.789 81.8904 139.096 82.171 138.254L76.2007 124.552H78.0417L83.1178 136.597L87.8256 124.552H89.5352L83.1441 140.516C82.8811 141.2 82.6093 141.77 82.3288 142.226C82.0658 142.682 81.7852 143.05 81.4871 143.33C81.2066 143.611 80.8998 143.804 80.5666 143.909C80.251 144.032 79.9003 144.093 79.5146 144.093C78.7256 144.093 78.1206 143.883 77.6998 143.462L77.7787 141.884ZM100.424 125.919H93.822V138.254H92.0599V124.552H100.424V125.919ZM104.738 135.73L112.917 124.552H114.364V138.254H112.602V127.287L104.58 138.254H102.976V124.552H104.738V135.73Z" fill="#961600"/>
</svg>
