<svg width="269" height="353" viewBox="0 0 269 353" fill="none" xmlns="http://www.w3.org/2000/svg">
<g opacity="0.2">
<mask id="path-1-outside-1_230_18" maskUnits="userSpaceOnUse" x="43" y="82" width="214" height="211" fill="black">
<rect fill="white" x="43" y="82" width="214" height="211"/>
<path d="M148.573 268.189L165.801 251.128L114.201 199.529H239.562V174.607H114.201L165.801 123.091L148.573 105.947L67.4523 187.068L148.573 268.189Z"/>
</mask>
<path d="M148.573 268.189L165.801 251.128L114.201 199.529H239.562V174.607H114.201L165.801 123.091L148.573 105.947L67.4523 187.068L148.573 268.189Z" fill="#FFEAC8"/>
<path d="M148.573 268.189L160.503 280.235L148.515 292.106L136.585 280.177L148.573 268.189ZM165.801 251.128L177.789 239.14L189.836 251.187L177.73 263.175L165.801 251.128ZM114.201 199.529L102.213 211.517L73.2715 182.575H114.201V199.529ZM239.562 199.529H256.516V216.482H239.562V199.529ZM239.562 174.607V157.653H256.516V174.607H239.562ZM114.201 174.607V191.561H73.2245L102.223 162.609L114.201 174.607ZM165.801 123.091L177.76 111.074L189.816 123.072L177.779 135.089L165.801 123.091ZM148.573 105.947L136.585 93.9588L148.544 81.9999L160.532 93.9297L148.573 105.947ZM67.4523 187.068L55.4643 199.056L43.4762 187.068L55.4643 175.08L67.4523 187.068ZM136.644 256.142L153.871 239.082L177.73 263.175L160.503 280.235L136.644 256.142ZM153.813 263.116L102.213 211.517L126.189 187.541L177.789 239.14L153.813 263.116ZM114.201 182.575H239.562V216.482H114.201V182.575ZM222.609 199.529V174.607H256.516V199.529H222.609ZM239.562 191.561H114.201V157.653H239.562V191.561ZM102.223 162.609L153.823 111.093L177.779 135.089L126.18 186.605L102.223 162.609ZM153.842 135.108L136.614 117.964L160.532 93.9297L177.76 111.074L153.842 135.108ZM160.561 117.935L79.4404 199.056L55.4643 175.08L136.585 93.9588L160.561 117.935ZM79.4404 175.08L160.561 256.201L136.585 280.177L55.4643 199.056L79.4404 175.08Z" fill="#FFEAC8" mask="url(#path-1-outside-1_230_18)"/>
</g>
<path d="M16.1591 180H14.0455C13.9205 179.392 13.7017 178.858 13.3892 178.398C13.0824 177.938 12.7074 177.551 12.2642 177.239C11.8267 176.92 11.3409 176.682 10.8068 176.523C10.2727 176.364 9.71591 176.284 9.13636 176.284C8.07955 176.284 7.12216 176.551 6.2642 177.085C5.41193 177.619 4.73295 178.406 4.22727 179.446C3.72727 180.486 3.47727 181.761 3.47727 183.273C3.47727 184.784 3.72727 186.06 4.22727 187.099C4.73295 188.139 5.41193 188.926 6.2642 189.46C7.12216 189.994 8.07955 190.261 9.13636 190.261C9.71591 190.261 10.2727 190.182 10.8068 190.023C11.3409 189.864 11.8267 189.628 12.2642 189.315C12.7074 188.997 13.0824 188.608 13.3892 188.148C13.7017 187.682 13.9205 187.148 14.0455 186.545H16.1591C16 187.437 15.7102 188.236 15.2898 188.94C14.8693 189.645 14.3466 190.244 13.7216 190.739C13.0966 191.227 12.3949 191.599 11.6165 191.855C10.8438 192.111 10.017 192.239 9.13636 192.239C7.64773 192.239 6.32386 191.875 5.16477 191.148C4.00568 190.42 3.09375 189.386 2.42898 188.045C1.7642 186.705 1.43182 185.114 1.43182 183.273C1.43182 181.432 1.7642 179.841 2.42898 178.5C3.09375 177.159 4.00568 176.125 5.16477 175.398C6.32386 174.67 7.64773 174.307 9.13636 174.307C10.017 174.307 10.8438 174.435 11.6165 174.69C12.3949 174.946 13.0966 175.321 13.7216 175.815C14.3466 176.304 14.8693 176.901 15.2898 177.605C15.7102 178.304 16 179.102 16.1591 180ZM23.1541 192.307C22.3246 192.307 21.5717 192.151 20.8956 191.838C20.2195 191.52 19.6825 191.062 19.2848 190.466C18.8871 189.864 18.6882 189.136 18.6882 188.284C18.6882 187.534 18.8359 186.926 19.1314 186.46C19.4268 185.989 19.8217 185.619 20.3161 185.352C20.8104 185.085 21.3558 184.886 21.9524 184.756C22.5547 184.619 23.1598 184.511 23.7678 184.432C24.5632 184.33 25.2081 184.253 25.7024 184.202C26.2024 184.145 26.5661 184.051 26.7933 183.92C27.0263 183.79 27.1428 183.562 27.1428 183.239V183.17C27.1428 182.33 26.9126 181.676 26.4524 181.21C25.9979 180.744 25.3075 180.511 24.3814 180.511C23.4212 180.511 22.6683 180.722 22.1229 181.142C21.5774 181.562 21.1939 182.011 20.9723 182.489L19.0632 181.807C19.4041 181.011 19.8587 180.392 20.4268 179.949C21.0007 179.5 21.6257 179.187 22.3018 179.011C22.9837 178.83 23.6541 178.739 24.3132 178.739C24.7337 178.739 25.2166 178.79 25.7621 178.892C26.3132 178.989 26.8445 179.19 27.3558 179.497C27.8729 179.804 28.3018 180.267 28.6428 180.886C28.9837 181.506 29.1541 182.335 29.1541 183.375V192H27.1428V190.227H27.0405C26.9041 190.511 26.6768 190.815 26.3587 191.139C26.0405 191.463 25.6172 191.739 25.0888 191.966C24.5604 192.193 23.9155 192.307 23.1541 192.307ZM23.4609 190.5C24.2564 190.5 24.9268 190.344 25.4723 190.031C26.0234 189.719 26.4382 189.315 26.7166 188.821C27.0007 188.327 27.1428 187.807 27.1428 187.261V185.42C27.0575 185.523 26.87 185.616 26.5803 185.702C26.2962 185.781 25.9666 185.852 25.5916 185.915C25.2223 185.972 24.8615 186.023 24.5092 186.068C24.1626 186.108 23.8814 186.142 23.6655 186.17C23.1428 186.239 22.6541 186.349 22.1996 186.503C21.7507 186.651 21.3871 186.875 21.1087 187.176C20.8359 187.472 20.6996 187.875 20.6996 188.386C20.6996 189.085 20.9581 189.614 21.4751 189.972C21.9979 190.324 22.6598 190.5 23.4609 190.5ZM34.8366 189.034L41.1435 178.909H43.4616V192H41.4503V181.875L35.1776 192H32.8253V178.909H34.8366V189.034ZM39.8139 174.545H41.6889C41.6889 175.466 41.3707 176.219 40.7344 176.804C40.098 177.389 39.2344 177.682 38.1435 177.682C37.0696 177.682 36.2145 177.389 35.5781 176.804C34.9474 176.219 34.6321 175.466 34.6321 174.545H36.5071C36.5071 174.989 36.6293 175.378 36.8736 175.713C37.1236 176.048 37.5469 176.216 38.1435 176.216C38.7401 176.216 39.1662 176.048 39.4219 175.713C39.6832 175.378 39.8139 174.989 39.8139 174.545ZM45.3643 180.784V178.909H56.0007V180.784H51.7053V192H49.6939V180.784H45.3643ZM60.6733 183.648H64.4233C65.9574 183.648 67.1307 184.037 67.9432 184.815C68.7557 185.594 69.1619 186.58 69.1619 187.773C69.1619 188.557 68.9801 189.27 68.6165 189.912C68.2528 190.548 67.7188 191.057 67.0142 191.438C66.3097 191.812 65.446 192 64.4233 192H58.9347V178.909H60.946V190.125H64.4233C65.2188 190.125 65.8722 189.915 66.3835 189.494C66.8949 189.074 67.1506 188.534 67.1506 187.875C67.1506 187.182 66.8949 186.616 66.3835 186.179C65.8722 185.741 65.2188 185.523 64.4233 185.523H60.6733V183.648ZM71.2415 192V178.909H73.2528V192H71.2415ZM88.6619 190.125H86.8892L83.446 185.011V184.841H85.3892L88.6619 190.125ZM88.6619 179.659L85.3892 184.943H83.446V184.773L86.8892 179.659H88.6619ZM93.0256 190.125H91.2528L87.8097 185.011V184.841H89.7528L93.0256 190.125ZM93.0256 179.659L89.7528 184.943H87.8097V184.773L91.2528 179.659H93.0256ZM96.6456 192V178.909H106.941V192H104.93V180.784H98.657V192H96.6456ZM115.933 192.273C114.751 192.273 113.714 191.991 112.822 191.429C111.935 190.866 111.242 190.08 110.742 189.068C110.248 188.057 110.001 186.875 110.001 185.523C110.001 184.159 110.248 182.969 110.742 181.952C111.242 180.935 111.935 180.145 112.822 179.582C113.714 179.02 114.751 178.739 115.933 178.739C117.114 178.739 118.148 179.02 119.035 179.582C119.927 180.145 120.62 180.935 121.114 181.952C121.614 182.969 121.864 184.159 121.864 185.523C121.864 186.875 121.614 188.057 121.114 189.068C120.62 190.08 119.927 190.866 119.035 191.429C118.148 191.991 117.114 192.273 115.933 192.273ZM115.933 190.466C116.83 190.466 117.569 190.236 118.148 189.776C118.728 189.315 119.157 188.71 119.435 187.96C119.714 187.21 119.853 186.398 119.853 185.523C119.853 184.648 119.714 183.832 119.435 183.077C119.157 182.321 118.728 181.71 118.148 181.244C117.569 180.778 116.83 180.545 115.933 180.545C115.035 180.545 114.296 180.778 113.717 181.244C113.137 181.71 112.708 182.321 112.43 183.077C112.151 183.832 112.012 184.648 112.012 185.523C112.012 186.398 112.151 187.21 112.43 187.96C112.708 188.71 113.137 189.315 113.717 189.776C114.296 190.236 115.035 190.466 115.933 190.466ZM123.537 195.75V190.125H124.628C124.895 189.847 125.125 189.545 125.318 189.222C125.511 188.898 125.679 188.514 125.821 188.071C125.969 187.622 126.094 187.077 126.196 186.435C126.298 185.787 126.389 185.006 126.469 184.091L126.912 178.909H135.23V190.125H137.241V195.75H135.23V192H125.548V195.75H123.537ZM126.912 190.125H133.219V180.784H128.787L128.446 184.091C128.304 185.46 128.128 186.656 127.918 187.679C127.707 188.702 127.372 189.517 126.912 190.125ZM146.661 192V178.909H148.673V184.602H150.002L154.707 178.909H157.298L152.013 185.216L157.366 192H154.775L150.479 186.477H148.673V192H146.661ZM158.393 192V190.125H158.87C159.262 190.125 159.589 190.048 159.85 189.895C160.112 189.736 160.322 189.46 160.481 189.068C160.646 188.67 160.771 188.119 160.856 187.415C160.947 186.705 161.012 185.801 161.052 184.705L161.29 178.909H170.018V192H168.006V180.784H163.2L162.995 185.455C162.95 186.528 162.853 187.474 162.705 188.293C162.563 189.105 162.344 189.787 162.049 190.338C161.759 190.889 161.373 191.304 160.89 191.582C160.407 191.861 159.802 192 159.075 192H158.393ZM179.981 184.636V186.511H173.06V184.636H179.981ZM174.765 178.909V192H172.754V178.909H174.765ZM184.004 192.273C182.822 192.273 181.785 191.991 180.893 191.429C180.006 190.866 179.313 190.08 178.813 189.068C178.319 188.057 178.072 186.875 178.072 185.523C178.072 184.159 178.319 182.969 178.813 181.952C179.313 180.935 180.006 180.145 180.893 179.582C181.785 179.02 182.822 178.739 184.004 178.739C185.185 178.739 186.219 179.02 187.106 179.582C187.998 180.145 188.691 180.935 189.185 181.952C189.685 182.969 189.935 184.159 189.935 185.523C189.935 186.875 189.685 188.057 189.185 189.068C188.691 190.08 187.998 190.866 187.106 191.429C186.219 191.991 185.185 192.273 184.004 192.273ZM184.004 190.466C184.901 190.466 185.64 190.236 186.219 189.776C186.799 189.315 187.228 188.71 187.506 187.96C187.785 187.21 187.924 186.398 187.924 185.523C187.924 184.648 187.785 183.832 187.506 183.077C187.228 182.321 186.799 181.71 186.219 181.244C185.64 180.778 184.901 180.545 184.004 180.545C183.106 180.545 182.367 180.778 181.788 181.244C181.208 181.71 180.779 182.321 180.501 183.077C180.222 183.832 180.083 184.648 180.083 185.523C180.083 186.398 180.222 187.21 180.501 187.96C180.779 188.71 181.208 189.315 181.788 189.776C182.367 190.236 183.106 190.466 184.004 190.466ZM203.299 178.909V192H201.288V178.909H203.299ZM202.515 185.148V187.023C202.06 187.193 201.609 187.344 201.16 187.474C200.711 187.599 200.239 187.699 199.745 187.773C199.251 187.841 198.708 187.875 198.117 187.875C196.634 187.875 195.444 187.474 194.546 186.673C193.654 185.872 193.208 184.67 193.208 183.068V178.875H195.219V183.068C195.219 183.739 195.347 184.29 195.603 184.722C195.859 185.153 196.205 185.474 196.643 185.685C197.08 185.895 197.572 186 198.117 186C198.969 186 199.739 185.923 200.427 185.77C201.12 185.611 201.816 185.403 202.515 185.148ZM206.751 190.125L210.023 184.841H211.967V185.011L208.523 190.125H206.751ZM206.751 179.659H208.523L211.967 184.773V184.943H210.023L206.751 179.659ZM211.114 190.125L214.387 184.841H216.33V185.011L212.887 190.125H211.114ZM211.114 179.659H212.887L216.33 184.773V184.943H214.387L211.114 179.659Z" fill="#961600"/>
</svg>
