<svg width="257" height="211" viewBox="0 0 257 211" fill="none" xmlns="http://www.w3.org/2000/svg">
<g opacity="0.35">
<mask id="path-1-outside-1_336_155" maskUnits="userSpaceOnUse" x="43" y="0" width="214" height="211" fill="black">
<rect fill="white" x="43" width="214" height="211"/>
<path d="M148.573 186.189L165.801 169.128L114.201 117.529H239.562V92.6069H114.201L165.801 41.091L148.573 23.9469L67.4523 105.068L148.573 186.189Z"/>
</mask>
<path d="M148.573 186.189L165.801 169.128L114.201 117.529H239.562V92.6069H114.201L165.801 41.091L148.573 23.9469L67.4523 105.068L148.573 186.189Z" fill="#FFEAC8"/>
<path d="M148.573 186.189L160.503 198.235L148.515 210.106L136.585 198.177L148.573 186.189ZM165.801 169.128L177.789 157.14L189.836 169.187L177.73 181.175L165.801 169.128ZM114.201 117.529L102.213 129.517L73.2715 100.575H114.201V117.529ZM239.562 117.529H256.516V134.482H239.562V117.529ZM239.562 92.6069V75.6532H256.516V92.6069H239.562ZM114.201 92.6069V109.561H73.2245L102.223 80.6091L114.201 92.6069ZM165.801 41.091L177.76 29.0738L189.816 41.0715L177.779 53.0888L165.801 41.091ZM148.573 23.9469L136.585 11.9588L148.544 -9.91821e-05L160.532 11.9297L148.573 23.9469ZM67.4523 105.068L55.4643 117.056L43.4762 105.068L55.4643 93.0797L67.4523 105.068ZM136.644 174.142L153.871 157.082L177.73 181.175L160.503 198.235L136.644 174.142ZM153.813 181.116L102.213 129.517L126.189 105.541L177.789 157.14L153.813 181.116ZM114.201 100.575H239.562V134.482H114.201V100.575ZM222.609 117.529V92.6069H256.516V117.529H222.609ZM239.562 109.561H114.201V75.6532H239.562V109.561ZM102.223 80.6091L153.823 29.0932L177.779 53.0888L126.18 104.605L102.223 80.6091ZM153.842 53.1082L136.614 35.9641L160.532 11.9297L177.76 29.0738L153.842 53.1082ZM160.561 35.935L79.4404 117.056L55.4643 93.0797L136.585 11.9588L160.561 35.935ZM79.4404 93.0797L160.561 174.201L136.585 198.177L55.4643 117.056L79.4404 93.0797Z" fill="#FFEAC8" mask="url(#path-1-outside-1_336_155)"/>
</g>
<path d="M16.1591 99H14.0455C13.9205 98.392 13.7017 97.858 13.3892 97.3977C13.0824 96.9375 12.7074 96.5511 12.2642 96.2386C11.8267 95.9205 11.3409 95.6818 10.8068 95.5227C10.2727 95.3636 9.71591 95.2841 9.13636 95.2841C8.07955 95.2841 7.12216 95.5511 6.2642 96.0852C5.41193 96.6193 4.73295 97.4062 4.22727 98.446C3.72727 99.4858 3.47727 100.761 3.47727 102.273C3.47727 103.784 3.72727 105.06 4.22727 106.099C4.73295 107.139 5.41193 107.926 6.2642 108.46C7.12216 108.994 8.07955 109.261 9.13636 109.261C9.71591 109.261 10.2727 109.182 10.8068 109.023C11.3409 108.864 11.8267 108.628 12.2642 108.315C12.7074 107.997 13.0824 107.608 13.3892 107.148C13.7017 106.682 13.9205 106.148 14.0455 105.545H16.1591C16 106.437 15.7102 107.236 15.2898 107.94C14.8693 108.645 14.3466 109.244 13.7216 109.739C13.0966 110.227 12.3949 110.599 11.6165 110.855C10.8438 111.111 10.017 111.239 9.13636 111.239C7.64773 111.239 6.32386 110.875 5.16477 110.148C4.00568 109.42 3.09375 108.386 2.42898 107.045C1.7642 105.705 1.43182 104.114 1.43182 102.273C1.43182 100.432 1.7642 98.8409 2.42898 97.5C3.09375 96.1591 4.00568 95.125 5.16477 94.3977C6.32386 93.6705 7.64773 93.3068 9.13636 93.3068C10.017 93.3068 10.8438 93.4347 11.6165 93.6903C12.3949 93.946 13.0966 94.321 13.7216 94.8153C14.3466 95.304 14.8693 95.9006 15.2898 96.6051C15.7102 97.304 16 98.1023 16.1591 99ZM23.1541 111.307C22.3246 111.307 21.5717 111.151 20.8956 110.838C20.2195 110.52 19.6825 110.062 19.2848 109.466C18.8871 108.864 18.6882 108.136 18.6882 107.284C18.6882 106.534 18.8359 105.926 19.1314 105.46C19.4268 104.989 19.8217 104.619 20.3161 104.352C20.8104 104.085 21.3558 103.886 21.9524 103.756C22.5547 103.619 23.1598 103.511 23.7678 103.432C24.5632 103.33 25.2081 103.253 25.7024 103.202C26.2024 103.145 26.5661 103.051 26.7933 102.92C27.0263 102.79 27.1428 102.562 27.1428 102.239V102.17C27.1428 101.33 26.9126 100.676 26.4524 100.21C25.9979 99.7443 25.3075 99.5114 24.3814 99.5114C23.4212 99.5114 22.6683 99.7216 22.1229 100.142C21.5774 100.562 21.1939 101.011 20.9723 101.489L19.0632 100.807C19.4041 100.011 19.8587 99.392 20.4268 98.9489C21.0007 98.5 21.6257 98.1875 22.3018 98.0114C22.9837 97.8295 23.6541 97.7386 24.3132 97.7386C24.7337 97.7386 25.2166 97.7898 25.7621 97.892C26.3132 97.9886 26.8445 98.1903 27.3558 98.4972C27.8729 98.804 28.3018 99.267 28.6428 99.8864C28.9837 100.506 29.1541 101.335 29.1541 102.375V111H27.1428V109.227H27.0405C26.9041 109.511 26.6768 109.815 26.3587 110.139C26.0405 110.463 25.6172 110.739 25.0888 110.966C24.5604 111.193 23.9155 111.307 23.1541 111.307ZM23.4609 109.5C24.2564 109.5 24.9268 109.344 25.4723 109.031C26.0234 108.719 26.4382 108.315 26.7166 107.821C27.0007 107.327 27.1428 106.807 27.1428 106.261V104.42C27.0575 104.523 26.87 104.616 26.5803 104.702C26.2962 104.781 25.9666 104.852 25.5916 104.915C25.2223 104.972 24.8615 105.023 24.5092 105.068C24.1626 105.108 23.8814 105.142 23.6655 105.17C23.1428 105.239 22.6541 105.349 22.1996 105.503C21.7507 105.651 21.3871 105.875 21.1087 106.176C20.8359 106.472 20.6996 106.875 20.6996 107.386C20.6996 108.085 20.9581 108.614 21.4751 108.972C21.9979 109.324 22.6598 109.5 23.4609 109.5ZM34.8366 108.034L41.1435 97.9091H43.4616V111H41.4503V100.875L35.1776 111H32.8253V97.9091H34.8366V108.034ZM39.8139 93.5455H41.6889C41.6889 94.4659 41.3707 95.2188 40.7344 95.804C40.098 96.3892 39.2344 96.6818 38.1435 96.6818C37.0696 96.6818 36.2145 96.3892 35.5781 95.804C34.9474 95.2188 34.6321 94.4659 34.6321 93.5455H36.5071C36.5071 93.9886 36.6293 94.3778 36.8736 94.7131C37.1236 95.0483 37.5469 95.2159 38.1435 95.2159C38.7401 95.2159 39.1662 95.0483 39.4219 94.7131C39.6832 94.3778 39.8139 93.9886 39.8139 93.5455ZM45.3643 99.7841V97.9091H56.0007V99.7841H51.7053V111H49.6939V99.7841H45.3643ZM60.6733 102.648H64.4233C65.9574 102.648 67.1307 103.037 67.9432 103.815C68.7557 104.594 69.1619 105.58 69.1619 106.773C69.1619 107.557 68.9801 108.27 68.6165 108.912C68.2528 109.548 67.7188 110.057 67.0142 110.438C66.3097 110.812 65.446 111 64.4233 111H58.9347V97.9091H60.946V109.125H64.4233C65.2188 109.125 65.8722 108.915 66.3835 108.494C66.8949 108.074 67.1506 107.534 67.1506 106.875C67.1506 106.182 66.8949 105.616 66.3835 105.179C65.8722 104.741 65.2188 104.523 64.4233 104.523H60.6733V102.648ZM71.2415 111V97.9091H73.2528V111H71.2415ZM88.6619 109.125H86.8892L83.446 104.011V103.841H85.3892L88.6619 109.125ZM88.6619 98.6591L85.3892 103.943H83.446V103.773L86.8892 98.6591H88.6619ZM93.0256 109.125H91.2528L87.8097 104.011V103.841H89.7528L93.0256 109.125ZM93.0256 98.6591L89.7528 103.943H87.8097V103.773L91.2528 98.6591H93.0256ZM96.6456 111V97.9091H106.941V111H104.93V99.7841H98.657V111H96.6456ZM115.933 111.273C114.751 111.273 113.714 110.991 112.822 110.429C111.935 109.866 111.242 109.08 110.742 108.068C110.248 107.057 110.001 105.875 110.001 104.523C110.001 103.159 110.248 101.969 110.742 100.952C111.242 99.9347 111.935 99.1449 112.822 98.5824C113.714 98.0199 114.751 97.7386 115.933 97.7386C117.114 97.7386 118.148 98.0199 119.035 98.5824C119.927 99.1449 120.62 99.9347 121.114 100.952C121.614 101.969 121.864 103.159 121.864 104.523C121.864 105.875 121.614 107.057 121.114 108.068C120.62 109.08 119.927 109.866 119.035 110.429C118.148 110.991 117.114 111.273 115.933 111.273ZM115.933 109.466C116.83 109.466 117.569 109.236 118.148 108.776C118.728 108.315 119.157 107.71 119.435 106.96C119.714 106.21 119.853 105.398 119.853 104.523C119.853 103.648 119.714 102.832 119.435 102.077C119.157 101.321 118.728 100.71 118.148 100.244C117.569 99.7784 116.83 99.5455 115.933 99.5455C115.035 99.5455 114.296 99.7784 113.717 100.244C113.137 100.71 112.708 101.321 112.43 102.077C112.151 102.832 112.012 103.648 112.012 104.523C112.012 105.398 112.151 106.21 112.43 106.96C112.708 107.71 113.137 108.315 113.717 108.776C114.296 109.236 115.035 109.466 115.933 109.466ZM123.537 114.75V109.125H124.628C124.895 108.847 125.125 108.545 125.318 108.222C125.511 107.898 125.679 107.514 125.821 107.071C125.969 106.622 126.094 106.077 126.196 105.435C126.298 104.787 126.389 104.006 126.469 103.091L126.912 97.9091H135.23V109.125H137.241V114.75H135.23V111H125.548V114.75H123.537ZM126.912 109.125H133.219V99.7841H128.787L128.446 103.091C128.304 104.46 128.128 105.656 127.918 106.679C127.707 107.702 127.372 108.517 126.912 109.125ZM146.661 111V97.9091H148.673V103.602H150.002L154.707 97.9091H157.298L152.013 104.216L157.366 111H154.775L150.479 105.477H148.673V111H146.661ZM158.393 111V109.125H158.87C159.262 109.125 159.589 109.048 159.85 108.895C160.112 108.736 160.322 108.46 160.481 108.068C160.646 107.67 160.771 107.119 160.856 106.415C160.947 105.705 161.012 104.801 161.052 103.705L161.29 97.9091H170.018V111H168.006V99.7841H163.2L162.995 104.455C162.95 105.528 162.853 106.474 162.705 107.293C162.563 108.105 162.344 108.787 162.049 109.338C161.759 109.889 161.373 110.304 160.89 110.582C160.407 110.861 159.802 111 159.075 111H158.393ZM179.981 103.636V105.511H173.06V103.636H179.981ZM174.765 97.9091V111H172.754V97.9091H174.765ZM184.004 111.273C182.822 111.273 181.785 110.991 180.893 110.429C180.006 109.866 179.313 109.08 178.813 108.068C178.319 107.057 178.072 105.875 178.072 104.523C178.072 103.159 178.319 101.969 178.813 100.952C179.313 99.9347 180.006 99.1449 180.893 98.5824C181.785 98.0199 182.822 97.7386 184.004 97.7386C185.185 97.7386 186.219 98.0199 187.106 98.5824C187.998 99.1449 188.691 99.9347 189.185 100.952C189.685 101.969 189.935 103.159 189.935 104.523C189.935 105.875 189.685 107.057 189.185 108.068C188.691 109.08 187.998 109.866 187.106 110.429C186.219 110.991 185.185 111.273 184.004 111.273ZM184.004 109.466C184.901 109.466 185.64 109.236 186.219 108.776C186.799 108.315 187.228 107.71 187.506 106.96C187.785 106.21 187.924 105.398 187.924 104.523C187.924 103.648 187.785 102.832 187.506 102.077C187.228 101.321 186.799 100.71 186.219 100.244C185.64 99.7784 184.901 99.5455 184.004 99.5455C183.106 99.5455 182.367 99.7784 181.788 100.244C181.208 100.71 180.779 101.321 180.501 102.077C180.222 102.832 180.083 103.648 180.083 104.523C180.083 105.398 180.222 106.21 180.501 106.96C180.779 107.71 181.208 108.315 181.788 108.776C182.367 109.236 183.106 109.466 184.004 109.466ZM203.299 97.9091V111H201.288V97.9091H203.299ZM202.515 104.148V106.023C202.06 106.193 201.609 106.344 201.16 106.474C200.711 106.599 200.239 106.699 199.745 106.773C199.251 106.841 198.708 106.875 198.117 106.875C196.634 106.875 195.444 106.474 194.546 105.673C193.654 104.872 193.208 103.67 193.208 102.068V97.875H195.219V102.068C195.219 102.739 195.347 103.29 195.603 103.722C195.859 104.153 196.205 104.474 196.643 104.685C197.08 104.895 197.572 105 198.117 105C198.969 105 199.739 104.923 200.427 104.77C201.12 104.611 201.816 104.403 202.515 104.148ZM206.751 109.125L210.023 103.841H211.967V104.011L208.523 109.125H206.751ZM206.751 98.6591H208.523L211.967 103.773V103.943H210.023L206.751 98.6591ZM211.114 109.125L214.387 103.841H216.33V104.011L212.887 109.125H211.114ZM211.114 98.6591H212.887L216.33 103.773V103.943H214.387L211.114 98.6591Z" fill="#961600"/>
</svg>
