<svg width="248" height="211" viewBox="0 0 248 211" fill="none" xmlns="http://www.w3.org/2000/svg">
<g opacity="0.35">
<mask id="path-1-outside-1_336_154" maskUnits="userSpaceOnUse" x="0" y="-1" width="214" height="212" fill="black">
<rect fill="white" y="-1" width="214" height="212"/>
<path d="M108.427 186.189L91.1991 169.128L142.799 117.529H17.4377V92.6069H142.799L91.1991 41.091L108.427 23.9469L189.548 105.068L108.427 186.189Z"/>
</mask>
<path d="M108.427 186.189L91.1991 169.128L142.799 117.529H17.4377V92.6069H142.799L91.1991 41.091L108.427 23.9469L189.548 105.068L108.427 186.189Z" fill="#FFEAC8"/>
<path d="M108.427 186.189L96.4974 198.235L108.485 210.106L120.415 198.177L108.427 186.189ZM91.1991 169.128L79.211 157.14L67.1643 169.187L79.2697 181.175L91.1991 169.128ZM142.799 117.529L154.787 129.517L183.728 100.575H142.799V117.529ZM17.4377 117.529H0.48398V134.482H17.4377V117.529ZM17.4377 92.6069V75.6532H0.48398V92.6069H17.4377ZM142.799 92.6069V109.561H183.775L154.777 80.6091L142.799 92.6069ZM91.1991 41.091L79.2402 29.0738L67.184 41.0715L79.2208 53.0888L91.1991 41.091ZM108.427 23.9469L120.415 11.9588L108.456 -0.000101772L96.468 11.9297L108.427 23.9469ZM189.548 105.068L201.536 117.056L213.524 105.068L201.536 93.0797L189.548 105.068ZM120.356 174.142L103.129 157.082L79.2697 181.175L96.4974 198.235L120.356 174.142ZM103.187 181.116L154.787 129.517L130.811 105.541L79.211 157.14L103.187 181.116ZM142.799 100.575H17.4377V134.482H142.799V100.575ZM34.3914 117.529V92.6069H0.48398V117.529H34.3914ZM17.4377 109.561H142.799V75.6532H17.4377V109.561ZM154.777 80.6091L103.177 29.0932L79.2208 53.0888L130.82 104.605L154.777 80.6091ZM103.158 53.1082L120.386 35.9641L96.468 11.9297L79.2402 29.0738L103.158 53.1082ZM96.4388 35.935L177.56 117.056L201.536 93.0797L120.415 11.9588L96.4388 35.935ZM177.56 93.0797L96.4388 174.201L120.415 198.177L201.536 117.056L177.56 93.0797Z" fill="#FFEAC8" mask="url(#path-1-outside-1_336_154)"/>
</g>
<path d="M47.3441 103.227V97.125H48.4691C48.8555 96.7727 49.2191 96.2756 49.56 95.6335C49.9066 94.9858 50.1992 94.1222 50.4379 93.0426C50.6822 91.9574 50.8441 90.5795 50.9237 88.9091L51.2987 81.5455H61.6623V97.125H63.6737V103.193H61.6623V99H49.3555V103.227H47.3441ZM50.9918 97.125H59.6509V83.4205H53.2077L52.935 88.9091C52.8668 90.1818 52.7475 91.3352 52.5771 92.3693C52.4066 93.3977 52.1879 94.3097 51.9208 95.1051C51.6538 95.8949 51.3441 96.5682 50.9918 97.125ZM71.913 99.2727C70.7312 99.2727 69.6942 98.9915 68.8022 98.429C67.9158 97.8665 67.2227 97.0795 66.7227 96.0682C66.2283 95.0568 65.9812 93.875 65.9812 92.5227C65.9812 91.1591 66.2283 89.9687 66.7227 88.9517C67.2227 87.9347 67.9158 87.1449 68.8022 86.5824C69.6942 86.0199 70.7312 85.7386 71.913 85.7386C73.0948 85.7386 74.1289 86.0199 75.0153 86.5824C75.9073 87.1449 76.6005 87.9347 77.0948 88.9517C77.5948 89.9687 77.8448 91.1591 77.8448 92.5227C77.8448 93.875 77.5948 95.0568 77.0948 96.0682C76.6005 97.0795 75.9073 97.8665 75.0153 98.429C74.1289 98.9915 73.0948 99.2727 71.913 99.2727ZM71.913 97.4659C72.8107 97.4659 73.5494 97.2358 74.1289 96.7756C74.7085 96.3153 75.1374 95.7102 75.4158 94.9602C75.6942 94.2102 75.8335 93.3977 75.8335 92.5227C75.8335 91.6477 75.6942 90.8324 75.4158 90.0767C75.1374 89.321 74.7085 88.7102 74.1289 88.2443C73.5494 87.7784 72.8107 87.5455 71.913 87.5455C71.0153 87.5455 70.2766 87.7784 69.6971 88.2443C69.1175 88.7102 68.6886 89.321 68.4102 90.0767C68.1317 90.8324 67.9925 91.6477 67.9925 92.5227C67.9925 93.3977 68.1317 94.2102 68.4102 94.9602C68.6886 95.7102 69.1175 96.3153 69.6971 96.7756C70.2766 97.2358 71.0153 97.4659 71.913 97.4659ZM80.9151 99V85.9091H91.2106V99H89.1992V87.7841H82.9265V99H80.9151ZM100.202 99.2727C99.0202 99.2727 97.9833 98.9915 97.0913 98.429C96.2049 97.8665 95.5117 97.0795 95.0117 96.0682C94.5174 95.0568 94.2702 93.875 94.2702 92.5227C94.2702 91.1591 94.5174 89.9687 95.0117 88.9517C95.5117 87.9347 96.2049 87.1449 97.0913 86.5824C97.9833 86.0199 99.0202 85.7386 100.202 85.7386C101.384 85.7386 102.418 86.0199 103.304 86.5824C104.196 87.1449 104.89 87.9347 105.384 88.9517C105.884 89.9687 106.134 91.1591 106.134 92.5227C106.134 93.875 105.884 95.0568 105.384 96.0682C104.89 97.0795 104.196 97.8665 103.304 98.429C102.418 98.9915 101.384 99.2727 100.202 99.2727ZM100.202 97.4659C101.1 97.4659 101.838 97.2358 102.418 96.7756C102.998 96.3153 103.426 95.7102 103.705 94.9602C103.983 94.2102 104.123 93.3977 104.123 92.5227C104.123 91.6477 103.983 90.8324 103.705 90.0767C103.426 89.321 102.998 88.7102 102.418 88.2443C101.838 87.7784 101.1 87.5455 100.202 87.5455C99.3043 87.5455 98.5657 87.7784 97.9862 88.2443C97.4066 88.7102 96.9776 89.321 96.6992 90.0767C96.4208 90.8324 96.2816 91.6477 96.2816 92.5227C96.2816 93.3977 96.4208 94.2102 96.6992 94.9602C96.9776 95.7102 97.4066 96.3153 97.9862 96.7756C98.5657 97.2358 99.3043 97.4659 100.202 97.4659ZM108.045 99V97.125H108.522C108.914 97.125 109.241 97.0483 109.502 96.8949C109.764 96.7358 109.974 96.4602 110.133 96.0682C110.298 95.6705 110.423 95.1193 110.508 94.4148C110.599 93.7045 110.664 92.8011 110.704 91.7045L110.943 85.9091H119.67V99H117.659V87.7841H112.852L112.647 92.4545C112.602 93.5284 112.505 94.4744 112.358 95.2926C112.216 96.1051 111.997 96.7869 111.701 97.3381C111.412 97.8892 111.025 98.304 110.542 98.5824C110.059 98.8608 109.454 99 108.727 99H108.045ZM132.122 91.5341V93.4091H124.895V91.5341H132.122ZM125.372 85.9091V99H123.36V85.9091H125.372ZM133.656 85.9091V99H131.645V85.9091H133.656ZM139.341 96.0341L145.647 85.9091H147.966V99H145.954V88.875L139.681 99H137.329V85.9091H139.341V96.0341ZM149.868 87.7841V85.9091H160.505V87.7841H156.209V99H154.198V87.7841H149.868ZM168.248 99.2727C166.986 99.2727 165.898 98.9943 164.983 98.4375C164.074 97.875 163.373 97.0909 162.878 96.0852C162.39 95.0739 162.145 93.8977 162.145 92.5568C162.145 91.2159 162.39 90.0341 162.878 89.0114C163.373 87.983 164.06 87.1818 164.941 86.608C165.827 86.0284 166.861 85.7386 168.043 85.7386C168.725 85.7386 169.398 85.8523 170.063 86.0795C170.728 86.3068 171.333 86.6761 171.878 87.1875C172.424 87.6932 172.858 88.3636 173.182 89.1989C173.506 90.0341 173.668 91.0625 173.668 92.2841V93.1364H163.577V91.3977H171.623C171.623 90.6591 171.475 90 171.179 89.4205C170.89 88.8409 170.475 88.3835 169.935 88.0483C169.401 87.7131 168.77 87.5455 168.043 87.5455C167.242 87.5455 166.549 87.7443 165.963 88.142C165.384 88.5341 164.938 89.0455 164.625 89.6761C164.313 90.3068 164.157 90.983 164.157 91.7045V92.8636C164.157 93.8523 164.327 94.6903 164.668 95.3778C165.015 96.0597 165.495 96.5795 166.108 96.9375C166.722 97.2898 167.435 97.4659 168.248 97.4659C168.776 97.4659 169.253 97.392 169.679 97.2443C170.111 97.0909 170.483 96.8636 170.796 96.5625C171.108 96.2557 171.35 95.875 171.52 95.4205L173.463 95.9659C173.259 96.625 172.915 97.2045 172.432 97.7045C171.949 98.1989 171.353 98.5852 170.642 98.8636C169.932 99.1364 169.134 99.2727 168.248 99.2727ZM175.569 99V97.125H176.046C176.438 97.125 176.765 97.0483 177.026 96.8949C177.287 96.7358 177.498 96.4602 177.657 96.0682C177.821 95.6705 177.946 95.1193 178.032 94.4148C178.123 93.7045 178.188 92.8011 178.228 91.7045L178.466 85.9091H187.194V99H185.182V87.7841H180.375L180.171 92.4545C180.125 93.5284 180.029 94.4744 179.881 95.2926C179.739 96.1051 179.52 96.7869 179.225 97.3381C178.935 97.8892 178.549 98.304 178.066 98.5824C177.583 98.8608 176.978 99 176.25 99H175.569ZM192.623 90.6477H196.373C197.907 90.6477 199.08 91.0369 199.892 91.8153C200.705 92.5937 201.111 93.5795 201.111 94.7727C201.111 95.5568 200.929 96.2699 200.566 96.9119C200.202 97.5483 199.668 98.0568 198.963 98.4375C198.259 98.8125 197.395 99 196.373 99H190.884V85.9091H192.895V97.125H196.373C197.168 97.125 197.821 96.9148 198.333 96.4943C198.844 96.0739 199.1 95.5341 199.1 94.875C199.1 94.1818 198.844 93.6165 198.333 93.179C197.821 92.7415 197.168 92.5227 196.373 92.5227H192.623V90.6477ZM212.934 91.5341V93.4091H205.707V91.5341H212.934ZM206.184 85.9091V99H204.173V85.9091H206.184ZM214.468 85.9091V99H212.457V85.9091H214.468ZM219.88 90.6477H223.63C225.164 90.6477 226.338 91.0369 227.15 91.8153C227.963 92.5937 228.369 93.5795 228.369 94.7727C228.369 95.5568 228.187 96.2699 227.824 96.9119C227.46 97.5483 226.926 98.0568 226.221 98.4375C225.517 98.8125 224.653 99 223.63 99H218.142V85.9091H220.153V97.125H223.63C224.426 97.125 225.079 96.9148 225.591 96.4943C226.102 96.0739 226.358 95.5341 226.358 94.875C226.358 94.1818 226.102 93.6165 225.591 93.179C225.079 92.7415 224.426 92.5227 223.63 92.5227H219.88V90.6477ZM230.449 99V85.9091H232.46V99H230.449ZM241.63 99.2727C240.369 99.2727 239.281 98.9943 238.366 98.4375C237.457 97.875 236.755 97.0909 236.261 96.0852C235.772 95.0739 235.528 93.8977 235.528 92.5568C235.528 91.2159 235.772 90.0341 236.261 89.0114C236.755 87.983 237.443 87.1818 238.324 86.608C239.21 86.0284 240.244 85.7386 241.426 85.7386C242.108 85.7386 242.781 85.8523 243.446 86.0795C244.11 86.3068 244.716 86.6761 245.261 87.1875C245.806 87.6932 246.241 88.3636 246.565 89.1989C246.889 90.0341 247.051 91.0625 247.051 92.2841V93.1364H236.96V91.3977H245.005C245.005 90.6591 244.858 90 244.562 89.4205C244.272 88.8409 243.858 88.3835 243.318 88.0483C242.784 87.7131 242.153 87.5455 241.426 87.5455C240.625 87.5455 239.931 87.7443 239.346 88.142C238.767 88.5341 238.321 89.0455 238.008 89.6761C237.696 90.3068 237.539 90.983 237.539 91.7045V92.8636C237.539 93.8523 237.71 94.6903 238.051 95.3778C238.397 96.0597 238.877 96.5795 239.491 96.9375C240.105 97.2898 240.818 97.4659 241.63 97.4659C242.159 97.4659 242.636 97.392 243.062 97.2443C243.494 97.0909 243.866 96.8636 244.179 96.5625C244.491 96.2557 244.733 95.875 244.903 95.4205L246.846 95.9659C246.642 96.625 246.298 97.2045 245.815 97.7045C245.332 98.1989 244.735 98.5852 244.025 98.8636C243.315 99.1364 242.517 99.2727 241.63 99.2727ZM111.297 132.909C110.956 132.909 110.652 132.881 110.385 132.824C110.118 132.773 109.933 132.722 109.831 132.67L110.342 130.898C110.831 131.023 111.262 131.068 111.637 131.034C112.012 131 112.345 130.832 112.635 130.531C112.93 130.236 113.2 129.756 113.444 129.091L113.819 128.068L108.978 114.909H111.16L114.774 125.341H114.91L118.524 114.909H120.706L115.149 129.909C114.899 130.585 114.589 131.145 114.22 131.588C113.85 132.037 113.422 132.369 112.933 132.585C112.45 132.801 111.904 132.909 111.297 132.909ZM128.21 128.273C126.983 128.273 125.926 127.983 125.039 127.403C124.153 126.824 123.471 126.026 122.994 125.009C122.517 123.991 122.278 122.83 122.278 121.523C122.278 120.193 122.522 119.02 123.011 118.003C123.505 116.98 124.193 116.182 125.074 115.608C125.96 115.028 126.994 114.739 128.176 114.739C129.096 114.739 129.926 114.909 130.664 115.25C131.403 115.591 132.008 116.068 132.48 116.682C132.951 117.295 133.244 118.011 133.358 118.83H131.346C131.193 118.233 130.852 117.705 130.324 117.244C129.801 116.778 129.096 116.545 128.21 116.545C127.426 116.545 126.738 116.75 126.147 117.159C125.562 117.562 125.105 118.134 124.775 118.872C124.451 119.605 124.289 120.466 124.289 121.455C124.289 122.466 124.449 123.347 124.767 124.097C125.091 124.847 125.545 125.429 126.13 125.844C126.721 126.259 127.414 126.466 128.21 126.466C128.733 126.466 129.207 126.375 129.633 126.193C130.059 126.011 130.42 125.75 130.716 125.409C131.011 125.068 131.221 124.659 131.346 124.182H133.358C133.244 124.955 132.963 125.651 132.514 126.27C132.071 126.884 131.483 127.372 130.75 127.736C130.022 128.094 129.176 128.273 128.21 128.273ZM135.139 128V126.125H135.616C136.008 126.125 136.335 126.048 136.596 125.895C136.858 125.736 137.068 125.46 137.227 125.068C137.392 124.67 137.517 124.119 137.602 123.415C137.693 122.705 137.758 121.801 137.798 120.705L138.037 114.909H146.764V128H144.752V116.784H139.946L139.741 121.455C139.696 122.528 139.599 123.474 139.451 124.293C139.309 125.105 139.091 125.787 138.795 126.338C138.505 126.889 138.119 127.304 137.636 127.582C137.153 127.861 136.548 128 135.821 128H135.139ZM151.281 132.909C150.94 132.909 150.636 132.881 150.369 132.824C150.102 132.773 149.917 132.722 149.815 132.67L150.326 130.898C150.815 131.023 151.247 131.068 151.622 131.034C151.997 131 152.329 130.832 152.619 130.531C152.914 130.236 153.184 129.756 153.429 129.091L153.804 128.068L148.963 114.909H151.145L154.758 125.341H154.895L158.508 114.909H160.69L155.133 129.909C154.883 130.585 154.574 131.145 154.204 131.588C153.835 132.037 153.406 132.369 152.917 132.585C152.434 132.801 151.889 132.909 151.281 132.909ZM171.424 114.909V116.784H165.356V128H163.345V114.909H171.424ZM176.372 125.034L182.679 114.909H184.997V128H182.985V117.875L176.713 128H174.36V114.909H176.372V125.034Z" fill="#961600"/>
</svg>
