<svg width="236" height="187" viewBox="0 0 236 187" fill="none" xmlns="http://www.w3.org/2000/svg">
<circle cx="116.616" cy="93.4564" r="92.7578" stroke="#961600" stroke-width="1.39708"/>
<circle cx="116.616" cy="93.4564" r="86.2923" stroke="#961600" stroke-width="1.39708" stroke-dasharray="16.77 16.77"/>
<path d="M204.499 72.5567C208.103 74.6301 211.205 77.4909 213.41 81.2288C217.471 87.9322 222.77 93.3581 227.12 99.7666C228.746 102.002 230.318 104.506 230.388 107.971C230.008 111.35 228.393 115.231 225.755 118.324C223.303 121.597 220.046 123.792 216.925 125.497C212.21 127.946 207.596 128.864 203.084 129.735C189.242 132.261 175.649 133.837 162.118 135.233C153.455 136.09 144.851 136.751 136.321 137.194C129.891 137.446 123.454 137.685 117.291 137.223C113.53 136.914 110.183 135.732 106.368 135.547C92.6162 134.291 78.2052 134.655 64.4627 133.372C57.4092 132.689 50.2374 131.997 44.3873 128.985C41.8844 127.327 39.1935 125.943 36.2143 125.041C28.052 122.1 19.356 120.064 11.7242 116.223C8.92549 114.895 6.56263 112.914 4.45101 110.673C2.76958 108.616 1.74191 105.568 2.61288 101.867C3.34022 98.9546 5.15313 96.0786 6.85907 93.3349C13.5561 82.9992 22.7178 74.1974 32.2358 68.066C38.424 64.2039 44.8797 60.9805 50.9247 60.0335C56.0919 59.1876 60.9546 59.6363 64.9343 61.4992C66.0883 61.8652 66.9558 62.8038 68.241 62.8934C75.7424 57.9248 83.628 54.2645 90.9637 53.1568C94.7609 52.6216 98.3788 52.8167 101.494 53.9089C103.912 55.0018 106.457 56.0687 108.061 58.2575C108.172 58.6804 108.45 58.8037 108.902 58.6274C110.489 58.0954 112.078 57.0415 113.664 56.323C121.379 52.6205 129.289 51.2731 135.211 53.6729C137.682 54.6748 140.022 56.0006 141.784 57.9844C141.935 58.3469 142.234 58.4275 142.684 58.2283C146.224 56.9328 149.303 57.5512 152.79 56.4773C165.483 53.6094 177.616 55.7838 183.641 65.0924C184.673 66.3359 185.069 68.5935 187.136 68.4209C193.63 68.2672 199.452 69.8673 204.499 72.5567ZM195.072 71.2282C195.529 72.0775 196.224 72.7998 196.193 74.0353C196.222 76.8414 194.68 80.0558 193.224 83.0148C190.605 87.7328 187.529 92.4156 183.75 96.3613C182.216 97.8504 180.481 99.4991 178.745 99.7598C178.43 98.5061 179.912 97.1702 180.372 95.828C181.365 93.9004 181.523 93.3476 182.25 91.8504C184.728 86.7455 185.606 81.4905 185.516 76.8983C185.165 70.0727 182.018 64.9498 177.704 61.6439C171.796 57.2829 163.577 56.3473 154.884 57.7705C158.31 58.9542 160.784 62.0069 160.752 66.5942C160.578 70.9105 158.587 75.7805 156.075 80.248C153.327 85.2508 150.121 90.1623 146.394 94.6032C145.8 94.4464 145.374 93.9153 145.931 93.0037C148.066 88.6347 149.229 84.1309 149.424 80.0412C149.778 71.2494 146.182 64.6085 141.224 60.1287C138.541 57.8753 135.842 55.4908 132.116 54.8066C126.385 53.3902 119.238 55.1147 112.313 58.6381C114.275 59.1095 116.39 59.3179 118.075 60.2815C121.509 61.8715 124.396 64.7132 124.907 69.3019C126.353 75.6749 123.504 84.3755 118.745 91.7056C117.185 94.0409 115.674 96.5378 113.614 98.455C112.558 97.5895 113.871 95.3995 114.074 93.8562C116.553 81.9006 114.794 71.1147 109.979 63.5127C106.435 57.802 100.473 54.2756 92.941 54.7394C85.4993 55.2214 77.1818 58.7108 69.3699 63.934C70.19 64.6096 70.8311 65.5741 71.8837 65.9257C73.9441 65.5746 76.1129 64.913 77.9865 65.182C81.3488 65.3148 84.1138 67.0889 85.0809 70.3931C86.0735 73.1887 85.6747 76.9179 84.5538 80.6176C83.0366 85.5649 80.4875 90.5654 77.4894 95.2556C76.891 96.4679 75.5561 96.0924 76.0831 94.9476C78.0101 87.6265 77.524 80.8595 75.4191 75.541C72.8651 68.9529 68.0072 64.1892 61.4987 62.3911C55.2236 60.387 47.2099 61.6287 39.3011 65.7376C36.9715 67.0493 34.532 68.0147 32.3198 69.9278C30.431 70.7562 28.6225 72.2424 26.8373 73.6322C20.3443 78.5611 14.355 84.9668 9.40876 91.964C7.20285 95.3316 4.48443 98.96 4.01418 102.591C3.48243 106.402 5.43269 108.774 7.32413 110.701C10.7987 113.729 15.0204 115.78 19.4971 117.313C26.8853 120.226 34.9596 121.943 42.1308 125.228C44.3621 126.196 46.117 127.897 48.5013 128.628C55.1879 130.771 62.6534 131.38 70.0961 131.934C77.3391 132.372 84.6688 132.604 92.0025 132.827C98.9079 133.143 105.908 133.275 112.464 134.418C117.748 135.85 123.793 135.628 129.698 135.611C144.465 135.206 159.555 133.847 174.754 132.088C177.815 131.635 180.781 131.594 183.935 130.755C184.915 130.958 186.117 130.56 187.197 130.488C191.701 129.919 196.246 129.189 200.804 128.413C205.42 127.539 210.05 126.828 214.863 124.804C217.27 123.706 219.757 122.397 221.996 120.342C225.508 117.324 228.497 112.557 228.711 108.511C228.811 106.22 227.739 104.685 226.879 103.105C224.664 99.3435 221.968 96.058 219.233 92.8413C216.661 89.5628 214.208 86.1629 211.922 82.5936C208.055 76.65 202.217 72.6276 195.072 71.2282ZM190.829 71.1113C189.458 70.6411 188.031 70.2598 186.423 70.2896C186.437 72.2478 187.133 73.8133 187.11 75.8073C187.383 78.4037 186.787 81.377 186.488 84.2153C185.793 86.1219 185.361 88.0204 184.628 89.9337C183.868 92.1339 182.601 94.2885 181.744 96.4846C185.109 93.3362 187.93 89.426 190.292 85.4454C192.159 82.2111 194.099 78.7581 194.553 75.4579C194.611 72.8459 192.655 71.7657 190.829 71.1113ZM151.461 59.1434C149.174 58.7125 146.554 58.9517 143.887 59.6862C145.614 61.7018 147.233 63.8475 148.433 66.3865C150.2 69.4933 150.809 73.5411 151.239 77.6086C150.971 79.1907 151.031 80.6661 150.801 82.2476C150.491 84.2548 149.933 86.3243 149.385 88.3819C152.632 84.0106 155.324 79.2748 157.384 74.4802C158.826 70.8805 159.663 67.0449 158.68 64.2994C157.453 61.2394 154.788 59.3618 151.461 59.1434ZM117.158 62.2099C116.054 61.4958 114.677 61.2139 113.378 60.8357C112.457 60.6843 111.591 60.2781 110.466 60.7109C113.656 64.9259 115.599 70.3974 116.439 76.5138C116.846 78.9665 116.662 81.7495 116.999 84.2367C116.631 85.2471 116.735 86.1607 116.625 87.1112C116.512 89.3087 116.199 90.0042 115.922 92.255C119.375 87.4529 121.909 83.6992 123.085 78.5102C124.749 70.9341 122.617 64.067 117.158 62.2099ZM77.6643 67.0062C76.1942 67.0001 74.72 66.88 73.0801 67.4885C74.7326 69.8512 76.4273 72.2238 77.339 75.2647C77.6921 76.29 77.8264 77.5136 78.4713 78.3022C78.3072 79.7083 78.7594 80.8496 78.7842 82.1826C79.1601 84.8703 78.7736 87.9204 78.5915 90.8629C81.545 85.4293 84.1427 79.4303 83.9949 74.3033C83.951 70.0486 81.2639 67.3436 77.6643 67.0062Z" fill="#961600" stroke="#961600" stroke-width="0.156187"/>
<path d="M195.073 71.2143C202.217 72.6136 208.055 76.6358 211.921 82.5787C214.208 86.1476 216.66 89.5472 219.232 92.8253C221.966 96.0417 224.662 99.3269 226.877 103.088C227.737 104.668 228.809 106.203 228.709 108.494C228.495 112.539 225.506 117.306 221.995 120.323C219.756 122.378 217.27 123.687 214.862 124.785C210.05 126.809 205.42 127.519 200.804 128.394C196.248 129.169 191.702 129.9 187.2 130.468C186.119 130.54 184.917 130.939 183.938 130.735C181.197 129.631 177.65 130.355 174.467 130.271C167.813 130.495 161.067 130.982 154.534 130.859C146.188 130.859 138.208 129.949 129.944 129.733C116.309 129.407 103.696 126.687 91.3258 123.625C84.1562 122.065 76.8408 120.81 69.5935 119.409C63.4805 118.253 57.6744 116.494 51.6383 115.185C41.2919 112.844 30.708 110.656 22.2649 105.057C19.6265 103.209 17.1111 100.878 16.4308 97.0639C15.959 94.0909 17.5322 90.2567 19.4102 86.9424C22.0783 82.6971 25.1846 78.656 28.5606 74.9656C29.9836 73.4121 31.1923 71.6675 32.3368 69.9141C34.5488 68.0012 36.9881 67.0359 39.3175 65.7243C47.2255 61.6158 55.2385 60.3742 61.5129 62.3781C68.0208 64.176 72.8783 68.9393 75.432 75.5267C77.5367 80.8448 78.0228 87.611 76.0959 94.9315C75.5689 96.0762 76.9038 96.4516 77.5021 95.2394C80.4999 90.5497 83.0488 85.5497 84.5658 80.6029C85.6866 76.9035 86.0853 73.1747 85.0929 70.3794C84.1259 67.0755 81.3611 65.3016 77.9992 65.1688C76.1258 64.8998 73.9571 65.5613 71.8969 65.9124C70.8444 65.5609 70.2034 64.5964 69.3834 63.9209C77.1946 58.6982 85.5112 55.2091 92.9522 54.7272C100.483 54.2635 106.445 57.7895 109.989 63.4996C114.803 71.1009 116.562 81.8857 114.083 93.8401C113.88 95.3833 112.758 97.6058 115.033 95.4844C116.995 93.9673 117.194 94.0248 118.754 91.6897C123.512 84.3604 126.361 75.6606 124.915 69.2882C124.404 64.7 121.517 61.8585 118.084 60.2687C116.399 59.3052 114.284 59.0969 112.323 58.6255C119.246 55.1024 126.393 53.3781 132.124 54.7944C135.849 55.4785 138.548 57.8628 141.231 60.116C146.188 64.5953 149.784 71.2355 149.43 80.0265C149.235 84.1157 148.072 88.6192 145.937 92.9877C145.38 93.8992 145.806 94.4303 146.4 94.587C150.126 90.1466 153.332 85.2355 156.08 80.2333C158.592 75.7662 160.583 70.8967 160.756 66.5808C160.788 61.994 158.315 58.9416 154.889 57.758C163.581 56.3349 171.8 57.2704 177.707 61.631C182.021 64.9366 185.168 70.0589 185.518 76.8839C185.608 81.4756 184.73 86.7301 182.252 91.8345C181.48 93.1267 180.828 94.463 180.375 95.8117C179.915 97.1538 178.433 98.4896 178.748 99.7432C180.484 99.4825 182.218 97.8339 183.752 96.3449C187.531 92.3996 190.607 87.7173 193.225 82.9997C194.682 80.0411 196.223 76.827 196.195 74.0211C196.225 72.7858 195.531 72.0636 195.073 71.2143Z" fill="#FBAA1B" stroke="#FBAA1B" stroke-width="0.156187"/>
<path d="M151.528 59.0374C154.857 59.2559 157.523 61.1348 158.751 64.1967C159.735 66.944 158.897 70.7821 157.454 74.3841C155.393 79.1818 152.699 83.9206 149.45 88.2948C149.998 86.2359 150.556 84.165 150.867 82.1566C151.098 80.574 151.037 79.0977 151.306 77.5145C153.263 74.5015 153.668 71.3071 153.989 68.4036C154.354 64.5379 153.113 61.548 151.528 59.0374Z" fill="#F9CF8C" stroke="#F9CF8C" stroke-width="0.156187"/>
<path d="M143.968 59.5912C146.636 58.8568 149.255 58.6176 151.543 59.0485C153.127 61.5573 154.366 64.545 154.002 68.4079C153.681 71.3093 153.276 74.5014 151.32 77.5123C150.891 73.4452 150.281 69.3977 148.514 66.291C147.314 63.7523 145.696 61.6067 143.968 59.5912Z" fill="#F0C786" stroke="#F0C786" stroke-width="0.156187"/>
<path d="M117.217 62.1939C122.679 64.0517 124.812 70.9225 123.147 78.5028C121.97 83.6945 119.189 89.0924 115.734 93.8971C116.011 91.645 116.571 89.307 116.683 87.1084C116.794 86.1573 116.69 85.2432 117.058 84.2323C118.523 81.4027 118.804 78.616 119.238 75.9102C119.73 72.4689 120.234 68.8934 119.397 66.0902C118.878 64.6059 117.987 63.446 117.217 62.1939Z" fill="#F9CF8C" stroke="#F9CF8C" stroke-width="0.156187"/>
<path d="M113.453 60.8303C114.752 61.2084 116.129 61.4903 117.232 62.2043C118.001 63.4557 118.892 64.6147 119.411 66.0983C120.248 68.8999 119.744 72.4734 119.252 75.9127C118.819 78.6169 118.537 81.402 117.073 84.23C116.737 81.7429 116.92 78.9601 116.513 76.5075C115.673 70.3914 113.73 64.9202 110.541 60.7054C111.666 60.2727 112.532 60.6788 113.453 60.8303Z" fill="#F0C786" stroke="#F0C786" stroke-width="0.156187"/>
<path d="M174.405 130.358C177.587 130.442 181.133 129.719 183.873 130.823C180.72 131.661 177.755 131.702 174.695 132.155C159.501 133.913 144.417 135.272 129.655 135.677C123.752 135.694 117.709 135.915 112.427 134.485C105.874 133.342 98.8759 133.21 91.973 132.893C84.642 132.671 77.315 132.439 70.0745 132.001C62.6345 131.448 55.1717 130.839 48.4875 128.697C46.104 127.966 44.3498 126.265 42.1193 125.298C34.9507 122.014 26.8794 120.297 19.4938 117.385C15.0187 115.853 10.7985 113.803 7.32518 110.777C5.43442 108.85 3.48488 106.478 4.01642 102.669C4.48651 99.0395 7.20394 95.4124 9.40906 92.0461C14.3535 85.0515 20.3407 78.6481 26.8314 73.721C28.6159 72.3317 30.4238 70.8461 32.3119 70.0181C31.1676 71.771 29.9593 73.515 28.5366 75.0682C25.1615 78.7575 22.056 82.7975 19.3886 87.0417C17.5111 90.3551 15.9383 94.1882 16.41 97.1604C17.0901 100.974 19.6049 103.304 22.2425 105.151C30.6834 110.749 41.2646 112.936 51.6082 115.277C57.6427 116.585 63.4473 118.344 69.5586 119.499C76.8041 120.9 84.1175 122.155 91.2852 123.714C103.652 126.776 116.262 129.495 129.893 129.82C138.155 130.037 146.133 130.946 154.477 130.946C161.008 131.069 167.752 130.582 174.405 130.358Z" fill="#F4A10F" stroke="#F4A10F" stroke-width="0.156187"/>
<path d="M77.7254 67.0906C81.326 67.4279 84.0143 70.1341 84.0583 74.3904C84.2061 79.5193 81.6075 85.5206 78.6528 90.9562C78.835 88.0126 79.2216 84.9613 78.8456 82.2726C78.8208 80.9391 78.3685 79.7974 78.5326 78.3908C80.2123 73.869 79.0732 70.1068 77.7254 67.0906Z" fill="#F9CF8C" stroke="#F9CF8C" stroke-width="0.156187"/>
<path d="M73.158 67.5798C74.7975 66.9714 76.2715 67.0915 77.7413 67.0975C79.0882 70.112 80.2267 73.8719 78.5481 78.3909C77.9032 77.6025 77.769 76.3793 77.416 75.3542C76.5045 72.314 74.8102 69.9419 73.158 67.5798Z" fill="#F0C786" stroke="#F0C786" stroke-width="0.156187"/>
<mask id="path-12-outside-1_33_5282" maskUnits="userSpaceOnUse" x="11.1918" y="70.4045" width="209" height="55" fill="black">
<rect fill="white" x="11.1918" y="70.4045" width="209" height="55"/>
<path d="M22.8979 71.0138H33.5398C38.6697 71.0138 42.4353 72.2145 44.8365 74.6157C47.2923 76.9624 48.0563 80.4005 47.1286 84.9301C46.5829 87.7134 45.2458 90.3875 43.1174 92.9524C41.0436 95.5174 37.9875 98.0278 33.9491 100.484L31.7388 96.3087C34.1401 94.9444 36.1593 93.1435 37.7965 90.9059C39.4337 88.6684 40.4979 86.349 40.9891 83.9478C41.4802 81.2737 41.0709 79.3363 39.7612 78.1357C38.506 76.8805 35.9956 76.2529 32.23 76.2529H27.7277L23.7984 95.8994H33.5398L36.4049 97.7004C39.2973 98.4098 41.4256 99.8287 42.79 101.957C44.1543 104.085 44.5091 106.814 43.8542 110.143C42.981 114.4 40.8799 117.674 37.5509 119.966C34.2219 122.258 30.0743 123.405 25.1081 123.405H12.4198L22.8979 71.0138ZM24.8625 118.165C28.8464 118.165 31.848 117.429 33.8672 115.955C35.8864 114.427 37.1962 112.108 37.7965 108.997C38.3422 106.432 37.9329 104.495 36.5686 103.185C35.2043 101.821 32.5847 101.138 28.71 101.138H22.816L19.3779 118.165H24.8625ZM58.1405 123.732C54.9752 123.732 52.574 122.75 50.9367 120.785C49.3541 118.766 49.0267 115.437 49.9544 110.798L54.7842 86.7311H60.6781L55.8484 110.634C55.3026 113.527 55.2753 115.573 55.7665 116.774C56.2577 117.92 57.5129 118.493 59.5321 118.493C61.4967 118.493 63.516 117.92 65.5898 116.774C67.7181 115.573 69.7374 114.072 71.6474 112.272L74.3488 115.137C72.3842 117.483 69.9011 119.503 66.8995 121.194C63.898 122.886 60.9783 123.732 58.1405 123.732ZM69.4372 118.165L75.7405 86.7311H81.6344L75.3312 118.084L74.4307 123.405H69.1098L69.4372 118.165ZM102.142 76.2529L100.096 86.7311H113.03L111.965 91.9701H99.0314L94.8565 112.763C94.4745 114.618 94.5837 116.092 95.184 117.183C95.7843 118.22 97.1486 118.738 99.277 118.738C101.787 118.738 104.325 118.52 106.89 118.084L107.054 123.323C104.325 123.814 101.542 124.059 98.704 124.059C94.8292 124.059 92.0733 123.05 90.4361 121.031C88.7988 119.011 88.3895 115.928 89.2081 111.78L93.1374 92.052L87.0798 91.7245L88.0621 86.7311H94.2016L96.2481 76.2529H102.142ZM137.139 76.2529L135.093 86.7311H148.027L146.962 91.9701H134.028L129.854 112.763C129.471 114.618 129.581 116.092 130.181 117.183C130.781 118.22 132.146 118.738 134.274 118.738C136.784 118.738 139.322 118.52 141.887 118.084L142.051 123.323C139.322 123.814 136.539 124.059 133.701 124.059C129.826 124.059 127.07 123.05 125.433 121.031C123.796 119.011 123.387 115.928 124.205 111.78L128.134 92.052L122.077 91.7245L123.059 86.7311H129.199L131.245 76.2529H137.139ZM165.997 124.469C160.812 124.469 157.374 122.641 155.682 118.984C154.045 115.328 153.827 110.525 155.027 104.577C156.173 98.8464 158.193 94.2622 161.085 90.8241C164.032 87.3859 167.988 85.6669 172.955 85.6669C178.139 85.6669 181.577 87.4951 183.269 91.1515C184.961 94.808 185.206 99.6104 184.006 105.559C182.86 111.235 180.786 115.819 177.784 119.312C174.837 122.75 170.908 124.469 165.997 124.469ZM166.242 119.23C169.353 119.23 171.809 118.138 173.61 115.955C175.465 113.718 176.911 109.925 177.948 104.577C178.93 99.6104 178.985 96.0904 178.112 94.0166C177.293 91.9428 175.492 90.9059 172.709 90.9059C169.653 90.9059 167.224 92.0247 165.424 94.2622C163.623 96.4997 162.176 100.265 161.085 105.559C160.048 110.58 159.966 114.127 160.839 116.201C161.713 118.22 163.513 119.23 166.242 119.23ZM193.708 92.052L194.608 86.7311H199.929L199.602 91.9701L193.299 123.405H187.405L193.708 92.052ZM213.191 99.5013C213.736 96.6089 213.764 94.5897 213.273 93.4436C212.781 92.243 211.526 91.6427 209.507 91.6427C207.542 91.6427 205.496 92.243 203.367 93.4436C201.294 94.5897 199.302 96.0631 197.392 97.8641L194.69 94.999C196.655 92.6523 199.138 90.6331 202.14 88.9413C205.141 87.2495 208.061 86.4036 210.899 86.4036C214.064 86.4036 216.438 87.4132 218.02 89.4324C219.658 91.3971 220.012 94.6988 219.085 99.3376L214.255 123.405H208.361L213.191 99.5013Z"/>
</mask>
<path d="M22.8979 71.0138H33.5398C38.6697 71.0138 42.4353 72.2145 44.8365 74.6157C47.2923 76.9624 48.0563 80.4005 47.1286 84.9301C46.5829 87.7134 45.2458 90.3875 43.1174 92.9524C41.0436 95.5174 37.9875 98.0278 33.9491 100.484L31.7388 96.3087C34.1401 94.9444 36.1593 93.1435 37.7965 90.9059C39.4337 88.6684 40.4979 86.349 40.9891 83.9478C41.4802 81.2737 41.0709 79.3363 39.7612 78.1357C38.506 76.8805 35.9956 76.2529 32.23 76.2529H27.7277L23.7984 95.8994H33.5398L36.4049 97.7004C39.2973 98.4098 41.4256 99.8287 42.79 101.957C44.1543 104.085 44.5091 106.814 43.8542 110.143C42.981 114.4 40.8799 117.674 37.5509 119.966C34.2219 122.258 30.0743 123.405 25.1081 123.405H12.4198L22.8979 71.0138ZM24.8625 118.165C28.8464 118.165 31.848 117.429 33.8672 115.955C35.8864 114.427 37.1962 112.108 37.7965 108.997C38.3422 106.432 37.9329 104.495 36.5686 103.185C35.2043 101.821 32.5847 101.138 28.71 101.138H22.816L19.3779 118.165H24.8625ZM58.1405 123.732C54.9752 123.732 52.574 122.75 50.9367 120.785C49.3541 118.766 49.0267 115.437 49.9544 110.798L54.7842 86.7311H60.6781L55.8484 110.634C55.3026 113.527 55.2753 115.573 55.7665 116.774C56.2577 117.92 57.5129 118.493 59.5321 118.493C61.4967 118.493 63.516 117.92 65.5898 116.774C67.7181 115.573 69.7374 114.072 71.6474 112.272L74.3488 115.137C72.3842 117.483 69.9011 119.503 66.8995 121.194C63.898 122.886 60.9783 123.732 58.1405 123.732ZM69.4372 118.165L75.7405 86.7311H81.6344L75.3312 118.084L74.4307 123.405H69.1098L69.4372 118.165ZM102.142 76.2529L100.096 86.7311H113.03L111.965 91.9701H99.0314L94.8565 112.763C94.4745 114.618 94.5837 116.092 95.184 117.183C95.7843 118.22 97.1486 118.738 99.277 118.738C101.787 118.738 104.325 118.52 106.89 118.084L107.054 123.323C104.325 123.814 101.542 124.059 98.704 124.059C94.8292 124.059 92.0733 123.05 90.4361 121.031C88.7988 119.011 88.3895 115.928 89.2081 111.78L93.1374 92.052L87.0798 91.7245L88.0621 86.7311H94.2016L96.2481 76.2529H102.142ZM137.139 76.2529L135.093 86.7311H148.027L146.962 91.9701H134.028L129.854 112.763C129.471 114.618 129.581 116.092 130.181 117.183C130.781 118.22 132.146 118.738 134.274 118.738C136.784 118.738 139.322 118.52 141.887 118.084L142.051 123.323C139.322 123.814 136.539 124.059 133.701 124.059C129.826 124.059 127.07 123.05 125.433 121.031C123.796 119.011 123.387 115.928 124.205 111.78L128.134 92.052L122.077 91.7245L123.059 86.7311H129.199L131.245 76.2529H137.139ZM165.997 124.469C160.812 124.469 157.374 122.641 155.682 118.984C154.045 115.328 153.827 110.525 155.027 104.577C156.173 98.8464 158.193 94.2622 161.085 90.8241C164.032 87.3859 167.988 85.6669 172.955 85.6669C178.139 85.6669 181.577 87.4951 183.269 91.1515C184.961 94.808 185.206 99.6104 184.006 105.559C182.86 111.235 180.786 115.819 177.784 119.312C174.837 122.75 170.908 124.469 165.997 124.469ZM166.242 119.23C169.353 119.23 171.809 118.138 173.61 115.955C175.465 113.718 176.911 109.925 177.948 104.577C178.93 99.6104 178.985 96.0904 178.112 94.0166C177.293 91.9428 175.492 90.9059 172.709 90.9059C169.653 90.9059 167.224 92.0247 165.424 94.2622C163.623 96.4997 162.176 100.265 161.085 105.559C160.048 110.58 159.966 114.127 160.839 116.201C161.713 118.22 163.513 119.23 166.242 119.23ZM193.708 92.052L194.608 86.7311H199.929L199.602 91.9701L193.299 123.405H187.405L193.708 92.052ZM213.191 99.5013C213.736 96.6089 213.764 94.5897 213.273 93.4436C212.781 92.243 211.526 91.6427 209.507 91.6427C207.542 91.6427 205.496 92.243 203.367 93.4436C201.294 94.5897 199.302 96.0631 197.392 97.8641L194.69 94.999C196.655 92.6523 199.138 90.6331 202.14 88.9413C205.141 87.2495 208.061 86.4036 210.899 86.4036C214.064 86.4036 216.438 87.4132 218.02 89.4324C219.658 91.3971 220.012 94.6988 219.085 99.3376L214.255 123.405H208.361L213.191 99.5013Z" fill="#961600"/>
<path d="M22.8979 71.0138V70.6646H22.6116L22.5554 70.9453L22.8979 71.0138ZM44.8365 74.6157L44.5895 74.8627L44.5952 74.8682L44.8365 74.6157ZM47.1286 84.9301L46.7864 84.86L46.7859 84.8629L47.1286 84.9301ZM43.1174 92.9524L42.8486 92.7294L42.8458 92.7329L43.1174 92.9524ZM33.9491 100.484L33.6404 100.647L33.8138 100.975L34.1305 100.782L33.9491 100.484ZM31.7388 96.3087L31.5663 96.0051L31.2715 96.1725L31.4301 96.4721L31.7388 96.3087ZM40.9891 83.9478L41.3313 84.0178L41.3326 84.0109L40.9891 83.9478ZM39.7612 78.1357L39.5142 78.3827L39.5195 78.388L39.5251 78.3932L39.7612 78.1357ZM27.7277 76.2529V75.9036H27.4413L27.3852 76.1844L27.7277 76.2529ZM23.7984 95.8994L23.4559 95.8309L23.3723 96.2487H23.7984V95.8994ZM33.5398 95.8994L33.7256 95.6037L33.6404 95.5502H33.5398V95.8994ZM36.4049 97.7004L36.219 97.9961L36.2668 98.0261L36.3217 98.0396L36.4049 97.7004ZM43.8542 110.143L44.1963 110.213L44.1969 110.211L43.8542 110.143ZM12.4198 123.405L12.0773 123.336L11.9937 123.754H12.4198V123.405ZM33.8672 115.955L34.0731 116.237L34.078 116.234L33.8672 115.955ZM37.7965 108.997L37.4548 108.924L37.4536 108.931L37.7965 108.997ZM36.5686 103.185L36.3216 103.432L36.3267 103.437L36.5686 103.185ZM22.816 101.138V100.789H22.5302L22.4737 101.069L22.816 101.138ZM19.3779 118.165L19.0355 118.096L18.951 118.515H19.3779V118.165ZM22.8979 71.3631H33.5398V70.6646H22.8979V71.3631ZM33.5398 71.3631C38.6237 71.3631 42.2807 72.5538 44.5895 74.8627L45.0835 74.3687C42.5898 71.8751 38.7157 70.6646 33.5398 70.6646V71.3631ZM44.5952 74.8682C46.9342 77.1033 47.6998 80.4009 46.7864 84.86L47.4708 85.0002C48.4129 80.4002 47.6504 76.8215 45.0778 74.3632L44.5952 74.8682ZM46.7859 84.8629C46.2532 87.5796 44.9463 90.2015 42.8486 92.7294L43.3862 93.1755C45.5453 90.5735 46.9125 87.8472 47.4713 84.9973L46.7859 84.8629ZM42.8458 92.7329C40.8057 95.2562 37.7853 97.742 33.7676 100.185L34.1305 100.782C38.1897 98.3136 41.2816 95.7786 43.389 93.172L42.8458 92.7329ZM34.2577 100.32L32.0475 96.1453L31.4301 96.4721L33.6404 100.647L34.2577 100.32ZM31.9114 96.6124C34.3557 95.2236 36.4121 93.3894 38.0784 91.1122L37.5146 90.6997C35.9065 92.8975 33.9244 94.6652 31.5663 96.0051L31.9114 96.6124ZM38.0784 91.1122C39.7414 88.8394 40.8288 86.4743 41.3312 84.0178L40.6469 83.8778C40.167 86.2237 39.1261 88.4974 37.5146 90.6997L38.0784 91.1122ZM41.3326 84.0109C41.8332 81.2851 41.436 79.1972 39.9972 77.8782L39.5251 78.3932C40.7058 79.4755 41.1272 81.2623 40.6455 83.8847L41.3326 84.0109ZM40.0081 77.8887C39.3198 77.2004 38.3119 76.7073 37.0217 76.3848C35.7294 76.0617 34.1296 75.9036 32.23 75.9036V76.6022C34.0959 76.6022 35.6342 76.7579 36.8523 77.0625C38.0724 77.3675 38.9473 77.8158 39.5142 78.3827L40.0081 77.8887ZM32.23 75.9036H27.7277V76.6022H32.23V75.9036ZM27.3852 76.1844L23.4559 95.8309L24.1408 95.9679L28.0702 76.3214L27.3852 76.1844ZM23.7984 96.2487H33.5398V95.5502H23.7984V96.2487ZM33.3539 96.1951L36.219 97.9961L36.5907 97.4046L33.7256 95.6037L33.3539 96.1951ZM36.3217 98.0396C39.1436 98.7317 41.1884 100.106 42.4959 102.146L43.084 101.769C41.6629 99.5516 39.4509 98.0879 36.4881 97.3611L36.3217 98.0396ZM42.4959 102.146C43.797 104.175 44.1551 106.804 43.5115 110.076L44.1969 110.211C44.8631 106.824 44.5117 103.996 43.084 101.769L42.4959 102.146ZM43.512 110.073C42.6555 114.249 40.6016 117.442 37.3528 119.679L37.749 120.254C41.1582 117.907 43.3065 114.551 44.1963 110.213L43.512 110.073ZM37.3528 119.679C34.0943 121.922 30.0199 123.055 25.1081 123.055V123.754C30.1287 123.754 34.3496 122.595 37.749 120.254L37.3528 119.679ZM25.1081 123.055H12.4198V123.754H25.1081V123.055ZM12.7622 123.473L23.2404 71.0823L22.5554 70.9453L12.0773 123.336L12.7622 123.473ZM24.8625 118.515C28.8798 118.515 31.968 117.774 34.0731 116.237L33.6613 115.673C31.728 117.084 28.813 117.816 24.8625 117.816V118.515ZM34.078 116.234C36.182 114.642 37.5271 112.237 38.1394 109.063L37.4536 108.931C36.8653 111.979 35.5909 114.213 33.6564 115.677L34.078 116.234ZM38.1381 109.07C38.6982 106.437 38.2937 104.357 36.8105 102.933L36.3267 103.437C37.5722 104.633 37.9862 106.427 37.4549 108.924L38.1381 109.07ZM36.8156 102.938C35.3449 101.467 32.5965 100.789 28.71 100.789V101.488C32.573 101.488 35.0636 102.174 36.3216 103.432L36.8156 102.938ZM28.71 100.789H22.816V101.488H28.71V100.789ZM22.4737 101.069L19.0355 118.096L19.7203 118.235L23.1584 101.208L22.4737 101.069ZM19.3779 118.515H24.8625V117.816H19.3779V118.515ZM50.9367 120.785L50.6617 121.001L50.6684 121.009L50.9367 120.785ZM49.9544 110.798L49.612 110.729L49.6119 110.73L49.9544 110.798ZM54.7842 86.7311V86.3818H54.498L54.4417 86.6623L54.7842 86.7311ZM60.6781 86.7311L61.0205 86.8002L61.105 86.3818H60.6781V86.7311ZM55.8484 110.634L55.506 110.565L55.5052 110.57L55.8484 110.634ZM55.7665 116.774L55.4432 116.906L55.4455 116.911L55.7665 116.774ZM65.5898 116.774L65.7587 117.08L65.7614 117.078L65.5898 116.774ZM71.6474 112.272L71.9016 112.032L71.662 111.778L71.4078 112.017L71.6474 112.272ZM74.3488 115.137L74.6166 115.361L74.8159 115.123L74.603 114.897L74.3488 115.137ZM66.8995 121.194L66.728 120.89L66.8995 121.194ZM69.4372 118.165L69.0948 118.097L69.0901 118.12L69.0886 118.144L69.4372 118.165ZM75.7405 86.7311V86.3818H75.4543L75.398 86.6624L75.7405 86.7311ZM81.6344 86.7311L81.9768 86.7999L82.0609 86.3818H81.6344V86.7311ZM75.3312 118.084L74.9886 118.015L74.9868 118.025L75.3312 118.084ZM74.4307 123.405V123.754H74.7258L74.7751 123.463L74.4307 123.405ZM69.1098 123.405L68.7612 123.383L68.738 123.754H69.1098V123.405ZM58.1405 123.383C55.0519 123.383 52.7604 122.428 51.2051 120.561L50.6684 121.009C52.3875 123.071 54.8984 124.081 58.1405 124.081V123.383ZM51.2116 120.57C49.7283 118.677 49.3735 115.483 50.2969 110.867L49.6119 110.73C48.6798 115.39 48.9799 118.854 50.6618 121L51.2116 120.57ZM50.2969 110.867L55.1266 86.7998L54.4417 86.6623L49.612 110.729L50.2969 110.867ZM54.7842 87.0803H60.6781V86.3818H54.7842V87.0803ZM60.3358 86.6619L55.506 110.565L56.1907 110.703L61.0205 86.8002L60.3358 86.6619ZM55.5052 110.57C55.23 112.028 55.0834 113.284 55.0694 114.334C55.0554 115.38 55.1726 116.245 55.4432 116.906L56.0898 116.642C55.8692 116.103 55.7545 115.344 55.7678 114.343C55.7811 113.347 55.921 112.133 56.1916 110.699L55.5052 110.57ZM55.4455 116.911C56.0216 118.256 57.4692 118.842 59.5321 118.842V118.144C57.5565 118.144 56.4938 117.584 56.0875 116.636L55.4455 116.911ZM59.5321 118.842C61.5669 118.842 63.6438 118.248 65.7587 117.08L65.4208 116.468C63.3881 117.591 61.4266 118.144 59.5321 118.144V118.842ZM65.7614 117.078C67.9161 115.863 69.9579 114.345 71.887 112.526L71.4078 112.017C69.5168 113.8 67.5202 115.284 65.4182 116.47L65.7614 117.078ZM71.3933 112.511L74.0947 115.376L74.603 114.897L71.9016 112.032L71.3933 112.511ZM74.081 114.912C72.1466 117.223 69.6975 119.216 66.728 120.89L67.071 121.499C70.1047 119.789 72.6218 117.744 74.6166 115.361L74.081 114.912ZM66.728 120.89C63.7677 122.559 60.9066 123.383 58.1405 123.383V124.081C61.05 124.081 64.0283 123.214 67.071 121.499L66.728 120.89ZM69.7797 118.234L76.0829 86.7997L75.398 86.6624L69.0948 118.097L69.7797 118.234ZM75.7405 87.0803H81.6344V86.3818H75.7405V87.0803ZM81.292 86.6622L74.9887 118.015L75.6736 118.152L81.9768 86.7999L81.292 86.6622ZM74.9868 118.025L74.0863 123.346L74.7751 123.463L75.6755 118.142L74.9868 118.025ZM74.4307 123.055H69.1098V123.754H74.4307V123.055ZM69.4584 123.426L69.7858 118.187L69.0886 118.144L68.7612 123.383L69.4584 123.426ZM102.142 76.2529L102.485 76.3199L102.566 75.9036H102.142V76.2529ZM100.096 86.7311L99.7528 86.6641L99.6715 87.0803H100.096V86.7311ZM113.03 86.7311L113.372 86.8006L113.457 86.3818H113.03V86.7311ZM111.965 91.9701V92.3194H112.251L112.308 92.0396L111.965 91.9701ZM99.0314 91.9701V91.6208H98.7453L98.689 91.9014L99.0314 91.9701ZM94.8565 112.763L95.1986 112.833L95.199 112.831L94.8565 112.763ZM95.184 117.183L94.8779 117.352L94.8817 117.358L95.184 117.183ZM106.89 118.084L107.239 118.073L107.227 117.672L106.831 117.739L106.89 118.084ZM107.054 123.323L107.116 123.666L107.412 123.613L107.403 123.312L107.054 123.323ZM89.2081 111.78L88.8656 111.712L88.8655 111.713L89.2081 111.78ZM93.1375 92.052L93.48 92.1202L93.5587 91.725L93.1563 91.7032L93.1375 92.052ZM87.0798 91.7245L86.7371 91.6571L86.6595 92.0516L87.0609 92.0733L87.0798 91.7245ZM88.0621 86.7311V86.3818H87.7748L87.7194 86.6636L88.0621 86.7311ZM94.2016 86.7311V87.0803H94.4893L94.5444 86.798L94.2016 86.7311ZM96.2481 76.2529V75.9036H95.9605L95.9053 76.186L96.2481 76.2529ZM101.799 76.186L99.7528 86.6641L100.438 86.798L102.485 76.3199L101.799 76.186ZM100.096 87.0803H113.03V86.3818H100.096V87.0803ZM112.687 86.6615L111.623 91.9006L112.308 92.0396L113.372 86.8006L112.687 86.6615ZM111.965 91.6208H99.0314V92.3194H111.965V91.6208ZM98.689 91.9014L94.5141 112.694L95.199 112.831L99.3738 92.0389L98.689 91.9014ZM94.5144 112.692C94.124 114.588 94.2213 116.158 94.8779 117.351L95.49 117.015C94.946 116.026 94.825 114.648 95.1986 112.833L94.5144 112.692ZM94.8817 117.358C95.5814 118.567 97.1214 119.088 99.277 119.088V118.389C97.1758 118.389 95.9872 117.873 95.4862 117.008L94.8817 117.358ZM99.277 119.088C101.808 119.088 104.365 118.868 106.949 118.428L106.831 117.739C104.285 118.173 101.767 118.389 99.277 118.389V119.088ZM106.541 118.095L106.705 123.334L107.403 123.312L107.239 118.073L106.541 118.095ZM106.992 122.979C104.284 123.466 101.522 123.71 98.704 123.71V124.409C101.562 124.409 104.366 124.161 107.116 123.666L106.992 122.979ZM98.704 123.71C94.8816 123.71 92.2509 122.714 90.7074 120.811L90.1648 121.251C91.8957 123.385 94.7769 124.409 98.704 124.409V123.71ZM90.7074 120.811C89.1671 118.911 88.7399 115.957 89.5508 111.848L88.8655 111.713C88.0392 115.899 88.4306 119.112 90.1648 121.251L90.7074 120.811ZM89.5507 111.849L93.48 92.1202L92.7949 91.9838L88.8656 111.712L89.5507 111.849ZM93.1563 91.7032L87.0986 91.3758L87.0609 92.0733L93.1186 92.4007L93.1563 91.7032ZM87.4225 91.792L88.4048 86.7985L87.7194 86.6636L86.7371 91.6571L87.4225 91.792ZM88.0621 87.0803H94.2016V86.3818H88.0621V87.0803ZM94.5444 86.798L96.5909 76.3199L95.9053 76.186L93.8588 86.6641L94.5444 86.798ZM96.2481 76.6022H102.142V75.9036H96.2481V76.6022ZM137.139 76.2529L137.482 76.3199L137.563 75.9036H137.139V76.2529ZM135.093 86.7311L134.75 86.6641L134.668 87.0803H135.093V86.7311ZM148.027 86.7311L148.369 86.8006L148.454 86.3818H148.027V86.7311ZM146.962 91.9701V92.3194H147.248L147.305 92.0396L146.962 91.9701ZM134.028 91.9701V91.6208H133.742L133.686 91.9014L134.028 91.9701ZM129.854 112.763L130.196 112.833L130.196 112.831L129.854 112.763ZM130.181 117.183L129.875 117.352L129.879 117.358L130.181 117.183ZM141.887 118.084L142.236 118.073L142.224 117.672L141.828 117.739L141.887 118.084ZM142.051 123.323L142.113 123.666L142.409 123.613L142.4 123.312L142.051 123.323ZM124.205 111.78L123.863 111.712L123.862 111.713L124.205 111.78ZM128.134 92.052L128.477 92.1202L128.556 91.725L128.153 91.7032L128.134 92.052ZM122.077 91.7245L121.734 91.6571L121.656 92.0516L122.058 92.0733L122.077 91.7245ZM123.059 86.7311V86.3818H122.772L122.716 86.6636L123.059 86.7311ZM129.199 86.7311V87.0803H129.486L129.541 86.798L129.199 86.7311ZM131.245 76.2529V75.9036H130.957L130.902 76.186L131.245 76.2529ZM136.796 76.186L134.75 86.6641L135.435 86.798L137.482 76.3199L136.796 76.186ZM135.093 87.0803H148.027V86.3818H135.093V87.0803ZM147.684 86.6615L146.62 91.9006L147.305 92.0396L148.369 86.8006L147.684 86.6615ZM146.962 91.6208H134.028V92.3194H146.962V91.6208ZM133.686 91.9014L129.511 112.694L130.196 112.831L134.371 92.0389L133.686 91.9014ZM129.511 112.692C129.121 114.588 129.218 116.158 129.875 117.351L130.487 117.015C129.943 116.026 129.822 114.648 130.196 112.833L129.511 112.692ZM129.879 117.358C130.578 118.567 132.118 119.088 134.274 119.088V118.389C132.173 118.389 130.984 117.873 130.483 117.008L129.879 117.358ZM134.274 119.088C136.805 119.088 139.362 118.868 141.946 118.428L141.828 117.739C139.282 118.173 136.764 118.389 134.274 118.389V119.088ZM141.538 118.095L141.702 123.334L142.4 123.312L142.236 118.073L141.538 118.095ZM141.989 122.979C139.281 123.466 136.519 123.71 133.701 123.71V124.409C136.559 124.409 139.363 124.161 142.113 123.666L141.989 122.979ZM133.701 123.71C129.879 123.71 127.248 122.714 125.704 120.811L125.162 121.251C126.893 123.385 129.774 124.409 133.701 124.409V123.71ZM125.704 120.811C124.164 118.911 123.737 115.957 124.548 111.848L123.862 111.713C123.036 115.899 123.428 119.112 125.162 121.251L125.704 120.811ZM124.548 111.849L128.477 92.1202L127.792 91.9838L123.863 111.712L124.548 111.849ZM128.153 91.7032L122.096 91.3758L122.058 92.0733L128.116 92.4007L128.153 91.7032ZM122.419 91.792L123.402 86.7985L122.716 86.6636L121.734 91.6571L122.419 91.792ZM123.059 87.0803H129.199V86.3818H123.059V87.0803ZM129.541 86.798L131.588 76.3199L130.902 76.186L128.856 86.6641L129.541 86.798ZM131.245 76.6022H137.139V75.9036H131.245V76.6022ZM155.682 118.984L155.363 119.127L155.365 119.131L155.682 118.984ZM155.027 104.577L155.37 104.646L155.37 104.645L155.027 104.577ZM161.085 90.8241L160.82 90.5968L160.818 90.5992L161.085 90.8241ZM184.006 105.559L184.348 105.628V105.628L184.006 105.559ZM177.784 119.312L177.52 119.084L177.519 119.084L177.784 119.312ZM173.61 115.955L173.341 115.732L173.34 115.733L173.61 115.955ZM177.948 104.577L177.606 104.509L177.605 104.51L177.948 104.577ZM178.112 94.0166L177.787 94.1449L177.79 94.1522L178.112 94.0166ZM161.085 105.559L161.427 105.63L161.427 105.629L161.085 105.559ZM160.839 116.201L160.517 116.336L160.519 116.339L160.839 116.201ZM165.997 124.119C163.443 124.119 161.348 123.669 159.694 122.789C158.044 121.912 156.814 120.599 155.999 118.837L155.365 119.131C156.242 121.026 157.577 122.455 159.366 123.406C161.149 124.354 163.365 124.818 165.997 124.818V124.119ZM156.001 118.841C154.405 115.278 154.176 110.557 155.37 104.646L154.685 104.508C153.477 110.493 153.685 115.378 155.363 119.127L156.001 118.841ZM155.37 104.645C156.508 98.9557 158.507 94.4306 161.352 91.0489L160.818 90.5992C157.878 94.0938 155.839 98.7371 154.685 104.508L155.37 104.645ZM161.35 91.0514C164.224 87.6987 168.079 86.0161 172.955 86.0161V85.3176C167.898 85.3176 163.84 87.0732 160.82 90.5968L161.35 91.0514ZM172.955 86.0161C175.508 86.0161 177.603 86.4666 179.258 87.3464C180.907 88.2234 182.137 89.5365 182.952 91.2982L183.586 91.0049C182.709 89.1101 181.374 87.6808 179.586 86.7296C177.802 85.7813 175.586 85.3176 172.955 85.3176V86.0161ZM182.952 91.2982C184.601 94.8608 184.856 99.5792 183.663 105.49L184.348 105.628C185.556 99.6416 185.321 94.7551 183.586 91.0049L182.952 91.2982ZM183.663 105.49C182.526 111.122 180.473 115.647 177.52 119.084L178.049 119.539C181.099 115.991 183.193 111.348 184.348 105.628L183.663 105.49ZM177.519 119.084C174.645 122.438 170.816 124.119 165.997 124.119V124.818C171 124.818 175.03 123.061 178.05 119.539L177.519 119.084ZM166.242 119.579C169.445 119.579 172.005 118.45 173.879 116.178L173.34 115.733C171.613 117.827 169.26 118.88 166.242 118.88V119.579ZM173.878 116.178C175.792 113.871 177.251 110.007 178.291 104.643L177.605 104.51C176.571 109.843 175.139 113.564 173.341 115.732L173.878 116.178ZM178.291 104.644C178.784 102.149 179.047 100.005 179.075 98.2174C179.103 96.4334 178.897 94.9806 178.434 93.8811L177.79 94.1522C178.2 95.1265 178.404 96.4705 178.377 98.2066C178.35 99.9387 178.094 102.038 177.606 104.509L178.291 104.644ZM178.437 93.8884C178.001 92.7837 177.296 91.9418 176.322 91.3809C175.353 90.8233 174.142 90.5567 172.709 90.5567V91.2552C174.06 91.2552 175.141 91.507 175.973 91.9863C176.8 92.4623 177.404 93.1758 177.787 94.1449L178.437 93.8884ZM172.709 90.5567C169.555 90.5567 167.023 91.7174 165.151 94.0432L165.696 94.4812C167.426 92.3319 169.751 91.2552 172.709 91.2552V90.5567ZM165.151 94.0432C163.297 96.3473 161.837 100.18 160.743 105.488L161.427 105.629C162.515 100.35 163.948 96.6522 165.696 94.4812L165.151 94.0432ZM160.743 105.488C160.222 108.011 159.938 110.175 159.897 111.977C159.855 113.775 160.054 115.235 160.517 116.336L161.161 116.065C160.752 115.092 160.555 113.743 160.595 111.993C160.635 110.247 160.911 108.128 161.427 105.63L160.743 105.488ZM160.519 116.339C160.984 117.414 161.702 118.232 162.674 118.777C163.641 119.319 164.837 119.579 166.242 119.579V118.88C164.919 118.88 163.85 118.635 163.016 118.168C162.187 117.703 161.568 117.006 161.16 116.062L160.519 116.339ZM193.708 92.052L194.051 92.1209L194.052 92.1103L193.708 92.052ZM194.608 86.7311V86.3818H194.313L194.264 86.6728L194.608 86.7311ZM199.929 86.7311L200.278 86.7528L200.301 86.3818H199.929V86.7311ZM199.602 91.9701L199.944 92.0388L199.949 92.0156L199.95 91.9919L199.602 91.9701ZM193.299 123.405V123.754H193.585L193.641 123.473L193.299 123.405ZM187.405 123.405L187.062 123.336L186.978 123.754H187.405V123.405ZM213.191 99.5013L213.533 99.5705L213.534 99.566L213.191 99.5013ZM213.273 93.4436L212.949 93.5759L212.952 93.5812L213.273 93.4436ZM203.367 93.4436L203.536 93.7493L203.539 93.7478L203.367 93.4436ZM197.392 97.8641L197.138 98.1037L197.377 98.3578L197.631 98.1182L197.392 97.8641ZM194.69 94.999L194.422 94.7747L194.223 95.0127L194.436 95.2386L194.69 94.999ZM218.02 89.4324L217.745 89.648L217.752 89.656L218.02 89.4324ZM219.085 99.3376L219.427 99.4063L219.427 99.4061L219.085 99.3376ZM214.255 123.405V123.754H214.541L214.597 123.473L214.255 123.405ZM208.361 123.405L208.019 123.335L207.934 123.754H208.361V123.405ZM194.052 92.1103L194.953 86.7893L194.264 86.6728L193.364 91.9937L194.052 92.1103ZM194.608 87.0803H199.929V86.3818H194.608V87.0803ZM199.581 86.7093L199.253 91.9483L199.95 91.9919L200.278 86.7528L199.581 86.7093ZM199.259 91.9015L192.956 123.336L193.641 123.473L199.944 92.0388L199.259 91.9015ZM193.299 123.055H187.405V123.754H193.299V123.055ZM187.747 123.473L194.05 92.1208L193.366 91.9831L187.062 123.336L187.747 123.473ZM213.534 99.566C213.809 98.1081 213.956 96.8589 213.97 95.8223C213.984 94.7905 213.867 93.9433 213.594 93.306L212.952 93.5812C213.17 94.0899 213.285 94.8254 213.271 95.8128C213.258 96.7955 213.118 98.002 212.848 99.4365L213.534 99.566ZM213.596 93.3114C213.024 91.9125 211.578 91.2934 209.507 91.2934V91.992C211.474 91.992 212.539 92.5735 212.949 93.5759L213.596 93.3114ZM209.507 91.2934C207.469 91.2934 205.364 91.9164 203.196 93.1394L203.539 93.7478C205.628 92.5696 207.615 91.992 209.507 91.992V91.2934ZM203.199 93.1379C201.097 94.2995 199.081 95.7911 197.152 97.6099L197.631 98.1182C199.522 96.3352 201.491 94.8798 203.536 93.7493L203.199 93.1379ZM197.646 97.6245L194.944 94.7594L194.436 95.2386L197.138 98.1037L197.646 97.6245ZM194.958 95.2232C196.893 92.9126 199.342 90.9193 202.311 89.2456L201.968 88.637C198.934 90.3469 196.417 92.392 194.422 94.7747L194.958 95.2232ZM202.311 89.2456C205.271 87.577 208.133 86.7529 210.899 86.7529V86.0543C207.989 86.0543 205.011 86.922 201.968 88.637L202.311 89.2456ZM210.899 86.7529C213.984 86.7529 216.245 87.7328 217.746 89.6479L218.295 89.217C216.631 87.0936 214.144 86.0543 210.899 86.0543V86.7529ZM217.752 89.656C219.282 91.4919 219.666 94.6518 218.742 99.2691L219.427 99.4061C220.359 94.7458 220.033 91.3023 218.289 89.2088L217.752 89.656ZM218.742 99.2688L213.912 123.336L214.597 123.473L219.427 99.4063L218.742 99.2688ZM214.255 123.055H208.361V123.754H214.255V123.055ZM208.703 123.474L213.533 99.5705L212.848 99.4321L208.019 123.335L208.703 123.474Z" fill="#961600" mask="url(#path-12-outside-1_33_5282)"/>
<path d="M190.873 70.9133C192.702 71.5686 194.66 72.6502 194.602 75.2655C194.147 78.5699 192.205 82.0274 190.335 85.2658C187.97 89.2516 185.146 93.1668 181.776 96.3192C182.634 94.1202 183.903 91.9628 184.664 89.7599C185.398 87.8442 185.831 85.9431 186.526 84.0341C188.844 81.4569 190.062 78.2459 190.93 75.2881C191.418 73.6235 191.108 72.2483 190.873 70.9133Z" fill="#F9CF8C" stroke="#F9CF8C" stroke-width="0.156187"/>
<path d="M186.477 70.0988C188.086 70.069 189.514 70.4505 190.886 70.921C191.121 72.2551 191.431 73.6296 190.943 75.2928C190.076 78.2486 188.858 81.4574 186.542 84.0329C186.841 81.1929 187.438 78.2178 187.165 75.6198C187.188 73.6246 186.492 72.0584 186.477 70.0988Z" fill="#F0C786" stroke="#F0C786" stroke-width="0.156187"/>
<g clip-path="url(#clip0_33_5282)">
<mask id="path-16-outside-2_33_5282" maskUnits="userSpaceOnUse" x="206.576" y="117.744" width="23" height="35" fill="black">
<rect fill="white" x="206.576" y="117.744" width="23" height="35"/>
<path fill-rule="evenodd" clip-rule="evenodd" d="M226.653 137.08C226.953 137.052 227.08 136.683 226.86 136.477L210.164 120.839C209.941 120.63 209.576 120.789 209.576 121.095L209.609 144.073C209.61 144.379 209.975 144.536 210.197 144.327L214.79 140.019L215.407 139.441C215.583 139.275 215.871 139.335 215.967 139.557L216.3 140.334L220.383 149.807C220.46 149.985 220.667 150.066 220.845 149.988L223.462 148.837C223.64 148.759 223.72 148.55 223.639 148.373L219.36 139.003L219.013 138.239C218.914 138.02 219.06 137.768 219.3 137.746L220.135 137.671L226.653 137.08Z"/>
</mask>
<path fill-rule="evenodd" clip-rule="evenodd" d="M226.653 137.08C226.953 137.052 227.08 136.683 226.86 136.477L210.164 120.839C209.941 120.63 209.576 120.789 209.576 121.095L209.609 144.073C209.61 144.379 209.975 144.536 210.197 144.327L214.79 140.019L215.407 139.441C215.583 139.275 215.871 139.335 215.967 139.557L216.3 140.334L220.383 149.807C220.46 149.985 220.667 150.066 220.845 149.988L223.462 148.837C223.64 148.759 223.72 148.55 223.639 148.373L219.36 139.003L219.013 138.239C218.914 138.02 219.06 137.768 219.3 137.746L220.135 137.671L226.653 137.08Z" fill="white"/>
<path d="M214.79 140.019L216.224 141.548L216.225 141.547L214.79 140.019ZM216.3 140.334L214.375 141.161L214.376 141.163L216.3 140.334ZM219.36 139.003L217.452 139.87L217.454 139.874L219.36 139.003ZM220.135 137.671L220.323 139.758L220.324 139.758L220.135 137.671ZM219.013 138.239L220.921 137.372L219.013 138.239ZM219.3 137.746L219.112 135.659L219.3 137.746ZM215.407 139.441L213.972 137.913L215.407 139.441ZM215.967 139.557L217.892 138.73L215.967 139.557ZM210.197 144.327L211.631 145.856L210.197 144.327ZM226.86 136.477L225.427 138.006L226.86 136.477ZM226.653 137.08L226.842 139.167L226.653 137.08ZM208.732 122.369L225.427 138.006L228.292 134.947L211.597 119.31L208.732 122.369ZM211.705 144.07L211.672 121.092L207.481 121.098L207.514 144.076L211.705 144.07ZM213.357 138.491L208.764 142.799L211.631 145.856L216.224 141.548L213.357 138.491ZM213.972 137.913L213.356 138.492L216.225 141.547L216.841 140.968L213.972 137.913ZM218.226 139.507L217.892 138.73L214.041 140.385L214.375 141.161L218.226 139.507ZM222.308 148.977L218.225 139.504L214.376 141.163L218.459 150.636L222.308 148.977ZM222.618 146.919L220.001 148.07L221.688 151.907L224.305 150.756L222.618 146.919ZM217.454 139.874L221.733 149.243L225.545 147.502L221.266 138.133L217.454 139.874ZM217.105 139.105L217.452 139.87L221.268 138.137L220.921 137.372L217.105 139.105ZM219.947 135.584L219.112 135.659L219.488 139.834L220.323 139.758L219.947 135.584ZM226.463 134.993L219.945 135.584L220.324 139.758L226.842 139.167L226.463 134.993ZM220.921 137.372C221.418 138.467 220.686 139.726 219.488 139.834L219.112 135.659C217.435 135.81 216.409 137.572 217.105 139.105L220.921 137.372ZM224.305 150.756C225.554 150.207 226.112 148.743 225.545 147.502L221.733 149.243C221.328 148.357 221.727 147.311 222.618 146.919L224.305 150.756ZM216.841 140.968C215.958 141.798 214.519 141.498 214.041 140.385L217.892 138.73C217.222 137.172 215.208 136.752 213.972 137.913L216.841 140.968ZM207.514 144.076C207.517 146.215 210.071 147.319 211.631 145.856L208.764 142.799C209.878 141.754 211.703 142.542 211.705 144.07L207.514 144.076ZM218.459 150.636C218.996 151.883 220.446 152.453 221.688 151.907L220.001 148.07C220.889 147.68 221.924 148.087 222.308 148.977L218.459 150.636ZM225.427 138.006C224.327 136.976 224.962 135.129 226.463 134.993L226.842 139.167C228.944 138.976 229.833 136.39 228.292 134.947L225.427 138.006ZM211.597 119.31C210.034 117.846 207.478 118.956 207.481 121.098L211.672 121.092C211.674 122.622 209.848 123.415 208.732 122.369L211.597 119.31Z" fill="#961600" mask="url(#path-16-outside-2_33_5282)"/>
</g>
<defs>
<clipPath id="clip0_33_5282">
<rect width="35.2666" height="35.2666" fill="white" transform="translate(200.081 117.555)"/>
</clipPath>
</defs>
</svg>
