<svg width="354" height="726" viewBox="0 0 354 726" fill="none" xmlns="http://www.w3.org/2000/svg">
<path d="M305.631 0.950684L47.5575 0.950684C22.6285 0.950684 2.41961 22.1902 2.41961 48.3904L2.41961 678.511C2.41961 704.711 22.6285 725.951 47.5575 725.951H305.631C330.56 725.951 350.769 704.711 350.769 678.511V48.3904C350.769 22.1902 330.56 0.950684 305.631 0.950684Z" fill="#FFEAC8"/>
<path d="M345.282 678.585V48.3526C345.282 25.3679 327.553 6.73522 305.684 6.73522L47.5039 6.73522C25.6345 6.73522 7.90581 25.3679 7.90581 48.3526V678.585C7.90581 701.57 25.6345 720.203 47.5039 720.203H305.684C327.553 720.203 345.282 701.57 345.282 678.585Z" fill="#961600"/>
<path d="M151.585 29.5751C151.054 29.6129 150.522 29.5357 150.02 29.3482C149.519 29.1607 149.06 28.8669 148.671 28.4851C148.282 28.1033 147.972 27.6416 147.76 27.1286C147.548 26.6157 147.439 26.0624 147.439 25.5032C147.439 24.9439 147.548 24.3907 147.76 23.8777C147.972 23.3648 148.282 22.903 148.671 22.5212C149.06 22.1394 149.519 21.8456 150.02 21.6581C150.522 21.4707 151.054 21.3934 151.585 21.4313L201.461 21.4313C202.443 21.5013 203.364 21.9608 204.036 22.7167C204.708 23.4726 205.082 24.4686 205.082 25.5032C205.082 26.5378 204.708 27.5337 204.036 28.2897C203.364 29.0456 202.443 29.505 201.461 29.5751H151.585Z" fill="#455A64"/>
<path d="M124.866 29.5754C124.098 29.5754 123.347 29.336 122.708 28.8876C122.07 28.4391 121.572 27.8017 121.278 27.056C120.984 26.3102 120.907 25.4896 121.057 24.698C121.207 23.9063 121.577 23.1791 122.12 22.6083C122.663 22.0375 123.355 21.6488 124.108 21.4914C124.861 21.3339 125.642 21.4147 126.352 21.7236C127.061 22.0325 127.668 22.5556 128.094 23.2268C128.521 23.8979 128.749 24.687 128.749 25.4942C128.749 26.5766 128.34 27.6147 127.612 28.38C126.883 29.1454 125.896 29.5754 124.866 29.5754Z" fill="#455A64"/>
<path d="M139.134 29.5754C138.365 29.5791 137.613 29.3429 136.972 28.8967C136.331 28.4505 135.83 27.8144 135.534 27.069C135.237 26.3236 135.158 25.5024 135.305 24.7095C135.453 23.9166 135.822 23.1877 136.364 22.615C136.906 22.0424 137.598 21.6518 138.352 21.4928C139.106 21.3338 139.887 21.4135 140.598 21.7219C141.309 22.0302 141.916 22.5533 142.344 23.2248C142.771 23.8964 142.999 24.6862 142.999 25.4942C142.995 26.5719 142.587 27.6043 141.863 28.3681C141.14 29.1319 140.159 29.5656 139.134 29.5754Z" fill="#455A64"/>
<path d="M228.341 29.5752C227.572 29.5789 226.819 29.3427 226.178 28.8965C225.537 28.4503 225.037 27.8142 224.74 27.0688C224.444 26.3234 224.364 25.5022 224.512 24.7093C224.66 23.9164 225.028 23.1874 225.571 22.6148C226.113 22.0422 226.805 21.6516 227.559 21.4926C228.312 21.3336 229.094 21.4133 229.805 21.7217C230.515 22.03 231.123 22.5531 231.55 23.2246C231.978 23.8962 232.206 24.686 232.206 25.494C232.201 26.5717 231.793 27.6041 231.07 28.3679C230.346 29.1317 229.366 29.5654 228.341 29.5752Z" fill="#455A64"/>
<path d="M214.072 29.5754C213.304 29.5754 212.554 29.3361 211.915 28.8876C211.276 28.4392 210.779 27.8018 210.485 27.056C210.191 26.3103 210.114 25.4897 210.264 24.698C210.414 23.9063 210.783 23.1791 211.327 22.6083C211.87 22.0375 212.562 21.6488 213.315 21.4914C214.068 21.3339 214.849 21.4147 215.558 21.7236C216.268 22.0325 216.874 22.5556 217.301 23.2268C217.728 23.8979 217.956 24.687 217.956 25.4942C217.956 26.5766 217.547 27.6147 216.818 28.3801C216.09 29.1454 215.102 29.5754 214.072 29.5754Z" fill="#455A64"/>
<path d="M307.502 10.8354L258.587 10.8354C254.83 10.834 251.173 12.1093 248.162 14.4711C170.27 15.7155 170.763 15.627 105.038 14.4655C102.023 12.1034 98.3622 10.83 94.602 10.8354L50.23 10.8354C41.0886 10.8354 32.3216 14.652 25.8576 21.4457C19.3936 28.2393 15.7621 37.4534 15.7621 47.0611L15.7621 675.721C15.7621 684.758 19.1777 693.424 25.2575 699.814C31.3374 706.204 39.5834 709.794 48.1816 709.794H308.09C311.944 709.796 315.761 709.001 319.322 707.452C322.884 705.904 326.12 703.633 328.846 700.77C331.572 697.906 333.735 694.506 335.21 690.764C336.686 687.022 337.445 683.011 337.445 678.96V42.3059C337.441 33.9609 334.284 25.9592 328.67 20.0584C323.055 14.1576 315.442 10.8404 307.502 10.8354Z" fill="white"/>
<path d="M351.143 241.856H350.751V158.527H351.143C351.649 158.527 352.134 158.739 352.491 159.114C352.849 159.49 353.05 159.999 353.05 160.531V239.853C353.05 240.384 352.849 240.893 352.491 241.269C352.134 241.645 351.649 241.856 351.143 241.856Z" fill="#455A64"/>
<path d="M1.9575 209.824H2.42076L2.42076 262.58H1.9575C1.45189 262.58 0.967005 262.369 0.609483 261.994C0.251961 261.618 0.0510987 261.108 0.0510987 260.577L0.0510987 211.902C0.0415111 211.632 0.0837551 211.364 0.17526 211.112C0.266764 210.86 0.405665 210.631 0.583656 210.437C0.761647 210.243 0.975053 210.088 1.21112 209.983C1.44719 209.878 1.70103 209.823 1.9575 209.824Z" fill="#455A64"/>
<path d="M1.95728 140.948H2.42054L2.42054 193.705H1.95728C1.45167 193.705 0.966784 193.494 0.609262 193.118C0.251739 192.742 0.0508774 192.233 0.0508774 191.702L0.0508774 143.026C0.0412899 142.757 0.0835339 142.489 0.175038 142.237C0.266543 141.985 0.405443 141.755 0.583435 141.561C0.761426 141.367 0.974832 141.213 1.2109 141.108C1.44697 141.002 1.70081 140.948 1.95728 140.948Z" fill="#455A64"/>
<path d="M2.08219 89.2214H2.43855L2.43855 113.746H2.08219C1.63328 113.746 1.20275 113.559 0.885326 113.225C0.5679 112.892 0.38958 112.439 0.38958 111.968L0.38958 90.9999C0.38958 90.5282 0.5679 90.0758 0.885326 89.7423C1.20275 89.4087 1.63328 89.2214 2.08219 89.2214Z" fill="#455A64"/>
<path d="M261.74 35.1917H259.353V38.7105H261.74V35.1917Z" fill="#263238"/>
<path d="M265.625 33.6191H263.237V38.7113H265.625V33.6191Z" fill="#263238"/>
<path d="M269.525 32.4584H267.138V38.7301H269.525V32.4584Z" fill="#263238"/>
<path d="M273.426 30.1742H271.038V38.7299H273.426V30.1742Z" fill="#263238"/>
<path d="M308.748 38.8987H296.742C296.514 38.8987 296.295 38.8047 296.132 38.6367C295.968 38.4686 295.874 38.2401 295.87 38.0001V31.7284C295.87 31.4884 295.959 31.2578 296.119 31.0863C296.279 30.9148 296.496 30.816 296.725 30.8111H308.748C308.801 30.7968 308.856 30.7968 308.909 30.8111C308.929 30.8651 308.929 30.9256 308.909 30.9796V33.0389H310.191C310.25 33.0387 310.306 33.0618 310.349 33.1035C310.392 33.1451 310.418 33.2023 310.423 33.2636V36.2964C310.423 36.3276 310.417 36.3584 310.405 36.387C310.393 36.4155 310.376 36.4412 310.354 36.4623C310.332 36.4834 310.307 36.4996 310.278 36.5097C310.25 36.5198 310.221 36.5237 310.191 36.5211H308.909V38.5991C308.92 38.6298 308.924 38.6626 308.922 38.6952C308.919 38.7279 308.91 38.7596 308.895 38.7881C308.88 38.8166 308.858 38.8413 308.833 38.8604C308.808 38.8795 308.779 38.8926 308.748 38.8987ZM308.535 31.2791H296.725C296.669 31.2791 296.615 31.2908 296.564 31.3136C296.513 31.3364 296.467 31.3698 296.428 31.4118C296.39 31.4538 296.36 31.5035 296.341 31.5579C296.321 31.6123 296.313 31.6703 296.315 31.7284V38.0001C296.315 38.0582 296.326 38.1158 296.348 38.1693C296.369 38.2228 296.401 38.2711 296.441 38.3114C296.481 38.3516 296.528 38.3829 296.58 38.4034C296.632 38.4239 296.687 38.4332 296.742 38.4307H308.535V36.3713C308.535 36.3117 308.557 36.2546 308.597 36.2125C308.637 36.1703 308.692 36.1467 308.748 36.1467H310.031V33.5818H308.748C308.719 33.582 308.689 33.5756 308.662 33.5631C308.635 33.5507 308.611 33.5325 308.591 33.5096C308.57 33.4867 308.555 33.4597 308.545 33.4302C308.536 33.4007 308.532 33.3695 308.535 33.3385V31.2791Z" fill="#263238"/>
<path d="M297.294 37.4008V32.3087H307.554V34.6114V35.1168V37.4008H297.294Z" fill="#263238"/>
<path d="M284.879 38.4113C284.879 38.2255 284.826 38.0439 284.728 37.8897C284.629 37.7355 284.489 37.6156 284.325 37.5454C284.161 37.4752 283.981 37.4578 283.808 37.4954C283.635 37.533 283.477 37.624 283.353 37.7567C283.229 37.8894 283.146 38.0579 283.113 38.2406C283.081 38.4233 283.101 38.6119 283.171 38.7825C283.241 38.9531 283.358 39.0979 283.507 39.1984C283.656 39.2989 283.83 39.3506 284.006 39.3469C284.123 39.3469 284.238 39.3226 284.345 39.2753C284.452 39.2281 284.549 39.1589 284.63 39.0718C284.711 38.9846 284.775 38.8814 284.818 38.7679C284.861 38.6545 284.881 38.5333 284.879 38.4113Z" fill="#263238"/>
<path d="M281.032 36.2026L282.154 37.3633C282.662 36.8502 283.338 36.5619 284.042 36.5583C284.741 36.5629 285.411 36.8513 285.912 37.3633L287.035 36.2026C286.641 35.7877 286.173 35.4585 285.658 35.2339C285.143 35.0093 284.591 34.8937 284.033 34.8937C283.476 34.8937 282.923 35.0093 282.408 35.2339C281.893 35.4585 281.426 35.7877 281.032 36.2026Z" fill="#263238"/>
<path d="M284.006 32.2712C283.122 32.2705 282.247 32.4538 281.431 32.8105C280.614 33.1672 279.873 33.6901 279.25 34.3492L280.373 35.51C281.343 34.5027 282.652 33.9379 284.015 33.9379C285.379 33.9379 286.688 34.5027 287.658 35.51L288.78 34.3492C288.155 33.6879 287.411 33.1636 286.592 32.8069C285.772 32.4501 284.893 32.2681 284.006 32.2712Z" fill="#263238"/>
<path d="M277.469 32.4208L278.591 33.6003C279.307 32.8457 280.158 32.2471 281.095 31.8386C282.032 31.4302 283.036 31.2199 284.051 31.2199C285.065 31.2199 286.069 31.4302 287.006 31.8386C287.943 32.2471 288.794 32.8457 289.51 33.6003L290.633 32.4208C288.886 30.5882 286.519 29.559 284.051 29.559C281.583 29.559 279.215 30.5882 277.469 32.4208Z" fill="#263238"/>
<path d="M319.169 487.273H31.5623L31.5623 565.303H319.169V487.273Z" fill="#FFFAF5"/>
<path d="M320.63 116.517C320.63 116.779 254.508 117.004 172.961 117.004C91.4132 117.004 25.2918 116.517 25.2918 116.517C25.2918 116.517 91.3954 116.011 172.961 116.011C254.526 116.011 320.63 116.217 320.63 116.517Z" fill="#57534F"/>
<path d="M260.333 665.087H92.6424C88.0435 665.087 83.4896 664.135 79.2408 662.286C74.992 660.436 71.1314 657.725 67.8795 654.307C64.6276 650.89 62.048 646.832 60.2881 642.367C58.5281 637.901 57.6223 633.115 57.6223 628.281C57.6223 618.518 61.3114 609.155 67.8784 602.249C74.4454 595.344 83.3529 591.462 92.6424 591.457H260.333C269.626 591.457 278.538 595.336 285.109 602.242C291.68 609.148 295.371 618.515 295.371 628.281C295.366 638.045 291.673 647.406 285.102 654.308C278.532 661.21 269.623 665.087 260.333 665.087Z" fill="#FFBA49"/>
<path d="M129.551 129.547H29.7094L29.7094 232.345H129.551V129.547Z" fill="#FFFAF5"/>
<path d="M29.7089 129.547H31.1162H35.2131H51.4585L112.2 129.397L320.968 129.191H321.413V129.659C321.413 162.066 321.413 196.719 321.413 232.439V232.926H320.95L29.6198 232.758H29.317V232.289C29.317 200.014 29.4417 174.254 29.4952 156.618C29.4952 147.819 29.4952 141.042 29.4952 136.418C29.4952 134.153 29.4952 132.411 29.4952 131.232C29.4952 130.053 29.4952 129.491 29.4952 129.491C29.4952 129.491 29.4952 130.109 29.4952 131.363C29.4952 132.617 29.4952 134.321 29.4952 136.624C29.4952 141.248 29.4952 148.062 29.4952 156.88C29.4952 174.516 29.6021 200.164 29.6733 232.364L29.3527 232.027L320.683 231.878L320.219 232.364V129.547L320.683 130.015L112.272 129.809L51.405 129.659H35.0884H30.8489L29.7089 129.547Z" fill="#57534F"/>
<path d="M206.716 147.987H148.913V156.262H206.716V147.987Z" fill="#FFBA49"/>
<path d="M301.374 168.394H148.913V173.692H301.374V168.394Z" fill="#FFF7F7"/>
<path d="M301.374 179.008H148.913V184.307H301.374V179.008Z" fill="#FFF7F7"/>
<path d="M260.85 210.292H257.964V213.268H255.826L255.826 210.292H252.941V208.176H255.826V205.218H257.964V208.176H260.85V210.292Z" fill="#FFBA49"/>
<path d="M280.551 213.044V215.328H271.787V213.455L276.258 209C276.642 208.654 276.967 208.243 277.22 207.783C277.375 207.464 277.46 207.112 277.469 206.753C277.48 206.539 277.442 206.326 277.358 206.13C277.274 205.935 277.148 205.764 276.988 205.63C276.587 205.338 276.103 205.2 275.617 205.237C275.142 205.229 274.672 205.338 274.245 205.555C273.83 205.751 273.473 206.062 273.212 206.454L271.253 205.143C271.715 204.414 272.363 203.837 273.123 203.477C273.981 203.058 274.92 202.853 275.866 202.878C276.64 202.866 277.408 203.012 278.128 203.309C278.727 203.575 279.244 204.009 279.625 204.563C279.993 205.11 280.186 205.765 280.177 206.435C280.179 207.084 280.038 207.724 279.767 208.307C279.38 209.064 278.86 209.737 278.235 210.292L275.563 212.95L280.551 213.044Z" fill="#FFBA49"/>
<path d="M291.257 209.337H295.96V211.528H291.257V209.337Z" fill="#FFBA49"/>
<path d="M301.374 223.34C301.374 223.34 301.374 223.134 301.374 222.797C301.374 222.46 301.374 221.88 301.374 221.281C301.374 219.877 301.374 217.967 301.285 215.533C301.285 210.516 301.178 203.421 301.107 194.678L301.445 195.034L243.856 195.165L244.319 194.678V209.43C244.319 214.223 244.319 218.791 244.319 223.322L243.874 222.854L285.111 223.078L297.099 223.19H300.323H301.463C301.119 223.217 300.774 223.217 300.43 223.19H297.295L285.414 223.303L243.874 223.527H243.429V223.078C243.429 218.622 243.429 213.98 243.429 209.187V194.435L243.892 193.948L301.481 194.079H301.819V194.435C301.819 203.271 301.695 210.441 301.641 215.496C301.641 217.892 301.641 219.802 301.552 221.112V222.573C301.573 222.842 301.51 223.111 301.374 223.34Z" fill="#57534F"/>
<path d="M129.622 233.3C129.355 233.3 129.159 210.217 129.159 181.742C129.159 153.267 129.355 130.165 129.622 130.165C129.889 130.165 130.085 153.248 130.085 181.742C130.085 210.236 129.907 233.3 129.622 233.3Z" fill="#57534F"/>
<path d="M129.551 242.96H29.7093L29.7093 345.759H129.551V242.96Z" fill="#FFFAF5"/>
<path d="M29.7093 242.96H31.1165H35.2847H51.5301L112.272 242.829L321.039 242.605H321.484V243.073C321.484 275.479 321.484 310.132 321.484 345.852V346.339H321.021L29.6914 346.171H29.3887V345.852C29.3887 313.577 29.5133 287.817 29.5667 270.181C29.5667 261.382 29.5667 254.605 29.5667 250C29.5667 247.716 29.5667 245.993 29.5667 244.795C29.5667 243.597 29.5667 243.054 29.5667 243.054C29.5667 243.054 29.5667 243.672 29.5667 244.926C29.5667 246.18 29.5667 247.865 29.5667 250.168C29.5667 254.792 29.5667 261.607 29.5667 270.424C29.5667 288.06 29.6736 313.727 29.7449 345.909L29.4243 345.59L320.754 345.422L320.291 345.909V242.96L320.754 243.428L112.343 243.222L51.4766 243.091H35.16H30.9205L29.7093 242.96Z" fill="#57534F"/>
<path d="M206.716 261.401H148.913V269.676H206.716V261.401Z" fill="#FFBA49"/>
<path d="M301.374 281.825H148.913V287.123H301.374V281.825Z" fill="#FFF7F7"/>
<path d="M301.374 292.422H148.913V297.72H301.374V292.422Z" fill="#FFF7F7"/>
<path d="M260.85 323.724H257.964V326.682H255.826L255.826 323.724H252.941V321.59H255.826V318.632H257.964V321.59H260.85V323.724Z" fill="#FFBA49"/>
<path d="M276.364 316.535V328.741H273.674V318.8H271.359V316.535H276.364Z" fill="#FFBA49"/>
<path d="M287.978 322.75H292.681V324.941H287.978V322.75Z" fill="#FFBA49"/>
<path d="M301.374 336.754C301.374 336.754 301.374 336.548 301.374 336.211C301.374 335.874 301.374 335.312 301.374 334.694C301.374 333.29 301.374 331.381 301.285 328.947C301.285 323.93 301.178 316.834 301.107 308.091L301.445 308.447L243.856 308.578L244.319 308.091V322.862C244.319 327.655 244.319 332.223 244.319 336.735L243.874 336.267L285.111 336.492L297.099 336.623H300.323H301.463C301.119 336.649 300.774 336.649 300.43 336.623H297.295L285.413 336.754L243.874 336.96H243.429V336.492C243.429 332.055 243.429 327.412 243.429 322.619V308.11L243.892 307.623L301.481 307.754H301.819V308.11C301.819 316.947 301.694 324.117 301.641 329.19C301.641 331.587 301.641 333.477 301.552 334.807V336.267C301.526 336.44 301.465 336.606 301.374 336.754Z" fill="#57534F"/>
<path d="M129.622 346.713C129.355 346.713 129.159 323.63 129.159 295.155C129.159 266.68 129.39 243.522 129.622 243.522C129.854 243.522 130.085 266.605 130.085 295.099C130.085 323.593 129.907 346.713 129.622 346.713Z" fill="#57534F"/>
<path d="M129.551 356.112H29.7096L29.7096 458.91H129.551V356.112Z" fill="#FFFAF5"/>
<path d="M29.7091 356.112H31.1163H35.2845H51.5299L112.272 355.981L321.039 355.756H321.484V356.243C321.484 388.649 321.484 423.284 321.484 459.004V459.491H321.021L29.6913 459.322H29.3885V458.817C29.3885 426.56 29.5131 400.781 29.5666 383.145C29.5666 374.365 29.5666 367.569 29.5666 362.964C29.5666 360.699 29.5666 358.958 29.5666 357.778C29.5666 356.599 29.5666 356.037 29.5666 356.037C29.5666 356.037 29.5666 356.655 29.5666 357.909C29.5666 359.163 29.5666 360.867 29.5666 363.151C29.5666 367.794 29.5666 374.59 29.5666 383.426C29.5666 401.062 29.6735 426.71 29.7447 458.892L29.4241 458.573L320.754 458.405L320.291 458.892V356.112L320.754 356.58L112.343 356.355L51.4765 356.224H35.1598H30.9204L29.7091 356.112Z" fill="#57534F"/>
<path d="M206.716 374.552H148.913V382.827H206.716V374.552Z" fill="#FFBA49"/>
<path d="M301.374 394.958H148.913V400.256H301.374V394.958Z" fill="#FFF7F7"/>
<path d="M301.374 405.554H148.913V410.853H301.374V405.554Z" fill="#FFF7F7"/>
<path d="M260.85 436.857H257.964V439.815H255.826L255.826 436.857H252.941V434.741H255.826V431.764H257.964V434.741H260.85V436.857Z" fill="#FFBA49"/>
<path d="M276.365 429.686V441.967H273.675V432.026H271.359V429.761L276.365 429.686Z" fill="#FFBA49"/>
<path d="M287.978 435.902H292.681V438.073H287.978V435.902Z" fill="#FFBA49"/>
<path d="M301.373 449.887C301.373 449.887 301.373 449.7 301.373 449.344C301.373 448.988 301.373 448.445 301.373 447.827C301.373 446.442 301.373 444.514 301.284 442.08C301.284 437.081 301.177 429.967 301.106 421.243L301.445 421.599L243.856 421.73L244.319 421.243V435.977C244.319 440.769 244.319 445.337 244.319 449.849L243.873 449.4L285.11 449.606L297.098 449.737H300.322H301.463C301.119 449.763 300.773 449.763 300.429 449.737H297.294L285.413 449.868L243.873 450.093H243.428V449.625C243.428 445.188 243.428 440.545 243.428 435.752V421.374C243.321 421.374 244.301 420.438 243.891 420.869L301.48 421H301.819V421.374C301.819 430.192 301.694 437.381 301.641 442.436C301.641 444.832 301.641 446.723 301.552 448.052V449.494C301.409 449.737 301.391 449.905 301.373 449.887Z" fill="#57534F"/>
<path d="M129.622 459.865C129.355 459.865 129.159 436.763 129.159 408.288C129.159 379.813 129.355 356.729 129.622 356.729C129.89 356.729 130.086 379.813 130.086 408.288C130.086 436.763 129.907 459.865 129.622 459.865Z" fill="#57534F"/>
<path d="M60.0088 279.748L63.7138 331.512C63.7714 332.289 64.1029 333.015 64.6433 333.548C65.1836 334.081 65.894 334.383 66.6352 334.395L86.6568 334.563C87.4016 334.567 88.1204 334.276 88.6712 333.749C89.222 333.222 89.5647 332.497 89.6316 331.718L93.6929 280.328L60.0088 279.748Z" fill="#FFBA49"/>
<g opacity="0.3">
<path d="M91.9481 302.4C81.7651 302.834 71.5673 302.69 61.399 301.97L62.3609 317.546C62.3609 317.546 80.1738 320.747 90.8615 316.834L91.9481 302.4Z" fill="black"/>
</g>
<g opacity="0.3">
<path d="M93.4613 283.155C86.5425 286.074 79.0689 287.247 71.6405 286.581C61.9503 285.944 60.2402 283.473 60.2402 283.473L60.1156 281.152H93.6216L93.4613 283.155Z" fill="black"/>
</g>
<path d="M95.1006 277.539L95.8844 281.114C95.8844 281.114 92.0546 284.447 76.397 284.222C62.3783 284.035 58.976 281.302 58.976 281.302L57.8895 280.328L58.8513 276.958L95.1006 277.539Z" fill="#FFF7F7"/>
<path d="M95.1007 277.538H92.304H84.6089L58.8336 277.164H58.9405L57.9964 280.534V280.403L59.1364 281.414C59.5762 281.693 60.0417 281.925 60.5258 282.106L61.2562 282.368L62.0043 282.612C62.984 282.893 63.9815 283.117 64.979 283.305C66.912 283.663 68.8626 283.907 70.8217 284.035C74.3781 284.305 77.9459 284.374 81.5094 284.241C84.4022 284.168 87.285 283.855 90.1308 283.305C91.258 283.087 92.3707 282.793 93.4619 282.425C94.3302 282.155 95.1578 281.758 95.92 281.245L95.3857 278.606L95.2432 277.913V277.669C95.2499 277.744 95.2499 277.819 95.2432 277.894L95.3857 278.587C95.5282 279.186 95.7419 280.084 95.9913 281.226C95.2246 281.753 94.3911 282.162 93.5153 282.443C92.4252 282.825 91.3124 283.131 90.1843 283.361C87.3334 283.924 84.4447 284.249 81.5451 284.334C77.9822 284.48 74.4144 284.424 70.8573 284.166C68.8925 284.037 66.9359 283.793 64.9969 283.436C63.9826 283.252 62.9779 283.015 61.9865 282.724C61.7371 282.724 61.4877 282.574 61.2383 282.5C60.9889 282.425 60.7396 282.331 60.508 282.219C60.0017 282.043 59.5173 281.804 59.0652 281.507L57.9073 280.496C58.2458 279.336 58.5664 278.194 58.8692 277.127L84.6979 277.595L92.3575 277.744H94.4238H95.1185L95.1007 277.538Z" fill="#263238"/>
<path d="M58.8154 277.22C58.8154 278.943 66.8668 280.178 76.9489 280.459C83.8247 280.646 93.8712 279.261 95.1003 277.445C96.0622 276.059 86.9955 274.281 76.9846 274.206C66.9738 274.131 58.8332 275.535 58.8154 277.22Z" fill="white"/>
<path d="M58.8155 277.22C58.8075 277.152 58.8075 277.083 58.8155 277.014C58.8909 276.827 59.0142 276.665 59.1718 276.546C59.7894 276.125 60.4697 275.815 61.1846 275.629C63.797 274.958 66.4621 274.538 69.147 274.375C73.1191 274.083 77.104 274.033 81.0816 274.225C83.3439 274.356 85.6952 274.543 88.2068 274.899C89.4181 275.067 90.6472 275.273 91.8941 275.573C92.4975 275.709 93.0923 275.884 93.6753 276.097C93.9871 276.204 94.2908 276.335 94.5838 276.49L94.7976 276.621L95.0113 276.771C95.0798 276.83 95.1398 276.9 95.1895 276.977C95.2248 277.08 95.2248 277.192 95.1895 277.295C95.1738 277.399 95.1305 277.496 95.0648 277.576L94.8688 277.782C94.7395 277.892 94.6026 277.992 94.4591 278.081C94.1741 278.245 93.8761 278.383 93.5685 278.493C92.9873 278.727 92.3923 278.921 91.7872 279.074C90.5403 279.392 89.3112 279.617 88.0999 279.822C85.6773 280.178 83.326 280.403 81.0816 280.496C78.9514 280.609 76.8171 280.609 74.6868 280.496C72.6917 280.496 70.8214 280.272 69.1292 280.103C66.4509 279.911 63.793 279.479 61.1846 278.812C60.4658 278.638 59.7836 278.327 59.1718 277.894C59.01 277.78 58.8855 277.617 58.8155 277.426C58.8084 277.364 58.8084 277.301 58.8155 277.239C58.8155 277.239 58.8155 277.239 58.8155 277.426C58.8887 277.605 59.0133 277.756 59.1718 277.857C59.7922 278.26 60.4725 278.551 61.1846 278.718C63.7954 279.362 66.4528 279.775 69.1292 279.954C70.8214 280.103 72.6917 280.216 74.669 280.29C76.7933 280.403 78.9217 280.403 81.046 280.29C83.2904 280.178 85.6417 279.972 88.0643 279.598C89.2578 279.411 90.4868 279.167 91.7159 278.868C92.3199 278.711 92.9147 278.517 93.4972 278.287C93.796 278.169 94.0875 278.032 94.37 277.875C94.5017 277.793 94.6269 277.699 94.7441 277.595C94.8577 277.52 94.9451 277.408 94.9935 277.276C94.9922 277.209 94.9753 277.143 94.9442 277.085C94.9132 277.026 94.8689 276.976 94.8153 276.939C94.6196 276.809 94.6196 276.809 94.4236 276.678C94.1403 276.533 93.8488 276.408 93.5506 276.303C92.9664 276.099 92.3717 275.93 91.7694 275.797C90.5403 275.498 89.3112 275.292 88.0999 275.123C85.6952 274.768 83.3439 274.562 81.0994 274.449C77.1228 274.241 73.138 274.273 69.1648 274.543C66.4878 274.68 63.8285 275.075 61.2202 275.722C60.5149 275.893 59.841 276.184 59.2252 276.584C59.0713 276.696 58.9434 276.843 58.8511 277.014C58.8333 277.22 58.8333 277.22 58.8155 277.22Z" fill="#263238"/>
<path d="M87.2984 274.206L87.726 276.209C87.726 276.209 85.5706 278.269 76.771 277.969C67.9714 277.669 66.9917 276.322 66.9917 276.322L66.7424 276.003L66.9205 273.869L87.2984 274.206Z" fill="#FFF7F7"/>
<path d="M87.2984 274.206H85.713H81.3845L66.9026 274L67.0273 273.907C67.0273 274.58 66.9026 275.292 66.8492 276.022L67.0451 276.247C67.0852 276.326 67.1473 276.392 67.2232 276.434C67.7244 276.725 68.2651 276.933 68.8264 277.052C69.3786 277.201 69.9486 277.314 70.5008 277.407C71.6052 277.576 72.7096 277.688 73.7784 277.782C75.7512 277.952 77.7311 278.014 79.7101 277.969C81.3294 277.95 82.9443 277.788 84.5374 277.482C85.143 277.356 85.7385 277.18 86.3187 276.958C86.8033 276.808 87.2608 276.574 87.6725 276.265L87.3696 274.768V274.393C87.3654 274.343 87.3654 274.293 87.3696 274.244C87.3743 274.287 87.3743 274.331 87.3696 274.375L87.4587 274.749C87.5477 275.105 87.6546 275.591 87.8149 276.247C87.3937 276.563 86.9319 276.815 86.4434 276.996C85.8612 277.216 85.2663 277.398 84.6621 277.538C83.0646 277.864 81.4437 278.045 79.817 278.081C78.0357 278.081 75.9872 278.081 73.8496 277.913C72.7809 277.819 71.6765 277.707 70.5542 277.538C70.002 277.538 69.4321 277.332 68.8621 277.183C68.2744 277.059 67.7092 276.838 67.1876 276.527C67.0981 276.468 67.0196 276.392 66.9561 276.303L66.7779 276.078L66.9561 273.963V273.85H67.0629L81.5983 274.131L85.8912 274.244H87.049H87.4409L87.2984 274.206Z" fill="#263238"/>
<path d="M66.9029 274.038C66.9029 275.011 71.463 275.91 77.0919 275.91C82.7208 275.91 87.2987 275.18 87.2987 274.206C87.2987 273.233 82.7386 272.334 77.1097 272.334C71.4808 272.334 66.9029 273.064 66.9029 274.038Z" fill="white"/>
<path d="M66.9023 274.038C66.9023 274.038 66.9023 273.851 67.116 273.663C67.4542 273.414 67.8354 273.236 68.2382 273.139C69.7099 272.751 71.2126 272.507 72.7271 272.409C74.9679 272.242 77.2161 272.21 79.4603 272.315C80.7251 272.315 82.0432 272.465 83.4148 272.652C84.0917 272.765 84.7864 272.877 85.4989 273.046C85.8504 273.132 86.1957 273.245 86.5321 273.383C86.7067 273.451 86.8739 273.539 87.0308 273.645C87.1295 273.693 87.2153 273.766 87.2806 273.857C87.3458 273.949 87.3885 274.056 87.4049 274.169C87.3898 274.285 87.3478 274.395 87.2825 274.49C87.2173 274.584 87.1308 274.661 87.0308 274.712C86.8755 274.816 86.7078 274.898 86.5321 274.955C86.1912 275.093 85.8396 275.2 85.4811 275.273C84.7864 275.442 84.0917 275.554 83.397 275.648C82.0254 275.816 80.6895 275.891 79.4247 275.929C77.1847 276.016 74.9417 275.954 72.7092 275.741C71.1989 275.637 69.7018 275.38 68.2382 274.974C67.8325 274.86 67.4473 274.676 67.0982 274.431C66.8666 274.244 66.8845 274.038 66.9023 274.038C66.9123 274.112 66.9384 274.182 66.9785 274.244C67.0187 274.306 67.0719 274.357 67.1338 274.394C67.4811 274.617 67.8598 274.781 68.256 274.88C69.7242 275.252 71.2201 275.49 72.7271 275.592C74.9557 275.764 77.1916 275.808 79.4247 275.723C80.6895 275.723 82.0076 275.592 83.3792 275.423C84.0676 275.335 84.7513 275.21 85.4277 275.049C85.7732 274.978 86.1127 274.877 86.443 274.749L86.924 274.506C87.0665 274.506 87.1911 274.3 87.1911 274.169C87.1911 274.038 87.0665 273.925 86.924 273.832C86.7751 273.74 86.6203 273.658 86.4608 273.588C86.1224 273.457 85.7839 273.364 85.4455 273.27C84.7508 273.102 84.0739 272.989 83.3792 272.877C82.0254 272.69 80.7072 272.596 79.4425 272.521C77.2115 272.396 74.9759 272.396 72.7449 272.521C71.2396 272.595 69.7434 272.808 68.2738 273.158C67.8723 273.258 67.4878 273.422 67.1338 273.645C67.0683 273.686 67.0131 273.743 66.9728 273.812C66.9325 273.88 66.9083 273.958 66.9023 274.038Z" fill="#263238"/>
<path d="M75.4352 273.607L74.9542 250.467L77.7336 250.336L78.1969 273.626C77.1101 273.588 76.433 273.981 75.4352 273.607Z" fill="white"/>
<path d="M75.4354 273.607C75.6612 273.68 75.8945 273.724 76.1303 273.738C76.4208 273.763 76.7127 273.763 77.0033 273.738C77.4032 273.665 77.8091 273.633 78.2149 273.644C78.0901 269.432 77.8763 260.54 77.6803 250.449L77.7872 250.561L75.0078 250.673L75.1147 250.561C75.2394 257.057 75.3463 262.842 75.4176 266.998C75.4176 269.058 75.4176 270.743 75.4176 271.903V273.776C75.4214 273.738 75.4214 273.701 75.4176 273.663V273.326C75.4176 273.027 75.4176 272.577 75.4176 272.016C75.4176 270.855 75.4176 269.189 75.2929 267.129C75.186 262.955 75.0434 257.17 74.9009 250.636V250.524H75.0078L77.7694 250.393H77.8941V250.58C78.1079 260.764 78.2505 269.582 78.3039 273.794C77.9066 273.763 77.5075 273.763 77.1102 273.794C76.8197 273.82 76.5276 273.82 76.2372 273.794C76.0611 273.78 75.8876 273.742 75.7204 273.682L75.4354 273.607Z" fill="#263238"/>
<path d="M76.8786 250.486L77.3418 273.682L76.3085 273.644L75.6849 250.505L76.8786 250.486Z" fill="#455A64"/>
<path d="M74.4017 273.364C74.4017 273.364 75.6308 273.532 77.127 273.551C78.6233 273.569 79.8702 273.345 79.8702 273.42C79.619 273.525 79.3554 273.595 79.0865 273.626C78.4384 273.733 77.783 273.783 77.127 273.775C76.4758 273.774 75.8261 273.711 75.1854 273.588C74.9125 273.569 74.646 273.493 74.4017 273.364Z" fill="#263238"/>
<path d="M94.1745 282.031C93.9088 281.491 93.7283 280.909 93.64 280.309C93.4777 279.735 93.3703 279.146 93.3194 278.549C93.5851 279.089 93.7656 279.671 93.8538 280.271C94.0162 280.845 94.1236 281.435 94.1745 282.031Z" fill="#263238"/>
<path d="M91.2708 282.967C91.0214 282.405 90.836 281.815 90.7186 281.207C90.5304 280.601 90.4166 279.972 90.3801 279.336C90.6296 279.897 90.8149 280.488 90.9323 281.095C91.1318 281.698 91.2459 282.329 91.2708 282.967Z" fill="#263238"/>
<path d="M88.1357 283.697C87.9151 283.092 87.754 282.465 87.6548 281.825C87.5047 281.213 87.4152 280.585 87.3876 279.954C87.6276 280.552 87.7894 281.181 87.8685 281.825C88.0391 282.433 88.129 283.063 88.1357 283.697Z" fill="#263238"/>
<path d="M84.4484 284.109C84.1305 282.888 83.9511 281.631 83.914 280.365C84.0976 280.975 84.2229 281.602 84.2881 282.237C84.4035 282.853 84.4573 283.481 84.4484 284.109Z" fill="#263238"/>
<path d="M80.5653 284.296C80.5026 283.674 80.5026 283.047 80.5653 282.424C80.557 281.795 80.6168 281.167 80.7434 280.553C80.8061 281.175 80.8061 281.802 80.7434 282.424C80.7501 283.053 80.6904 283.681 80.5653 284.296Z" fill="#263238"/>
<path d="M77.394 284.203C77.3052 283.582 77.3052 282.951 77.394 282.331C77.3899 281.7 77.4618 281.071 77.6078 280.459C77.6972 281.08 77.6972 281.711 77.6078 282.331C77.6098 282.962 77.538 283.59 77.394 284.203Z" fill="#263238"/>
<path d="M74.0459 284.071C73.9814 283.446 74.0176 282.813 74.1528 282.2C74.2038 281.589 74.3419 280.989 74.5625 280.422C74.5657 281.051 74.4999 281.679 74.3666 282.293C74.3146 282.896 74.2072 283.491 74.0459 284.071Z" fill="#263238"/>
<path d="M70.0731 283.791C70.1267 283.153 70.2523 282.525 70.4471 281.919C70.5707 281.272 70.7681 280.644 71.0349 280.047C70.9921 280.686 70.8663 281.316 70.6609 281.919C70.5373 282.565 70.34 283.194 70.0731 283.791Z" fill="#263238"/>
<path d="M66.4574 283.51C66.5121 282.874 66.6315 282.247 66.8136 281.638C66.9196 280.989 67.1115 280.359 67.3836 279.766C67.3308 280.402 67.2113 281.03 67.0274 281.638C66.9216 282.287 66.7298 282.917 66.4574 283.51Z" fill="#263238"/>
<path d="M62.1999 282.649C62.2807 282.046 62.4302 281.455 62.6452 280.889C62.8067 280.302 63.034 279.736 63.3221 279.205C63.0808 280.396 62.704 281.552 62.1999 282.649Z" fill="#263238"/>
<path d="M59.0111 281.394C59.0802 280.853 59.218 280.325 59.4209 279.822C59.5444 279.292 59.749 278.786 60.0265 278.325C59.9596 278.866 59.8218 279.395 59.6168 279.897C59.4932 280.427 59.2887 280.933 59.0111 281.394Z" fill="#263238"/>
<path d="M84.484 402.054C86.2016 399.632 87.2607 396.766 87.5478 393.76C87.9036 391.071 87.4816 388.331 86.3366 385.897C86.2475 385.729 86.1584 385.542 85.9803 385.485C85.8089 385.413 85.6173 385.413 85.4459 385.485C84.017 386.227 82.7997 387.353 81.9175 388.748C81.0352 390.143 80.5191 391.758 80.4215 393.43C80.3239 395.102 80.6482 396.771 81.3616 398.269C82.0749 399.767 83.1521 401.04 84.484 401.96" fill="#29814B"/>
<path d="M90.0236 395.164C92.058 394.352 93.8438 392.974 95.1894 391.176C96.4776 389.595 97.2679 387.633 97.4516 385.56C97.5031 385.428 97.5031 385.28 97.4516 385.148C97.3519 385.044 97.2181 384.984 97.0776 384.98C95.8799 384.842 94.6688 385.04 93.5671 385.552C92.4653 386.064 91.5119 386.874 90.8032 387.898C90.0946 388.922 89.6558 390.124 89.5314 391.384C89.4071 392.643 89.6015 393.915 90.0949 395.07" fill="#29814B"/>
<path d="M89.0797 401.848C89.2122 401.165 89.1681 400.458 88.9519 399.799C88.7357 399.141 88.3554 398.555 87.8506 398.103C86.8481 397.235 85.5871 396.765 84.288 396.774C83.1334 396.735 81.9935 397.054 81.0104 397.692C80.5189 398.012 80.0927 398.432 79.7564 398.927C79.4201 399.422 79.1803 399.982 79.051 400.575C78.9312 401.327 78.9942 402.099 79.2339 402.819C79.4737 403.539 79.8826 404.184 80.4226 404.693C81.5185 405.707 82.9351 406.255 84.3949 406.229C85.621 406.258 86.812 405.796 87.7259 404.937C88.1504 404.546 88.4955 404.07 88.7403 403.536C88.9852 403.002 89.1249 402.421 89.1509 401.829" fill="#FFBA49"/>
<path d="M101.638 405.61C106.572 406.527 111.471 400.78 112.646 397.055C112.739 396.87 112.787 396.664 112.787 396.455C112.787 396.247 112.739 396.041 112.646 395.856C112.493 395.702 112.303 395.595 112.096 395.545C111.889 395.496 111.673 395.506 111.471 395.576C109.033 395.922 106.766 397.083 105.005 398.889C103.251 400.707 102.086 403.058 101.674 405.61" fill="#29814B"/>
<path d="M107.195 402.765C107.326 402.082 107.281 401.376 107.065 400.717C106.849 400.059 106.469 399.473 105.966 399.021C104.968 398.145 103.704 397.674 102.404 397.692C101.244 397.653 100.098 397.972 99.1082 398.609C98.5455 398.959 98.0703 399.444 97.7217 400.025C97.3732 400.607 97.1614 401.267 97.1039 401.951C97.0465 402.635 97.145 403.324 97.3913 403.961C97.6376 404.597 98.0247 405.163 98.5204 405.611C99.6135 406.627 101.033 407.169 102.493 407.127C103.717 407.168 104.91 406.712 105.824 405.854C106.255 405.465 106.606 404.986 106.854 404.448C107.102 403.91 107.243 403.325 107.267 402.728" fill="#FFBA49"/>
<path d="M71.1244 394.678C71.257 393.995 71.2129 393.287 70.9967 392.629C70.7805 391.97 70.4001 391.385 69.8953 390.933C68.8884 390.073 67.6303 389.604 66.3327 389.604C65.1776 389.581 64.0404 389.906 63.0552 390.54C62.4883 390.883 62.0082 391.364 61.6553 391.943C61.3025 392.522 61.0873 393.182 61.028 393.866C60.9686 394.551 61.0668 395.241 61.3142 395.877C61.5616 396.514 61.951 397.078 62.4495 397.523C63.5482 398.545 64.9731 399.093 66.4396 399.058C67.6658 399.088 68.8567 398.626 69.7706 397.767C70.1951 397.376 70.5402 396.9 70.785 396.366C71.0299 395.832 71.1696 395.251 71.1957 394.659" fill="#FFBA49"/>
<path d="M81.741 403.888C81.3552 400.895 80.204 398.067 78.41 395.707C76.8845 393.514 74.7594 391.862 72.318 390.971C72.1513 390.906 71.9682 390.906 71.8015 390.971C71.7184 391.019 71.6465 391.086 71.5911 391.167C71.5356 391.248 71.498 391.341 71.4808 391.439C70.9532 393.018 70.8316 394.716 71.1282 396.361C71.4248 398.005 72.1292 399.538 73.1702 400.805C74.2111 402.072 75.5517 403.028 77.0567 403.576C78.5616 404.124 80.1775 404.244 81.741 403.926" fill="#29814B"/>
<path d="M63.7143 399.264C62.7418 398.101 61.8714 396.848 61.1136 395.52C60.3655 394.155 59.9838 392.602 60.0092 391.027C60.0056 390.91 60.0242 390.793 60.064 390.684C60.1037 390.575 60.1638 390.475 60.2408 390.39C60.3419 390.344 60.4511 390.32 60.5614 390.32C60.6718 390.32 60.7809 390.344 60.882 390.39C63.6655 391.05 66.1826 392.609 68.0803 394.848C69.9779 397.088 71.1608 399.895 71.4629 402.877L71.6054 403.664C69.2524 405.115 66.4559 405.551 63.8033 404.88C61.6607 404.473 59.6152 403.627 57.7826 402.391C55.9475 401.124 54.6414 399.168 54.1309 396.924C55.7941 396.557 57.5135 396.576 59.1688 396.98C60.8241 397.385 62.3754 398.164 63.7143 399.264Z" fill="#29814B"/>
<path d="M94.4766 394.696C96.9091 392.308 99.9352 390.692 103.205 390.035C103.401 391.751 103.272 393.49 102.826 395.153C102.38 396.816 101.625 398.371 100.606 399.726C99.5857 401.081 98.3209 402.212 96.8838 403.051C95.4468 403.891 93.8659 404.424 92.2322 404.619L92.0363 404.244C91.5752 402.57 91.5589 400.796 91.9891 399.113C92.4193 397.429 93.2795 395.902 94.4766 394.696Z" fill="#29814B"/>
<path d="M111.524 401.904C109.651 409.55 106.284 416.704 101.638 422.909C90.7184 437.043 66.0119 433.112 59.3677 422.048C56.7848 417.817 49.9803 402.053 49.9803 402.053L111.524 401.904Z" fill="white"/>
<path d="M111.524 401.904H110.295H106.732H93.7645L49.9092 402.11L50.0695 401.829C52.0645 406.416 54.1843 411.19 56.4465 415.964C57.0343 417.199 57.64 418.416 58.2278 419.708C58.7987 420.912 59.4914 422.048 60.294 423.097C61.8994 425.132 63.8888 426.796 66.1367 427.983C70.3699 430.299 75.0467 431.579 79.817 431.727C84.1324 431.939 88.4418 431.193 92.4642 429.537C95.9557 428.069 99.0508 425.723 101.478 422.703C104.868 418.21 107.583 413.197 109.529 407.839C110.224 405.967 110.687 404.431 110.99 403.421L111.417 401.848C110.974 403.909 110.379 405.931 109.636 407.895C107.722 413.288 105.03 418.339 101.656 422.872C99.2078 425.948 96.0749 428.34 92.5354 429.836C88.4784 431.531 84.1244 432.297 79.7636 432.083C74.9389 431.959 70.2048 430.679 65.9229 428.339C63.6342 427.128 61.6086 425.432 59.9734 423.359C59.1608 422.287 58.4507 421.133 57.8537 419.914C57.248 418.697 56.6424 417.461 56.0724 416.17C53.7923 411.377 51.6904 406.622 49.6776 402.035L49.5707 401.754H111.399L111.524 401.904Z" fill="#263238"/>
<path d="M107.481 412.463C107.481 412.575 95.6707 412.65 81.0997 412.65C66.5288 412.65 54.701 412.65 54.701 412.463C54.701 412.275 66.511 412.275 81.0997 412.275C95.6885 412.275 107.481 412.35 107.481 412.463Z" fill="#FFBA49"/>
<path d="M108.55 410.872C108.55 410.984 96.3125 411.059 81.225 411.059C66.1375 411.059 53.9 411.059 53.9 410.872C53.9 410.684 66.1196 410.666 81.225 410.666C96.3303 410.666 108.55 410.759 108.55 410.872Z" fill="#FFBA49"/>
<g opacity="0.9">
<path d="M49.184 216.172C31.8633 197.972 31.998 168.323 49.4849 149.948C66.9718 131.574 95.189 131.432 112.51 149.632C129.831 167.832 129.696 197.481 112.209 215.856C94.722 234.23 66.5048 234.372 49.184 216.172Z" fill="#263238" stroke="#263238" stroke-width="0.214202" stroke-miterlimit="10"/>
<path d="M47.5007 214.901C29.8845 196.39 29.8844 166.379 47.5007 147.869C65.1169 129.358 93.6784 129.358 111.295 147.869C128.911 166.379 128.911 196.39 111.295 214.901C93.6784 233.411 65.1169 233.411 47.5007 214.901Z" fill="white" stroke="#263238" stroke-width="0.0682086" stroke-miterlimit="10"/>
<path d="M47.4486 185.246C47.4486 185.246 51.5998 181.002 52.6039 179.709C53.6081 178.417 56.5135 175.518 56.5135 175.518L62.0506 171.598L66.5994 166.569C66.5994 166.569 67.255 165.566 68.6238 164.561C69.9925 163.557 73.2237 161.279 73.2237 161.279L80.9224 157.034L83.2906 155.488C83.2906 155.488 86.5617 153.628 87.0777 153.192L87.5938 152.756C87.5938 152.756 90.0862 155.279 90.5025 155.828C90.9174 156.37 91.94 157.154 92.1649 158.01L92.3899 158.865L85.6069 164.132C85.6069 164.132 78.9814 168.672 77.371 169.729C75.7606 170.786 77.702 168.855 74.2407 171.772C70.7794 174.688 68.7774 176.529 68.7774 176.529L64.2453 180.65L60.8227 183.234C60.8227 183.234 59.2685 184.544 57.4519 186.079C55.6337 187.609 56.9123 185.933 55.0287 188.123C53.1436 190.306 51.8311 191.563 51.8311 191.563L51.1579 191.982L50.1704 192.366L49.0413 191.075C49.0413 191.075 49.4732 189.966 48.9 188.657C48.3269 187.348 48.0513 186.982 48.0513 186.982L47.4442 185.254L47.4486 185.246Z" fill="url(#paint0_linear_11_282)"/>
<path d="M50.7226 186.37C50.914 186.063 56.6924 182.833 56.6924 182.833L59.3912 181.156L60.9454 179.846C60.9454 179.846 53.9954 187.495 53.5475 188.026C53.0981 188.551 50.3159 191.047 50.3159 191.047" fill="url(#paint1_linear_11_282)"/>
<path d="M51.7246 185.071C51.7246 185.071 56.9977 181.37 57.7614 180.88C58.5251 180.39 62.9009 177.744 63.681 177.089C64.4611 176.433 71.7765 170.566 72.1577 169.946C72.539 169.326 69.3015 172.349 75.3211 166.83C81.3407 161.311 85.7508 158.342 85.7508 158.342L86.9297 157.65" fill="url(#paint2_linear_11_282)"/>
<path d="M86.5995 160.017C86.5995 160.017 75.7725 168.547 73.729 169.964C71.6871 171.387 62.7609 179.055 62.7609 179.055L60.1296 182.313" fill="url(#paint3_linear_11_282)"/>
<path d="M53.7831 180.504C53.7831 180.504 58.8333 178.189 60.1175 177.255C61.3973 176.328 63.58 175.088 63.58 175.088L67.1924 172.19L70.2561 170.058" fill="url(#paint4_linear_11_282)"/>
<path d="M39.7078 177.849C39.7078 177.849 47.555 175.343 48.3618 174.642C49.1687 173.941 53.3153 169.605 53.3153 169.605L54.8112 169.044L58.6777 166.034L63.2332 163.164L67.4752 158.697L70.0718 156.217L72.9478 152.405L74.3561 151.149C74.3561 151.149 79.666 149.82 80.1721 149.397C80.6781 148.973 81.9911 147.849 81.9911 147.849L84.0885 146.733L85.0714 145.655C85.0714 145.655 83.7672 144.19 83.2329 142.618C82.6985 141.046 82.3033 139.689 82.3033 139.689L81.8128 138.464L73.4741 141.51L67.7508 146.654L65.8871 149.619L64.7279 151.075L62.6133 155.598L60.8828 156.075L56.3282 157.181C56.3282 157.181 59.8414 156.69 55.2722 157.681C50.703 158.671 46.515 161.843 46.515 161.843L44.0362 163.483L40.6268 163.959C40.6268 163.959 41.0521 163.782 39.0871 164.174C37.122 164.565 36.9167 164.712 36.6013 164.873C36.286 165.035 35.7361 165.112 35.7361 165.112C35.7361 165.112 35.3692 165.751 35.523 166.082C35.6768 166.414 35.7721 166.283 36.0135 167.308C36.2549 168.333 36.3503 168.202 36.4379 168.895C36.5255 169.589 36.2549 168.333 36.5255 169.589C36.7961 170.845 36.8477 170.367 36.6784 171.685L36.509 173.002L36.7135 174.621C36.7719 175.083 36.8964 175.183 37.0648 175.63C37.2332 176.077 37.4006 178.289 39.6956 177.851L39.7078 177.849Z" fill="url(#paint5_linear_11_282)" stroke="#883B32" stroke-width="0.05" stroke-miterlimit="10"/>
<path d="M39.6127 176.214L42.7953 174.829C42.7953 174.829 43.5213 174.375 44.0274 173.952C44.5335 173.528 46.4917 172.196 46.4917 172.196L50.475 170.111L52.5432 168.764L53.7753 167.886L54.443 166.97" fill="url(#paint6_linear_11_282)"/>
<path d="M39.6127 176.214L42.7953 174.829C42.7953 174.829 43.5213 174.375 44.0274 173.952C44.5335 173.528 46.4917 172.196 46.4917 172.196L50.475 170.111L52.5432 168.764L53.7753 167.886L54.443 166.97" stroke="#883B32" stroke-width="0.05" stroke-miterlimit="10"/>
<path d="M64.3562 160.543L67.9237 156.052C67.9237 156.052 69.8896 153.896 70.0512 153.403C70.2127 152.91 71.005 152.094 71.005 152.094L72.3325 151.085L74.3345 150.1L76.2849 149.593L77.3117 148.861L78.5516 147.159" fill="url(#paint7_linear_11_282)"/>
<path d="M64.3562 160.543L67.9237 156.052C67.9237 156.052 69.8896 153.896 70.0512 153.403C70.2127 152.91 71.005 152.094 71.005 152.094L72.3325 151.085L74.3345 150.1L76.2849 149.593L77.3117 148.861L78.5516 147.159" stroke="#883B32" stroke-width="0.05" stroke-miterlimit="10"/>
<path d="M38.7172 166.467L43.9402 164.45L45.297 163.673L46.633 162.781L50.0209 161.249" fill="url(#paint8_linear_11_282)"/>
<path d="M38.7172 166.467L43.9402 164.45L45.297 163.673L46.633 162.781L50.0209 161.249" stroke="#883B32" stroke-width="0.05" stroke-miterlimit="10"/>
<path d="M42.529 169.227L44.4357 168.373C44.4357 168.373 46.643 167.242 46.9292 166.849C47.2153 166.456 49.0119 165.617 49.0119 165.617L50.1633 164.986" fill="url(#paint9_linear_11_282)"/>
<path d="M42.529 169.227L44.4357 168.373C44.4357 168.373 46.643 167.242 46.9292 166.849C47.2153 166.456 49.0119 165.617 49.0119 165.617L50.1633 164.986" stroke="#883B32" stroke-width="0.05" stroke-miterlimit="10"/>
<path d="M62.7665 157.706C62.7665 157.706 64.5932 155.334 64.8794 154.942C65.1655 154.549 66.5592 153.178 66.5592 153.178L67.4468 152.231L68.2322 150.474L69.7583 148.38" fill="url(#paint10_linear_11_282)"/>
<path d="M62.7665 157.706C62.7665 157.706 64.5932 155.334 64.8794 154.942C65.1655 154.549 66.5592 153.178 66.5592 153.178L67.4468 152.231L68.2322 150.474L69.7583 148.38" stroke="#883B32" stroke-width="0.05" stroke-miterlimit="10"/>
<path d="M38.8612 171.15L41.472 169.727" stroke="#883B32" stroke-width="0.05" stroke-miterlimit="10"/>
<path d="M49.005 167.383L51.7698 165.35" stroke="#883B32" stroke-width="0.05" stroke-miterlimit="10"/>
<path d="M57.0098 198.468C57.0098 198.468 60.1692 193.368 60.8776 191.874C61.5861 190.381 63.8123 186.881 63.8123 186.881L68.3913 181.774L71.7739 175.815C71.7739 175.815 72.2031 174.685 73.3276 173.388C74.4521 172.092 77.1262 169.121 77.1262 169.121L83.7456 163.198L85.7314 161.141C85.7314 161.141 88.532 158.569 88.944 158.024L89.3559 157.479C89.3559 157.479 92.3162 159.364 92.8374 159.802C93.3557 160.235 94.5176 160.764 94.9164 161.546L95.3152 162.328L89.8031 169.036C89.8031 169.036 84.2925 174.999 82.9433 176.403C81.5941 177.807 83.0829 175.474 80.3183 179.121C77.5536 182.767 75.9867 185.026 75.9867 185.026L72.4299 190.095L69.6334 193.409C69.6334 193.409 68.392 195.046 66.942 196.965C65.4892 198.878 66.3849 196.947 65.0068 199.519C63.6258 202.085 62.6091 203.615 62.6091 203.615L62.0402 204.18L61.1576 204.783L59.7857 203.786C59.7857 203.786 59.9744 202.604 59.1408 201.46C58.3073 200.316 57.9617 200.022 57.9617 200.022L57.0072 198.477L57.0098 198.468Z" fill="url(#paint11_linear_11_282)"/>
<path d="M60.4389 198.806C60.5613 198.463 65.5204 193.974 65.5204 193.974L67.8013 191.713L69.0427 190.076C69.0427 190.076 63.8672 199.146 63.5416 199.767C63.2133 200.383 61.0229 203.463 61.0229 203.463" fill="url(#paint12_linear_11_282)"/>
<path d="M61.1434 197.308C61.1434 197.308 65.5109 192.477 66.153 191.821C66.7951 191.166 70.5088 187.573 71.1322 186.753C71.7556 185.932 77.661 178.515 77.9029 177.822C78.1448 177.129 75.6207 180.827 80.3352 174.05C85.0497 167.272 88.7288 163.355 88.7288 163.355L89.7337 162.408" fill="url(#paint13_linear_11_282)"/>
<path d="M89.9086 164.793C89.9086 164.793 81.1363 175.621 79.4401 177.476C77.7468 179.337 70.6477 188.883 70.6477 188.883L68.7643 192.671" fill="url(#paint14_linear_11_282)"/>
<path d="M62.1944 192.376C62.1944 192.376 66.6352 188.949 67.6919 187.74C68.746 186.54 70.6149 184.824 70.6149 184.824L73.531 181.161L76.0724 178.372" fill="url(#paint15_linear_11_282)"/>
<path d="M47.9082 193.047C47.9082 193.047 55.037 188.785 55.6771 187.914C56.3171 187.044 59.4527 181.854 59.4527 181.854L60.794 180.96L63.9345 177.129L67.7762 173.274L70.9773 167.934L72.9902 164.914L74.9961 160.529L76.1066 158.979C76.1066 158.979 81.0073 156.453 81.4122 155.922C81.817 155.392 82.862 153.992 82.862 153.992L84.6738 152.417L85.4066 151.138C85.4066 151.138 83.8273 150.011 82.9764 148.601C82.1256 147.192 81.4557 145.96 81.4557 145.96L80.7203 144.878L73.2252 149.78L68.7212 156.124L67.525 159.448L66.6995 161.136L65.5852 166.038L63.9972 166.903L59.7864 169.037C59.7864 169.037 63.1105 167.745 58.8613 169.77C54.612 171.794 51.1921 175.858 51.1921 175.858L49.118 178.032L45.8922 179.285C45.8922 179.285 46.27 179.014 44.4354 179.851C42.6008 180.689 42.4312 180.879 42.1575 181.11C41.8838 181.34 41.3635 181.542 41.3635 181.542C41.3635 181.542 41.1396 182.251 41.3591 182.539C41.5786 182.826 41.6442 182.676 42.0945 183.62C42.5449 184.564 42.6105 184.414 42.8414 185.071C43.0722 185.727 42.5449 184.564 43.0722 185.727C43.5995 186.889 43.5497 186.411 43.6608 187.736L43.7718 189.06L44.3105 190.591C44.4644 191.029 44.607 191.098 44.8649 191.495C45.1229 191.892 45.7499 194.01 47.8967 193.051L47.9082 193.047Z" fill="url(#paint16_linear_11_282)" stroke="#883B32" stroke-width="0.05" stroke-miterlimit="10"/>
<path d="M47.4731 191.474L50.287 189.386C50.287 189.386 50.9 188.775 51.3048 188.244C51.7097 187.714 53.3405 185.961 53.3405 185.961L56.7887 183.005L58.5236 181.212L59.5414 180.071L60.0005 179.022" fill="url(#paint17_linear_11_282)"/>
<path d="M47.4731 191.474L50.287 189.386C50.287 189.386 50.9 188.775 51.3048 188.244C51.7097 187.714 53.3405 185.961 53.3405 185.961L56.7887 183.005L58.5236 181.212L59.5414 180.071L60.0005 179.022" stroke="#883B32" stroke-width="0.05" stroke-miterlimit="10"/>
<path d="M68.3217 170.458L70.86 165.251C70.86 165.251 72.3255 162.693 72.3797 162.174C72.4339 161.656 73.0355 160.676 73.0355 160.676L74.119 159.385L75.8652 157.96L77.6613 157.014L78.5095 156.062L79.362 154.115" fill="url(#paint18_linear_11_282)"/>
<path d="M68.3217 170.458L70.86 165.251C70.86 165.251 72.3255 162.693 72.3797 162.174C72.4339 161.656 73.0355 160.676 73.0355 160.676L74.119 159.385L75.8652 157.96L77.6613 157.014L78.5095 156.062L79.362 154.115" stroke="#883B32" stroke-width="0.05" stroke-miterlimit="10"/>
<path d="M44.5553 182.173L49.2273 178.997L50.3877 177.925L51.5038 176.745L54.4873 174.467" fill="url(#paint19_linear_11_282)"/>
<path d="M44.5553 182.173L49.2273 178.997L50.3877 177.925L51.5038 176.745L54.4873 174.467" stroke="#883B32" stroke-width="0.05" stroke-miterlimit="10"/>
<path d="M48.8527 183.984L50.5335 182.709C50.5335 182.709 52.4496 181.094 52.6464 180.645C52.8431 180.195 54.4199 178.961 54.4199 178.961L55.4107 178.078" fill="url(#paint20_linear_11_282)"/>
<path d="M48.8527 183.984L50.5335 182.709C50.5335 182.709 52.4496 181.094 52.6464 180.645C52.8431 180.195 54.4199 178.961 54.4199 178.961L55.4107 178.078" stroke="#883B32" stroke-width="0.05" stroke-miterlimit="10"/>
<path d="M66.1773 168.06C66.1773 168.06 67.462 165.323 67.6587 164.873C67.8555 164.424 68.9277 162.764 68.9277 162.764L69.5949 161.634L69.9928 159.739L71.0422 157.342" fill="url(#paint21_linear_11_282)"/>
<path d="M66.1773 168.06C66.1773 168.06 67.462 165.323 67.6587 164.873C67.8555 164.424 68.9277 162.764 68.9277 162.764L69.5949 161.634L69.9928 159.739L71.0422 157.342" stroke="#883B32" stroke-width="0.05" stroke-miterlimit="10"/>
<path d="M45.6782 186.708L47.9266 184.716" stroke="#883B32" stroke-width="0.05" stroke-miterlimit="10"/>
<path d="M54.7824 180.684L57.053 178.061" stroke="#883B32" stroke-width="0.05" stroke-miterlimit="10"/>
<path d="M87.1115 183.211C78.262 176.605 76.2984 163.54 82.7257 154.03C89.153 144.52 101.537 142.167 110.387 148.773C119.236 155.38 121.2 168.445 114.773 177.954C108.345 187.464 95.961 189.818 87.1115 183.211Z" fill="#FFE7C6"/>
<path d="M86.1007 182.457C77.81 176.267 76.094 163.845 82.2678 154.71C88.4417 145.575 100.168 143.187 108.458 149.376C116.749 155.566 118.465 167.988 112.291 177.123C106.117 186.258 94.3914 188.646 86.1007 182.457Z" fill="#FFBA49" stroke="#A6671D" stroke-width="0.05" stroke-miterlimit="10"/>
<path d="M106.568 152.874C106.568 152.874 103.237 152.991 103.254 153.654C103.27 154.317 103.98 156.474 103.98 156.474" stroke="#A6671D" stroke-width="0.05" stroke-miterlimit="10"/>
<path d="M107.14 158.67L104.487 159.618L104.762 162.418" stroke="#A6671D" stroke-width="0.05" stroke-miterlimit="10"/>
<path d="M108.491 165.364C108.491 165.364 104.839 165.728 105.002 166.175C105.164 166.622 105.668 168.625 105.668 168.625" stroke="#A6671D" stroke-width="0.05" stroke-miterlimit="10"/>
<path d="M109.149 170.574C109.149 170.574 106.465 171.336 106.173 171.769C105.881 172.202 106.637 175.207 106.637 175.207" stroke="#A6671D" stroke-width="0.05" stroke-miterlimit="10"/>
<path d="M109.62 177.424C109.62 177.424 107.582 177.692 107.362 178.016" stroke="#A6671D" stroke-width="0.05" stroke-miterlimit="10"/>
<path d="M104.157 178.878C104.157 178.878 101.487 179.162 101.254 179.965C101.022 180.768 101.878 182.708 101.878 182.708" stroke="#A6671D" stroke-width="0.05" stroke-miterlimit="10"/>
<path d="M103.628 172.788C103.628 172.788 99.9748 173.153 99.9613 173.631C99.9479 174.109 100.322 176.992 100.322 176.992" stroke="#A6671D" stroke-width="0.05" stroke-miterlimit="10"/>
<path d="M101.663 166.774L98.8675 167.932L99.534 170.382" stroke="#A6671D" stroke-width="0.05" stroke-miterlimit="10"/>
<path d="M101.456 160.438C101.456 160.438 98.9161 159.843 98.567 161.047C98.2179 162.251 99.074 164.192 99.074 164.192" stroke="#A6671D" stroke-width="0.05" stroke-miterlimit="10"/>
<path d="M101.089 153.664C101.089 153.664 96.3202 153.847 96.5289 155.142C96.7377 156.437 97.5937 158.377 97.5937 158.377" stroke="#A6671D" stroke-width="0.05" stroke-miterlimit="10"/>
<path d="M100.122 148.223C100.122 148.223 95.6781 149.3 95.7676 149.855C95.8571 150.409 97.0055 151.918 97.0055 151.918" stroke="#A6671D" stroke-width="0.05" stroke-miterlimit="10"/>
<path d="M109.656 151.283L108.427 152.643L110.14 155.377" stroke="#A6671D" stroke-width="0.05" stroke-miterlimit="10"/>
<path d="M112.257 157.283L109.942 158.647L110.576 162.049" stroke="#A6671D" stroke-width="0.05" stroke-miterlimit="10"/>
<path d="M113.733 163.104L110.654 164.223L111.812 168.007" stroke="#A6671D" stroke-width="0.05" stroke-miterlimit="10"/>
<path d="M113.342 169.637C113.342 169.637 111.686 170.027 111.496 170.536C111.307 171.045 112.222 173.356 112.222 173.356" stroke="#A6671D" stroke-width="0.05" stroke-miterlimit="10"/>
<path d="M95.9034 161.336L92.6528 162.48L93.2194 165.994" stroke="#A6671D" stroke-width="0.05" stroke-miterlimit="10"/>
<path d="M89.2967 163.553L86.0477 164.708L86.6127 168.212" stroke="#A6671D" stroke-width="0.05" stroke-miterlimit="10"/>
<path d="M89.473 157.349L86.2224 158.493L86.789 162.008" stroke="#A6671D" stroke-width="0.05" stroke-miterlimit="10"/>
<path d="M91.2187 169.87L87.968 171.014L88.5347 174.529" stroke="#A6671D" stroke-width="0.05" stroke-miterlimit="10"/>
<path d="M92.2171 176.626L88.9681 177.781L89.5331 181.285" stroke="#A6671D" stroke-width="0.05" stroke-miterlimit="10"/>
<path d="M86.0636 171.544L82.8146 172.698L83.3796 176.202" stroke="#A6671D" stroke-width="0.05" stroke-miterlimit="10"/>
<path d="M84.3648 166.054L81.1142 167.198L81.6808 170.713" stroke="#A6671D" stroke-width="0.05" stroke-miterlimit="10"/>
<path d="M94.3973 155.33L91.1426 156.48L91.7035 159.991" stroke="#A6671D" stroke-width="0.05" stroke-miterlimit="10"/>
<path d="M97.0346 168.354L93.7856 169.508L94.3465 173.019" stroke="#A6671D" stroke-width="0.05" stroke-miterlimit="10"/>
<path d="M97.8289 174.967L94.5782 176.111L95.1448 179.626" stroke="#A6671D" stroke-width="0.05" stroke-miterlimit="10"/>
<path d="M99.1467 180.335L95.8977 181.489L96.4586 185" stroke="#A6671D" stroke-width="0.05" stroke-miterlimit="10"/>
<path d="M83.5401 159.256L83.8575 162.909L81.8488 163.362" stroke="#A6671D" stroke-width="0.05" stroke-miterlimit="10"/>
<path d="M86.0943 155.477L88.9963 154.39L88.5058 151.909" stroke="#A6671D" stroke-width="0.05" stroke-miterlimit="10"/>
<path d="M93.801 152.779L91.8693 153.118L91.1094 150.119" stroke="#A6671D" stroke-width="0.05" stroke-miterlimit="10"/>
<path d="M87.6573 179.721L87.0166 177.462L84.5436 178.373" stroke="#A6671D" stroke-width="0.05" stroke-miterlimit="10"/>
<path d="M89.3622 207.83C80.2589 201.616 77.7799 188.648 83.8253 178.866C89.8707 169.083 102.151 166.19 111.254 172.404C120.358 178.618 122.837 191.586 116.791 201.369C110.746 211.151 98.4655 214.044 89.3622 207.83Z" fill="#FFE7C6"/>
<path d="M88.3116 207.121C79.7831 201.3 77.5769 188.963 83.3839 179.566C89.191 170.169 100.812 167.271 109.341 173.092C117.869 178.914 120.075 191.251 114.268 200.648C108.461 210.045 96.84 212.943 88.3116 207.121Z" fill="#FFBA49" stroke="#A6671D" stroke-width="0.05" stroke-miterlimit="10"/>
<path d="M107.597 176.673C107.597 176.673 104.274 176.936 104.316 177.598C104.359 178.259 105.153 180.384 105.153 180.384" stroke="#A6671D" stroke-width="0.05" stroke-miterlimit="10"/>
<path d="M108.401 182.433L105.788 183.496L106.17 186.288" stroke="#A6671D" stroke-width="0.05" stroke-miterlimit="10"/>
<path d="M110.011 189.068C110.011 189.068 106.377 189.592 106.557 190.031C106.737 190.47 107.32 192.45 107.32 192.45" stroke="#A6671D" stroke-width="0.05" stroke-miterlimit="10"/>
<path d="M110.873 194.234C110.873 194.234 108.222 195.114 107.947 195.559C107.672 196.004 108.547 198.973 108.547 198.973" stroke="#A6671D" stroke-width="0.05" stroke-miterlimit="10"/>
<path d="M111.617 201.069C111.617 201.069 109.591 201.425 109.385 201.759" stroke="#A6671D" stroke-width="0.05" stroke-miterlimit="10"/>
<path d="M106.214 202.75C106.214 202.75 103.558 203.151 103.357 203.963C103.156 204.775 104.088 206.677 104.088 206.677" stroke="#A6671D" stroke-width="0.05" stroke-miterlimit="10"/>
<path d="M105.448 196.699C105.448 196.699 101.812 197.223 101.818 197.701C101.823 198.18 102.311 201.044 102.311 201.044" stroke="#A6671D" stroke-width="0.05" stroke-miterlimit="10"/>
<path d="M103.25 190.77L100.499 192.056L101.256 194.47" stroke="#A6671D" stroke-width="0.05" stroke-miterlimit="10"/>
<path d="M102.788 184.454C102.788 184.454 100.227 183.971 99.9255 185.189C99.6244 186.407 100.557 188.308 100.557 188.308" stroke="#A6671D" stroke-width="0.05" stroke-miterlimit="10"/>
<path d="M102.157 177.696C102.157 177.696 97.3997 178.087 97.6595 179.372C97.9193 180.656 98.8515 182.558 98.8515 182.558" stroke="#A6671D" stroke-width="0.05" stroke-miterlimit="10"/>
<path d="M100.971 172.309C100.971 172.309 96.5744 173.578 96.6857 174.129C96.7971 174.679 98.0042 176.136 98.0042 176.136" stroke="#A6671D" stroke-width="0.05" stroke-miterlimit="10"/>
<path d="M110.623 174.943L109.449 176.356L111.259 179.014" stroke="#A6671D" stroke-width="0.05" stroke-miterlimit="10"/>
<path d="M113.448 180.826L111.193 182.283L111.967 185.659" stroke="#A6671D" stroke-width="0.05" stroke-miterlimit="10"/>
<path d="M115.164 186.575L112.132 187.828L113.43 191.561" stroke="#A6671D" stroke-width="0.05" stroke-miterlimit="10"/>
<path d="M115.023 193.122C115.023 193.122 113.384 193.584 113.214 194.101C113.045 194.618 114.051 196.887 114.051 196.887" stroke="#A6671D" stroke-width="0.05" stroke-miterlimit="10"/>
<path d="M97.2792 185.588L94.0728 186.879L94.7722 190.362" stroke="#A6671D" stroke-width="0.05" stroke-miterlimit="10"/>
<path d="M90.7668 188.093L87.5604 189.384L88.2657 192.871" stroke="#A6671D" stroke-width="0.05" stroke-miterlimit="10"/>
<path d="M90.6916 181.882L87.491 183.177L88.1942 186.654" stroke="#A6671D" stroke-width="0.05" stroke-miterlimit="10"/>
<path d="M92.9321 194.316L89.7315 195.611L90.4347 199.088" stroke="#A6671D" stroke-width="0.05" stroke-miterlimit="10"/>
<path d="M94.202 201.027L90.9956 202.318L91.7009 205.805" stroke="#A6671D" stroke-width="0.05" stroke-miterlimit="10"/>
<path d="M87.8517 196.217L84.6453 197.509L85.3506 200.996" stroke="#A6671D" stroke-width="0.05" stroke-miterlimit="10"/>
<path d="M85.9307 190.802L82.734 192.091L83.4333 195.574" stroke="#A6671D" stroke-width="0.05" stroke-miterlimit="10"/>
<path d="M95.5277 179.656L92.3251 180.941L93.0304 184.428" stroke="#A6671D" stroke-width="0.05" stroke-miterlimit="10"/>
<path d="M98.684 192.557L95.4814 193.842L96.1867 197.328" stroke="#A6671D" stroke-width="0.05" stroke-miterlimit="10"/>
<path d="M99.7376 199.12L96.537 200.415L97.2402 203.892" stroke="#A6671D" stroke-width="0.05" stroke-miterlimit="10"/>
<path d="M101.268 204.435L98.0658 205.72L98.771 209.207" stroke="#A6671D" stroke-width="0.05" stroke-miterlimit="10"/>
<path d="M84.8448 184.051L85.3065 187.687L83.3175 188.227" stroke="#A6671D" stroke-width="0.05" stroke-miterlimit="10"/>
<path d="M87.2473 180.163L90.1038 178.95L89.5117 176.499" stroke="#A6671D" stroke-width="0.05" stroke-miterlimit="10"/>
<path d="M94.8347 177.126L92.9144 177.555L92.0461 174.59" stroke="#A6671D" stroke-width="0.05" stroke-miterlimit="10"/>
<path d="M89.7593 204.32L89.0335 202.085L86.5949 203.109" stroke="#A6671D" stroke-width="0.05" stroke-miterlimit="10"/>
<path d="M56.9005 217.495C49.5263 209.123 50.1506 195.913 58.2951 187.988C66.4395 180.064 79.0199 180.426 86.3942 188.798C93.7685 197.169 93.1441 210.38 84.9997 218.304C76.8552 226.229 64.2748 225.866 56.9005 217.495Z" fill="#FFE7C6"/>
<path d="M56.0478 216.537C49.1391 208.694 49.8807 196.165 57.704 188.553C65.5273 180.941 77.4699 181.129 84.3785 188.972C91.2872 196.814 90.5456 209.343 82.7223 216.955C74.899 224.567 62.9564 224.38 56.0478 216.537Z" fill="#FFBA49" stroke="#A6671D" stroke-width="0.05" stroke-miterlimit="10"/>
<path d="M81.8523 191.993C81.8523 191.993 78.5694 191.391 78.4562 192.043C78.343 192.696 78.6174 194.96 78.6174 194.96" stroke="#A6671D" stroke-width="0.05" stroke-miterlimit="10"/>
<path d="M81.2776 197.784L78.5054 198.141L78.2193 200.941" stroke="#A6671D" stroke-width="0.05" stroke-miterlimit="10"/>
<path d="M81.2989 204.632C81.2989 204.632 77.6532 204.203 77.7252 204.675C77.7972 205.147 77.9001 207.216 77.9001 207.216" stroke="#A6671D" stroke-width="0.05" stroke-miterlimit="10"/>
<path d="M80.9226 209.868C80.9226 209.868 78.1474 210.037 77.7769 210.397C77.4064 210.758 77.5608 213.862 77.5608 213.862" stroke="#A6671D" stroke-width="0.05" stroke-miterlimit="10"/>
<path d="M80.0534 216.68C80.0534 216.68 78.0066 216.503 77.7289 216.773" stroke="#A6671D" stroke-width="0.05" stroke-miterlimit="10"/>
<path d="M74.4229 216.916C74.4229 216.916 71.7541 216.62 71.3699 217.355C70.9856 218.09 71.4453 220.174 71.4453 220.174" stroke="#A6671D" stroke-width="0.05" stroke-miterlimit="10"/>
<path d="M75.0922 210.852C75.0922 210.852 71.4457 210.423 71.3393 210.888C71.233 211.353 71.0374 214.255 71.0374 214.255" stroke="#A6671D" stroke-width="0.05" stroke-miterlimit="10"/>
<path d="M74.3414 204.533L71.3795 205.075L71.5496 207.61" stroke="#A6671D" stroke-width="0.05" stroke-miterlimit="10"/>
<path d="M75.3732 198.296C75.3732 198.296 73.0028 197.167 72.4265 198.27C71.8502 199.373 72.3098 201.457 72.3098 201.457" stroke="#A6671D" stroke-width="0.05" stroke-miterlimit="10"/>
<path d="M76.3299 191.582C76.3299 191.582 71.6268 190.734 71.5788 192.046C71.5307 193.359 71.9903 195.443 71.9903 195.443" stroke="#A6671D" stroke-width="0.05" stroke-miterlimit="10"/>
<path d="M76.4482 186.054C76.4482 186.054 71.8891 186.15 71.8685 186.713C71.848 187.275 72.6781 188.999 72.6781 188.999" stroke="#A6671D" stroke-width="0.05" stroke-miterlimit="10"/>
<path d="M85.1843 191.101L83.7215 192.163L84.8553 195.207" stroke="#A6671D" stroke-width="0.05" stroke-miterlimit="10"/>
<path d="M86.5558 197.528L84.0241 198.364L83.9863 201.836" stroke="#A6671D" stroke-width="0.05" stroke-miterlimit="10"/>
<path d="M86.8661 203.544L83.6446 203.976L84.0308 207.93" stroke="#A6671D" stroke-width="0.05" stroke-miterlimit="10"/>
<path d="M85.21 209.854C85.21 209.854 83.5123 209.879 83.2277 210.337C82.943 210.795 83.3888 213.253 83.3888 213.253" stroke="#A6671D" stroke-width="0.05" stroke-miterlimit="10"/>
<path d="M69.759 197.974L66.3591 198.4L66.2238 201.957" stroke="#A6671D" stroke-width="0.05" stroke-miterlimit="10"/>
<path d="M62.8641 198.728L59.4543 199.153L59.329 202.71" stroke="#A6671D" stroke-width="0.05" stroke-miterlimit="10"/>
<path d="M64.2474 192.683L60.8423 193.113L60.7071 196.67" stroke="#A6671D" stroke-width="0.05" stroke-miterlimit="10"/>
<path d="M63.5167 205.315L60.1116 205.745L59.9764 209.302" stroke="#A6671D" stroke-width="0.05" stroke-miterlimit="10"/>
<path d="M63.1758 212.153L59.7711 212.573L59.6406 216.135" stroke="#A6671D" stroke-width="0.05" stroke-miterlimit="10"/>
<path d="M58.1423 205.853L54.7376 206.273L54.6072 209.835" stroke="#A6671D" stroke-width="0.05" stroke-miterlimit="10"/>
<path d="M57.5498 200.103L54.1447 200.534L54.0095 204.091" stroke="#A6671D" stroke-width="0.05" stroke-miterlimit="10"/>
<path d="M69.4552 191.773L66.0453 192.198L65.92 195.755" stroke="#A6671D" stroke-width="0.05" stroke-miterlimit="10"/>
<path d="M69.5031 205.093L66.0932 205.518L65.9679 209.075" stroke="#A6671D" stroke-width="0.05" stroke-miterlimit="10"/>
<path d="M68.9927 211.727L65.5828 212.152L65.4524 215.714" stroke="#A6671D" stroke-width="0.05" stroke-miterlimit="10"/>
<path d="M69.2354 217.274L65.8255 217.698L65.7002 221.256" stroke="#A6671D" stroke-width="0.05" stroke-miterlimit="10"/>
<path d="M58.0681 193.283L57.6667 196.927L55.6175 196.933" stroke="#A6671D" stroke-width="0.05" stroke-miterlimit="10"/>
<path d="M61.3101 190.129L64.3573 189.695L64.3608 187.161" stroke="#A6671D" stroke-width="0.05" stroke-miterlimit="10"/>
<path d="M69.3738 189.141L67.4121 189.062L67.2626 185.963" stroke="#A6671D" stroke-width="0.05" stroke-miterlimit="10"/>
<path d="M58.1048 214.195L57.9231 211.841L55.32 212.205" stroke="#A6671D" stroke-width="0.05" stroke-miterlimit="10"/>
<path d="M72.3993 161.016C72.3993 161.016 66.3972 160.474 62.1872 164.793C57.9845 169.111 57.6516 178.214 59.0013 179.77C60.3435 181.333 68.3214 185.635 69.886 185.395C71.4578 185.154 78.8623 178.653 78.8282 170.88C78.7942 163.108 74.3329 160.451 72.3996 161.008L72.3993 161.016Z" fill="#FFFCEF" stroke="#3C464B" stroke-width="0.05" stroke-miterlimit="10"/>
<path d="M68.4989 170.176C68.4989 170.176 65.004 168.961 62.4025 170.468C59.8011 171.975 57.7438 175.944 58.9917 178.341C60.247 180.738 64.8312 183.43 66.4028 183.198C67.9746 182.957 71.4397 178.842 71.3584 175.659C71.2845 172.477 70.2629 170.726 68.4987 170.184L68.4989 170.176Z" fill="#FEB041" stroke="#3C464B" stroke-width="0.05" stroke-miterlimit="10"/>
<path d="M53.6116 155.57C53.6116 155.57 59.0779 158.239 60.6791 164.184C62.2802 170.129 58.2625 178.195 56.3564 178.842C54.4502 179.489 45.4971 179.062 44.2512 178.033C43.0053 177.005 39.6535 167.492 43.3595 160.767C47.0654 154.042 52.1979 154.067 53.6074 155.564L53.6116 155.57Z" fill="#FFFCEF" stroke="#3C464B" stroke-width="0.05" stroke-miterlimit="10"/>
<path d="M52.6677 165.554C52.6677 165.554 56.27 166.327 57.8234 168.995C59.3666 171.661 59.2775 176.181 57.0548 177.605C54.832 179.029 49.5795 178.969 48.3337 177.941C47.0878 176.912 46.0262 171.537 47.6033 168.81C49.1744 166.088 50.888 165.105 52.6778 165.556L52.6677 165.554Z" fill="#FEB041" stroke="#3C464B" stroke-width="0.05" stroke-miterlimit="10"/>
</g>
<path d="M295.086 523.824C295.086 522.76 294.757 521.899 294.099 521.239C293.441 520.58 292.576 520.25 291.503 520.25H286.645L286.645 527.398H291.503C292.576 527.398 293.441 527.068 294.099 526.409C294.757 525.749 295.086 524.888 295.086 523.824ZM298.684 523.824C298.684 525.877 298.043 527.552 296.763 528.85C295.483 530.148 293.831 530.797 291.806 530.797H286.645V532.679H294.311C294.453 532.679 294.569 532.727 294.66 532.823C294.752 532.919 294.797 533.041 294.797 533.19V535.232C294.797 535.381 294.752 535.504 294.66 535.599C294.569 535.695 294.453 535.743 294.311 535.743H286.645V538.806C286.645 538.955 286.597 539.078 286.5 539.173C286.404 539.269 286.29 539.317 286.159 539.317H283.624C283.482 539.317 283.365 539.269 283.274 539.173C283.183 539.078 283.138 538.955 283.138 538.806V535.743H279.737C279.595 535.743 279.479 535.695 279.388 535.599C279.297 535.504 279.251 535.381 279.251 535.232V533.19C279.251 533.041 279.297 532.919 279.388 532.823C279.479 532.727 279.595 532.679 279.737 532.679H283.138V530.797H279.737C279.595 530.797 279.479 530.749 279.388 530.653C279.297 530.557 279.251 530.435 279.251 530.286V527.909C279.251 527.77 279.297 527.651 279.388 527.55C279.479 527.449 279.595 527.398 279.737 527.398H283.138L283.138 517.362C283.138 517.213 283.183 517.091 283.274 516.995C283.365 516.899 283.482 516.852 283.624 516.852H291.806C293.831 516.852 295.483 517.5 296.763 518.798C298.043 520.096 298.684 521.771 298.684 523.824Z" fill="#7ECB4E"/>
<path d="M273.709 523.825C273.709 522.761 273.38 521.899 272.722 521.24C272.065 520.58 271.199 520.251 270.126 520.251H265.268L265.268 527.399H270.126C271.199 527.399 272.065 527.069 272.722 526.409C273.38 525.75 273.709 524.888 273.709 523.825ZM277.307 523.825C277.307 525.878 276.667 527.553 275.387 528.851C274.107 530.148 272.454 530.797 270.43 530.797H265.268V532.68H272.935C273.077 532.68 273.193 532.728 273.284 532.824C273.375 532.919 273.421 533.042 273.421 533.191V535.233C273.421 535.382 273.375 535.504 273.284 535.6C273.193 535.696 273.077 535.743 272.935 535.743H265.268V538.807C265.268 538.956 265.22 539.078 265.124 539.174C265.028 539.27 264.914 539.318 264.783 539.318H262.247C262.106 539.318 261.989 539.27 261.898 539.174C261.807 539.078 261.761 538.956 261.761 538.807V535.743H258.361C258.219 535.743 258.103 535.696 258.012 535.6C257.921 535.504 257.875 535.382 257.875 535.233V533.191C257.875 533.042 257.921 532.919 258.012 532.824C258.103 532.728 258.219 532.68 258.361 532.68H261.761V530.797H258.361C258.219 530.797 258.103 530.749 258.012 530.654C257.921 530.558 257.875 530.436 257.875 530.287V527.909C257.875 527.771 257.921 527.651 258.012 527.55C258.103 527.449 258.219 527.399 258.361 527.399H261.761L261.761 517.363C261.761 517.214 261.807 517.091 261.898 516.996C261.989 516.9 262.106 516.852 262.247 516.852H270.43C272.454 516.852 274.107 517.501 275.387 518.799C276.667 520.096 277.307 521.772 277.307 523.825Z" fill="#7ECB4E"/>
<path d="M252.334 523.825C252.334 522.761 252.005 521.9 251.347 521.24C250.689 520.581 249.824 520.251 248.751 520.251H243.893V527.399H248.751C249.824 527.399 250.689 527.069 251.347 526.41C252.005 525.75 252.334 524.889 252.334 523.825ZM255.932 523.825C255.932 525.878 255.292 527.553 254.011 528.851C252.731 530.149 251.079 530.798 249.055 530.798H243.893V532.68H251.56C251.701 532.68 251.818 532.728 251.909 532.824C252 532.92 252.045 533.042 252.045 533.191V535.233C252.045 535.382 252 535.505 251.909 535.6C251.818 535.696 251.701 535.744 251.56 535.744H243.893V538.807C243.893 538.956 243.845 539.079 243.749 539.174C243.653 539.27 243.539 539.318 243.407 539.318H240.872C240.73 539.318 240.614 539.27 240.523 539.174C240.432 539.079 240.386 538.956 240.386 538.807V535.744H236.985C236.844 535.744 236.727 535.696 236.636 535.6C236.545 535.505 236.5 535.382 236.5 535.233V533.191C236.5 533.042 236.545 532.92 236.636 532.824C236.727 532.728 236.844 532.68 236.985 532.68H240.386V530.798H236.985C236.844 530.798 236.727 530.75 236.636 530.654C236.545 530.558 236.5 530.436 236.5 530.287V527.91C236.5 527.771 236.545 527.652 236.636 527.551C236.727 527.45 236.844 527.399 236.985 527.399H240.386V517.363C240.386 517.214 240.432 517.092 240.523 516.996C240.614 516.9 240.73 516.852 240.872 516.852H249.055C251.079 516.852 252.731 517.501 254.011 518.799C255.292 520.097 255.932 521.772 255.932 523.825Z" fill="#7ECB4E"/>
<path d="M44.2226 527.194C44.2226 526.135 44.4099 525.1 44.7846 524.09C45.1593 523.064 45.705 522.135 46.4219 521.304C47.155 520.457 48.0429 519.789 49.0856 519.3C50.1283 518.795 51.3095 518.542 52.6292 518.542C54.1933 518.542 55.5456 518.9 56.6861 519.617C57.8266 520.318 58.6739 521.222 59.2278 522.33L57.0773 523.772C56.7514 523.071 56.3359 522.517 55.8308 522.11C55.342 521.703 54.8044 521.418 54.2178 521.255C53.6476 521.092 53.0855 521.01 52.5316 521.01C51.6192 521.01 50.8209 521.198 50.1366 521.573C49.4523 521.931 48.8739 522.412 48.4015 523.015C47.9453 523.617 47.5951 524.294 47.3507 525.043C47.1226 525.793 47.0086 526.542 47.0087 527.291C47.0087 528.122 47.1472 528.929 47.4242 529.711C47.7012 530.477 48.0841 531.161 48.5729 531.764C49.078 532.35 49.6727 532.815 50.357 533.157C51.0413 533.499 51.7908 533.67 52.6054 533.67C53.1594 533.67 53.7377 533.572 54.3406 533.376C54.9434 533.181 55.4973 532.879 56.0024 532.472C56.5237 532.048 56.931 531.495 57.2242 530.81L59.4971 532.105C59.1387 532.969 58.5766 533.702 57.8109 534.305C57.0615 534.908 56.2143 535.364 55.2693 535.674C54.3407 535.983 53.4201 536.138 52.5078 536.138C51.2858 536.138 50.1698 535.886 49.1596 535.381C48.1495 534.859 47.2778 534.175 46.5446 533.328C45.8114 532.464 45.2411 531.503 44.8337 530.444C44.4264 529.369 44.2227 528.285 44.2226 527.194ZM64.7172 535.991L64.7168 525.58L60.4889 525.58L60.4888 523.21L71.6573 523.209L71.6574 525.58L67.4051 525.58L67.4055 535.991L64.7172 535.991ZM79.4107 536.235C78.4005 536.235 77.4963 536.064 76.698 535.722C75.8996 535.363 75.2071 534.874 74.6206 534.255C74.0503 533.636 73.6104 532.936 73.3008 532.154C72.9912 531.355 72.8364 530.508 72.8364 529.612C72.8363 528.716 72.9911 527.869 73.3006 527.07C73.6101 526.272 74.05 525.571 74.6202 524.969C75.2067 524.349 75.8991 523.869 76.6974 523.527C77.512 523.168 78.4163 522.989 79.4101 522.989C80.404 522.989 81.3001 523.168 82.0984 523.526C82.913 523.868 83.6055 524.349 84.1758 524.968C84.7623 525.571 85.2104 526.272 85.52 527.07C85.8296 527.868 85.9844 528.715 85.9844 529.611C85.9845 530.508 85.8297 531.355 85.5202 532.153C85.2107 532.935 84.7627 533.636 84.1762 534.255C83.6059 534.874 82.9135 535.363 82.0989 535.721C81.3006 536.064 80.4045 536.235 79.4107 536.235ZM75.5979 529.636C75.598 530.451 75.7691 531.184 76.1113 531.836C76.4534 532.488 76.9096 533.001 77.4799 533.375C78.0501 533.75 78.6937 533.937 79.4106 533.937C80.1112 533.937 80.7466 533.75 81.3168 533.375C81.9033 532.984 82.3676 532.463 82.7097 531.811C83.0518 531.143 83.2229 530.41 83.2228 529.612C83.2228 528.797 83.0517 528.064 82.7095 527.412C82.3674 526.76 81.903 526.247 81.3165 525.873C80.7462 525.482 80.1108 525.286 79.4102 525.286C78.6933 525.286 78.0498 525.482 77.4796 525.873C76.9094 526.264 76.4532 526.785 76.1111 527.437C75.769 528.072 75.5979 528.805 75.5979 529.636ZM88.369 535.99L88.3685 523.233L91.0567 523.233L91.0571 532.397L97.533 523.208L99.9769 523.208L99.9774 535.989L97.2892 535.99L97.2888 527.02L90.8862 535.99L88.369 535.99ZM103.19 535.989L103.189 523.208L105.975 523.208L110.375 531.101L114.798 523.207L117.535 523.207L117.535 535.989L114.969 535.989L114.969 526.995L111.206 533.716L109.519 533.716L105.731 526.996L105.731 535.989L103.19 535.989ZM126.498 536.233C125.488 536.233 124.584 536.062 123.786 535.72C122.987 535.361 122.295 534.872 121.708 534.253C121.138 533.634 120.698 532.934 120.388 532.152C120.079 531.353 119.924 530.506 119.924 529.61C119.924 528.714 120.079 527.867 120.388 527.068C120.698 526.27 121.138 525.569 121.708 524.967C122.294 524.347 122.987 523.867 123.785 523.525C124.6 523.166 125.504 522.987 126.498 522.987C127.492 522.987 128.388 523.166 129.186 523.524C130.001 523.867 130.693 524.347 131.263 524.966C131.85 525.569 132.298 526.27 132.608 527.068C132.917 527.866 133.072 528.713 133.072 529.609C133.072 530.506 132.917 531.353 132.608 532.151C132.298 532.933 131.85 533.634 131.264 534.253C130.694 534.872 130.001 535.361 129.187 535.719C128.388 536.062 127.492 536.233 126.498 536.233ZM122.686 529.634C122.686 530.449 122.857 531.182 123.199 531.834C123.541 532.486 123.997 532.999 124.568 533.373C125.138 533.748 125.781 533.935 126.498 533.935C127.199 533.935 127.834 533.748 128.404 533.373C128.991 532.982 129.455 532.461 129.797 531.809C130.139 531.141 130.311 530.408 130.31 529.61C130.31 528.795 130.139 528.062 129.797 527.41C129.455 526.758 128.991 526.245 128.404 525.871C127.834 525.48 127.198 525.284 126.498 525.284C125.781 525.284 125.137 525.48 124.567 525.871C123.997 526.262 123.541 526.783 123.199 527.435C122.857 528.07 122.686 528.803 122.686 529.634ZM141.249 536.232C140.255 536.232 139.351 536.061 138.536 535.719C137.738 535.361 137.045 534.872 136.459 534.253C135.872 533.634 135.416 532.925 135.09 532.127C134.78 531.328 134.626 530.481 134.625 529.585C134.625 528.379 134.894 527.28 135.432 526.286C135.986 525.292 136.751 524.493 137.729 523.891C138.723 523.288 139.896 522.986 141.248 522.986C142.552 522.986 143.684 523.279 144.645 523.866C145.623 524.436 146.34 525.202 146.796 526.163L144.181 526.994C143.888 526.456 143.472 526.041 142.934 525.748C142.413 525.438 141.835 525.283 141.199 525.283C140.482 525.284 139.831 525.471 139.244 525.846C138.674 526.204 138.218 526.709 137.876 527.361C137.55 527.996 137.387 528.738 137.387 529.585C137.387 530.399 137.558 531.141 137.9 531.809C138.243 532.46 138.699 532.982 139.269 533.373C139.856 533.748 140.507 533.935 141.224 533.935C141.664 533.935 142.088 533.861 142.495 533.715C142.919 533.552 143.285 533.34 143.595 533.079C143.904 532.802 144.124 532.501 144.254 532.175L146.894 532.957C146.617 533.592 146.202 534.155 145.648 534.643C145.11 535.132 144.466 535.523 143.717 535.816C142.984 536.093 142.161 536.232 141.249 536.232ZM152.138 535.987L152.138 525.576L147.91 525.576L147.91 523.206L159.078 523.205L159.079 525.576L154.826 525.576L154.827 535.987L152.138 535.987ZM161.089 535.987L161.088 523.205L163.776 523.205L163.777 527.409L166.832 527.409C168.347 527.409 169.495 527.791 170.277 528.557C171.076 529.323 171.475 530.333 171.475 531.587C171.475 532.435 171.304 533.192 170.962 533.86C170.62 534.528 170.115 535.05 169.447 535.424C168.795 535.799 167.98 535.987 167.003 535.987L161.089 535.987ZM163.777 533.909L166.587 533.909C167.125 533.909 167.557 533.812 167.883 533.616C168.208 533.404 168.453 533.127 168.616 532.785C168.779 532.427 168.86 532.044 168.86 531.636C168.86 531.229 168.787 530.863 168.64 530.537C168.493 530.195 168.249 529.926 167.907 529.73C167.581 529.518 167.133 529.413 166.563 529.413L163.777 529.413L163.777 533.909Z" fill="#B47C0E"/>
<path opacity="0.5" d="M110.732 93.1863L113.298 93.1862L107.922 105.968L105.624 105.968L103.327 100.201L101.03 105.968L98.7327 105.968L93.3312 93.1871L95.8973 93.1869L100.003 103.353L101.812 98.6365L99.612 93.2112L101.885 93.2111L103.327 97.1946L104.744 93.211L107.017 93.2109L104.842 98.6364L106.651 103.353L110.732 93.1863ZM131.018 93.1855L133.584 93.1854L128.208 105.967L125.911 105.967L123.613 100.2L121.316 105.967L119.019 105.967L113.617 93.1862L116.183 93.1861L120.29 103.352L122.098 98.6357L119.898 93.2104L122.171 93.2103L123.613 97.1937L125.03 93.2102L127.303 93.2101L125.128 98.6356L126.937 103.352L131.018 93.1855ZM151.304 93.1846L153.87 93.1845L148.494 105.966L146.197 105.966L143.899 100.199L141.602 105.967L139.305 105.967L133.903 93.1853L136.47 93.1852L140.576 103.352L142.384 98.6348L140.184 93.2095L142.457 93.2094L143.899 97.1929L145.316 93.2093L147.589 93.2092L145.414 98.6347L147.223 103.351L151.304 93.1846ZM153.792 105.966L153.792 102.838L156.016 102.838L156.016 105.966L153.792 105.966ZM163.663 106.21C162.587 106.21 161.569 106.039 160.608 105.697C159.646 105.338 158.824 104.809 158.139 104.108L159.141 102.3C159.874 102.952 160.608 103.424 161.341 103.717C162.09 104.011 162.832 104.157 163.565 104.157C164.314 104.157 164.925 104.019 165.398 103.742C165.87 103.448 166.106 103.025 166.106 102.471C166.106 102.063 165.984 101.762 165.74 101.566C165.495 101.371 165.137 101.2 164.664 101.053C164.208 100.907 163.654 100.744 163.003 100.565C162.09 100.288 161.324 100.003 160.705 99.7094C160.086 99.3998 159.622 99.0251 159.312 98.5852C159.003 98.1453 158.848 97.5833 158.848 96.899C158.848 96.0681 159.06 95.3593 159.483 94.7728C159.907 94.1862 160.493 93.7382 161.243 93.4286C162.008 93.119 162.888 92.9642 163.882 92.9641C164.811 92.9641 165.666 93.1107 166.448 93.4039C167.246 93.6808 167.947 94.1207 168.55 94.7235L167.401 96.5076C166.831 95.9863 166.245 95.6034 165.642 95.359C165.055 95.1147 164.42 94.9925 163.735 94.9925C163.344 94.9926 162.97 95.0415 162.611 95.1392C162.253 95.2207 161.951 95.3836 161.707 95.628C161.479 95.8561 161.365 96.182 161.365 96.6056C161.365 96.9477 161.463 97.2247 161.658 97.4365C161.854 97.6483 162.147 97.8275 162.538 97.9741C162.929 98.1207 163.41 98.2836 163.98 98.4628C164.974 98.7561 165.821 99.0493 166.522 99.3425C167.222 99.6195 167.76 99.986 168.135 100.442C168.526 100.882 168.721 101.493 168.721 102.275C168.721 103.513 168.257 104.483 167.328 105.183C166.416 105.868 165.194 106.21 163.663 106.21ZM171.122 105.965L171.121 93.1838L173.809 93.1836L173.81 105.965L171.122 105.965ZM171.121 91.082L171.121 88.1249L173.809 88.1248L173.809 91.0819L171.121 91.082ZM184.152 105.305C183.924 105.419 183.639 105.541 183.297 105.671C182.955 105.802 182.564 105.916 182.124 106.014C181.7 106.111 181.26 106.16 180.804 106.16C180.25 106.16 179.737 106.063 179.264 105.867C178.792 105.672 178.409 105.362 178.116 104.939C177.839 104.499 177.7 103.937 177.7 103.252L177.7 95.2608L176.013 95.2608L176.013 93.1836L177.7 93.1835L177.699 88.98L180.388 88.9799L180.388 93.1834L183.174 93.1832L183.174 95.2605L180.388 95.2607L180.388 102.397C180.421 102.837 180.559 103.163 180.804 103.374C181.065 103.586 181.382 103.692 181.757 103.692C182.132 103.692 182.49 103.627 182.832 103.496C183.174 103.366 183.427 103.26 183.59 103.179L184.152 105.305ZM191.639 106.209C190.645 106.209 189.741 106.038 188.926 105.696C188.128 105.337 187.435 104.857 186.849 104.254C186.262 103.635 185.806 102.934 185.48 102.152C185.171 101.354 185.016 100.507 185.016 99.6106C185.016 98.4049 185.293 97.3052 185.847 96.3113C186.4 95.3011 187.174 94.4946 188.168 93.8918C189.162 93.2726 190.327 92.963 191.663 92.9629C192.999 92.9629 194.147 93.2724 195.109 93.8915C196.086 94.4942 196.844 95.2926 197.382 96.2864C197.919 97.2802 198.188 98.3473 198.188 99.4878C198.188 99.6833 198.18 99.8707 198.164 100.05C198.148 100.213 198.131 100.351 198.115 100.465L187.875 100.466C187.924 101.215 188.128 101.875 188.486 102.445C188.861 102.999 189.333 103.439 189.904 103.765C190.474 104.074 191.085 104.229 191.737 104.229C192.453 104.229 193.13 104.05 193.765 103.691C194.417 103.333 194.857 102.861 195.085 102.274L197.382 102.934C197.105 103.553 196.681 104.115 196.111 104.62C195.557 105.109 194.897 105.5 194.132 105.793C193.366 106.07 192.535 106.209 191.639 106.209ZM187.802 98.6818L195.524 98.6815C195.475 97.9483 195.264 97.3047 194.889 96.7508C194.53 96.1806 194.066 95.7407 193.496 95.4312C192.942 95.1054 192.323 94.9425 191.638 94.9425C190.97 94.9425 190.351 95.1055 189.781 95.4313C189.227 95.7409 188.771 96.1808 188.413 96.7511C188.054 97.3051 187.851 97.9486 187.802 98.6818ZM200.259 100.49L200.259 98.0703L207.566 98.07L207.566 100.489L200.259 100.49ZM216.46 106.208C215.466 106.208 214.561 106.037 213.747 105.695C212.948 105.336 212.256 104.847 211.669 104.228C211.083 103.609 210.627 102.901 210.301 102.102C209.991 101.304 209.836 100.457 209.836 99.5606C209.836 98.355 210.105 97.2552 210.643 96.2614C211.197 95.2675 211.962 94.4691 212.94 93.8663C213.934 93.2634 215.107 92.9619 216.459 92.9619C217.762 92.9618 218.895 93.2551 219.856 93.8415C220.834 94.4117 221.551 95.1775 222.007 96.1387L219.392 96.9697C219.099 96.4321 218.683 96.0166 218.145 95.7234C217.624 95.4139 217.046 95.2591 216.41 95.2591C215.693 95.2592 215.042 95.4466 214.455 95.8213C213.885 96.1798 213.429 96.6849 213.087 97.3366C212.761 97.972 212.598 98.7133 212.598 99.5605C212.598 100.375 212.769 101.116 213.111 101.784C213.453 102.436 213.91 102.957 214.48 103.348C215.066 103.723 215.718 103.91 216.435 103.91C216.875 103.91 217.299 103.837 217.706 103.69C218.129 103.528 218.496 103.316 218.806 103.055C219.115 102.778 219.335 102.477 219.465 102.151L222.105 102.933C221.828 103.568 221.412 104.13 220.858 104.619C220.321 105.108 219.677 105.499 218.928 105.792C218.195 106.069 217.372 106.208 216.46 106.208ZM223.39 102.224C223.39 101.409 223.618 100.701 224.074 100.098C224.547 99.4786 225.19 99.006 226.005 98.6802C226.819 98.338 227.764 98.1669 228.84 98.1668C229.41 98.1668 229.988 98.2075 230.575 98.2889C231.178 98.3704 231.707 98.5007 232.163 98.6799L232.163 97.8734C232.163 96.9773 231.895 96.2768 231.357 95.7717C230.819 95.2667 230.045 95.0142 229.035 95.0142C228.318 95.0142 227.642 95.1446 227.007 95.4053C226.371 95.6497 225.695 96.0001 224.978 96.4563L224.074 94.6478C224.921 94.0776 225.768 93.6539 226.616 93.3769C227.479 93.0999 228.383 92.9614 229.328 92.9613C231.039 92.9613 232.383 93.4174 233.361 94.3297C234.355 95.2258 234.852 96.5047 234.852 98.1666L234.852 102.932C234.852 103.242 234.901 103.462 234.999 103.592C235.113 103.722 235.3 103.796 235.561 103.812L235.561 105.963C235.316 106.011 235.096 106.044 234.901 106.06C234.705 106.077 234.542 106.085 234.412 106.085C233.842 106.085 233.41 105.946 233.117 105.669C232.824 105.392 232.653 105.067 232.604 104.692L232.53 103.959C231.976 104.676 231.268 105.23 230.404 105.621C229.541 106.012 228.669 106.207 227.789 106.207C226.942 106.207 226.184 106.036 225.516 105.694C224.848 105.336 224.327 104.855 223.952 104.252C223.578 103.649 223.39 102.973 223.39 102.224ZM231.528 103.006C231.724 102.794 231.879 102.582 231.993 102.37C232.107 102.158 232.164 101.971 232.164 101.808L232.164 100.342C231.707 100.163 231.227 100.032 230.722 99.9508C230.217 99.853 229.72 99.8042 229.231 99.8042C228.253 99.8043 227.455 99.9998 226.836 100.391C226.233 100.782 225.932 101.32 225.932 102.004C225.932 102.379 226.029 102.737 226.225 103.079C226.437 103.421 226.73 103.698 227.105 103.91C227.496 104.122 227.977 104.228 228.547 104.228C229.133 104.228 229.695 104.114 230.233 103.885C230.771 103.657 231.202 103.364 231.528 103.006ZM238.775 105.962L238.775 95.5759L237.064 95.576L237.064 93.4987L238.775 93.4986L238.774 92.9854C238.774 91.9427 238.937 91.0384 239.263 90.2727C239.605 89.5069 240.078 88.9203 240.681 88.513C241.3 88.0894 242.025 87.8775 242.856 87.8775C243.377 87.8775 243.89 87.9508 244.395 88.0974C244.9 88.2277 245.381 88.415 245.837 88.6594L245.251 90.6634C245.006 90.5005 244.713 90.3783 244.371 90.2969C244.045 90.1991 243.727 90.1503 243.418 90.1503C242.799 90.1503 242.318 90.3866 241.976 90.8591C241.634 91.3316 241.463 92.0159 241.463 92.9119L241.463 93.4985L244.738 93.4983L244.738 95.5756L241.463 95.5758L241.463 105.962L238.775 105.962ZM252.33 106.206C251.336 106.206 250.432 106.035 249.617 105.693C248.819 105.335 248.127 104.854 247.54 104.251C246.954 103.632 246.497 102.932 246.171 102.15C245.862 101.351 245.707 100.504 245.707 99.608C245.707 98.4024 245.984 97.3026 246.538 96.3087C247.092 95.2986 247.866 94.4921 248.859 93.8892C249.853 93.27 251.018 92.9604 252.354 92.9604C253.69 92.9603 254.839 93.2698 255.8 93.8889C256.778 94.4917 257.535 95.29 258.073 96.2838C258.611 97.2776 258.879 98.3448 258.88 99.4852C258.88 99.6808 258.871 99.8681 258.855 100.047C258.839 100.21 258.823 100.349 258.806 100.463L248.566 100.463C248.615 101.213 248.819 101.873 249.177 102.443C249.552 102.997 250.025 103.437 250.595 103.762C251.165 104.072 251.776 104.227 252.428 104.227C253.145 104.227 253.821 104.047 254.456 103.689C255.108 103.33 255.548 102.858 255.776 102.271L258.073 102.931C257.796 103.55 257.373 104.112 256.802 104.617C256.248 105.106 255.589 105.497 254.823 105.791C254.057 106.068 253.226 106.206 252.33 106.206ZM248.493 98.6792L256.216 98.6789C256.167 97.9457 255.955 97.3022 255.58 96.7482C255.222 96.178 254.757 95.7381 254.187 95.4286C253.633 95.1028 253.014 94.9399 252.33 94.9399C251.662 94.9399 251.043 95.1029 250.472 95.4288C249.918 95.7383 249.462 96.1783 249.104 96.7485C248.745 97.3025 248.542 97.946 248.493 98.6792Z" fill="#B47C0E"/>
<path d="M88.7959 634.321C87.7426 634.321 86.7826 634.114 85.9159 633.701C85.0492 633.287 84.3092 632.747 83.6958 632.081C83.0824 631.401 82.6024 630.628 82.2557 629.761C81.9223 628.894 81.7556 628.001 81.7556 627.081C81.7556 626.148 81.9289 625.248 82.2755 624.381C82.6354 623.514 83.1287 622.754 83.7554 622.101C84.3954 621.434 85.1487 620.907 86.0153 620.521C86.882 620.121 87.8286 619.921 88.8553 619.921C89.9086 619.921 90.8686 620.127 91.7353 620.541C92.602 620.954 93.342 621.5 93.9554 622.18C94.5688 622.86 95.0421 623.634 95.3755 624.5C95.7089 625.367 95.8756 626.247 95.8756 627.14C95.8756 628.074 95.6957 628.974 95.3357 629.84C94.9891 630.707 94.5024 631.474 93.8758 632.14C93.2492 632.794 92.5025 633.32 91.6359 633.721C90.7692 634.121 89.8226 634.321 88.7959 634.321ZM85.0956 627.121C85.0956 627.667 85.1756 628.201 85.3357 628.721C85.4957 629.227 85.729 629.681 86.0357 630.081C86.3557 630.481 86.7491 630.801 87.2158 631.041C87.6824 631.281 88.2158 631.401 88.8158 631.401C89.4424 631.401 89.9891 631.274 90.4558 631.021C90.9224 630.767 91.3091 630.441 91.6157 630.041C91.9224 629.627 92.149 629.167 92.2957 628.66C92.4556 628.14 92.5356 627.614 92.5356 627.08C92.5356 626.534 92.4556 626.007 92.2955 625.5C92.1355 624.98 91.8955 624.527 91.5755 624.141C91.2555 623.741 90.8621 623.427 90.3954 623.201C89.9421 622.961 89.4154 622.841 88.8154 622.841C88.1887 622.841 87.6421 622.967 87.1754 623.221C86.7221 623.461 86.3355 623.781 86.0155 624.181C85.7088 624.581 85.4755 625.041 85.3155 625.561C85.1689 626.067 85.0956 626.587 85.0956 627.121ZM102.911 633.14C101.884 633.02 100.991 632.793 100.231 632.46C99.4711 632.114 98.8378 631.674 98.3311 631.14C97.8244 630.594 97.4444 629.967 97.191 629.26C96.951 628.54 96.8309 627.754 96.8309 626.9C96.8309 626.087 96.9508 625.327 97.1908 624.62C97.4308 623.9 97.7974 623.267 98.2907 622.72C98.784 622.174 99.4107 621.72 100.171 621.36C100.944 621 101.857 620.76 102.911 620.64L102.911 618.72L106.031 618.72L106.031 620.64C107.071 620.76 107.971 621.006 108.731 621.38C109.491 621.74 110.111 622.193 110.591 622.74C111.084 623.286 111.451 623.913 111.691 624.62C111.931 625.326 112.051 626.086 112.051 626.9C112.051 628.606 111.551 630.013 110.551 631.12C109.564 632.213 108.058 632.88 106.031 633.12L106.031 634.86L102.911 634.86L102.911 633.14ZM106.031 630.12C107.044 629.933 107.771 629.566 108.211 629.02C108.651 628.473 108.871 627.76 108.871 626.88C108.871 625.973 108.644 625.253 108.191 624.72C107.751 624.186 107.031 623.833 106.031 623.66L106.031 630.12ZM102.911 623.66C101.884 623.833 101.137 624.187 100.671 624.72C100.217 625.24 99.9909 625.96 99.9909 626.88C99.9909 627.76 100.218 628.48 100.671 629.04C101.124 629.587 101.871 629.947 102.911 630.12L102.911 623.66ZM120.065 634.319C119.012 634.319 118.052 634.113 117.185 633.699C116.319 633.286 115.579 632.746 114.965 632.08C114.352 631.4 113.872 630.626 113.525 629.76C113.192 628.893 113.025 628 113.025 627.08C113.025 626.146 113.198 625.246 113.545 624.38C113.905 623.513 114.398 622.753 115.025 622.1C115.665 621.433 116.418 620.906 117.285 620.519C118.151 620.119 119.098 619.919 120.125 619.919C121.178 619.919 122.138 620.126 123.005 620.539C123.872 620.952 124.612 621.499 125.225 622.179C125.838 622.859 126.312 623.632 126.645 624.499C126.978 625.366 127.145 626.246 127.145 627.139C127.145 628.072 126.965 628.972 126.605 629.839C126.259 630.706 125.772 631.472 125.145 632.139C124.519 632.792 123.772 633.319 122.905 633.719C122.039 634.119 121.092 634.319 120.065 634.319ZM116.365 627.119C116.365 627.666 116.445 628.199 116.605 628.719C116.765 629.226 116.999 629.679 117.305 630.079C117.625 630.479 118.019 630.799 118.485 631.039C118.952 631.279 119.485 631.399 120.085 631.399C120.712 631.399 121.259 631.273 121.725 631.019C122.192 630.766 122.579 630.439 122.885 630.039C123.192 629.626 123.419 629.166 123.565 628.659C123.725 628.139 123.805 627.612 123.805 627.079C123.805 626.532 123.725 626.006 123.565 625.499C123.405 624.979 123.165 624.526 122.845 624.139C122.525 623.739 122.132 623.426 121.665 623.199C121.212 622.959 120.685 622.839 120.085 622.839C119.458 622.839 118.912 622.966 118.445 623.219C117.992 623.459 117.605 623.779 117.285 624.179C116.978 624.579 116.745 625.039 116.585 625.559C116.438 626.066 116.365 626.586 116.365 627.119ZM129.101 634.199L129.1 619.999L135.16 619.999C135.84 619.999 136.46 620.139 137.02 620.419C137.594 620.699 138.08 621.065 138.48 621.519C138.894 621.972 139.214 622.485 139.44 623.058C139.68 623.632 139.8 624.212 139.8 624.798C139.8 625.425 139.687 626.025 139.46 626.598C139.247 627.172 138.94 627.685 138.54 628.139C138.154 628.592 137.681 628.952 137.121 629.219C136.561 629.485 135.941 629.619 135.261 629.619L132.381 629.619L132.381 634.199L129.101 634.199ZM132.38 626.759L135.06 626.759C135.447 626.759 135.78 626.592 136.06 626.259C136.34 625.925 136.48 625.439 136.48 624.799C136.48 624.465 136.434 624.179 136.34 623.939C136.26 623.699 136.147 623.499 136 623.339C135.854 623.179 135.687 623.065 135.5 622.999C135.314 622.919 135.127 622.879 134.94 622.879L132.38 622.879L132.38 626.759ZM152.82 634.198L152.82 625.698L149.74 631.878L147.98 631.878L144.9 625.698L144.9 634.198L141.62 634.198L141.62 619.998L145.18 619.998L148.86 627.418L152.56 619.998L156.1 619.998L156.1 634.198L152.82 634.198ZM162.264 629.098L168.943 619.997L171.383 619.997L171.384 634.197L168.104 634.197L168.104 625.317L161.504 634.198L158.964 634.198L158.963 619.998L162.263 619.998L162.264 629.098ZM184.977 622.877L180.657 622.877L180.658 634.197L177.378 634.197L177.377 622.877L173.037 622.877L173.037 619.997L184.977 619.997L184.977 622.877ZM186.639 619.996L189.939 619.996L189.939 624.856L192.459 624.856C193.219 624.856 193.906 624.963 194.519 625.176C195.146 625.376 195.679 625.676 196.119 626.076C196.559 626.463 196.899 626.943 197.14 627.516C197.38 628.089 197.5 628.736 197.5 629.456C197.5 630.203 197.38 630.869 197.14 631.456C196.913 632.043 196.58 632.543 196.14 632.956C195.713 633.356 195.2 633.663 194.6 633.876C194 634.09 193.333 634.196 192.6 634.196L186.64 634.196L186.639 619.996ZM189.94 631.416L192.2 631.416C192.853 631.416 193.34 631.243 193.66 630.896C193.993 630.536 194.16 630.05 194.16 629.436C194.16 628.876 193.993 628.41 193.66 628.036C193.326 627.65 192.84 627.456 192.2 627.456L189.94 627.456L189.94 631.416ZM203.182 621.896C203.822 621.229 204.542 620.729 205.342 620.396C206.155 620.049 207.115 619.876 208.222 619.876C209.622 619.876 210.735 620.182 211.562 620.795C212.389 621.409 212.802 622.315 212.802 623.515C212.802 624.182 212.636 624.802 212.302 625.375C211.982 625.949 211.429 626.375 210.642 626.655C211.522 626.869 212.189 627.282 212.642 627.895C213.109 628.495 213.342 629.229 213.342 630.095C213.342 630.762 213.209 631.362 212.943 631.895C212.676 632.415 212.303 632.855 211.823 633.215C211.356 633.575 210.796 633.849 210.143 634.035C209.503 634.222 208.809 634.316 208.063 634.316C206.983 634.316 206.036 634.162 205.223 633.856C204.409 633.536 203.636 633.042 202.903 632.376L204.582 629.956C205.036 630.382 205.522 630.729 206.042 630.996C206.576 631.249 207.202 631.376 207.922 631.376C208.522 631.376 209.016 631.229 209.402 630.936C209.802 630.629 210.002 630.175 210.002 629.575C210.002 629.069 209.816 628.642 209.442 628.296C209.082 627.949 208.496 627.776 207.682 627.776L205.962 627.776L205.962 625.496L207.442 625.496C208.202 625.496 208.776 625.362 209.162 625.096C209.549 624.829 209.742 624.449 209.742 623.956C209.742 623.529 209.602 623.202 209.322 622.976C209.042 622.736 208.609 622.616 208.022 622.616C207.382 622.616 206.809 622.729 206.302 622.956C205.809 623.182 205.342 623.509 204.902 623.936L203.182 621.896ZM218.857 619.995L221.817 619.995L226.998 634.195L223.638 634.195L222.538 631.015L218.118 631.015L217.038 634.195L213.678 634.195L218.857 619.995ZM221.998 628.755L220.337 623.735L218.638 628.755L221.998 628.755ZM231.736 625.635L232.476 625.635L236.616 619.994L240.316 619.994L235.216 626.854L240.776 634.194L237.116 634.194L232.776 628.615L231.736 628.615L231.736 634.195L228.456 634.195L228.456 619.995L231.736 619.995L231.736 625.635ZM245.654 619.994L248.614 619.994L253.795 634.194L250.435 634.194L249.335 631.014L244.915 631.014L243.835 634.194L240.475 634.194L245.654 619.994ZM248.794 628.754L247.134 623.734L245.434 628.754L248.794 628.754ZM254.413 621.894C255.053 621.227 255.773 620.727 256.572 620.394C257.386 620.047 258.346 619.873 259.452 619.873C260.852 619.873 261.966 620.18 262.793 620.793C263.619 621.407 264.033 622.313 264.033 623.513C264.033 624.18 263.866 624.8 263.533 625.373C263.213 625.947 262.659 626.373 261.873 626.653C262.753 626.867 263.419 627.28 263.873 627.893C264.339 628.493 264.573 629.227 264.573 630.093C264.573 630.76 264.44 631.36 264.173 631.893C263.906 632.413 263.533 632.853 263.053 633.213C262.586 633.573 262.026 633.847 261.373 634.033C260.733 634.22 260.04 634.313 259.293 634.313C258.213 634.313 257.266 634.16 256.453 633.854C255.64 633.534 254.866 633.04 254.133 632.374L255.813 629.954C256.266 630.38 256.753 630.727 257.273 630.993C257.806 631.247 258.433 631.373 259.153 631.373C259.753 631.373 260.246 631.227 260.633 630.933C261.033 630.627 261.233 630.173 261.233 629.573C261.233 629.067 261.046 628.64 260.673 628.293C260.313 627.947 259.726 627.773 258.913 627.773L257.193 627.773L257.193 625.493L258.673 625.493C259.433 625.493 260.006 625.36 260.393 625.093C260.779 624.827 260.973 624.447 260.973 623.953C260.973 623.527 260.833 623.2 260.553 622.973C260.273 622.733 259.839 622.613 259.253 622.613C258.613 622.613 258.039 622.727 257.533 622.953C257.039 623.18 256.573 623.507 256.133 623.934L254.413 621.894Z" fill="white"/>
<defs>
<linearGradient id="paint0_linear_11_282" x1="66.5581" y1="158.52" x2="74.0404" y2="185.825" gradientUnits="userSpaceOnUse">
<stop stop-color="#F25E5E"/>
<stop offset="0.56" stop-color="#FF2B2B"/>
<stop offset="1" stop-color="#FC7D7D"/>
</linearGradient>
<linearGradient id="paint1_linear_11_282" x1="54.6681" y1="181.567" x2="56.7805" y2="189.275" gradientUnits="userSpaceOnUse">
<stop stop-color="#F25E5E"/>
<stop offset="0.56" stop-color="#FF2B2B"/>
<stop offset="1" stop-color="#FC7D7D"/>
</linearGradient>
<linearGradient id="paint2_linear_11_282" x1="67.2628" y1="163.04" x2="71.7931" y2="179.572" gradientUnits="userSpaceOnUse">
<stop stop-color="#F25E5E"/>
<stop offset="0.56" stop-color="#FF2B2B"/>
<stop offset="1" stop-color="#FC7D7D"/>
</linearGradient>
<linearGradient id="paint3_linear_11_282" x1="71.6174" y1="164.123" x2="75.4516" y2="178.114" gradientUnits="userSpaceOnUse">
<stop stop-color="#F25E5E"/>
<stop offset="0.56" stop-color="#FF2B2B"/>
<stop offset="1" stop-color="#FC7D7D"/>
</linearGradient>
<linearGradient id="paint4_linear_11_282" x1="61.3307" y1="172.504" x2="62.8425" y2="178.021" gradientUnits="userSpaceOnUse">
<stop stop-color="#F25E5E"/>
<stop offset="0.56" stop-color="#FF2B2B"/>
<stop offset="1" stop-color="#FC7D7D"/>
</linearGradient>
<linearGradient id="paint5_linear_11_282" x1="34.9589" y1="161.759" x2="86.2867" y2="155.275" gradientUnits="userSpaceOnUse">
<stop stop-color="#F25E5E"/>
<stop offset="0.56" stop-color="#FF2B2B"/>
<stop offset="1" stop-color="#FC7D7D"/>
</linearGradient>
<linearGradient id="paint6_linear_11_282" x1="39.1674" y1="172.689" x2="54.9142" y2="170.7" gradientUnits="userSpaceOnUse">
<stop stop-color="#F25E5E"/>
<stop offset="0.56" stop-color="#FF2B2B"/>
<stop offset="1" stop-color="#FC7D7D"/>
</linearGradient>
<linearGradient id="paint7_linear_11_282" x1="63.6484" y1="154.94" x2="79.285" y2="152.965" gradientUnits="userSpaceOnUse">
<stop stop-color="#F25E5E"/>
<stop offset="0.56" stop-color="#FF2B2B"/>
<stop offset="1" stop-color="#FC7D7D"/>
</linearGradient>
<linearGradient id="paint8_linear_11_282" x1="38.4913" y1="164.678" x2="50.2661" y2="163.191" gradientUnits="userSpaceOnUse">
<stop stop-color="#F25E5E"/>
<stop offset="0.56" stop-color="#FF2B2B"/>
<stop offset="1" stop-color="#FC7D7D"/>
</linearGradient>
<linearGradient id="paint9_linear_11_282" x1="42.3319" y1="167.667" x2="50.3736" y2="166.651" gradientUnits="userSpaceOnUse">
<stop stop-color="#F25E5E"/>
<stop offset="0.56" stop-color="#FF2B2B"/>
<stop offset="1" stop-color="#FC7D7D"/>
</linearGradient>
<linearGradient id="paint10_linear_11_282" x1="62.2481" y1="153.603" x2="70.2898" y2="152.587" gradientUnits="userSpaceOnUse">
<stop stop-color="#F25E5E"/>
<stop offset="0.56" stop-color="#FF2B2B"/>
<stop offset="1" stop-color="#FC7D7D"/>
</linearGradient>
<linearGradient id="paint11_linear_11_282" x1="70.046" y1="167.974" x2="83.4628" y2="192.661" gradientUnits="userSpaceOnUse">
<stop stop-color="#F25E5E"/>
<stop offset="0.56" stop-color="#FF2B2B"/>
<stop offset="1" stop-color="#FC7D7D"/>
</linearGradient>
<linearGradient id="paint12_linear_11_282" x1="63.2804" y1="193.207" x2="67.0683" y2="200.177" gradientUnits="userSpaceOnUse">
<stop stop-color="#F25E5E"/>
<stop offset="0.56" stop-color="#FF2B2B"/>
<stop offset="1" stop-color="#FC7D7D"/>
</linearGradient>
<linearGradient id="paint13_linear_11_282" x1="71.6803" y1="172.219" x2="79.8038" y2="187.167" gradientUnits="userSpaceOnUse">
<stop stop-color="#F25E5E"/>
<stop offset="0.56" stop-color="#FF2B2B"/>
<stop offset="1" stop-color="#FC7D7D"/>
</linearGradient>
<linearGradient id="paint14_linear_11_282" x1="76.1557" y1="172.267" x2="83.0309" y2="184.917" gradientUnits="userSpaceOnUse">
<stop stop-color="#F25E5E"/>
<stop offset="0.56" stop-color="#FF2B2B"/>
<stop offset="1" stop-color="#FC7D7D"/>
</linearGradient>
<linearGradient id="paint15_linear_11_282" x1="67.8792" y1="182.825" x2="70.5901" y2="187.813" gradientUnits="userSpaceOnUse">
<stop stop-color="#F25E5E"/>
<stop offset="0.56" stop-color="#FF2B2B"/>
<stop offset="1" stop-color="#FC7D7D"/>
</linearGradient>
<linearGradient id="paint16_linear_11_282" x1="39.9024" y1="178.452" x2="88.9457" y2="161.197" gradientUnits="userSpaceOnUse">
<stop stop-color="#F25E5E"/>
<stop offset="0.56" stop-color="#FF2B2B"/>
<stop offset="1" stop-color="#FC7D7D"/>
</linearGradient>
<linearGradient id="paint17_linear_11_282" x1="46.2995" y1="188.138" x2="61.3454" y2="182.845" gradientUnits="userSpaceOnUse">
<stop stop-color="#F25E5E"/>
<stop offset="0.56" stop-color="#FF2B2B"/>
<stop offset="1" stop-color="#FC7D7D"/>
</linearGradient>
<linearGradient id="paint18_linear_11_282" x1="66.4566" y1="165.156" x2="81.3973" y2="159.9" gradientUnits="userSpaceOnUse">
<stop stop-color="#F25E5E"/>
<stop offset="0.56" stop-color="#FF2B2B"/>
<stop offset="1" stop-color="#FC7D7D"/>
</linearGradient>
<linearGradient id="paint19_linear_11_282" x1="43.96" y1="180.481" x2="55.2108" y2="176.523" gradientUnits="userSpaceOnUse">
<stop stop-color="#F25E5E"/>
<stop offset="0.56" stop-color="#FF2B2B"/>
<stop offset="1" stop-color="#FC7D7D"/>
</linearGradient>
<linearGradient id="paint20_linear_11_282" x1="48.3332" y1="182.507" x2="56.0178" y2="179.804" gradientUnits="userSpaceOnUse">
<stop stop-color="#F25E5E"/>
<stop offset="0.56" stop-color="#FF2B2B"/>
<stop offset="1" stop-color="#FC7D7D"/>
</linearGradient>
<linearGradient id="paint21_linear_11_282" x1="64.8112" y1="164.177" x2="72.4958" y2="161.473" gradientUnits="userSpaceOnUse">
<stop stop-color="#F25E5E"/>
<stop offset="0.56" stop-color="#FF2B2B"/>
<stop offset="1" stop-color="#FC7D7D"/>
</linearGradient>
</defs>
</svg>
