<svg width="110" height="90" viewBox="0 0 110 90" fill="none" xmlns="http://www.w3.org/2000/svg">
<mask id="mask0_45_518" style="mask-type:alpha" maskUnits="userSpaceOnUse" x="-209" y="-127" width="779" height="390">
<path d="M570 262.5C570 211.35 559.925 160.701 540.351 113.445C520.777 66.1885 492.086 23.2503 455.918 -12.9181C419.75 -49.0865 376.812 -77.7769 329.555 -97.3511C282.299 -116.925 231.65 -127 180.5 -127C129.35 -127 78.7011 -116.925 31.4448 -97.3511C-15.8115 -77.7769 -58.7497 -49.0865 -94.9181 -12.9181C-131.087 23.2504 -159.777 66.1885 -179.351 113.445C-198.925 160.701 -209 211.35 -209 262.5H-95.1433C-95.1433 226.302 -88.0136 190.458 -74.1612 157.016C-60.3088 123.573 -40.0051 93.1866 -14.4092 67.5908C11.1866 41.9949 41.5733 21.6912 75.0159 7.83882C108.458 -6.01355 144.302 -13.1433 180.5 -13.1433C216.698 -13.1433 252.542 -6.01356 285.984 7.83881C319.427 21.6912 349.813 41.9949 375.409 67.5908C401.005 93.1866 421.309 123.573 435.161 157.016C449.014 190.458 456.143 226.302 456.143 262.5H570Z" fill="#FFEAC8" fill-opacity="0.5"/>
</mask>
<g mask="url(#mask0_45_518)">
<rect width="110" height="90" fill="#FFEAC8"/>
</g>
</svg>
