<svg width="213" height="221" viewBox="0 0 213 221" fill="none" xmlns="http://www.w3.org/2000/svg">
<path d="M12.8561 214.694C9.69844 211.554 7.84102 198.789 10.9169 196.307H26.6158C29.6917 198.789 27.8417 211.547 24.6841 214.687L24.5949 214.772L24.4909 214.88C24.4018 214.958 24.3052 215.044 24.2012 215.123L24.1269 215.18C24.0509 215.243 23.9715 215.303 23.8891 215.359C23.7592 215.451 23.6227 215.535 23.4805 215.609C22.0254 216.328 20.4132 216.703 18.7775 216.703C17.1418 216.703 15.5297 216.328 14.0745 215.609C13.9324 215.535 13.7958 215.451 13.6659 215.359L13.443 215.194L13.3464 215.123L13.0715 214.88L12.9452 214.765L12.8561 214.694Z" fill="#46565D"/>
<path d="M25.2268 195.299C28.8079 197.308 28.8079 200.569 25.2268 202.579C21.6457 204.588 15.8579 204.588 12.2843 202.579C8.71058 200.569 8.70315 197.308 12.2843 195.306C15.8654 193.303 21.6531 193.296 25.2268 195.299Z" fill="#46565D"/>
<g opacity="0.1">
<path d="M25.2268 195.299C28.8079 197.308 28.8079 200.569 25.2268 202.579C21.6457 204.588 15.8579 204.588 12.2843 202.579C8.71058 200.569 8.70315 197.308 12.2843 195.306C15.8654 193.303 21.6531 193.296 25.2268 195.299Z" fill="white"/>
</g>
<path d="M23.51 196.257C26.1327 197.73 26.1327 200.126 23.51 201.599C22.039 202.327 20.4089 202.707 18.755 202.707C17.1011 202.707 15.471 202.327 14 201.599C11.3774 200.126 11.3774 197.73 14 196.257C15.471 195.529 17.1011 195.15 18.755 195.15C20.4089 195.15 22.039 195.529 23.51 196.257Z" fill="#263238"/>
<path d="M13.9855 198.803C15.4565 198.075 17.0866 197.695 18.7405 197.695C20.3945 197.695 22.0245 198.075 23.4955 198.803C24.1347 199.148 24.6757 199.639 25.0706 200.233C24.6757 200.827 24.1347 201.319 23.4955 201.664C22.0245 202.391 20.3945 202.771 18.7405 202.771C17.0866 202.771 15.4565 202.391 13.9855 201.664C13.3464 201.319 12.8054 200.827 12.4104 200.233C12.8054 199.639 13.3464 199.148 13.9855 198.803Z" fill="#F5F5F5"/>
<path d="M25.7832 172.764L19.8395 177.305L25.5975 174.745C25.5831 176.538 25.2437 178.314 24.5945 179.994C23.0286 180.9 21.5382 181.92 20.1366 183.048L24.5499 181.375C24.6643 183.762 24.3578 186.151 23.6435 188.44C23.324 189.556 22.0238 191.687 21.1991 193.282C20.8243 194.026 20.3948 194.743 19.9138 195.427C19.8893 195.473 19.8594 195.517 19.8246 195.556C18.8216 195.005 17.774 194.462 16.6818 193.947C15.6766 191.417 15.0148 188.773 14.713 186.08C13.4499 174.967 22.1798 168.602 29.1934 166.464C27.679 168.353 26.5244 170.486 25.7832 172.764Z" fill="#7DCB4E"/>
<path opacity="0.25" d="M25.7832 172.764L19.8395 177.305L25.5975 174.745C25.5831 176.538 25.2437 178.314 24.5945 179.994C23.0286 180.9 21.5382 181.92 20.1366 183.048L24.5499 181.375C24.6643 183.762 24.3578 186.151 23.6435 188.44C23.324 189.556 22.0238 191.687 21.1991 193.282C20.8243 194.026 20.3948 194.743 19.9138 195.427C19.8893 195.473 19.8594 195.517 19.8246 195.556C18.8216 195.005 17.774 194.462 16.6818 193.947C15.6766 191.417 15.0148 188.773 14.713 186.08C13.4499 174.967 22.1798 168.602 29.1934 166.464C27.679 168.353 26.5244 170.486 25.7832 172.764Z" fill="white"/>
<path d="M20.813 173.229C19.655 174.456 18.8081 175.925 18.3389 177.52C17.8101 179.081 17.4564 180.692 17.2839 182.326C16.9059 185.59 17.3388 188.894 18.547 191.966C18.5599 192.006 18.5572 192.049 18.5395 192.087C18.5217 192.125 18.49 192.156 18.4504 192.173C18.4299 192.181 18.408 192.185 18.386 192.185C18.3639 192.185 18.3422 192.18 18.322 192.171C18.3019 192.163 18.2838 192.15 18.2688 192.134C18.2539 192.119 18.2423 192.1 18.2349 192.08C17.0637 188.95 16.6818 185.597 17.1205 182.297C17.3144 180.654 17.6982 179.038 18.2646 177.477C18.7618 175.89 19.6341 174.436 20.813 173.229Z" fill="#FAFAFA"/>
<path d="M0.0320282 178.593C2.27749 181.271 4.3541 184.078 6.25067 186.996L12.291 187.932L7.83319 188.683L10.2701 192.331L16.2139 193.518L11.5703 194.233C11.5703 194.233 12.8631 198.595 16.1841 200.412C18.0118 201.413 18.9108 201.563 19.4606 201.063C19.847 200.712 19.9361 198.617 20.2556 196.772C20.7036 193.832 20.184 190.831 18.7697 188.19C18.2622 187.218 17.6116 186.322 16.838 185.53C12.4396 180.802 4.14064 178.535 0.0320282 178.593Z" fill="#7DCB4E"/>
<path opacity="0.35" d="M0.0320282 178.593C2.27749 181.271 4.3541 184.078 6.25067 186.996L12.291 187.932L7.83319 188.683L10.2701 192.331L16.2139 193.518L11.5703 194.233C11.5703 194.233 12.8631 198.595 16.1841 200.412C18.0118 201.413 18.9108 201.563 19.4606 201.063C19.847 200.712 19.9361 198.617 20.2556 196.772C20.7036 193.832 20.184 190.831 18.7697 188.19C18.2622 187.218 17.6116 186.322 16.838 185.53C12.4396 180.802 4.14064 178.535 0.0320282 178.593Z" fill="white"/>
<path d="M6.34739 180.524C9.51098 181.793 12.3651 183.683 14.7281 186.073C15.9027 187.289 16.8729 188.674 17.6034 190.178C18.3112 191.69 18.7555 193.304 18.9184 194.955C18.5958 193.349 18.0615 191.79 17.3285 190.314C16.6058 188.838 15.6731 187.466 14.5572 186.238C12.2676 183.813 9.48622 181.866 6.38454 180.516C6.38454 180.516 6.33996 180.524 6.34739 180.524Z" fill="#FAFAFA"/>
<path d="M35.999 180.988C35.5028 180.985 35.0068 181.006 34.513 181.053C32.5252 181.275 30.5737 181.734 28.703 182.419C28.0121 182.669 27.3137 182.948 26.6302 183.263C26.2884 183.42 25.9466 183.584 25.6123 183.763C23.9471 184.593 22.4398 185.688 21.1545 187.003C20.5412 187.635 20.0167 188.342 19.5943 189.105L19.4308 189.399C19.2971 189.656 19.1856 189.906 19.0742 190.157C18.0502 192.287 17.5981 194.63 17.7591 196.972C17.826 198.638 18.4129 200.548 18.7547 200.855C18.7994 200.897 18.8493 200.933 18.9033 200.963C19.3937 201.27 20.1812 201.091 21.6523 200.305C24.6241 198.717 25.746 194.705 25.746 194.705L21.6597 194.04L26.9051 193.032L29.0374 189.828L25.1145 189.113L30.449 188.39C32.1393 185.824 33.9902 183.359 35.9916 181.01L35.999 180.988Z" fill="#7DCB4E"/>
<path opacity="0.2" d="M35.999 180.988C35.5028 180.985 35.0068 181.006 34.513 181.053C32.5252 181.275 30.5737 181.734 28.703 182.419C28.0121 182.669 27.3137 182.948 26.6302 183.263C26.2884 183.42 25.9466 183.584 25.6123 183.763C23.9471 184.593 22.4398 185.688 21.1545 187.003C20.5412 187.635 20.0167 188.342 19.5943 189.105L19.4308 189.399C19.2971 189.656 19.1856 189.906 19.0742 190.157C18.0502 192.287 17.5981 194.63 17.7591 196.972C17.826 198.638 18.4129 200.548 18.7547 200.855C18.7994 200.897 18.8493 200.933 18.9033 200.963C19.3937 201.27 20.1812 201.091 21.6523 200.305C24.6241 198.717 25.746 194.705 25.746 194.705L21.6597 194.04L26.9051 193.032L29.0374 189.828L25.1145 189.113L30.449 188.39C32.1393 185.824 33.9902 183.359 35.9916 181.01L35.999 180.988Z" fill="white"/>
<path opacity="0.3" d="M34.4759 181.053C32.4881 181.275 30.5366 181.734 28.6659 182.419C27.9749 182.669 27.2765 182.948 26.593 183.263C26.2512 183.42 25.9095 183.584 25.5751 183.763C23.9099 184.593 22.4027 185.688 21.1173 187.003C20.5171 187.637 20.0051 188.344 19.5943 189.105L19.4308 189.399C19.2971 189.656 19.1856 189.906 19.0742 190.157C18.0502 192.287 17.5981 194.63 17.7591 196.972C17.826 198.638 18.4129 200.548 18.7547 200.855C18.7994 200.897 18.8493 200.933 18.9033 200.963C18.9998 201.023 19.1089 201.062 19.2228 201.077C18.8661 198.495 20.1812 191.937 22.1946 189.241C24.275 186.438 29.2083 182.369 35.999 180.967C35.49 180.968 34.9816 180.997 34.4759 181.053Z" fill="#7DCB4E"/>
<path d="M19.1856 201.113C19.0577 199.198 19.1875 197.275 19.572 195.392C19.9326 193.497 20.5969 191.669 21.5408 189.971C22.5935 188.322 23.9448 186.869 25.5306 185.68C27.0926 184.482 28.8142 183.491 30.6496 182.733C28.9021 183.625 27.254 184.687 25.7312 185.901C24.9894 186.51 24.2918 187.167 23.6434 187.868C22.9551 188.545 22.347 189.293 21.8306 190.099C20.8701 191.764 20.1834 193.561 19.7948 195.427C19.368 197.291 19.1957 199.2 19.2822 201.106C19.2822 201.106 19.1856 201.12 19.1856 201.113Z" fill="#FAFAFA"/>
<g opacity="0.9">
<path d="M79.1741 186.812L75.0349 216.48H79.7628L87.7496 186.812H79.1741Z" fill="#263238"/>
<path d="M79.1741 186.812L75.0349 216.48H79.7628L87.7496 186.812H79.1741Z" fill="#333A3D"/>
</g>
<g opacity="0.9">
<path d="M180.484 186.812L184.624 216.48H179.89L171.909 186.812H180.484Z" fill="#263238"/>
<path d="M180.484 186.812L184.624 216.48H179.89L171.909 186.812H180.484Z" fill="#333A3D"/>
</g>
<path d="M73.4851 190.798L68.9333 220.397H74.1326L82.9157 190.798H73.4851Z" fill="#263238"/>
<path d="M73.4851 190.798L68.9333 220.397H74.1326L82.9157 190.798H73.4851Z" fill="#263238"/>
<path d="M186.482 190.798L191.034 220.397H185.828L177.051 190.798H186.482Z" fill="#263238"/>
<path d="M186.482 190.798L191.034 220.397H185.828L177.051 190.798H186.482Z" fill="#263238"/>
<path d="M52.2517 112.286C51.8855 125.641 48.4193 184.552 60.4986 195.768H75.5012C79.4251 195.768 79.2028 193.917 79.0523 190.013L76.2009 113.574C76.1549 112.104 75.6341 110.689 74.7164 109.539C72.7544 107.106 68.7847 103.346 63.35 103.712C60.4172 103.853 57.5789 104.794 55.1424 106.433C54.2331 107.111 53.4973 107.995 52.9949 109.013C52.4925 110.03 52.2379 111.152 52.2517 112.286Z" fill="#AE2F2F"/>
<path d="M188.224 196.625L75.5014 195.768V160.943H188.224V196.625Z" fill="#AE2F2F"/>
<path d="M187.779 160.943L74.8537 161.872V140.983L188.223 138.858L187.779 160.943Z" fill="#AE2F2F"/>
<path d="M54.3839 108.368C54.3839 108.368 55.221 79.3704 87.1358 77.8728C119.051 76.3751 166.406 77.8728 166.406 77.8728C166.406 77.8728 206.496 76.3686 207.425 101.619L199.459 150.015H75.6779L54.3839 108.368Z" fill="#AE2F2F"/>
<path d="M212.166 115.366C211.322 135.352 209.478 193.976 195.574 196.625H185.234L188.433 110.991C188.433 110.991 193.226 102.633 201.212 103.143H201.454C204.476 103.392 207.283 104.807 209.282 107.088C211.281 109.368 212.315 112.337 212.166 115.366Z" fill="#AE2F2F"/>
<path d="M206.47 104.386L206.091 104.294L205.012 104L204.227 103.784L203.246 103.634C202.893 103.588 202.514 103.516 202.108 103.47H200.8C198.567 103.488 196.37 104.038 194.391 105.072L193.953 105.288L193.528 105.55L192.664 106.093C192.087 106.498 191.533 106.935 191.003 107.401C189.851 108.424 188.839 109.597 187.995 110.886V110.828C187.576 119.676 187.053 130.853 186.484 142.978C185.83 157.738 185.353 171.099 185.085 180.785C184.96 185.618 184.869 189.529 184.797 192.25C184.797 193.59 184.738 194.643 184.725 195.369C184.725 195.716 184.725 195.984 184.692 196.18C184.66 196.376 184.692 196.455 184.692 196.455C184.692 196.455 184.692 196.363 184.692 196.18C184.692 195.997 184.692 195.709 184.692 195.369C184.692 194.637 184.692 193.59 184.692 192.25C184.692 189.542 184.777 185.625 184.875 180.785C185.091 171.099 185.529 157.725 186.183 142.965C186.726 130.833 187.295 119.65 187.753 110.814C187.747 110.797 187.747 110.779 187.753 110.762C188.612 109.457 189.644 108.273 190.82 107.244C191.358 106.764 191.924 106.317 192.514 105.903L193.39 105.354L193.822 105.092L194.267 104.876C196.277 103.841 198.506 103.303 200.767 103.307L202.075 103.352C202.481 103.398 202.86 103.477 203.22 103.529L204.201 103.692L204.986 103.928L206.058 104.261L206.47 104.386Z" fill="#263238"/>
<path d="M75.6777 161.78H76.2402H77.8882H84.2385L107.593 161.839C127.31 161.911 154.549 162.127 184.626 161.695H185.875L185.712 161.846C185.823 158.275 185.928 154.743 186.032 151.27C186.085 149.527 186.137 147.8 186.189 146.091L186.268 143.534C186.268 143.115 186.307 142.677 186.268 142.278C186.248 141.874 186.136 141.481 185.941 141.127C185.74 140.771 185.466 140.462 185.137 140.22C184.807 139.977 184.431 139.807 184.031 139.721C183.615 139.647 183.191 139.623 182.769 139.649H181.461H176.347L166.445 139.714L132.209 140.068C122.471 140.166 114.597 140.205 109.156 140.211H102.897H101.268C100.902 140.211 100.713 140.211 100.713 140.211H101.268H102.897L109.156 140.166L132.209 139.924L166.439 139.499L176.347 139.427H181.461H182.769C183.207 139.4 183.646 139.427 184.077 139.505C184.52 139.602 184.937 139.791 185.301 140.06C185.665 140.33 185.968 140.673 186.189 141.068C186.407 141.457 186.533 141.892 186.556 142.337C186.556 142.788 186.556 143.194 186.556 143.645C186.556 144.489 186.51 145.345 186.484 146.202C186.431 147.907 186.379 149.631 186.327 151.375C186.222 154.863 186.117 158.39 186.013 161.957C186.007 161.997 185.987 162.033 185.958 162.061C185.928 162.088 185.89 162.105 185.849 162.107H184.607C154.523 162.539 127.284 162.29 107.566 162.159L84.2123 162.009L77.8621 161.963H76.214L75.6777 161.78Z" fill="#263238"/>
<g opacity="0.2">
<path d="M74.8537 161.872C100.726 167.483 113.047 167.058 137.101 167.47C158.682 167.843 182.442 163.951 185.875 161.636L74.8537 161.872Z" fill="black"/>
</g>
<path d="M75.5017 195.768C75.496 195.672 75.496 195.576 75.5017 195.48C75.5017 195.271 75.5017 194.99 75.5017 194.63C75.5017 193.872 75.5017 192.773 75.5017 191.36C75.5017 188.509 75.5605 184.421 75.6063 179.373C75.7306 169.236 75.8941 155.26 76.0772 139.826C76.1884 132.102 76.2865 124.744 76.378 118.054C76.4267 116.435 76.2057 114.82 75.724 113.273C75.2487 111.827 74.5467 110.465 73.6443 109.238C72.7729 108.113 71.7418 107.122 70.5836 106.295C69.5066 105.56 68.3308 104.981 67.0913 104.575C64.9222 103.907 62.6166 103.815 60.401 104.307C58.7248 104.665 57.1371 105.354 55.7315 106.335C54.8516 106.965 54.0731 107.726 53.4229 108.591C52.9782 109.186 52.8016 109.539 52.7689 109.526C52.8033 109.437 52.8471 109.351 52.8997 109.271C53.0387 109.023 53.1915 108.783 53.3575 108.552C53.9873 107.657 54.7581 106.871 55.6399 106.223C57.0502 105.21 58.6525 104.496 60.3486 104.124C62.5962 103.602 64.9415 103.678 67.1502 104.346C68.4256 104.753 69.6368 105.338 70.7471 106.086C71.9323 106.926 72.9897 107.932 73.8863 109.075C75.8374 111.652 76.8232 114.832 76.6723 118.061C76.5873 124.758 76.4957 132.115 76.3976 139.839C76.1753 155.273 75.9725 169.268 75.8287 179.379C75.7371 184.428 75.6652 188.535 75.6128 191.367C75.6128 192.773 75.5605 193.865 75.5409 194.637C75.5409 195.003 75.5409 195.291 75.5409 195.487C75.5346 195.581 75.5215 195.675 75.5017 195.768Z" fill="#263238"/>
<path d="M138.919 134.469C139.157 120.749 140.491 107.07 142.908 93.5622C143.274 91.5021 143.758 89.2851 145.354 87.9379C146.727 86.7737 148.624 86.5187 150.416 86.3748C163.267 85.3284 176.366 91.0639 188.034 97.2769C189.313 97.9549 190.346 99.0203 190.984 100.321C191.622 101.621 191.832 103.09 191.585 104.517C189.623 115.7 185.699 124.136 179.924 134.816C166.809 140.133 152.404 141.408 138.559 138.478" fill="#FFBA49"/>
<path d="M115.892 33.4144C115.081 27.6527 115.133 27.8424 114.414 22.3292C113.027 11.6299 109.653 -0.501699 94.3821 0.374652C94.3821 0.374652 82.8784 1.02864 79.3403 9.24279C77.4568 13.6769 76.9597 29.0195 76.3253 42.8188C76.3134 43.0419 76.2694 43.2622 76.1945 43.4728L75.4817 45.559C74.5388 48.302 73.9862 51.164 73.8402 54.0609L72.8723 73.2164C72.8402 73.8475 73.0597 74.4656 73.4827 74.9351C73.9056 75.4047 74.4975 75.6873 75.1285 75.7212C80.2755 75.9697 92.0343 75.3157 94.2971 74.4982C98.9389 72.7972 103.161 70.1183 106.677 66.643C110.193 63.1676 112.921 58.977 114.675 54.3552C114.911 53.7012 118.24 53.42 118.868 53.178C119.901 52.7791 116.049 34.5131 115.892 33.4144Z" fill="#263238"/>
<path d="M91.4391 5.31235L92.407 4.41638L102.694 8.71965C103.414 8.76874 104.089 9.08638 104.586 9.60963C105.082 10.1329 105.364 10.8236 105.376 11.5449L104.813 45.1536C104.813 47.436 105.467 50.0716 104.042 51.8701L102.367 54.2179C99.0058 58.5343 91.2494 56.9712 88.7054 52.1317C88.5485 51.8569 88.4297 51.5621 88.3523 51.2553C88.2896 51.0077 88.2416 50.7565 88.2084 50.5033C87.9402 47.7957 87.9533 45.4479 87.9533 45.4479C87.8094 42.4788 87.7702 41.2558 87.7637 41.2885C87.7571 41.3212 81.4592 40.4841 79.8634 32.3157C79.0721 28.274 79.3075 22.7216 79.6215 17.2739C80.0596 9.74641 85.3635 5.22079 91.4391 5.31235Z" fill="#FECBB0"/>
<path d="M93.0545 22.7477C93.0614 23.0218 93.1755 23.2822 93.3725 23.473C93.5694 23.6638 93.8333 23.7697 94.1075 23.7679C94.241 23.774 94.3745 23.7534 94.4999 23.707C94.6253 23.6607 94.7402 23.5898 94.8378 23.4983C94.9353 23.4069 95.0135 23.2968 95.0678 23.1746C95.1221 23.0524 95.1514 22.9206 95.1539 22.7869C95.147 22.5122 95.0331 22.2511 94.8364 22.0592C94.6396 21.8674 94.3757 21.7601 94.1009 21.7601C93.967 21.7549 93.8334 21.7764 93.708 21.8235C93.5825 21.8705 93.4677 21.9421 93.3702 22.0341C93.2728 22.126 93.1947 22.2365 93.1405 22.359C93.0863 22.4816 93.057 22.6137 93.0545 22.7477Z" fill="#263238"/>
<path d="M82.5122 22.8262C82.519 23.1003 82.6332 23.3607 82.8301 23.5515C83.027 23.7423 83.2909 23.8482 83.5651 23.8464C83.6987 23.8526 83.8321 23.8319 83.9576 23.7856C84.083 23.7393 84.1979 23.6683 84.2954 23.5768C84.393 23.4854 84.4712 23.3753 84.5255 23.2531C84.5798 23.1309 84.609 22.9991 84.6115 22.8654C84.6047 22.5907 84.4907 22.3296 84.294 22.1377C84.0973 21.9459 83.8334 21.8386 83.5586 21.8387C83.4247 21.8334 83.2911 21.8549 83.1656 21.902C83.0402 21.949 82.9253 22.0206 82.8279 22.1126C82.7305 22.2045 82.6523 22.315 82.5981 22.4376C82.5439 22.5601 82.5147 22.6922 82.5122 22.8262Z" fill="#263238"/>
<path d="M80.6748 19.4385C80.8056 19.5758 81.5838 18.9545 82.7087 18.9218C83.8335 18.8891 84.6707 19.4189 84.8015 19.275C84.9323 19.1311 84.723 18.9676 84.3502 18.7191C83.8505 18.3976 83.263 18.2399 82.6694 18.2678C82.0825 18.2838 81.5163 18.4878 81.0541 18.8499C80.714 19.1311 80.6028 19.3796 80.6748 19.4385Z" fill="#263238"/>
<path d="M92.119 19.7198C92.2695 19.8376 92.9758 19.1443 94.081 18.9874C95.1863 18.8304 96.0953 19.2817 96.2 19.1247C96.3046 18.9678 96.0888 18.8304 95.6898 18.6211C95.1591 18.3527 94.5585 18.2545 93.9698 18.3399C93.3894 18.4232 92.8497 18.6862 92.4264 19.092C92.1321 19.4059 92.0471 19.6675 92.119 19.7198Z" fill="#263238"/>
<path d="M88.0646 27.8751C87.4629 27.7127 86.8435 27.6249 86.2203 27.6135C85.926 27.6135 85.6513 27.5481 85.5663 27.3519C85.5286 27.0542 85.5858 26.752 85.7298 26.4887C85.9718 25.7824 86.2269 25.0368 86.5015 24.2651C87.5741 21.0932 88.3327 18.4903 88.2085 18.4511C88.0842 18.4119 87.1097 20.9428 86.0372 24.1147L85.2982 26.3513C85.1298 26.7063 85.0928 27.1095 85.1935 27.4893C85.2385 27.5883 85.3054 27.6757 85.3893 27.7448C85.4732 27.814 85.5718 27.863 85.6775 27.8882C85.8398 27.9292 86.0072 27.9468 86.1745 27.9405C86.8047 28.001 87.4401 27.979 88.0646 27.8751Z" fill="#263238"/>
<path d="M87.7638 41.2688C91.6199 41.1849 95.3774 40.0349 98.6201 37.9465C98.6201 37.9465 96.0695 43.7082 87.8488 43.2438L87.7638 41.2688Z" fill="#F3AF91"/>
<path d="M88.6401 30.5826C88.8441 30.3026 89.1167 30.0797 89.4316 29.9354C89.7466 29.7911 90.0933 29.7302 90.4386 29.7585C90.6895 29.7737 90.9346 29.8395 91.1594 29.9519C91.3842 30.0643 91.5839 30.221 91.7466 30.4125C91.9029 30.597 91.9996 30.8244 92.0241 31.0648C92.0486 31.3053 91.9998 31.5476 91.8839 31.7598C91.7081 31.968 91.4745 32.1195 91.2126 32.1952C90.9507 32.2708 90.6723 32.2672 90.4124 32.1848C89.8791 32.008 89.3858 31.728 88.9606 31.3608C88.8296 31.2767 88.7163 31.1678 88.627 31.0404C88.586 30.9783 88.5641 30.9055 88.5641 30.8311C88.5641 30.7567 88.586 30.6839 88.627 30.6218" fill="#F3AF91"/>
<path d="M91.413 28.5356C91.2299 28.5356 91.2757 29.7586 90.2555 30.6677C89.2352 31.5767 87.9272 31.4851 87.9272 31.6617C87.9272 31.7337 88.2215 31.8841 88.7774 31.8841C89.5 31.8682 90.1941 31.5997 90.7394 31.1254C91.2491 30.6752 91.5634 30.0442 91.6158 29.3662C91.6485 28.8234 91.498 28.5291 91.413 28.5356Z" fill="#263238"/>
<path d="M91.0923 14.2328C91.2427 14.5206 92.3414 14.2328 93.6756 14.2001C95.0097 14.1674 96.1215 14.3833 96.2915 14.089C96.3504 13.9451 96.128 13.6835 95.6375 13.435C95.0239 13.1498 94.3518 13.0132 93.6756 13.036C92.9909 13.0518 92.3192 13.2264 91.7136 13.5461C91.2362 13.8208 91.0269 14.0955 91.0923 14.2328Z" fill="#263238"/>
<path d="M80.9033 14.5989C81.1125 14.8475 81.8777 14.5532 82.8129 14.5074C83.7481 14.4616 84.546 14.612 84.716 14.3373C84.7945 14.2065 84.6572 13.9515 84.304 13.7226C83.8281 13.4505 83.2824 13.3251 82.7355 13.3624C82.1886 13.3996 81.6649 13.5977 81.2303 13.9319C80.9098 14.2065 80.8117 14.4747 80.9033 14.5989Z" fill="#263238"/>
<path d="M104.938 25.8869C104.938 25.8869 99.1366 27.6004 96.0629 13.291C95.0165 8.39918 90.5497 4.39021 90.5497 4.39021L92.3874 3.86047C92.3874 3.86047 103.741 7.23508 103.93 7.37896C104.12 7.52284 106.723 13.3107 106.723 13.3107L104.938 25.8869Z" fill="#263238"/>
<path d="M103.525 25.331C103.525 24.7228 104.179 23.2644 104.755 23.1467C106.35 22.8393 109.254 22.8655 109.431 26.9398C109.666 32.5184 104.015 31.6093 104.002 31.4458C103.989 31.2823 103.597 27.4369 103.525 25.331Z" fill="#FECBB0"/>
<path d="M105.611 29.2615C105.611 29.2615 105.716 29.3269 105.879 29.3923C106.112 29.4871 106.373 29.4871 106.605 29.3923C107.187 29.1503 107.645 28.1955 107.625 27.1883C107.621 26.7097 107.509 26.2382 107.298 25.8084C107.238 25.6365 107.137 25.4818 107.004 25.3576C106.87 25.2335 106.709 25.1435 106.533 25.0955C106.421 25.0709 106.303 25.0861 106.2 25.1386C106.098 25.1911 106.017 25.2776 105.971 25.3833C105.905 25.5468 105.971 25.6514 105.912 25.6645C105.853 25.6776 105.794 25.573 105.827 25.3441C105.854 25.2054 105.925 25.0792 106.03 24.9844C106.179 24.865 106.369 24.8066 106.559 24.8209C106.79 24.8571 107.007 24.9511 107.191 25.094C107.375 25.237 107.52 25.4243 107.612 25.6384C107.873 26.1115 108.012 26.6417 108.018 27.1818C108.018 28.3067 107.501 29.3857 106.71 29.6473C106.562 29.6988 106.405 29.7161 106.25 29.6979C106.095 29.6798 105.946 29.6267 105.814 29.5427C105.631 29.3988 105.598 29.2746 105.611 29.2615Z" fill="#F3AF91"/>
<path d="M101.059 23.101C100.779 23.0584 100.502 22.9994 100.229 22.9244C99.4929 22.685 98.8217 22.2801 98.2668 21.7407C97.879 21.3753 97.5365 20.9647 97.2465 20.5177C96.9223 19.9979 96.6486 19.4482 96.429 18.8762C95.9639 17.5452 95.5817 16.1867 95.2846 14.8084C94.9118 13.35 94.5063 11.97 94.0551 10.7405C93.6678 9.65111 93.1977 8.5929 92.649 7.57521C92.282 6.89102 91.8645 6.2352 91.3998 5.61323C91.2363 5.38433 91.099 5.22738 91.0074 5.10967C90.9641 5.05126 90.916 4.99657 90.8636 4.94617C90.8995 5.01073 90.9411 5.072 90.9878 5.12928C91.0663 5.247 91.2036 5.41704 91.3541 5.64593C91.7947 6.27483 92.1966 6.93004 92.5574 7.60791C93.0904 8.62875 93.5494 9.68659 93.9308 10.7732C94.369 11.9962 94.7679 13.3892 95.1407 14.828C95.4407 16.2133 95.8273 17.5785 96.2982 18.9155C96.5237 19.4937 96.8064 20.0479 97.1419 20.5701C97.4431 21.022 97.7965 21.4369 98.1948 21.8061C98.7654 22.349 99.4587 22.7461 100.216 22.9637C100.489 23.0504 100.773 23.0966 101.059 23.101Z" fill="#263238"/>
<path d="M117.834 53.1192L105.409 48.43L87.7508 44.5846L73.5265 46.4681C70.5247 46.5335 65.3254 52.8379 61.3688 59.6002C57.8241 65.6562 55.0316 71.7449 55.0316 71.7449L71.5841 77.9317C72.5259 84.9752 73.9124 94.2815 75.1092 97.9504C77.1496 104.222 77.7709 112.829 77.7709 112.829L117.082 107.701L117.638 80.698L130.568 79.0107C130.574 78.0624 125.584 55.5259 117.834 53.1192Z" fill="#FFBA49"/>
<path d="M116.84 63.9427C116.841 64.1627 116.865 64.3819 116.912 64.5967C116.977 65.0283 117.069 65.6562 117.167 66.4279C117.418 68.45 117.545 70.4855 117.546 72.5231C117.538 74.5587 117.407 76.5919 117.154 78.6118C117.056 79.39 116.964 80.0179 116.899 80.4495C116.852 80.6644 116.825 80.8835 116.82 81.1035C116.907 80.8934 116.968 80.6739 117.004 80.4495C117.108 80.0179 117.226 79.3966 117.35 78.6183C117.987 74.5644 117.987 70.436 117.35 66.3821C117.226 65.6104 117.108 64.9826 117.01 64.5575C116.976 64.3469 116.919 64.1408 116.84 63.9427Z" fill="#263238"/>
<path d="M130.07 79.3966L117.298 80.7766L117.501 84.282L114.662 80.2141L110.379 89.1019C110.379 89.1019 112.105 94.2946 113.04 97.1591C115.532 104.843 119.515 113.417 124.158 112.855C129.75 112.201 133.707 105.491 133.523 101.194C133.373 97.3095 130.07 79.3966 130.07 79.3966Z" fill="#FECBB0"/>
<path d="M136.055 130.336L158.205 139.021L149.782 149.204L130.94 145.927L136.055 130.336Z" fill="#FECBB0"/>
<path d="M77.8427 112.371C77.8427 112.371 77.2606 137.635 79.5758 142.029C81.8909 146.424 104.284 146.607 104.284 146.607L139.599 148.399L143.719 131.88C143.719 131.88 118.024 119.951 115.598 118.571C113.171 117.191 107.429 114.778 107.429 114.778L98.7835 103.66L77.8427 112.371Z" fill="#263238"/>
<path d="M118.639 146.882C118.548 146.841 118.454 146.808 118.357 146.784L117.547 146.549L114.525 145.718L104.369 143.017H104.329C103.761 143.011 103.193 142.974 102.629 142.906C101.534 142.79 100.457 142.537 99.4244 142.154C98.4585 141.812 97.5295 141.374 96.6514 140.846C94.1404 139.345 92.1011 137.17 90.7655 134.567C90.5759 134.201 90.4581 133.913 90.36 133.704C90.3205 133.598 90.2678 133.497 90.2031 133.403C90.2267 133.513 90.2618 133.621 90.3077 133.724C90.3862 133.927 90.4908 134.24 90.6674 134.62C91.175 135.692 91.8095 136.7 92.5575 137.622C93.6823 138.983 95.0261 140.148 96.5337 141.068C97.4246 141.611 98.3692 142.06 99.3524 142.409C99.8706 142.599 100.399 142.761 100.935 142.893C101.488 143.019 102.046 143.115 102.609 143.181C103.187 143.249 103.767 143.286 104.349 143.292L114.532 145.908L117.573 146.653L118.397 146.843C118.475 146.866 118.557 146.879 118.639 146.882Z" fill="#AE2F2F"/>
<path d="M117.586 120.055L123.603 83.2747C123.603 83.2747 122.805 56.8011 137.67 58.6977C152.535 60.5943 150.75 83.8895 150.75 83.8895C150.75 83.8895 148.827 115.824 147.774 120.435C146.721 125.045 146.191 130.173 143.157 132.017L129.665 129.918L117.586 120.055Z" fill="#263238"/>
<path d="M129.181 65.3946L125.584 74.0861L127.814 107.283C127.814 107.283 146.976 108.924 146.78 108.401C146.584 107.878 150.214 91.8682 150.214 91.8682C150.214 91.8682 151.404 70.62 145.727 66.5652C140.05 62.5105 129.181 65.3946 129.181 65.3946Z" fill="#263238"/>
<path d="M128.586 107.342L128.834 123.195L142.222 130.539L145.858 108.499L128.586 107.342Z" fill="#FECBB0"/>
<path d="M98.7572 103.653L113.374 97.63L122.118 105.465L117.265 121.089L104.44 116.301L98.7572 103.653Z" fill="#263238"/>
<path d="M142.876 131.866L142.699 131.762L142.163 131.494L140.096 130.486L132.477 126.811L121.157 121.422L114.466 118.27L110.928 116.596L109.117 115.739L108.201 115.307C107.898 115.15 107.583 115.017 107.259 114.908C105.982 114.44 104.642 114.169 103.283 114.104C101.97 114.023 100.652 114.105 99.359 114.346C96.9114 114.81 94.573 115.731 92.4659 117.06C90.5627 118.261 88.8536 119.745 87.3975 121.461C86.1367 122.954 85.022 124.563 84.0687 126.268C82.7067 128.735 81.5833 131.325 80.7137 134.005C80.3998 134.953 80.184 135.699 80.0597 136.209L79.9027 136.784C79.8812 136.848 79.868 136.914 79.8635 136.981C79.8635 136.981 79.8635 136.922 79.9354 136.791L80.1186 136.222C80.2755 135.718 80.511 134.986 80.8379 134.044C81.739 131.378 82.8817 128.799 84.2518 126.34C85.2141 124.658 86.3307 123.068 87.5872 121.592C89.0342 119.9 90.7299 118.438 92.6164 117.256C94.6969 115.951 97.0041 115.048 99.4179 114.594C100.691 114.355 101.99 114.276 103.283 114.359C104.623 114.423 105.947 114.69 107.207 115.15C107.526 115.256 107.837 115.388 108.136 115.543L109.051 115.974L110.863 116.831L114.401 118.499L121.091 121.658L132.438 126.988L140.096 130.565L142.182 131.52L142.732 131.762C142.777 131.8 142.825 131.835 142.876 131.866Z" fill="#AE2F2F"/>
<path d="M115.029 118.963C115.018 118.158 115.073 117.353 115.192 116.557C115.609 114.658 116.317 112.836 117.292 111.155C118.282 109.463 119.122 107.688 119.803 105.851C119.989 105.283 120.129 104.701 120.222 104.111C120.264 103.896 120.28 103.676 120.267 103.457C120.215 103.457 120.124 104.379 119.613 105.785C118.878 107.588 118.017 109.336 117.037 111.017C116.051 112.722 115.361 114.582 114.996 116.517C114.906 117.11 114.882 117.711 114.924 118.309C114.932 118.531 114.967 118.75 115.029 118.963Z" fill="#AE2F2F"/>
<path d="M150.253 91.8683L150.2 92.0383C150.2 92.1691 150.128 92.3391 150.07 92.5484C149.958 93.0193 149.808 93.6733 149.605 94.5104C149.213 96.2173 148.644 98.6894 147.977 101.75C147.643 103.28 147.284 104.955 146.937 106.766C146.852 107.224 146.76 107.675 146.702 108.159C146.698 108.229 146.698 108.299 146.702 108.368V108.434C146.702 108.467 146.702 108.434 146.702 108.375V108.336C146.702 108.336 146.702 108.336 146.669 108.336C146.556 108.354 146.443 108.365 146.329 108.368H145.603C144.628 108.368 143.641 108.297 142.588 108.238C138.455 107.989 133.922 107.629 129.161 107.237L127.853 107.126L127.978 107.257C127.324 98.0289 126.774 89.7428 126.356 83.713C126.14 80.7308 125.963 78.3175 125.839 76.6302C125.774 75.8127 125.721 75.1718 125.682 74.714C125.682 74.5048 125.649 74.3412 125.636 74.217C125.644 74.1606 125.644 74.1034 125.636 74.047C125.629 74.1034 125.629 74.1606 125.636 74.217C125.636 74.3412 125.636 74.5113 125.636 74.714C125.636 75.1718 125.702 75.8193 125.741 76.6368C125.846 78.3241 125.99 80.7373 126.173 83.726C126.565 89.7297 127.108 98.0223 127.71 107.27V107.394H127.834L129.142 107.505C133.903 107.904 138.442 108.251 142.581 108.486C143.615 108.539 144.622 108.591 145.609 108.604H146.342C146.469 108.6 146.596 108.587 146.721 108.565C146.769 108.554 146.815 108.536 146.858 108.512C146.883 108.495 146.901 108.469 146.911 108.44C146.917 108.417 146.917 108.392 146.911 108.368C146.826 108.368 146.911 108.336 146.911 108.368C146.908 108.318 146.908 108.268 146.911 108.218C146.963 107.76 147.055 107.296 147.133 106.845C147.473 105.033 147.82 103.359 148.14 101.822C148.794 98.7744 149.317 96.3023 149.684 94.5693L150.096 92.6073C150.135 92.3915 150.174 92.2214 150.194 92.0906C150.23 92.0219 150.25 91.9459 150.253 91.8683Z" fill="#AE2F2F"/>
<path d="M132.608 62.8898C132.452 62.9937 132.309 63.1168 132.183 63.2561C131.915 63.5046 131.529 63.9101 131.123 64.3744C128.908 66.9496 127.319 70.0028 126.48 73.2949C126.323 73.9489 126.218 74.4393 126.166 74.799C126.124 74.9834 126.106 75.1725 126.114 75.3615C126.16 75.3615 126.316 74.5832 126.67 73.3472C127.605 70.1213 129.172 67.1136 131.28 64.4987C132.085 63.498 132.647 62.9225 132.608 62.8898Z" fill="#AE2F2F"/>
<path d="M110.725 114.745C110.717 114.565 110.686 114.387 110.634 114.215C110.555 113.882 110.425 113.398 110.241 112.809C109.755 111.272 109.142 109.778 108.41 108.342C107.675 106.909 106.824 105.538 105.866 104.242C105.5 103.751 105.212 103.359 104.957 103.104C104.852 102.958 104.727 102.828 104.584 102.718C104.584 102.718 105.01 103.372 105.703 104.36C106.605 105.679 107.424 107.052 108.155 108.473C108.878 109.899 109.509 111.369 110.045 112.874C110.464 114.026 110.68 114.758 110.725 114.745Z" fill="#AE2F2F"/>
<path d="M86.6848 112.829C86.639 112.829 86.4494 113.385 86.0308 114.261C85.4964 115.402 84.8385 116.481 84.0689 117.479C83.3008 118.472 82.4233 119.376 81.4529 120.173C80.7073 120.781 80.2038 121.115 80.2299 121.154C80.2561 121.193 80.3738 121.102 80.6158 120.971C80.9486 120.772 81.2696 120.553 81.5771 120.317C82.6139 119.559 83.5424 118.664 84.337 117.655C85.1143 116.639 85.7521 115.524 86.2336 114.339C86.3789 113.983 86.5034 113.618 86.6063 113.247C86.6552 113.113 86.6817 112.972 86.6848 112.829Z" fill="#AE2F2F"/>
<path d="M157.878 149.446C166.131 149.027 168.211 149.289 176.465 148.87C178.479 148.766 185.81 149.021 187.491 147.909C189.028 146.902 190.996 145.947 191.415 144.162C192.069 141.14 191.251 137.72 188.472 135.83C187.498 135.179 186.371 134.795 185.202 134.718C180.33 134.332 175.876 137.89 171.004 136.83C169.696 136.549 168.505 135.817 167.197 135.522C165.246 135.139 163.222 135.463 161.488 136.438C159.742 137.34 159.336 137.491 159.336 137.491L150.665 134.554L147.964 149.701L157.878 149.446Z" fill="#FAFAFA"/>
<path d="M150.528 130.957L155.106 132.448C155.441 132.56 155.724 132.791 155.9 133.097C156.076 133.403 156.133 133.764 156.06 134.11L152.509 150.355C152.436 150.702 152.236 151.009 151.948 151.216C151.66 151.423 151.305 151.515 150.953 151.473L146.322 150.957C146.124 150.935 145.932 150.873 145.76 150.773C145.587 150.673 145.437 150.537 145.32 150.376C145.203 150.214 145.121 150.03 145.08 149.835C145.038 149.64 145.038 149.438 145.08 149.243L148.683 132.043C148.722 131.845 148.803 131.657 148.92 131.492C149.037 131.327 149.188 131.189 149.362 131.086C149.536 130.984 149.73 130.919 149.931 130.897C150.132 130.875 150.335 130.895 150.528 130.957Z" fill="#FAFAFA"/>
<path d="M152.398 151.009C152.743 150.219 153.025 149.403 153.241 148.569C153.706 147.046 154.288 144.927 154.811 142.546C155.334 140.166 155.681 137.968 155.87 136.412C155.962 135.62 156.027 134.973 156.054 134.528C156.092 134.299 156.092 134.064 156.054 133.835C155.851 134.671 155.698 135.518 155.596 136.372C155.334 137.935 154.942 140.1 154.432 142.461C153.922 144.822 153.366 146.961 152.973 148.497C152.725 149.321 152.532 150.16 152.398 151.009Z" fill="#263238"/>
<path d="M155.269 136.183C154.277 135.375 153.089 134.844 151.826 134.643C150.562 134.442 149.268 134.578 148.075 135.038C148.075 135.163 149.749 134.685 151.77 135.038C153.791 135.392 155.21 136.287 155.269 136.183Z" fill="#263238"/>
<path d="M154.726 142.317C153.504 141.758 152.216 141.354 150.893 141.114C149.599 140.744 148.263 140.539 146.917 140.506C148.189 140.921 149.486 141.251 150.802 141.493C152.954 141.99 154.693 142.428 154.726 142.317Z" fill="#263238"/>
<path d="M152.646 148.681C152.646 148.556 150.874 148.772 148.919 147.935C146.963 147.098 145.851 145.731 145.766 145.816C145.681 145.901 145.949 146.235 146.42 146.751C147.088 147.412 147.876 147.938 148.742 148.301C149.61 148.663 150.542 148.85 151.482 148.851C151.878 148.89 152.278 148.831 152.646 148.681Z" fill="#263238"/>
<path d="M128.239 118.126L128.586 124.98L142.267 131.546L144.543 120.101L128.239 118.126Z" fill="#FAFAFA"/>
<path d="M146.806 116.079L145.779 120.853C145.704 121.206 145.5 121.518 145.208 121.73C144.916 121.941 144.555 122.037 144.197 121.998L127.35 120.147C126.99 120.11 126.656 119.94 126.415 119.67C126.173 119.401 126.04 119.051 126.042 118.689V113.934C126.045 113.731 126.089 113.531 126.173 113.346C126.257 113.162 126.379 112.996 126.53 112.861C126.681 112.726 126.859 112.624 127.052 112.561C127.245 112.498 127.449 112.475 127.651 112.495L145.492 114.32C145.699 114.336 145.901 114.396 146.083 114.496C146.265 114.596 146.424 114.734 146.548 114.901C146.673 115.068 146.76 115.259 146.805 115.462C146.849 115.665 146.85 115.876 146.806 116.079Z" fill="#FAFAFA"/>
<path d="M126.696 120.108C127.529 120.382 128.385 120.584 129.253 120.709C130.849 121.01 133.059 121.363 135.525 121.664C137.99 121.965 140.227 122.057 141.856 122.083C142.666 122.083 143.32 122.083 143.778 122.083C144.014 122.093 144.25 122.069 144.478 122.011C143.611 121.89 142.737 121.824 141.862 121.815C140.247 121.717 138.017 121.553 135.564 121.278C133.112 121.004 130.901 120.677 129.299 120.441C128.44 120.273 127.57 120.162 126.696 120.108Z" fill="#263238"/>
<path d="M142.019 121.435C142.793 120.373 143.212 119.094 143.216 117.779C143.346 115.582 142.49 113.954 142.411 114.012C142.333 114.071 142.948 115.667 142.817 117.753C142.686 119.839 141.934 121.383 142.019 121.435Z" fill="#263238"/>
<path d="M135.741 121.54C136.18 120.241 136.455 118.892 136.558 117.524C136.846 115.275 136.866 113.437 136.755 113.43C136.643 113.424 136.447 115.242 136.166 117.472C135.885 119.702 135.63 121.514 135.741 121.54Z" fill="#263238"/>
<path d="M129.076 120.108C129.201 120.108 128.802 118.316 129.436 116.249C130.07 114.182 131.346 112.907 131.248 112.829C131.149 112.75 130.849 113.058 130.378 113.62C129.17 115.125 128.597 117.042 128.782 118.963C128.789 119.362 128.89 119.754 129.076 120.108Z" fill="#263238"/>
<path d="M97.7828 67.8078C97.7828 67.8078 104.774 68.7953 105.219 69.227C105.663 69.6586 114.662 80.214 114.662 80.214L110.379 89.1018L102.446 85.0143C101.638 84.6758 100.796 84.4237 99.9345 84.2623C99.9345 84.2623 91.995 83.1832 91.4326 82.2414C90.8701 81.2997 91.184 81.0708 91.7661 80.9334C92.3481 80.7961 97.0961 81.2147 98.1556 81.3847C99.206 81.4654 100.262 81.4435 101.308 81.3193C101.308 81.3193 98.0052 80.6195 97.2531 80.3775C96.501 80.1356 89.1109 78.6445 89.2024 77.3169C89.294 75.9893 90.1965 75.4988 94.8333 76.6629C97.4016 77.3295 100.041 77.683 102.694 77.7158L92.4332 74.3739C92.4332 74.3739 88.2999 73.1444 89.5948 71.941C90.8897 70.7377 99.7317 72.9743 99.7317 72.9743L103.656 74.3608L102.505 72.0391C102.505 72.0391 96.9457 70.5153 96.2263 69.9791C95.3369 69.3251 95.1996 68.6711 95.847 68.1021C96.4945 67.5331 97.7828 67.8078 97.7828 67.8078Z" fill="#FECBB0"/>
<path d="M73.9187 56.6834C73.9139 56.9474 73.8832 57.2102 73.8271 57.4682C73.7356 58.0372 73.6178 58.7435 73.474 59.5806C73.1797 61.366 72.82 63.8381 72.4341 66.5718C72.0483 69.3055 71.8259 71.8037 71.6559 73.6022C71.5774 74.4459 71.5054 75.1587 71.4531 75.7342C71.4406 75.9987 71.4034 76.2615 71.3419 76.519C71.3086 76.2563 71.3086 75.9904 71.3419 75.7277C71.3419 75.2176 71.3812 74.4851 71.4335 73.5826C71.5447 71.771 71.7605 69.2728 72.0875 66.5325C72.4145 63.7923 72.8723 61.3006 73.232 59.5414C73.4151 58.6519 73.5721 57.9325 73.6898 57.442C73.7335 57.1804 73.8104 56.9255 73.9187 56.6834Z" fill="#263238"/>
<path d="M120.136 57.3701C120.136 57.187 118.397 46.4484 117.586 42.6487L104.794 44.6107C104.617 46.1999 104.558 51.7392 104.598 53.6031C104.576 55.4838 105.196 57.3157 106.357 58.7958C106.948 59.5219 107.73 60.0684 108.615 60.3734C109.501 60.6785 110.453 60.7301 111.366 60.5224C112.351 61.9628 113.852 62.9696 115.559 63.3345C117.259 63.5961 119.201 62.7132 119.744 61.0783C120.129 59.8825 120.263 58.62 120.136 57.3701Z" fill="#263238"/>
<path d="M101.504 58.8415L99.4633 78.4155C99.4302 78.7325 99.2753 79.0242 99.0313 79.2291C98.7873 79.4341 98.4732 79.5363 98.1553 79.5142L86.0434 78.5463C85.7211 78.5213 85.4218 78.3696 85.211 78.1245C85.0003 77.8794 84.8951 77.5608 84.9185 77.2383L86.3442 56.6572C86.3557 56.4862 86.4027 56.3195 86.4823 56.1677C86.562 56.016 86.6725 55.8825 86.8067 55.776C86.941 55.6695 87.096 55.5922 87.2619 55.5491C87.4278 55.506 87.6008 55.4981 87.7699 55.5258L100.47 57.4878C100.785 57.5348 101.069 57.7025 101.262 57.9552C101.454 58.2079 101.541 58.5258 101.504 58.8415Z" fill="#263238"/>
<path d="M91.2756 65.3357C91.2756 65.3357 84.2255 65.1591 83.7089 65.5123C83.1922 65.8654 72.6106 74.8186 72.6106 74.8186L75.3705 84.3015C75.3705 84.3015 82.9895 81.8556 83.8724 81.5678C84.7306 81.367 85.6072 81.2552 86.4884 81.2343C86.4884 81.2343 94.4998 81.4763 95.1799 80.6326C95.8601 79.789 95.6115 79.5208 95.0622 79.2657C94.5128 79.0107 89.7583 78.6706 88.6858 78.6706C87.636 78.5775 86.5978 78.3826 85.5858 78.0886C85.5858 78.0886 88.9604 77.9381 89.7387 77.8204C90.5169 77.7027 98.0575 77.4411 98.1883 76.1266C98.3191 74.8121 97.5343 74.1646 92.7405 74.5439C90.1255 74.7864 87.491 74.7162 84.8926 74.3347L95.5004 72.7062C95.5004 72.7062 99.7775 72.1699 98.6984 70.7442C97.6193 69.3185 88.5223 70.0902 88.5223 70.0902L84.4348 70.8162L85.9455 68.7103C85.9455 68.7103 91.6811 68.1217 92.4855 67.7097C93.473 67.1996 93.715 66.5979 93.1395 65.9243C92.5639 65.2507 91.2756 65.3357 91.2756 65.3357Z" fill="#FECBB0"/>
<path d="M57.7389 72.7586L69.5631 77.1731L69.3407 78.8146L72.8985 74.5767L76.1684 83.0786C76.1684 83.0786 70.6684 93.8891 69.4781 96.662C66.0708 104.693 60.0148 108.885 55.6723 107.106C50.4404 104.974 47.4451 99.4546 49.8321 93.3332C51.2513 89.6905 57.7389 72.7586 57.7389 72.7586Z" fill="#FECBB0"/>
<path d="M72.6106 74.8186C72.6106 74.8186 72.7087 74.7205 72.8984 74.5505L73.7682 73.7984L77.1166 70.9405L82.4205 66.4606L83.2184 65.8066L83.6369 65.4665C83.8123 65.386 84.0005 65.3373 84.1928 65.3226C84.9188 65.2442 85.6643 65.2311 86.4295 65.218C87.9664 65.218 89.5817 65.218 91.2821 65.218C91.7146 65.2044 92.1462 65.2664 92.5574 65.4011C92.7773 65.4717 92.9801 65.5875 93.1525 65.7412C93.3266 65.9023 93.4571 66.1048 93.5318 66.3298C93.5742 66.448 93.5909 66.5739 93.5808 66.6991C93.5706 66.8243 93.5339 66.9459 93.473 67.0557C93.3481 67.2609 93.1809 67.437 92.9825 67.5724C92.7827 67.7177 92.5622 67.8323 92.3285 67.9125C92.0996 67.9779 91.8773 68.0302 91.6745 68.076C89.863 68.4226 87.9533 68.6384 85.9782 68.8542L86.0698 68.8084L84.5591 70.9078L84.4348 70.705L88.5223 69.9791C90.2357 69.8483 92.0015 69.7633 93.8 69.7698C94.7025 69.7698 95.6181 69.809 96.5337 69.9137C97 69.96 97.4616 70.0453 97.9136 70.1687C98.1461 70.2339 98.3668 70.3354 98.5676 70.4696C98.6811 70.5419 98.7777 70.6377 98.851 70.7505C98.9244 70.8633 98.9727 70.9905 98.9927 71.1236C98.9926 71.2627 98.9586 71.3998 98.8936 71.5228C98.8287 71.6459 98.7347 71.7513 98.6199 71.8299C98.4193 71.9789 98.1992 72.0999 97.9659 72.1896C97.519 72.3705 97.0573 72.5128 96.586 72.6147C95.6442 72.8174 94.696 72.9155 93.7477 73.0725L87.9664 73.9488L84.8272 74.4197V74.145C87.2382 74.4825 89.6781 74.5636 92.1061 74.387C93.293 74.2771 94.4853 74.2356 95.6769 74.2627C96.2783 74.2647 96.8743 74.3755 97.4362 74.5897C97.7437 74.7114 97.9938 74.9451 98.136 75.2437C98.2594 75.5369 98.2935 75.8599 98.2341 76.1724C98.188 76.3421 98.0809 76.4889 97.9332 76.5844C97.8075 76.6708 97.6739 76.7453 97.5343 76.8068C97.265 76.9198 96.9873 77.0116 96.7037 77.0814C96.1561 77.2193 95.6016 77.3285 95.0426 77.4084C93.9373 77.5719 92.8452 77.6766 91.7726 77.7616L90.1703 77.8793C89.6537 77.9185 89.1174 77.997 88.5942 78.0232C87.5544 78.0886 86.5341 78.1409 85.527 78.1867V77.9382C86.6254 78.2837 87.7643 78.4838 88.9147 78.5333C90.0526 78.5791 91.1579 78.6641 92.2369 78.7557C92.7732 78.808 93.3095 78.8603 93.8327 78.9257C94.0943 78.9584 94.3559 78.9911 94.6109 79.0369C94.7486 79.061 94.8842 79.096 95.0164 79.1415C95.1418 79.1975 95.2603 79.2677 95.3696 79.3508C95.4324 79.3972 95.485 79.456 95.5244 79.5234C95.5637 79.5909 95.5889 79.6657 95.5985 79.7432C95.6096 79.8887 95.5777 80.0342 95.5069 80.1618C95.4473 80.2811 95.3773 80.3949 95.2976 80.5018L95.1799 80.6522C95.1327 80.7104 95.075 80.7592 95.0099 80.7961C94.5458 80.99 94.0532 81.1071 93.5515 81.1427C91.7534 81.304 89.9478 81.3651 88.143 81.3259H86.92C86.5302 81.2995 86.1391 81.2995 85.7493 81.3259C85.0264 81.3513 84.3098 81.47 83.6173 81.679L77.4829 83.641L75.861 84.138L75.449 84.2623L75.3051 84.3015L75.4424 84.2492L75.8544 84.1053L77.4633 83.569L83.5715 81.5678C85.0656 81.1863 86.6123 81.0537 88.1495 81.1754C89.9461 81.2058 91.743 81.1359 93.5318 80.9662C94.0065 80.9326 94.4725 80.8221 94.9118 80.6392C94.9543 80.616 94.9921 80.5849 95.023 80.5476L95.1341 80.4037C95.2061 80.3082 95.2675 80.2051 95.3173 80.0963C95.4284 79.8805 95.4284 79.6778 95.2388 79.547C95.1445 79.4732 95.0412 79.4116 94.9314 79.3639C94.8268 79.3312 94.7025 79.305 94.5782 79.2789C94.3297 79.2331 94.0681 79.2004 93.8131 79.1677C93.2899 79.111 92.7601 79.0587 92.2239 79.0107C91.1513 78.9192 90.0461 78.8407 88.9147 78.7949C87.7451 78.7494 86.5865 78.5515 85.4681 78.2063C85.4369 78.1971 85.4102 78.1766 85.3932 78.1488C85.3763 78.121 85.3704 78.0879 85.3766 78.0559C85.3845 78.0305 85.4001 78.0081 85.4211 77.9917C85.4421 77.9753 85.4677 77.9658 85.4943 77.9643C86.5014 77.9185 87.5217 77.8662 88.5615 77.7943C89.0847 77.7943 89.5883 77.6897 90.1311 77.6439L91.7334 77.5262C92.8059 77.4346 93.8981 77.3365 95.0033 77.1665C95.5537 77.0893 96.0995 76.9823 96.6383 76.846C96.9064 76.7797 97.1688 76.6922 97.4231 76.5844C97.6585 76.4798 97.9332 76.3228 97.9659 76.1397C98.0144 75.8867 97.9871 75.6251 97.8874 75.3876C97.7674 75.1585 97.5672 74.9815 97.325 74.8906C96.7934 74.6929 96.231 74.5911 95.6639 74.5897C94.483 74.5653 93.3016 74.609 92.1258 74.7205C89.6896 74.9075 87.2404 74.8308 84.8207 74.4916C84.8022 74.4902 84.7842 74.4848 84.7679 74.4758C84.7517 74.4669 84.7375 74.4546 84.7264 74.4397C84.7153 74.4249 84.7074 74.4078 84.7034 74.3897C84.6993 74.3716 84.6992 74.3528 84.7029 74.3347C84.707 74.3049 84.7207 74.2772 84.7419 74.2559C84.7632 74.2347 84.7909 74.221 84.8207 74.2169L87.9598 73.7395L93.7411 72.8632C94.6894 72.7062 95.6442 72.6081 96.5598 72.4119C97.0066 72.3143 97.4442 72.1787 97.8678 72.0065C98.0742 71.9211 98.2696 71.8113 98.4499 71.6795C98.5293 71.6301 98.5953 71.5619 98.6421 71.4809C98.6888 71.3999 98.7149 71.3086 98.718 71.2151C98.6788 70.8293 98.2471 70.6004 97.822 70.4892C97.3941 70.3685 96.9564 70.2854 96.5141 70.2407C95.6145 70.1473 94.7109 70.0992 93.8065 70.0968C92.0146 70.0968 90.2554 70.1687 88.5746 70.293L84.4806 71.0124C84.4643 71.0152 84.4475 71.0147 84.4314 71.0109C84.4152 71.0071 84.4 71.0001 84.3866 70.9904C84.3732 70.9806 84.3619 70.9683 84.3533 70.9541C84.3447 70.9399 84.3391 70.9242 84.3367 70.9078C84.324 70.8763 84.324 70.8411 84.3367 70.8096C84.8664 70.0837 85.3831 69.3578 85.854 68.7103C85.8768 68.6819 85.9095 68.6632 85.9455 68.658C87.9075 68.4487 89.8237 68.2329 91.6157 67.8994C91.8363 67.8588 92.0546 67.8064 92.2696 67.7424C92.4712 67.671 92.6608 67.5696 92.8321 67.4416C93.1852 67.1996 93.4534 66.8268 93.3095 66.4541C93.2396 66.267 93.1278 66.0984 92.9827 65.9613C92.8376 65.8241 92.6631 65.722 92.4724 65.6627C92.0875 65.5322 91.6816 65.4745 91.2756 65.4927C89.5817 65.4469 87.9598 65.4273 86.436 65.4469C85.6709 65.4469 84.9253 65.4469 84.2125 65.5385C84.0502 65.5476 83.8908 65.5853 83.7416 65.6496L83.3296 65.9766L82.5317 66.6306L77.1886 71.0385L73.7944 73.8376L72.9049 74.5636C72.7087 74.7401 72.6106 74.8186 72.6106 74.8186Z" fill="#F3AF91"/>
<path d="M72.611 74.8186C72.6829 74.8775 69.341 79.0892 65.1816 84.2165C61.0222 89.3438 57.5691 93.4574 57.471 93.4051C57.3729 93.3528 60.741 89.141 64.9004 84.0072C69.0598 78.8734 72.5259 74.7598 72.611 74.8186Z" fill="#F3AF91"/>
</svg>
