<svg width="360" height="290" viewBox="0 0 360 290" fill="none" xmlns="http://www.w3.org/2000/svg">
<g clip-path="url(#clip0_11_18)">
<mask id="mask0_11_18" style="mask-type:alpha" maskUnits="userSpaceOnUse" x="-2309" y="-629" width="3418" height="1710">
<path d="M1109 1080C1109 855.571 1064.8 633.339 978.91 425.994C893.025 218.649 767.141 30.2498 608.446 -128.446C449.75 -287.141 261.351 -413.025 54.0059 -498.91C-153.34 -584.795 -375.571 -629 -600 -629C-824.429 -629 -1046.66 -584.795 -1254.01 -498.91C-1461.35 -413.025 -1649.75 -287.141 -1808.45 -128.445C-1967.14 30.2499 -2093.02 218.649 -2178.91 425.994C-2264.8 633.34 -2309 855.571 -2309 1080H-1851.54C-1851.54 915.646 -1819.16 752.901 -1756.27 601.058C-1693.37 449.215 -1601.19 311.246 -1484.97 195.031C-1368.75 78.8148 -1230.79 -13.3727 -1078.94 -76.2682C-927.099 -139.164 -764.354 -171.536 -600 -171.536C-435.646 -171.536 -272.901 -139.164 -121.058 -76.2683C30.7854 -13.3727 168.754 78.8147 284.969 195.031C401.185 311.246 493.373 449.215 556.268 601.058C619.164 752.901 651.536 915.646 651.536 1080H1109Z" fill="#FFEAC8" fill-opacity="0.5"/>
</mask>
<g mask="url(#mask0_11_18)">
<rect width="360" height="290" fill="#FFEAC8"/>
</g>
</g>
<defs>
<clipPath id="clip0_11_18">
<rect width="360" height="290" fill="white"/>
</clipPath>
</defs>
</svg>
