<svg width="360" height="290" viewBox="0 0 360 290" fill="none" xmlns="http://www.w3.org/2000/svg">
<mask id="mask0_11_14" style="mask-type:alpha" maskUnits="userSpaceOnUse" x="-749" y="-629" width="3418" height="1710">
<path d="M2669 1080C2669 855.571 2624.8 633.339 2538.91 425.994C2453.02 218.649 2327.14 30.2498 2168.45 -128.446C2009.75 -287.141 1821.35 -413.025 1614.01 -498.91C1406.66 -584.795 1184.43 -629 960 -629C735.571 -629 513.339 -584.795 305.994 -498.91C98.6485 -413.025 -89.7502 -287.141 -248.446 -128.445C-407.141 30.2499 -533.025 218.649 -618.91 425.994C-704.795 633.34 -749 855.571 -749 1080H-291.536C-291.536 915.646 -259.164 752.901 -196.268 601.058C-133.373 449.215 -41.1853 311.246 75.0305 195.031C191.246 78.8148 329.215 -13.3727 481.058 -76.2682C632.901 -139.164 795.646 -171.536 960 -171.536C1124.35 -171.536 1287.1 -139.164 1438.94 -76.2683C1590.79 -13.3727 1728.75 78.8147 1844.97 195.031C1961.19 311.246 2053.37 449.215 2116.27 601.058C2179.16 752.901 2211.54 915.646 2211.54 1080H2669Z" fill="#FFEAC8" fill-opacity="0.5"/>
</mask>
<g mask="url(#mask0_11_14)">
<rect width="360" height="290" fill="#FFEAC8"/>
</g>
</svg>
