<svg width="55" height="68" viewBox="0 0 55 68" fill="none" xmlns="http://www.w3.org/2000/svg">
<path d="M3.99227 4.18406C-1.4104 9.72149 -1.25051 45.7608 3.99227 51.1343C8.45971 55.7132 20.2268 56.9661 29.0154 56.8967C34.5154 56.8533 40.2776 58.7045 44.8479 61.7646C45.3015 62.0683 45.7595 62.37 46.2169 62.6673C50.0688 65.1708 51.4117 63.6031 48.2677 60.2534C47.7473 59.699 47.2963 58.9507 46.9173 58.1633C45.7749 55.79 45.4024 53.7458 47.5794 52.2632C47.9427 52.0158 49.5511 50.9257 49.8071 50.5684C54.7704 43.642 54.3414 9.42585 49.2389 4.18609C43.7079 -1.49361 9.33857 -1.29559 3.99227 4.18406Z" fill="#FFEAC8"/>
<path d="M28.9179 26.0765C29.7802 24.5209 30.2209 22.7439 30.1928 20.9355C30.2265 19.3107 29.7938 17.7074 28.9508 16.334C28.8866 16.2396 28.8212 16.1341 28.7114 16.1124C28.6045 16.0804 28.4904 16.0931 28.3932 16.1478C27.5915 16.6842 26.9413 17.4348 26.5084 18.3239C26.0755 19.2129 25.8752 20.2088 25.9278 21.2108C25.9804 22.2127 26.2841 23.1852 26.8081 24.0298C27.332 24.8745 28.0577 25.5613 28.9117 26.0208" fill="#29814B"/>
<path d="M31.7599 21.6073C32.9174 20.9892 33.8894 20.0501 34.5716 18.8908C35.2339 17.8639 35.5745 16.6433 35.5465 15.3969C35.5684 15.3149 35.5586 15.2269 35.5193 15.1517C35.453 15.0963 35.3693 15.0693 35.2854 15.0762C34.5631 15.0736 33.8552 15.2714 33.2331 15.6495C32.611 16.0276 32.0969 16.5726 31.7428 17.2292C31.3887 17.8859 31.2071 18.631 31.2165 19.3892C31.2259 20.1474 31.4259 20.8917 31.7962 21.5468" fill="#29814B"/>
<path d="M31.6406 25.6496C31.6743 25.2344 31.6012 24.816 31.4288 24.4382C31.2565 24.0604 30.9912 23.737 30.6608 23.5016C30.0063 23.0509 29.2244 22.8543 28.4515 22.9461C27.7615 22.9992 27.1038 23.2647 26.5608 23.7094C26.2893 23.933 26.0634 24.2113 25.8959 24.5282C25.7285 24.8451 25.6228 25.1943 25.5851 25.5558C25.5636 26.0117 25.6522 26.4672 25.8426 26.88C26.0331 27.2928 26.3192 27.6496 26.6745 27.9173C27.3942 28.4484 28.2739 28.6805 29.1413 28.5682C29.8734 28.5048 30.5519 28.1509 31.0391 27.5785C31.266 27.3179 31.4399 27.0113 31.5504 26.6771C31.6608 26.3429 31.7055 25.988 31.6818 25.6337" fill="#FFBA49"/>
<path d="M39.3672 27.0579C42.3658 27.2773 44.9018 23.5307 45.355 21.2346C45.3976 21.1185 45.4126 20.9929 45.3988 20.8687C45.385 20.7444 45.3427 20.6252 45.2757 20.5212C45.174 20.4397 45.0536 20.3884 44.927 20.3726C44.8005 20.3569 44.6727 20.3774 44.5571 20.4319C43.1283 20.7994 41.8554 21.6414 40.9265 22.8332C40.0028 24.0316 39.4646 25.5087 39.3884 27.0556" fill="#29814B"/>
<path d="M42.4876 24.9958C42.5202 24.5807 42.4465 24.1628 42.2743 23.7852C42.102 23.4076 41.8374 23.084 41.5078 22.8478C40.8552 22.3926 40.0716 22.1956 39.2985 22.2923C38.6052 22.3462 37.9443 22.6119 37.3972 23.0568C37.0853 23.3023 36.8345 23.6229 36.6655 23.9921C36.4964 24.3612 36.414 24.7683 36.4252 25.1796C36.4363 25.5909 36.5406 25.9945 36.7294 26.3571C36.9182 26.7197 37.1861 27.0308 37.5109 27.2647C38.2291 27.7977 39.1105 28.0264 39.9765 27.9045C40.7084 27.8475 41.3883 27.4972 41.8755 26.9258C42.1067 26.6654 42.2838 26.3573 42.3959 26.0206C42.5081 25.6839 42.5529 25.3259 42.5275 24.9687" fill="#FFBA49"/>
<path d="M20.4749 22.5695C20.5086 22.1543 20.4355 21.7359 20.2632 21.3581C20.0908 20.9803 19.8256 20.6569 19.4951 20.4215C18.8386 19.9761 18.0584 19.7799 17.2858 19.866C16.5966 19.9289 15.9409 20.1976 15.3963 20.6405C15.0815 20.8822 14.8275 21.2006 14.6558 21.5686C14.4841 21.9367 14.3996 22.3437 14.4096 22.7553C14.4196 23.1669 14.5238 23.571 14.7132 23.9335C14.9027 24.296 15.1719 24.6064 15.4983 24.8384C16.2201 25.3738 17.1048 25.6059 17.9757 25.4881C18.7077 25.4247 19.3863 25.0708 19.8734 24.4984C20.1003 24.2378 20.2742 23.9312 20.3847 23.597C20.4951 23.2628 20.5398 22.9079 20.5161 22.5536" fill="#FFBA49"/>
<path d="M27.4063 27.3505C26.9783 25.5937 26.1056 23.9864 24.8811 22.7C23.8275 21.4954 22.4528 20.6525 20.9401 20.2833C20.8365 20.256 20.7275 20.2681 20.6325 20.3175C20.5863 20.3517 20.5479 20.3964 20.5203 20.4482C20.4926 20.5001 20.4763 20.5579 20.4726 20.6174C20.2631 21.5928 20.3031 22.6117 20.5887 23.5713C20.8742 24.5308 21.3951 25.3971 22.0989 26.0824C22.8026 26.7678 23.6641 27.248 24.5964 27.4746C25.5288 27.7012 26.4989 27.6661 27.4088 27.3728" fill="#29814B"/>
<path d="M16.3665 25.7912C15.7104 25.1631 15.1092 24.4746 14.57 23.7341C14.0342 22.9709 13.704 22.0715 13.6149 21.132C13.605 21.0626 13.6083 20.992 13.6248 20.9243C13.6412 20.8566 13.6704 20.7931 13.7106 20.7377C13.7677 20.7033 13.8311 20.6818 13.8968 20.6745C13.9625 20.6672 14.0291 20.6743 14.0924 20.6952C15.7934 20.9035 17.3954 21.665 18.6736 22.8727C19.9518 24.0804 20.8421 25.6738 21.2195 27.4293L21.3564 27.8881C20.0515 28.9079 18.4153 29.3528 16.7915 29.1294C15.4888 29.0284 14.2148 28.6602 13.0418 28.0456C11.8652 27.4128 10.9581 26.3352 10.5055 25.0326C11.4714 24.7039 12.4964 24.6015 13.5088 24.7326C14.5212 24.8636 15.4965 25.2249 16.3665 25.7912Z" fill="#29814B"/>
<path d="M34.3803 21.0341C35.6704 19.4508 37.3652 18.288 39.2685 17.6804C39.4989 18.6889 39.5375 19.7332 39.382 20.7531C39.2266 21.7729 38.8801 22.7482 38.3627 23.6228C37.8452 24.4974 37.167 25.2541 36.367 25.8492C35.567 26.4444 34.661 26.8662 33.7012 27.0906L33.5597 26.8806C33.1743 25.9144 33.047 24.8588 33.1917 23.8282C33.3363 22.7976 33.7474 21.8313 34.3803 21.0341Z" fill="#29814B"/>
<path d="M45.0077 24.1961C44.3989 28.8731 42.8681 33.3554 40.5127 37.3577C34.9474 46.4969 19.9764 45.7925 15.2875 39.6447C13.4694 37.2966 8.37382 28.3616 8.37382 28.3616L45.0077 24.1961Z" fill="white"/>
<path d="M45.0078 24.1965L44.276 24.2779L42.1548 24.5139L34.4336 25.3728L8.3352 28.4002L8.41205 28.2224C9.90373 30.8212 11.4821 33.5233 13.1452 36.2159C13.5771 36.9127 14.0183 37.5971 14.4538 38.3273C14.8735 39.0065 15.3612 39.6371 15.9086 40.208C16.9993 41.3137 18.294 42.1725 19.711 42.7304C22.3849 43.829 25.2543 44.2813 28.1044 44.0536C30.6879 43.8943 33.2044 43.1644 35.4896 41.9117C37.4713 40.8066 39.1588 39.2045 40.4037 37.2462C42.1246 34.3459 43.4093 31.1813 44.213 27.8622C44.5027 26.7015 44.6768 25.7568 44.7901 25.1348L44.9405 24.1702C44.8135 25.4269 44.5928 26.6702 44.2804 27.8886C43.4979 31.2262 42.2299 34.4121 40.5209 37.3347C39.2672 39.3281 37.5602 40.96 35.5519 42.0854C33.2486 43.363 30.7068 44.1074 28.0962 44.269C25.2153 44.515 22.3117 44.066 19.6073 42.9563C18.1643 42.3869 16.846 41.5115 15.735 40.3853C15.1801 39.8008 14.6809 39.1608 14.2447 38.4747C13.8035 37.7903 13.3611 37.0947 12.9361 36.3633C11.2611 33.6607 9.69464 30.9686 8.19236 28.371L8.11012 28.2108L44.9237 24.1156L45.0078 24.1965Z" fill="#263238"/>
<path d="M43.2997 30.7509C43.3072 30.8178 36.2803 31.6446 27.6046 32.6097C18.9289 33.5748 11.8865 34.3582 11.8741 34.2468C11.8617 34.1353 18.8935 33.353 27.5798 32.3868C36.2662 31.4205 43.2923 30.684 43.2997 30.7509Z" fill="#FFBA49"/>
<path d="M43.8311 29.7328C43.8385 29.7997 36.5571 30.6548 27.5738 31.6542C18.5905 32.6535 11.3041 33.464 11.2917 33.3526C11.2793 33.2411 18.5538 32.4206 27.5477 31.4201C36.5417 30.4196 43.8236 29.6659 43.8311 29.7328Z" fill="#FFBA49"/>
</svg>
