<svg width="686" height="586" viewBox="0 0 686 586" fill="none" xmlns="http://www.w3.org/2000/svg">
<path d="M585.538 585.538C633.507 537.568 666.175 476.451 679.409 409.916C692.644 343.38 685.852 274.415 659.891 211.74C633.93 149.065 589.967 95.4953 533.561 57.8059C477.155 20.1166 410.839 3.09994e-06 343 0C275.161 -3.09994e-06 208.845 20.1166 152.439 57.8059C96.0334 95.4952 52.0702 149.065 26.1093 211.74C0.148466 274.415 -6.64408 343.38 6.59064 409.916C19.8254 476.451 52.493 537.568 100.462 585.538L165.385 520.615C130.256 485.486 106.333 440.729 96.6405 392.004C86.9485 343.279 91.9228 292.774 110.934 246.875C129.946 200.977 162.141 161.747 203.449 134.147C244.756 106.546 293.32 91.8141 343 91.8141C392.68 91.8141 441.244 106.546 482.551 134.147C523.859 161.747 556.054 200.977 575.066 246.875C594.077 292.774 599.052 343.279 589.359 392.004C579.667 440.729 555.744 485.486 520.615 520.615L585.538 585.538Z" fill="#FFEAC8"/>
</svg>
