<svg width="343" height="386" viewBox="0 0 343 386" fill="none" xmlns="http://www.w3.org/2000/svg">
<path d="M302.499 375.967C296.973 370.446 293.723 347.997 299.106 343.633H326.579C331.962 347.997 328.724 370.433 323.198 375.954L323.042 376.105L322.86 376.294C322.704 376.432 322.535 376.583 322.353 376.722L322.223 376.822C322.09 376.934 321.951 377.039 321.807 377.137C321.58 377.299 321.341 377.446 321.092 377.577C318.545 378.841 315.724 379.501 312.862 379.501C309.999 379.501 307.178 378.841 304.631 377.577C304.383 377.446 304.144 377.299 303.916 377.137L303.526 376.847L303.357 376.722L302.876 376.294L302.655 376.093L302.499 375.967Z" fill="#46565D"/>
<path d="M324.147 341.86C330.414 345.394 330.414 351.129 324.147 354.662C317.88 358.196 307.752 358.196 301.498 354.662C295.244 351.129 295.231 345.394 301.498 341.872C307.765 338.351 317.893 338.338 324.147 341.86Z" fill="#46565D"/>
<g opacity="0.1">
<path d="M324.147 341.86C330.414 345.394 330.414 351.129 324.147 354.662C317.88 358.196 307.752 358.196 301.498 354.662C295.244 351.129 295.231 345.394 301.498 341.872C307.765 338.351 317.893 338.338 324.147 341.86Z" fill="white"/>
</g>
<path d="M321.144 343.545C325.734 346.136 325.734 350.349 321.144 352.94C318.57 354.219 315.717 354.887 312.823 354.887C309.928 354.887 307.076 354.219 304.501 352.94C299.912 350.349 299.912 346.136 304.501 343.545C307.076 342.265 309.928 341.598 312.823 341.598C315.717 341.598 318.57 342.265 321.144 343.545Z" fill="#263238"/>
<path d="M304.475 348.022C307.049 346.742 309.902 346.075 312.796 346.075C315.691 346.075 318.543 346.742 321.118 348.022C322.236 348.629 323.183 349.493 323.874 350.537C323.183 351.582 322.236 352.446 321.118 353.053C318.543 354.333 315.691 355 312.796 355C309.902 355 307.049 354.333 304.475 353.053C303.357 352.446 302.41 351.582 301.719 350.537C302.41 349.493 303.357 348.629 304.475 348.022Z" fill="#F5F5F5"/>
<path d="M325.122 302.232L314.721 310.218L324.797 305.715C324.772 308.868 324.178 311.992 323.042 314.946C320.302 316.538 317.694 318.334 315.241 320.316L322.964 317.374C323.164 321.572 322.628 325.773 321.378 329.799C320.819 331.761 318.543 335.509 317.1 338.313C316.444 339.621 315.693 340.882 314.851 342.086C314.808 342.167 314.756 342.243 314.695 342.312C312.94 341.344 311.106 340.388 309.195 339.483C307.436 335.034 306.278 330.384 305.749 325.649C303.539 306.105 318.816 294.912 331.09 291.152C328.44 294.475 326.419 298.226 325.122 302.232Z" fill="#7DCB4E"/>
<path opacity="0.25" d="M325.122 302.232L314.721 310.218L324.797 305.715C324.772 308.868 324.178 311.992 323.042 314.946C320.302 316.538 317.694 318.334 315.241 320.316L322.964 317.374C323.164 321.572 322.628 325.773 321.378 329.799C320.819 331.761 318.543 335.509 317.1 338.313C316.444 339.621 315.693 340.882 314.851 342.086C314.808 342.167 314.756 342.243 314.695 342.312C312.94 341.344 311.106 340.388 309.195 339.483C307.436 335.034 306.278 330.384 305.749 325.649C303.539 306.105 318.816 294.912 331.09 291.152C328.44 294.475 326.419 298.226 325.122 302.232Z" fill="white"/>
<path d="M316.424 303.049C314.398 305.207 312.916 307.79 312.095 310.595C311.169 313.34 310.55 316.173 310.248 319.046C309.587 324.787 310.344 330.597 312.459 335.999C312.481 336.069 312.477 336.145 312.445 336.212C312.414 336.28 312.359 336.333 312.29 336.364C312.254 336.378 312.215 336.385 312.177 336.384C312.138 336.383 312.1 336.375 312.065 336.36C312.03 336.345 311.998 336.323 311.972 336.295C311.946 336.268 311.925 336.236 311.912 336.2C309.863 330.696 309.194 324.799 309.962 318.996C310.302 316.107 310.973 313.264 311.964 310.519C312.835 307.73 314.361 305.173 316.424 303.049Z" fill="#FAFAFA"/>
<path d="M280.058 312.481C283.987 317.192 287.621 322.127 290.94 327.259L301.511 328.906L293.71 330.227L297.974 336.641L308.376 338.728L300.25 339.986C300.25 339.986 302.512 347.657 308.324 350.852C311.522 352.613 313.096 352.877 314.058 351.996C314.734 351.38 314.89 347.695 315.449 344.45C316.233 339.281 315.324 334.003 312.849 329.359C311.961 327.65 310.822 326.074 309.468 324.68C301.771 316.367 287.248 312.381 280.058 312.481Z" fill="#7DCB4E"/>
<path opacity="0.35" d="M280.058 312.481C283.987 317.192 287.621 322.127 290.94 327.259L301.511 328.906L293.71 330.227L297.974 336.641L308.376 338.728L300.25 339.986C300.25 339.986 302.512 347.657 308.324 350.852C311.522 352.613 313.096 352.877 314.058 351.996C314.734 351.38 314.89 347.695 315.449 344.45C316.233 339.281 315.324 334.003 312.849 329.359C311.961 327.65 310.822 326.074 309.468 324.68C301.771 316.367 287.248 312.381 280.058 312.481Z" fill="white"/>
<path d="M291.109 315.877C296.646 318.11 301.64 321.433 305.776 325.636C307.831 327.774 309.529 330.21 310.807 332.855C312.046 335.514 312.824 338.352 313.109 341.256C312.544 338.432 311.609 335.689 310.326 333.094C309.062 330.498 307.429 328.086 305.477 325.925C301.47 321.662 296.602 318.238 291.174 315.864C291.174 315.864 291.096 315.877 291.109 315.877Z" fill="#FAFAFA"/>
<path d="M343 316.694C342.132 316.688 341.264 316.726 340.4 316.808C336.921 317.199 333.506 318.006 330.232 319.21C329.023 319.65 327.801 320.14 326.604 320.694C326.006 320.97 325.408 321.26 324.823 321.574C321.909 323.034 319.271 324.96 317.022 327.271C315.949 328.383 315.031 329.626 314.292 330.969L314.006 331.484C313.772 331.937 313.576 332.377 313.381 332.817C311.59 336.563 310.798 340.684 311.08 344.803C311.197 347.733 312.224 351.091 312.822 351.632C312.901 351.705 312.988 351.768 313.082 351.82C313.941 352.361 315.319 352.047 317.893 350.663C323.094 347.871 325.057 340.816 325.057 340.816L317.906 339.646L327.086 337.873L330.817 332.239L323.952 330.981L333.287 329.711C336.245 325.198 339.485 320.864 342.987 316.732L343 316.694Z" fill="#7DCB4E"/>
<path opacity="0.2" d="M343 316.694C342.132 316.688 341.264 316.726 340.4 316.808C336.921 317.199 333.506 318.006 330.232 319.21C329.023 319.65 327.801 320.14 326.604 320.694C326.006 320.97 325.408 321.26 324.823 321.574C321.909 323.034 319.271 324.96 317.022 327.271C315.949 328.383 315.031 329.626 314.292 330.969L314.006 331.484C313.772 331.937 313.576 332.377 313.381 332.817C311.59 336.563 310.798 340.684 311.08 344.803C311.197 347.733 312.224 351.091 312.822 351.632C312.901 351.705 312.988 351.768 313.082 351.82C313.941 352.361 315.319 352.047 317.893 350.663C323.094 347.871 325.057 340.816 325.057 340.816L317.906 339.646L327.086 337.873L330.817 332.239L323.952 330.981L333.287 329.711C336.245 325.198 339.485 320.864 342.987 316.732L343 316.694Z" fill="white"/>
<path opacity="0.3" d="M340.335 316.808C336.856 317.199 333.441 318.006 330.167 319.21C328.958 319.65 327.736 320.14 326.539 320.694C325.941 320.97 325.343 321.26 324.758 321.574C321.844 323.034 319.206 324.96 316.957 327.271C315.907 328.387 315.011 329.63 314.292 330.969L314.006 331.484C313.772 331.937 313.576 332.377 313.381 332.817C311.59 336.563 310.798 340.684 311.08 344.803C311.197 347.733 312.224 351.091 312.822 351.632C312.901 351.705 312.988 351.768 313.082 351.82C313.251 351.926 313.442 351.995 313.641 352.021C313.017 347.481 315.319 335.949 318.842 331.208C322.483 326.278 331.116 319.122 343 316.657C342.109 316.659 341.219 316.71 340.335 316.808Z" fill="#7DCB4E"/>
<path d="M313.577 352.084C313.353 348.716 313.58 345.335 314.253 342.023C314.884 338.692 316.046 335.476 317.698 332.49C319.54 329.592 321.905 327.036 324.68 324.944C327.414 322.838 330.427 321.096 333.639 319.763C330.58 321.331 327.696 323.198 325.031 325.334C323.733 326.405 322.513 327.561 321.378 328.793C320.173 329.983 319.109 331.299 318.205 332.717C316.524 335.643 315.323 338.804 314.643 342.086C313.896 345.363 313.594 348.72 313.746 352.072C313.746 352.072 313.577 352.097 313.577 352.084Z" fill="#FAFAFA"/>
<g opacity="0.9">
<path d="M52.8045 327.938L45.561 380.11H53.8348L67.8118 327.938H52.8045Z" fill="#263238"/>
<path d="M52.8045 327.938L45.561 380.11H53.8348L67.8118 327.938H52.8045Z" fill="#333A3D"/>
</g>
<g opacity="0.9">
<path d="M230.098 327.938L237.342 380.11H229.057L215.091 327.938H230.098Z" fill="#263238"/>
<path d="M230.098 327.938L237.342 380.11H229.057L215.091 327.938H230.098Z" fill="#333A3D"/>
</g>
<path d="M42.849 334.947L34.8833 387H43.982L59.3525 334.947H42.849Z" fill="#263238"/>
<path d="M42.849 334.947L34.8833 387H43.982L59.3525 334.947H42.849Z" fill="#263238"/>
<path d="M240.594 334.947L248.56 387H239.449L224.09 334.947H240.594Z" fill="#263238"/>
<path d="M240.594 334.947L248.56 387H239.449L224.09 334.947H240.594Z" fill="#263238"/>
<path d="M5.69045 196.881C5.04954 220.365 -1.01626 323.964 20.1225 343.688H46.3771C53.244 343.688 52.8549 340.433 52.5917 333.567L47.6017 199.146C47.5212 196.561 46.6098 194.071 45.0037 192.05C41.5702 187.772 34.6232 181.159 25.1125 181.803C19.98 182.051 15.013 183.706 10.7491 186.587C9.15792 187.781 7.87017 189.335 6.991 191.124C6.11184 192.913 5.66619 194.886 5.69045 196.881Z" fill="#AE2F2F"/>
<path d="M243.642 345.195L46.3774 343.688V282.446H243.642V345.195Z" fill="#AE2F2F"/>
<path d="M242.864 282.446L45.2446 284.079V247.346L243.642 243.608L242.864 282.446Z" fill="#AE2F2F"/>
<path d="M9.42236 189.991C9.42236 189.991 10.8873 138.997 66.7384 136.363C122.59 133.73 205.462 136.363 205.462 136.363C205.462 136.363 275.619 133.718 277.245 178.123L263.305 263.228H46.687L9.42236 189.991Z" fill="#AE2F2F"/>
<path d="M285.542 202.297C284.065 237.444 280.838 340.537 256.506 345.195H238.412L244.008 194.603C244.008 194.603 252.397 179.905 266.372 180.802H266.795C272.085 181.241 276.997 183.728 280.496 187.739C283.994 191.75 285.803 196.97 285.542 202.297Z" fill="#AE2F2F"/>
<path d="M275.573 182.988L274.909 182.827L273.021 182.309L271.647 181.929L269.931 181.665C269.313 181.584 268.649 181.458 267.939 181.377H265.65C261.742 181.41 257.898 182.375 254.434 184.195L253.667 184.575L252.924 185.035L251.413 185.989C250.403 186.702 249.432 187.47 248.506 188.289C246.489 190.09 244.719 192.151 243.241 194.419V194.316C242.509 209.876 241.593 229.531 240.597 250.854C239.453 276.811 238.617 300.307 238.148 317.34C237.931 325.839 237.77 332.716 237.645 337.501C237.645 339.858 237.542 341.71 237.519 342.986C237.519 343.596 237.519 344.068 237.461 344.413C237.404 344.758 237.461 344.896 237.461 344.896C237.461 344.896 237.461 344.735 237.461 344.413C237.461 344.091 237.461 343.585 237.461 342.986C237.461 341.698 237.461 339.858 237.461 337.501C237.461 332.739 237.61 325.85 237.782 317.34C238.16 300.307 238.926 276.788 240.071 250.831C241.021 229.497 242.017 209.83 242.818 194.293C242.808 194.263 242.808 194.231 242.818 194.201C244.322 191.905 246.127 189.824 248.185 188.013C249.127 187.17 250.117 186.383 251.15 185.656L252.683 184.69L253.439 184.23L254.217 183.85C257.735 182.03 261.636 181.084 265.593 181.09L267.882 181.17C268.592 181.251 269.255 181.389 269.885 181.481L271.602 181.768L272.975 182.182L274.852 182.769L275.573 182.988Z" fill="#263238"/>
<path d="M46.6865 283.918H47.6708H50.5549H61.6679L102.538 284.022C137.044 284.148 184.712 284.528 237.347 283.769H239.533L239.247 284.033C239.442 277.754 239.625 271.544 239.808 265.437C239.899 262.37 239.991 259.334 240.083 256.328L240.22 251.831C240.22 251.095 240.289 250.325 240.22 249.623C240.185 248.913 239.99 248.221 239.648 247.599C239.296 246.973 238.816 246.429 238.24 246.003C237.664 245.577 237.005 245.278 236.306 245.126C235.577 244.996 234.836 244.954 234.097 245H231.808H222.858L205.53 245.115L145.616 245.736C128.575 245.908 114.795 245.977 105.273 245.989H94.3202H91.4704C90.8295 245.989 90.4976 245.989 90.4976 245.989H91.4704H94.3202L105.273 245.908L145.616 245.483L205.519 244.735L222.858 244.609H231.808H234.097C234.863 244.562 235.631 244.609 236.386 244.747C237.16 244.916 237.89 245.249 238.527 245.723C239.165 246.197 239.695 246.801 240.083 247.495C240.464 248.18 240.683 248.943 240.723 249.727C240.723 250.52 240.723 251.233 240.723 252.027C240.723 253.51 240.643 255.017 240.598 256.524C240.506 259.521 240.414 262.554 240.323 265.621C240.14 271.754 239.957 277.957 239.774 284.229C239.763 284.299 239.729 284.364 239.677 284.412C239.625 284.46 239.558 284.489 239.487 284.494H237.313C184.666 285.253 136.998 284.816 102.492 284.586L61.6221 284.321L50.5091 284.24H47.625L46.6865 283.918Z" fill="#263238"/>
<g opacity="0.2">
<path d="M45.2446 284.079C90.5207 293.947 112.083 293.2 154.177 293.924C191.945 294.58 233.525 287.737 239.533 283.665L45.2446 284.079Z" fill="black"/>
</g>
<path d="M46.3777 343.688C46.3678 343.52 46.3678 343.351 46.3777 343.182C46.3777 342.814 46.3777 342.319 46.3777 341.687C46.3777 340.353 46.3777 338.421 46.3777 335.937C46.3777 330.922 46.4807 323.734 46.5608 314.856C46.7783 297.029 47.0644 272.452 47.3849 245.31C47.5794 231.728 47.7511 218.789 47.9113 207.024C47.9966 204.177 47.6098 201.336 46.7668 198.617C45.935 196.073 44.7065 193.678 43.1274 191.521C41.6024 189.543 39.7979 187.799 37.7711 186.346C35.8863 185.053 33.8286 184.034 31.6596 183.321C27.8637 182.146 23.8287 181.983 19.9514 182.849C17.0181 183.478 14.2397 184.69 11.7798 186.415C10.24 187.523 8.87761 188.861 7.73971 190.383C6.96145 191.429 6.65244 192.05 6.59521 192.027C6.65542 191.87 6.73216 191.719 6.82411 191.579C7.06739 191.142 7.33486 190.72 7.62526 190.313C8.7275 188.741 10.0765 187.358 11.6195 186.219C14.0875 184.438 16.8916 183.181 19.8599 182.527C23.7931 181.609 27.8974 181.744 31.7626 182.918C33.9946 183.633 36.1141 184.663 38.0573 185.978C40.1314 187.454 41.9817 189.224 43.5508 191.234C46.9652 195.766 48.6904 201.357 48.4263 207.036C48.2776 218.812 48.1173 231.751 47.9457 245.333C47.5565 272.475 47.2017 297.087 46.95 314.867C46.7897 323.746 46.6638 330.968 46.5723 335.948C46.5723 338.421 46.4807 340.341 46.4464 341.698C46.4464 342.342 46.4464 342.848 46.4464 343.193C46.4354 343.36 46.4125 343.525 46.3777 343.688Z" fill="#263238"/>
<path d="M157.358 235.891C157.776 211.764 160.111 187.708 164.34 163.954C164.981 160.331 165.828 156.432 168.62 154.063C171.024 152.016 174.343 151.567 177.479 151.314C199.968 149.474 222.892 159.561 243.31 170.486C245.549 171.679 247.356 173.552 248.473 175.839C249.589 178.125 249.957 180.708 249.524 183.218C246.091 202.884 239.224 217.72 229.118 236.501C206.167 245.851 180.958 248.094 156.729 242.941" fill="#FFBA49"/>
<path d="M117.061 58.1809C115.642 48.0487 115.734 48.3822 114.475 38.687C112.048 19.8717 106.143 -1.46224 79.419 0.0788677C79.419 0.0788677 59.2875 1.22894 53.0958 15.6739C49.7996 23.4715 48.9298 50.4523 47.8197 74.719C47.7988 75.1114 47.7217 75.4988 47.5908 75.8691L46.3433 79.5378C44.6932 84.3616 43.7262 89.3945 43.4706 94.4888L41.7768 128.175C41.7206 129.285 42.1048 130.372 42.8449 131.197C43.5851 132.023 44.6209 132.52 45.7252 132.579C54.7324 133.017 75.3103 131.866 79.2703 130.429C87.3936 127.438 94.7821 122.727 100.935 116.615C107.088 110.503 111.862 103.134 114.933 95.0064C115.345 93.8563 121.17 93.3618 122.269 92.9362C124.077 92.2347 117.336 60.113 117.061 58.1809Z" fill="#263238"/>
<path d="M74.2688 8.762L75.9626 7.1864L93.9654 14.7539C95.225 14.8402 96.4063 15.3988 97.2753 16.319C98.1444 17.2392 98.6378 18.4538 98.6579 19.7223L97.6736 78.8248C97.6736 82.8386 98.8181 87.4734 96.3231 90.6361L93.3932 94.7649C87.5105 102.355 73.9369 99.6068 69.4848 91.0962C69.2101 90.613 69.0022 90.0946 68.8668 89.5551C68.7572 89.1195 68.6731 88.6779 68.615 88.2325C68.1457 83.4712 68.1686 79.3424 68.1686 79.3424C67.9168 74.121 67.8482 71.9703 67.8367 72.0278C67.8253 72.0854 56.8038 70.6133 54.0113 56.2488C52.6264 49.1413 53.0385 39.3771 53.5878 29.7969C54.3546 16.5595 63.6364 8.60099 74.2688 8.762Z" fill="#FECBB0"/>
<path d="M77.0952 39.423C77.1072 39.905 77.307 40.363 77.6516 40.6985C77.9962 41.034 78.458 41.2202 78.9378 41.2171C79.1716 41.2279 79.4051 41.1915 79.6246 41.1101C79.8441 41.0286 80.0452 40.9038 80.2159 40.743C80.3866 40.5822 80.5235 40.3886 80.6185 40.1738C80.7135 39.9589 80.7647 39.727 80.769 39.492C80.7571 39.0089 80.5577 38.5497 80.2134 38.2123C79.8691 37.8749 79.4073 37.6862 78.9264 37.6863C78.6921 37.6771 78.4583 37.715 78.2387 37.7977C78.0192 37.8804 77.8182 38.0063 77.6477 38.168C77.4772 38.3297 77.3405 38.524 77.2456 38.7395C77.1507 38.955 77.0996 39.1874 77.0952 39.423Z" fill="#263238"/>
<path d="M58.646 39.561C58.658 40.043 58.8578 40.501 59.2023 40.8365C59.5469 41.172 60.0088 41.3583 60.4886 41.3551C60.7224 41.3659 60.9559 41.3295 61.1754 41.2481C61.3949 41.1667 61.596 41.0419 61.7667 40.881C61.9374 40.7202 62.0743 40.5267 62.1693 40.3118C62.2643 40.0969 62.3155 39.8651 62.3198 39.63C62.3079 39.1469 62.1085 38.6877 61.7642 38.3503C61.4199 38.013 60.958 37.8242 60.4772 37.8244C60.2429 37.8151 60.0091 37.853 59.7895 37.9357C59.57 38.0184 59.369 38.1443 59.1985 38.306C59.028 38.4678 58.8913 38.6621 58.7964 38.8775C58.7015 39.093 58.6504 39.3254 58.646 39.561Z" fill="#263238"/>
<path d="M55.4306 33.6036C55.6594 33.8451 57.0214 32.7525 58.9899 32.695C60.9584 32.6375 62.4234 33.5691 62.6523 33.3161C62.8812 33.0631 62.5149 32.7755 61.8626 32.3385C60.9881 31.7731 59.9599 31.4958 58.9212 31.5449C57.8942 31.573 56.9032 31.9318 56.0944 32.5685C55.4992 33.063 55.3047 33.5001 55.4306 33.6036Z" fill="#263238"/>
<path d="M75.4587 34.0983C75.722 34.3053 76.958 33.0863 78.8922 32.8102C80.8264 32.5342 82.4172 33.3278 82.6004 33.0518C82.7835 32.7757 82.4058 32.5342 81.7077 32.1662C80.7788 31.6941 79.7277 31.5214 78.6976 31.6717C77.6819 31.8181 76.7373 32.2806 75.9966 32.9942C75.4816 33.5463 75.3328 34.0063 75.4587 34.0983Z" fill="#263238"/>
<path d="M68.3633 48.4398C67.3103 48.1542 66.2264 47.9997 65.1358 47.9798C64.6208 47.9798 64.1401 47.8648 63.9913 47.5198C63.9253 46.9961 64.0254 46.4648 64.2775 46.0017C64.7009 44.7596 65.1473 43.4485 65.628 42.0914C67.5049 36.5135 68.8325 31.9362 68.6151 31.8672C68.3976 31.7982 66.6923 36.249 64.8154 41.8269L63.5221 45.7601C63.2275 46.3844 63.1626 47.0935 63.339 47.7613C63.4176 47.9354 63.5348 48.0891 63.6815 48.2107C63.8283 48.3323 64.0009 48.4185 64.1859 48.4628C64.47 48.5349 64.7629 48.5659 65.0557 48.5548C66.1585 48.6612 67.2704 48.6225 68.3633 48.4398Z" fill="#263238"/>
<path d="M67.8369 71.9932C74.5851 71.8456 81.1608 69.8235 86.8355 66.1508C86.8355 66.1508 82.372 76.283 67.9857 75.4664L67.8369 71.9932Z" fill="#F3AF91"/>
<path d="M69.3704 53.2009C69.7274 52.7086 70.2044 52.3167 70.7555 52.0629C71.3067 51.8092 71.9135 51.7021 72.5177 51.7519C72.9567 51.7786 73.3858 51.8942 73.7791 52.0919C74.1725 52.2895 74.522 52.5651 74.8067 52.9019C75.0802 53.2263 75.2495 53.6262 75.2924 54.0491C75.3353 54.472 75.2498 54.898 75.047 55.2711C74.7393 55.6374 74.3305 55.9038 73.8722 56.0368C73.4139 56.1699 72.9266 56.1636 72.4719 56.0186C71.5386 55.7077 70.6753 55.2153 69.9312 54.5695C69.702 54.4216 69.5037 54.2302 69.3475 54.006C69.2756 53.8968 69.2373 53.7689 69.2373 53.638C69.2373 53.5071 69.2756 53.3791 69.3475 53.27" fill="#F3AF91"/>
<path d="M74.2227 49.6013C73.9022 49.6013 73.9824 51.752 72.197 53.3506C70.4115 54.9492 68.1226 54.7882 68.1226 55.0987C68.1226 55.2252 68.6376 55.4897 69.6104 55.4897C70.8748 55.4617 72.0896 54.9897 73.0439 54.1556C73.9358 53.3639 74.4859 52.2543 74.5775 51.0619C74.6347 50.1074 74.3715 49.5898 74.2227 49.6013Z" fill="#263238"/>
<path d="M73.6621 24.4492C73.9253 24.9552 75.848 24.4492 78.1828 24.3917C80.5176 24.3342 82.4632 24.7137 82.7608 24.1962C82.8638 23.9432 82.4746 23.4831 81.6163 23.0461C80.5424 22.5446 79.3662 22.3043 78.1828 22.3445C76.9846 22.3723 75.8092 22.6794 74.7493 23.2416C73.9138 23.7246 73.5476 24.2077 73.6621 24.4492Z" fill="#263238"/>
<path d="M55.8312 25.093C56.1974 25.53 57.5364 25.0125 59.1731 24.932C60.8097 24.8515 62.206 25.116 62.5035 24.633C62.6409 24.403 62.4005 23.9544 61.7825 23.5519C60.9497 23.0734 59.9947 22.853 59.0376 22.9185C58.0804 22.9839 57.164 23.3324 56.4034 23.9199C55.8426 24.4029 55.6709 24.8745 55.8312 25.093Z" fill="#263238"/>
<path d="M97.8912 44.9435C97.8912 44.9435 87.7396 47.9567 82.3605 22.7929C80.5293 14.1903 72.7124 7.14036 72.7124 7.14036L75.9284 6.2088C75.9284 6.2088 95.7968 12.1432 96.1287 12.3962C96.4606 12.6492 101.016 22.8274 101.016 22.8274L97.8912 44.9435Z" fill="#263238"/>
<path d="M95.4189 43.9658C95.4189 42.8962 96.5634 40.3315 97.5706 40.1245C100.363 39.584 105.445 39.63 105.754 46.795C106.166 56.6051 96.2773 55.0065 96.2544 54.719C96.2315 54.4315 95.5448 47.669 95.4189 43.9658Z" fill="#FECBB0"/>
<path d="M99.0699 50.8778C99.0699 50.8778 99.253 50.9928 99.5391 51.1078C99.9463 51.2747 100.402 51.2747 100.81 51.1078C101.828 50.6823 102.629 49.0032 102.595 47.2321C102.587 46.3904 102.391 45.5612 102.023 44.8054C101.917 44.5031 101.74 44.2311 101.507 44.0127C101.274 43.7944 100.991 43.6362 100.684 43.5518C100.487 43.5084 100.281 43.5352 100.101 43.6275C99.9217 43.7198 99.7796 43.8719 99.6994 44.0579C99.5849 44.3454 99.6994 44.5294 99.5964 44.5524C99.4934 44.5754 99.3904 44.3914 99.4476 43.9889C99.4948 43.745 99.6192 43.5231 99.8024 43.3563C100.064 43.1464 100.395 43.0437 100.729 43.0688C101.132 43.1325 101.513 43.2978 101.835 43.5492C102.157 43.8006 102.411 44.1299 102.572 44.5064C103.028 45.3383 103.272 46.2708 103.282 47.2206C103.282 49.1987 102.377 51.0963 100.993 51.5564C100.734 51.6468 100.459 51.6772 100.188 51.6454C99.916 51.6135 99.6552 51.5202 99.4247 51.3724C99.1042 51.1193 99.047 50.9008 99.0699 50.8778Z" fill="#F3AF91"/>
<path d="M91.1043 40.0443C90.6142 39.9693 90.1289 39.8656 89.6508 39.7337C88.363 39.3127 87.1885 38.6006 86.2174 37.6521C85.5387 37.0096 84.9393 36.2875 84.4319 35.5015C83.8646 34.5873 83.3855 33.6206 83.0013 32.6148C82.1873 30.2741 81.5184 27.885 80.9985 25.4613C80.3461 22.8966 79.6365 20.4699 78.8468 18.3078C78.1691 16.3919 77.3465 14.531 76.3862 12.7414C75.7441 11.5382 75.0134 10.3849 74.2002 9.29114C73.9141 8.88861 73.6737 8.61261 73.5135 8.40559C73.4377 8.30289 73.3535 8.20671 73.2617 8.11807C73.3247 8.2316 73.3974 8.33936 73.4792 8.44009C73.6165 8.64711 73.8569 8.94612 74.1201 9.34865C74.8913 10.4546 75.5945 11.6068 76.2259 12.7989C77.1588 14.5941 77.962 16.4544 78.6294 18.3653C79.3962 20.5159 80.0943 22.9656 80.7467 25.4958C81.2717 27.932 81.9483 30.3327 82.7724 32.6838C83.1671 33.7006 83.6616 34.6753 84.2488 35.5935C84.7759 36.3882 85.3944 37.1178 86.0915 37.7671C87.09 38.7218 88.3032 39.4202 89.6279 39.8028C90.1057 39.9552 90.6031 40.0366 91.1043 40.0443Z" fill="#263238"/>
<path d="M120.461 92.8327L98.7153 84.5866L67.814 77.8242L42.9214 81.1364C37.6682 81.2514 28.5695 92.3381 21.6453 104.23C15.4422 114.88 10.5552 125.587 10.5552 125.587L39.5222 136.467C41.1703 148.853 43.5966 165.219 45.691 171.671C49.2619 182.7 50.3491 197.835 50.3491 197.835L119.144 188.818L120.117 141.332L142.744 138.364C142.755 136.697 134.023 97.065 120.461 92.8327Z" fill="#FFBA49"/>
<path d="M118.721 111.867C118.722 112.253 118.764 112.639 118.847 113.017C118.961 113.776 119.121 114.88 119.293 116.237C119.732 119.793 119.954 123.372 119.957 126.956C119.942 130.535 119.713 134.111 119.27 137.663C119.099 139.031 118.938 140.135 118.824 140.895C118.741 141.273 118.695 141.658 118.687 142.045C118.838 141.675 118.945 141.289 119.007 140.895C119.19 140.135 119.396 139.043 119.614 137.674C120.727 130.545 120.727 123.285 119.614 116.156C119.396 114.799 119.19 113.695 119.018 112.948C118.959 112.577 118.859 112.215 118.721 111.867Z" fill="#263238"/>
<path d="M141.874 139.043L119.522 141.47L119.877 147.634L114.91 140.481L107.413 156.11C107.413 156.11 110.435 165.242 112.071 170.279C116.432 183.793 123.402 198.87 131.528 197.881C141.313 196.731 148.237 184.931 147.917 177.375C147.653 170.544 141.874 139.043 141.874 139.043Z" fill="#FECBB0"/>
<path d="M152.346 228.623L191.11 243.896L176.369 261.802L143.396 256.04L152.346 228.623Z" fill="#FECBB0"/>
<path d="M50.4749 197.03C50.4749 197.03 49.4563 241.457 53.5078 249.186C57.5593 256.915 96.7466 257.237 96.7466 257.237L158.549 260.388L165.759 231.337C165.759 231.337 120.792 210.359 116.546 207.933C112.3 205.506 102.252 201.262 102.252 201.262L87.1215 181.711L50.4749 197.03Z" fill="#263238"/>
<path d="M121.868 257.72C121.709 257.648 121.544 257.59 121.376 257.547L119.957 257.133L114.669 255.672L96.8951 250.923H96.8265C95.8317 250.913 94.8383 250.848 93.8508 250.727C91.9339 250.523 90.05 250.078 88.2428 249.404C86.5524 248.804 84.9267 248.033 83.3901 247.104C78.9958 244.466 75.427 240.64 73.0897 236.064C72.7578 235.42 72.5518 234.914 72.3801 234.545C72.311 234.358 72.2187 234.18 72.1055 234.016C72.1469 234.21 72.2082 234.399 72.2886 234.58C72.4259 234.937 72.609 235.489 72.9181 236.156C73.8063 238.042 74.9168 239.814 76.2256 241.434C78.1942 243.829 80.5458 245.877 83.1841 247.495C84.7432 248.45 86.3963 249.24 88.1169 249.853C89.0237 250.188 89.9483 250.472 90.8866 250.704C91.8534 250.926 92.8314 251.095 93.8165 251.21C94.827 251.33 95.8433 251.396 96.8608 251.406L114.681 256.006L120.002 257.317L121.444 257.651C121.582 257.691 121.724 257.714 121.868 257.72Z" fill="#AE2F2F"/>
<path d="M120.026 210.543L130.555 145.863C130.555 145.863 129.159 99.3076 155.173 102.643C181.187 105.978 178.063 146.944 178.063 146.944C178.063 146.944 174.698 203.102 172.856 211.21C171.013 219.318 170.086 228.335 164.775 231.578L141.165 227.886L120.026 210.543Z" fill="#263238"/>
<path d="M140.317 114.42L134.022 129.704L137.925 188.082C137.925 188.082 171.459 190.969 171.115 190.049C170.772 189.129 177.124 160.975 177.124 160.975C177.124 160.975 179.207 123.609 169.273 116.478C159.339 109.348 140.317 114.42 140.317 114.42Z" fill="#263238"/>
<path d="M139.276 188.186L139.711 216.064L163.139 228.979L169.502 190.221L139.276 188.186Z" fill="#FECBB0"/>
<path d="M87.0752 181.699L112.655 171.107L127.956 184.885L119.464 212.361L97.0208 203.942L87.0752 181.699Z" fill="#263238"/>
<path d="M164.283 231.314L163.974 231.13L163.035 230.658L159.419 228.887L146.085 222.424L126.274 212.947L114.566 207.404L108.375 204.459L105.204 202.953L103.602 202.194C103.071 201.918 102.52 201.683 101.954 201.492C99.7193 200.669 97.3729 200.192 94.9954 200.078C92.6978 199.936 90.3914 200.079 88.1285 200.503C83.8452 201.319 79.753 202.939 76.0656 205.276C72.7349 207.388 69.744 209.998 67.1958 213.016C64.9893 215.64 63.0386 218.471 61.3703 221.469C58.9869 225.806 57.0209 230.362 55.4991 235.074C54.9497 236.742 54.572 238.053 54.3546 238.95L54.0799 239.962C54.0422 240.074 54.0191 240.19 54.0112 240.307C54.0112 240.307 54.0112 240.204 54.1371 239.974L54.4576 238.973C54.7323 238.088 55.1443 236.8 55.7165 235.143C57.2934 230.454 59.2931 225.919 61.6908 221.596C63.3748 218.637 65.3288 215.841 67.5277 213.246C70.0599 210.271 73.0275 207.7 76.3288 205.621C79.9698 203.326 84.0074 201.738 88.2315 200.94C90.4601 200.519 92.7324 200.38 94.9954 200.526C97.3413 200.638 99.6567 201.107 101.862 201.918C102.421 202.104 102.965 202.335 103.488 202.608L105.09 203.367L108.26 204.873L114.452 207.806L126.16 213.361L146.017 222.734L159.419 229.025L163.07 230.704L164.031 231.13C164.11 231.197 164.194 231.259 164.283 231.314Z" fill="#AE2F2F"/>
<path d="M115.55 208.623C115.532 207.207 115.628 205.791 115.837 204.391C116.566 201.052 117.805 197.848 119.51 194.891C121.243 191.916 122.714 188.796 123.905 185.564C124.231 184.566 124.476 183.543 124.638 182.505C124.712 182.126 124.739 181.74 124.718 181.354C124.626 181.354 124.466 182.976 123.573 185.449C122.287 188.618 120.78 191.693 119.064 194.649C117.338 197.647 116.131 200.918 115.493 204.322C115.335 205.364 115.293 206.421 115.367 207.473C115.381 207.862 115.443 208.248 115.55 208.623Z" fill="#AE2F2F"/>
<path d="M177.192 160.975L177.101 161.274C177.101 161.504 176.975 161.803 176.872 162.171C176.677 162.999 176.414 164.149 176.059 165.621C175.373 168.623 174.377 172.97 173.21 178.353C172.626 181.044 171.996 183.988 171.39 187.174C171.241 187.979 171.081 188.772 170.978 189.623C170.971 189.746 170.971 189.869 170.978 189.991V190.106C170.978 190.164 170.978 190.106 170.978 190.003V189.934C170.978 189.934 170.978 189.934 170.921 189.934C170.724 189.966 170.525 189.985 170.325 189.991H169.055C167.35 189.991 165.622 189.865 163.779 189.761C156.546 189.324 148.614 188.692 140.283 188.002L137.994 187.806L138.211 188.036C137.067 171.809 136.105 157.237 135.373 146.633C134.995 141.389 134.686 137.145 134.469 134.178C134.354 132.741 134.262 131.613 134.194 130.808C134.194 130.44 134.137 130.153 134.114 129.934C134.127 129.835 134.127 129.735 134.114 129.635C134.101 129.735 134.101 129.835 134.114 129.934C134.114 130.153 134.114 130.452 134.114 130.808C134.114 131.613 134.228 132.752 134.297 134.19C134.48 137.157 134.732 141.401 135.052 146.656C135.739 157.214 136.689 171.797 137.742 188.059V188.278H137.959L140.248 188.473C148.58 189.175 156.523 189.784 163.767 190.198C165.576 190.29 167.338 190.382 169.066 190.405H170.348C170.571 190.399 170.793 190.376 171.012 190.336C171.096 190.317 171.177 190.286 171.252 190.244C171.295 190.213 171.328 190.169 171.344 190.118C171.355 190.077 171.355 190.033 171.344 189.991C171.195 189.991 171.344 189.934 171.344 189.991C171.339 189.903 171.339 189.815 171.344 189.727C171.436 188.922 171.596 188.105 171.733 187.312C172.328 184.126 172.935 181.182 173.496 178.479C174.64 173.12 175.556 168.773 176.197 165.725L176.918 162.275C176.986 161.895 177.055 161.596 177.089 161.366C177.153 161.245 177.188 161.111 177.192 160.975Z" fill="#AE2F2F"/>
<path d="M146.314 110.015C146.04 110.198 145.791 110.414 145.57 110.659C145.101 111.096 144.426 111.809 143.716 112.626C139.839 117.154 137.058 122.524 135.59 128.313C135.316 129.463 135.132 130.325 135.041 130.958C134.967 131.282 134.936 131.615 134.949 131.947C135.029 131.947 135.304 130.578 135.922 128.405C137.559 122.732 140.302 117.443 143.991 112.844C145.399 111.085 146.383 110.072 146.314 110.015Z" fill="#AE2F2F"/>
<path d="M108.02 201.205C108.005 200.889 107.951 200.576 107.859 200.273C107.722 199.687 107.493 198.836 107.173 197.8C106.321 195.098 105.25 192.471 103.968 189.945C102.681 187.425 101.192 185.013 99.5161 182.734C98.8752 181.872 98.3717 181.182 97.9253 180.733C97.7419 180.476 97.5222 180.248 97.2729 180.055C97.2729 180.055 98.0169 181.205 99.23 182.941C100.809 185.261 102.242 187.677 103.522 190.175C104.787 192.682 105.892 195.268 106.829 197.915C107.562 199.94 107.94 201.228 108.02 201.205Z" fill="#AE2F2F"/>
<path d="M65.9482 197.835C65.8681 197.835 65.5362 198.813 64.8037 200.354C63.8684 202.36 62.7171 204.258 61.3702 206.012C60.0262 207.759 58.4905 209.349 56.7923 210.75C55.4876 211.82 54.6063 212.407 54.6521 212.476C54.6979 212.545 54.9039 212.384 55.3273 212.153C55.9098 211.803 56.4716 211.419 57.0097 211.003C58.8241 209.671 60.449 208.096 61.8395 206.323C63.1997 204.536 64.316 202.575 65.1585 200.492C65.4129 199.865 65.6307 199.223 65.8109 198.571C65.8964 198.335 65.9428 198.086 65.9482 197.835Z" fill="#AE2F2F"/>
<path d="M190.537 262.228C204.981 261.492 208.62 261.952 223.064 261.216C226.589 261.032 239.419 261.48 242.36 259.525C245.05 257.754 248.494 256.075 249.227 252.935C250.371 247.622 248.941 241.607 244.077 238.283C242.373 237.138 240.4 236.464 238.354 236.328C229.828 235.65 222.034 241.906 213.507 240.043C211.218 239.548 209.135 238.26 206.846 237.743C203.431 237.068 199.889 237.639 196.855 239.353C193.799 240.94 193.09 241.204 193.09 241.204L177.914 236.041L173.187 262.676L190.537 262.228Z" fill="#FAFAFA"/>
<path d="M177.674 229.715L185.685 232.337C186.272 232.533 186.767 232.939 187.075 233.478C187.383 234.016 187.483 234.65 187.356 235.258L181.142 263.826C181.014 264.437 180.664 264.978 180.16 265.342C179.656 265.706 179.034 265.867 178.418 265.793L170.315 264.885C169.968 264.847 169.632 264.737 169.33 264.561C169.028 264.385 168.766 264.148 168.561 263.864C168.356 263.58 168.213 263.255 168.14 262.912C168.068 262.569 168.068 262.214 168.14 261.871L174.446 231.624C174.515 231.275 174.656 230.945 174.861 230.655C175.066 230.365 175.329 230.122 175.634 229.942C175.939 229.762 176.278 229.648 176.63 229.609C176.981 229.57 177.337 229.606 177.674 229.715Z" fill="#FAFAFA"/>
<path d="M180.947 264.977C181.55 263.588 182.044 262.153 182.423 260.687C183.236 258.007 184.254 254.281 185.17 250.095C186.086 245.908 186.692 242.044 187.024 239.307C187.184 237.915 187.299 236.777 187.344 235.995C187.411 235.591 187.411 235.179 187.344 234.776C186.99 236.246 186.722 237.736 186.543 239.238C186.086 241.987 185.399 245.793 184.506 249.945C183.613 254.097 182.641 257.858 181.954 260.56C181.519 262.008 181.182 263.483 180.947 264.977Z" fill="#263238"/>
<path d="M185.971 238.904C184.235 237.484 182.156 236.55 179.945 236.196C177.735 235.843 175.47 236.083 173.381 236.892C173.381 237.11 176.311 236.271 179.848 236.892C183.384 237.513 185.868 239.088 185.971 238.904Z" fill="#263238"/>
<path d="M185.021 249.692C182.882 248.709 180.629 247.998 178.314 247.576C176.049 246.925 173.711 246.565 171.356 246.506C173.581 247.237 175.852 247.817 178.154 248.243C181.92 249.117 184.964 249.888 185.021 249.692Z" fill="#263238"/>
<path d="M181.382 260.882C181.382 260.664 178.28 261.043 174.858 259.571C171.436 258.099 169.491 255.695 169.342 255.845C169.193 255.994 169.662 256.581 170.486 257.49C171.654 258.651 173.034 259.577 174.549 260.215C176.069 260.851 177.698 261.18 179.345 261.181C180.038 261.25 180.737 261.148 181.382 260.882Z" fill="#263238"/>
<path d="M138.669 207.151L139.276 219.203L163.218 230.75L167.201 210.624L138.669 207.151Z" fill="#FAFAFA"/>
<path d="M171.161 203.551L169.364 211.947C169.232 212.567 168.876 213.116 168.364 213.488C167.853 213.859 167.222 214.027 166.595 213.959L137.113 210.704C136.482 210.639 135.899 210.34 135.476 209.866C135.053 209.392 134.82 208.777 134.824 208.14V199.779C134.828 199.422 134.907 199.07 135.054 198.745C135.201 198.42 135.414 198.13 135.678 197.892C135.943 197.654 136.254 197.474 136.591 197.363C136.929 197.253 137.286 197.213 137.639 197.249L168.861 200.457C169.224 200.485 169.577 200.591 169.896 200.767C170.215 200.944 170.492 201.186 170.71 201.479C170.928 201.772 171.081 202.109 171.159 202.466C171.237 202.823 171.237 203.193 171.161 203.551Z" fill="#FAFAFA"/>
<path d="M135.968 210.635C137.426 211.119 138.924 211.473 140.443 211.694C143.236 212.223 147.104 212.844 151.419 213.373C155.734 213.902 159.648 214.063 162.498 214.109C163.917 214.109 165.061 214.109 165.862 214.109C166.275 214.126 166.687 214.084 167.087 213.982C165.57 213.769 164.041 213.654 162.509 213.637C159.682 213.465 155.779 213.177 151.488 212.694C147.196 212.211 143.327 211.636 140.523 211.222C139.019 210.926 137.498 210.73 135.968 210.635Z" fill="#263238"/>
<path d="M162.784 212.97C164.139 211.102 164.872 208.852 164.878 206.541C165.107 202.677 163.608 199.813 163.47 199.917C163.333 200.02 164.409 202.826 164.18 206.495C163.951 210.164 162.635 212.878 162.784 212.97Z" fill="#263238"/>
<path d="M151.796 213.154C152.565 210.87 153.046 208.497 153.227 206.092C153.73 202.136 153.765 198.904 153.57 198.893C153.376 198.881 153.032 202.079 152.54 206C152.048 209.922 151.602 213.108 151.796 213.154Z" fill="#263238"/>
<path d="M140.134 210.635C140.351 210.635 139.653 207.484 140.763 203.85C141.873 200.216 144.105 197.973 143.933 197.835C143.762 197.697 143.235 198.237 142.411 199.227C140.297 201.873 139.295 205.245 139.619 208.623C139.631 209.325 139.808 210.014 140.134 210.635Z" fill="#263238"/>
<path d="M85.3702 118.663C85.3702 118.663 97.6048 120.4 98.3831 121.159C99.1613 121.918 114.91 140.48 114.91 140.48L107.413 156.11L93.5304 148.922C92.116 148.327 90.6428 147.883 89.1356 147.599C89.1356 147.599 75.2415 145.702 74.2572 144.046C73.2729 142.39 73.8223 141.987 74.8409 141.746C75.8595 141.504 84.1685 142.24 86.0226 142.539C87.8607 142.681 89.7083 142.642 91.539 142.424C91.539 142.424 85.7593 141.193 84.4432 140.768C83.127 140.342 70.1943 137.72 70.3545 135.386C70.5147 133.051 72.0941 132.188 80.2086 134.236C84.7031 135.408 89.3222 136.029 93.9653 136.087L76.0083 130.21C76.0083 130.21 68.7751 128.048 71.0412 125.932C73.3073 123.816 88.7808 127.749 88.7808 127.749L95.6477 130.187L93.6334 126.104C93.6334 126.104 83.9053 123.425 82.6463 122.482C81.0898 121.332 80.8495 120.182 81.9825 119.181C83.1156 118.18 85.3702 118.663 85.3702 118.663Z" fill="#FECBB0"/>
<path d="M43.6078 99.1006C43.5994 99.5648 43.5458 100.027 43.4476 100.481C43.2873 101.481 43.0813 102.723 42.8295 104.195C42.3145 107.335 41.6851 111.682 41.0098 116.49C40.3346 121.297 39.9454 125.69 39.6479 128.853C39.5105 130.337 39.3846 131.59 39.2931 132.602C39.2712 133.068 39.2061 133.53 39.0985 133.983C39.0401 133.521 39.0401 133.053 39.0985 132.591C39.0985 131.694 39.1672 130.406 39.2587 128.819C39.4533 125.633 39.831 121.24 40.4032 116.421C40.9755 111.602 41.7766 107.22 42.4061 104.126C42.7265 102.562 43.0012 101.297 43.2072 100.435C43.2837 99.9747 43.4183 99.5264 43.6078 99.1006Z" fill="#263238"/>
<path d="M124.489 100.308C124.489 99.9862 121.445 81.1019 120.026 74.4199L97.6396 77.8701C97.3305 80.6648 97.2275 90.406 97.2962 93.6837C97.2579 96.991 98.344 100.212 100.375 102.815C101.409 104.092 102.778 105.053 104.327 105.59C105.877 106.126 107.544 106.217 109.142 105.852C110.865 108.385 113.492 110.155 116.478 110.797C119.454 111.257 122.853 109.704 123.803 106.829C124.476 104.726 124.71 102.506 124.489 100.308Z" fill="#263238"/>
<path d="M91.8825 102.896L88.3117 137.318C88.2537 137.875 87.9826 138.388 87.5556 138.748C87.1286 139.109 86.579 139.289 86.0227 139.25L64.8267 137.548C64.2627 137.504 63.739 137.237 63.3701 136.806C63.0012 136.375 62.8171 135.815 62.8582 135.248L65.3532 99.0545C65.3731 98.7538 65.4555 98.4606 65.5948 98.1937C65.7342 97.9269 65.9276 97.6922 66.1625 97.5049C66.3975 97.3175 66.6688 97.1816 66.9591 97.1058C67.2493 97.0301 67.5522 97.0161 67.8482 97.0649L90.0742 100.515C90.6244 100.598 91.1209 100.893 91.4585 101.337C91.796 101.782 91.9481 102.341 91.8825 102.896Z" fill="#263238"/>
<path d="M73.9826 114.316C73.9826 114.316 61.645 114.006 60.7409 114.627C59.8367 115.248 41.3188 130.992 41.3188 130.992L46.1486 147.668C46.1486 147.668 59.4819 143.367 61.027 142.861C62.5288 142.508 64.0629 142.311 65.6049 142.275C65.6049 142.275 79.625 142.7 80.8152 141.217C82.0055 139.733 81.5706 139.261 80.6092 138.813C79.6478 138.364 71.3274 137.766 69.4504 137.766C67.6134 137.603 65.7966 137.26 64.0255 136.743C64.0255 136.743 69.9311 136.478 71.2931 136.271C72.655 136.064 85.851 135.604 86.0799 133.292C86.3088 130.981 84.9354 129.842 76.5463 130.509C71.97 130.936 67.3595 130.812 62.8124 130.141L81.376 127.278C81.376 127.278 88.861 126.335 86.9726 123.827C85.0842 121.32 69.1643 122.677 69.1643 122.677L62.0112 123.954L64.655 120.251C64.655 120.251 74.6922 119.216 76.0999 118.491C77.8281 117.594 78.2516 116.536 77.2444 115.351C76.2373 114.167 73.9826 114.316 73.9826 114.316Z" fill="#FECBB0"/>
<path d="M15.2931 127.37L35.9855 135.133L35.5964 138.019L41.8224 130.567L47.5449 145.518C47.5449 145.518 37.9197 164.529 35.8368 169.405C29.874 183.528 19.276 190.9 11.6766 187.772C2.52064 184.023 -2.72113 174.316 1.45626 163.551C3.9398 157.145 15.2931 127.37 15.2931 127.37Z" fill="#FECBB0"/>
<path d="M41.3188 130.992C41.3188 130.992 41.4905 130.82 41.8224 130.521L43.3446 129.198L49.2044 124.172L58.4862 116.294L59.8825 115.144L60.615 114.546C60.9218 114.405 61.2511 114.319 61.5878 114.293C62.8582 114.155 64.1629 114.132 65.5019 114.109C68.1915 114.109 71.0184 114.109 73.9941 114.109C74.7509 114.085 75.5062 114.194 76.2258 114.431C76.6107 114.555 76.9655 114.759 77.2673 115.029C77.5719 115.312 77.8002 115.669 77.9311 116.064C78.0053 116.272 78.0345 116.494 78.0167 116.714C77.9989 116.934 77.9346 117.148 77.8281 117.341C77.6096 117.702 77.3169 118.011 76.9697 118.249C76.62 118.505 76.2343 118.707 75.8252 118.847C75.4247 118.963 75.0355 119.055 74.6808 119.135C71.5105 119.745 68.1686 120.124 64.7122 120.504L64.8725 120.423L62.2287 124.115L62.0112 123.758L69.1643 122.482C72.1629 122.252 75.253 122.102 78.4003 122.114C79.9797 122.114 81.582 122.183 83.1843 122.367C84.0003 122.448 84.8081 122.598 85.5992 122.815C86.0061 122.93 86.3923 123.108 86.7437 123.344C86.9422 123.471 87.1114 123.64 87.2397 123.838C87.368 124.037 87.4525 124.26 87.4876 124.494C87.4874 124.739 87.4279 124.98 87.3143 125.196C87.2006 125.413 87.0362 125.598 86.8352 125.736C86.4841 125.999 86.099 126.211 85.6907 126.369C84.9086 126.687 84.1007 126.937 83.2759 127.117C81.6278 127.473 79.9683 127.646 78.3088 127.922L68.1915 129.463L62.6979 130.291V129.808C66.9171 130.401 71.187 130.544 75.4361 130.233C77.5132 130.04 79.5996 129.967 81.685 130.015C82.7374 130.018 83.7804 130.213 84.7637 130.59C85.3019 130.804 85.7395 131.215 85.9883 131.74C86.2043 132.255 86.264 132.824 86.16 133.373C86.0795 133.672 85.892 133.93 85.6335 134.098C85.4135 134.25 85.1798 134.38 84.9354 134.489C84.4641 134.687 83.9781 134.849 83.4819 134.972C82.5235 135.214 81.5532 135.406 80.5749 135.547C78.6407 135.834 76.7294 136.018 74.8524 136.168L72.0484 136.375C71.1443 136.444 70.2058 136.582 69.2902 136.628C67.4705 136.743 65.6851 136.835 63.9225 136.915V136.478C65.8447 137.086 67.8378 137.438 69.851 137.525C71.8424 137.605 73.7766 137.755 75.665 137.916C76.6035 138.008 77.542 138.1 78.4576 138.215C78.9154 138.272 79.3732 138.33 79.8195 138.41C80.0605 138.453 80.2978 138.514 80.5291 138.594C80.7485 138.693 80.9558 138.816 81.1471 138.962C81.257 139.044 81.3492 139.147 81.418 139.266C81.4869 139.385 81.531 139.516 81.5477 139.652C81.5671 139.908 81.5114 140.164 81.3875 140.388C81.2832 140.598 81.1606 140.798 81.0212 140.987L80.8152 141.251C80.7326 141.353 80.6316 141.439 80.5177 141.504C79.7054 141.845 78.8434 142.051 77.9654 142.114C74.8188 142.397 71.659 142.505 68.5005 142.436H66.3603C65.6782 142.389 64.9938 142.389 64.3117 142.436C63.0466 142.48 61.7925 142.689 60.5806 143.057L49.8453 146.507L47.007 147.381L46.2859 147.599L46.0342 147.668L46.2745 147.576L46.9955 147.323L49.811 146.38L60.5005 142.861C63.1151 142.19 65.8219 141.957 68.5119 142.171C71.656 142.224 74.8006 142.102 77.9311 141.803C78.7617 141.744 79.5773 141.55 80.346 141.228C80.4205 141.187 80.4865 141.133 80.5405 141.067L80.7351 140.814C80.8611 140.646 80.9685 140.465 81.0556 140.273C81.2501 139.894 81.2501 139.537 80.9182 139.307C80.7532 139.178 80.5725 139.069 80.3803 138.985C80.1972 138.928 79.9797 138.882 79.7623 138.836C79.3274 138.755 78.8696 138.698 78.4232 138.64C77.5076 138.541 76.5806 138.449 75.6421 138.364C73.7652 138.203 71.831 138.065 69.851 137.985C67.8043 137.905 65.7767 137.557 63.8195 136.95C63.7649 136.934 63.7181 136.898 63.6885 136.849C63.6589 136.8 63.6484 136.741 63.6593 136.685C63.6732 136.64 63.7004 136.601 63.7372 136.572C63.774 136.544 63.8187 136.527 63.8653 136.524C65.6278 136.444 67.4132 136.352 69.233 136.225C70.1486 136.225 71.0298 136.041 71.9798 135.961L74.7837 135.754C76.6607 135.593 78.572 135.42 80.5062 135.121C81.4694 134.985 82.4245 134.797 83.3674 134.558C83.8366 134.441 84.2958 134.287 84.7408 134.098C85.1528 133.914 85.6335 133.637 85.6907 133.315C85.7755 132.871 85.7278 132.411 85.5534 131.993C85.3433 131.59 84.9929 131.279 84.5691 131.119C83.6389 130.771 82.6546 130.592 81.6621 130.59C79.5956 130.547 77.5282 130.624 75.4704 130.82C71.2071 131.149 66.9209 131.014 62.6865 130.417C62.6541 130.415 62.6227 130.405 62.5942 130.389C62.5658 130.374 62.541 130.352 62.5215 130.326C62.502 130.3 62.4883 130.27 62.4812 130.238C62.4741 130.206 62.4739 130.173 62.4805 130.141C62.4875 130.089 62.5115 130.04 62.5487 130.003C62.5859 129.965 62.6343 129.941 62.6865 129.934L68.18 129.095L78.2973 127.554C79.9568 127.278 81.6278 127.105 83.2301 126.76C84.0119 126.588 84.7777 126.35 85.5191 126.047C85.8803 125.897 86.2222 125.704 86.5377 125.472C86.6766 125.385 86.7922 125.265 86.874 125.123C86.9559 124.98 87.0015 124.82 87.0069 124.655C86.9382 123.977 86.1829 123.574 85.439 123.379C84.69 123.167 83.9242 123.02 83.15 122.942C81.5758 122.778 79.9944 122.693 78.4118 122.689C75.2759 122.689 72.1972 122.815 69.2559 123.034L62.0914 124.299C62.0628 124.304 62.0335 124.303 62.0052 124.296C61.977 124.29 61.9503 124.277 61.9269 124.26C61.9034 124.243 61.8836 124.221 61.8686 124.196C61.8536 124.171 61.8437 124.144 61.8396 124.115C61.8173 124.06 61.8173 123.998 61.8396 123.942C62.7666 122.666 63.6707 121.389 64.4948 120.251C64.5347 120.201 64.5919 120.168 64.655 120.159C68.0885 119.791 71.4418 119.411 74.5777 118.824C74.9639 118.753 75.3459 118.661 75.7222 118.548C76.0749 118.423 76.4068 118.245 76.7065 118.019C77.3245 117.594 77.7938 116.938 77.542 116.283C77.4197 115.954 77.2241 115.657 76.9702 115.416C76.7162 115.175 76.4107 114.995 76.077 114.891C75.4035 114.662 74.6932 114.56 73.9826 114.592C71.0184 114.512 68.18 114.477 65.5134 114.512C64.1743 114.512 62.8696 114.512 61.6221 114.673C61.3382 114.689 61.0592 114.755 60.7981 114.868L60.077 115.443L58.6808 116.593L49.3303 124.345L43.3904 129.267L41.8339 130.544C41.4905 130.854 41.3188 130.992 41.3188 130.992Z" fill="#F3AF91"/>
<path d="M41.3189 130.992C41.4448 131.096 35.5965 138.502 28.3175 147.519C21.0386 156.536 14.9956 163.77 14.824 163.678C14.6523 163.586 20.5464 156.179 27.8254 147.151C35.1043 138.123 41.1701 130.889 41.3189 130.992Z" fill="#F3AF91"/>
</svg>
