<svg width="102" height="122" viewBox="0 0 102 122" fill="none" xmlns="http://www.w3.org/2000/svg">
<path d="M90.8865 10.3221C100.513 20.0126 100.228 83.0814 90.8865 92.4851C82.9032 100.521 61.8375 102.703 46.1634 102.568C36.4301 102.484 26.2452 105.723 18.1132 111.072C17.2698 111.627 16.4179 112.178 15.5673 112.72C8.70589 117.096 6.37319 114.327 11.9957 108.443C12.9035 107.494 13.6927 106.219 14.3592 104.872C16.4286 100.693 17.0677 97.03 13.1896 94.4388C12.5507 94.0119 9.71222 92.1231 9.25864 91.5028C0.408693 79.4001 1.17156 19.4973 10.2653 10.3257C20.1204 0.386189 81.3604 0.732726 90.8865 10.3221Z" fill="#FFEAC8"/>
<g opacity="0.9">
<path d="M27.1931 78.1024C13.3295 64.2388 13.3295 41.7614 27.1931 27.8978C41.0567 14.0342 63.5341 14.0342 77.3977 27.8978C91.2613 41.7614 91.2613 64.2388 77.3977 78.1024C63.5341 91.966 41.0567 91.966 27.1931 78.1024Z" fill="#57534F"/>
<path d="M51.5 16.0001C71.1061 16.0001 87 31.894 87 51.5001C87 71.1062 71.1061 87.0001 51.5 87.0001C31.8939 87.0001 16 71.1062 16 51.5001C16 31.894 31.8939 16.0001 51.5 16.0001Z" fill="white" stroke="#263238" stroke-width="0.0966328" stroke-miterlimit="10"/>
<path d="M25.3154 53.6534C25.3154 53.6534 28.617 50.4419 29.4156 49.4637C30.2143 48.4854 32.525 46.2922 32.525 46.2922L36.9289 43.3253L40.5467 39.5197C40.5467 39.5197 41.0682 38.7606 42.1568 38.0006C43.2454 37.2405 45.8153 35.5167 45.8153 35.5167L51.9384 32.3042L53.8218 31.1343C53.8218 31.1343 56.4234 29.7264 56.8339 29.3965L57.2443 29.0666C57.2443 29.0666 59.2266 30.9763 59.5578 31.3915C59.8877 31.802 60.701 32.3954 60.8799 33.0428L61.0589 33.6902L55.6641 37.6754C55.6641 37.6754 50.3946 41.1112 49.1138 41.9112C47.833 42.7112 49.377 41.2499 46.6242 43.457C43.8713 45.6642 42.279 47.0571 42.279 47.0571L38.6744 50.1753L35.9523 52.1313C35.9523 52.1313 34.7162 53.1223 33.2714 54.2843C31.8253 55.4415 32.8423 54.1732 31.3442 55.8304C29.8448 57.4827 28.801 58.4337 28.801 58.4337L28.2655 58.7506L27.4802 59.0415L26.5821 58.0649C26.5821 58.0649 26.9256 57.2256 26.4698 56.235C26.0139 55.2444 25.7947 54.9672 25.7947 54.9672L25.3119 53.6594L25.3154 53.6534Z" fill="url(#paint0_linear_11_113)"/>
<path d="M27.9195 54.5039C28.0717 54.2717 32.6675 51.8272 32.6675 51.8272L34.814 50.5583L36.05 49.5673C36.05 49.5673 30.5225 55.3552 30.1662 55.7571C29.8088 56.1543 27.5961 58.0433 27.5961 58.0433" fill="url(#paint1_linear_11_113)"/>
<path d="M28.7163 53.5215C28.7163 53.5215 32.9102 50.7208 33.5176 50.3496C34.125 49.9785 37.6052 47.9768 38.2257 47.4807C38.8461 46.9846 44.6643 42.5445 44.9675 42.0753C45.2707 41.6062 42.6958 43.8936 47.4835 39.7172C52.2711 35.5407 55.7786 33.2938 55.7786 33.2938L56.7162 32.7708" fill="url(#paint2_linear_11_113)"/>
<path d="M56.4535 34.5618C56.4535 34.5618 47.8424 41.0168 46.2172 42.089C44.5931 43.166 37.4938 48.9685 37.4938 48.9685L35.4011 51.4342" fill="url(#paint3_linear_11_113)"/>
<path d="M30.3537 50.0648C30.3537 50.0648 34.3704 48.3134 35.3917 47.6063C36.4096 46.9053 38.1456 45.9663 38.1456 45.9663L41.0187 43.7734L43.4553 42.1603" fill="url(#paint4_linear_11_113)"/>
<path d="M19.1587 48.0561C19.1587 48.0561 25.3999 46.1594 26.0416 45.6291C26.6833 45.0989 29.9812 41.8176 29.9812 41.8176L31.171 41.3926L34.2461 39.115L37.8693 36.9428L41.2431 33.5624L43.3083 31.686L45.5957 28.801L46.7157 27.8512C46.7157 27.8512 50.9389 26.8454 51.3414 26.5249C51.7439 26.2045 52.7881 25.3537 52.7881 25.3537L54.4562 24.5092L55.2381 23.6933C55.2381 23.6933 54.2008 22.5848 53.7758 21.3951C53.3508 20.2053 53.0365 19.1789 53.0365 19.1789L52.6463 18.2516L46.0143 20.5562L41.4624 24.4491L39.98 26.6932L39.0581 27.7947L37.3762 31.2175L35.9999 31.5782L32.3775 32.4152C32.3775 32.4152 35.1717 32.0443 31.5376 32.7938C27.9036 33.5433 24.5727 35.9438 24.5727 35.9438L22.6012 37.1846L19.8896 37.5446C19.8896 37.5446 20.2279 37.4107 18.665 37.7072C17.1021 38.0037 16.9388 38.1144 16.688 38.2367C16.4372 38.359 15.9999 38.4171 15.9999 38.4171C15.9999 38.4171 15.708 38.9009 15.8304 39.1517C15.9527 39.4025 16.0285 39.3034 16.2205 40.079C16.4125 40.8547 16.4884 40.7556 16.558 41.2804C16.6277 41.8052 16.4125 40.8547 16.6277 41.8052C16.8429 42.7558 16.8839 42.3943 16.7493 43.3913L16.6146 44.3883L16.7772 45.6129C16.8236 45.9628 16.9227 46.0387 17.0566 46.3769C17.1905 46.7152 17.3237 48.3888 19.149 48.0574L19.1587 48.0561Z" fill="url(#paint5_linear_11_113)" stroke="#883B32" stroke-width="0.0708362" stroke-miterlimit="10"/>
<path d="M19.0833 46.8189L21.6145 45.7707C21.6145 45.7707 22.1919 45.4271 22.5944 45.1066C22.997 44.7861 24.5544 43.7782 24.5544 43.7782L27.7224 42.2005L29.3673 41.181L30.3473 40.5168L30.8783 39.8232" fill="url(#paint6_linear_11_113)"/>
<path d="M19.0833 46.8189L21.6145 45.7707C21.6145 45.7707 22.1919 45.4271 22.5944 45.1066C22.997 44.7861 24.5544 43.7782 24.5544 43.7782L27.7224 42.2005L29.3673 41.181L30.3473 40.5168L30.8783 39.8232" stroke="#883B32" stroke-width="0.0708362" stroke-miterlimit="10"/>
<path d="M38.7623 34.9597L41.5996 31.5616C41.5996 31.5616 43.1632 29.9298 43.2917 29.5567C43.4202 29.1836 44.0503 28.5658 44.0503 28.5658L45.1061 27.8026L46.6984 27.0571L48.2497 26.6731L49.0663 26.1197L50.0524 24.8316" fill="url(#paint7_linear_11_113)"/>
<path d="M38.7623 34.9597L41.5996 31.5616C41.5996 31.5616 43.1632 29.9298 43.2917 29.5567C43.4202 29.1836 44.0503 28.5658 44.0503 28.5658L45.1061 27.8026L46.6984 27.0571L48.2497 26.6731L49.0663 26.1197L50.0524 24.8316" stroke="#883B32" stroke-width="0.0708362" stroke-miterlimit="10"/>
<path d="M18.3711 39.4423L22.5252 37.9166L23.6042 37.3283L24.6668 36.6532L27.3614 35.4943" fill="url(#paint8_linear_11_113)"/>
<path d="M18.3711 39.4423L22.5252 37.9166L23.6042 37.3283L24.6668 36.6532L27.3614 35.4943" stroke="#883B32" stroke-width="0.0708362" stroke-miterlimit="10"/>
<path d="M21.4025 41.5316L22.9189 40.8852C22.9189 40.8852 24.6745 40.0291 24.9021 39.7318C25.1297 39.4346 26.5586 38.7998 26.5586 38.7998L27.4743 38.3222" fill="url(#paint9_linear_11_113)"/>
<path d="M21.4025 41.5316L22.9189 40.8852C22.9189 40.8852 24.6745 40.0291 24.9021 39.7318C25.1297 39.4346 26.5586 38.7998 26.5586 38.7998L27.4743 38.3222" stroke="#883B32" stroke-width="0.0708362" stroke-miterlimit="10"/>
<path d="M37.498 32.8133C37.498 32.8133 38.9509 31.0182 39.1785 30.7209C39.406 30.4237 40.5145 29.3864 40.5145 29.3864L41.2204 28.6696L41.8451 27.3405L43.0588 25.7551" fill="url(#paint10_linear_11_113)"/>
<path d="M37.498 32.8133C37.498 32.8133 38.9509 31.0182 39.1785 30.7209C39.406 30.4237 40.5145 29.3864 40.5145 29.3864L41.2204 28.6696L41.8451 27.3405L43.0588 25.7551" stroke="#883B32" stroke-width="0.0708362" stroke-miterlimit="10"/>
<path d="M18.4856 42.9868L20.563 41.9099" stroke="#883B32" stroke-width="0.0708362" stroke-miterlimit="10"/>
<path d="M26.5528 40.1355L28.752 38.5974" stroke="#883B32" stroke-width="0.0708362" stroke-miterlimit="10"/>
<path d="M32.9192 63.6601C32.9192 63.6601 35.432 59.8 35.9954 58.6698C36.5589 57.5396 38.3295 54.8911 38.3295 54.8911L41.9714 51.0266L44.6616 46.5174C44.6616 46.5174 45.003 45.662 45.8974 44.6808C46.7917 43.6996 48.9186 41.4518 48.9186 41.4518L54.1832 36.969L55.7626 35.4127C55.7626 35.4127 57.99 33.4662 58.3177 33.054L58.6453 32.6417C58.6453 32.6417 60.9997 34.0677 61.4142 34.3997C61.8265 34.7274 62.7506 35.127 63.0677 35.7191L63.3849 36.3111L59.001 41.3871C59.001 41.3871 54.6181 45.8997 53.5451 46.9623C52.4721 48.0249 53.6561 46.2592 51.4573 49.0187C49.2585 51.7783 48.0122 53.4878 48.0122 53.4878L45.1834 57.3237L42.9593 59.8314C42.9593 59.8314 41.9719 61.0705 40.8187 62.5222C39.6632 63.9696 40.3756 62.5085 39.2795 64.455C38.1812 66.3971 37.3725 67.5548 37.3725 67.5548L36.9201 67.9819L36.2181 68.4387L35.127 67.684C35.127 67.684 35.2771 66.7896 34.6141 65.9238C33.9512 65.058 33.6763 64.8359 33.6763 64.8359L32.9171 63.6667L32.9192 63.6601Z" fill="url(#paint11_linear_11_113)"/>
<path d="M35.6468 63.9159C35.7441 63.6558 39.6882 60.2586 39.6882 60.2586L41.5023 58.548L42.4896 57.3089C42.4896 57.3089 38.3733 64.1726 38.1144 64.6431C37.8533 65.1093 36.1112 67.4395 36.1112 67.4395" fill="url(#paint12_linear_11_113)"/>
<path d="M36.2075 62.782C36.2075 62.782 39.6811 59.1259 40.1918 58.6301C40.7025 58.1342 43.6561 55.4148 44.1519 54.7942C44.6478 54.1735 49.3445 48.5605 49.5369 48.036C49.7293 47.5116 47.7218 50.3102 51.4714 45.1814C55.221 40.0526 58.1471 37.0881 58.1471 37.0881L58.9464 36.3712" fill="url(#paint13_linear_11_113)"/>
<path d="M59.0848 38.1761C59.0848 38.1761 52.1079 46.37 50.7589 47.774C49.4121 49.1824 43.7659 56.4067 43.7659 56.4067L42.268 59.2729" fill="url(#paint14_linear_11_113)"/>
<path d="M37.0429 59.0494C37.0429 59.0494 40.5748 56.4559 41.4153 55.5412C42.2536 54.6331 43.74 53.3346 43.74 53.3346L46.0593 50.5625L48.0806 48.4521" fill="url(#paint15_linear_11_113)"/>
<path d="M25.6807 59.5571C25.6807 59.5571 31.3505 56.3317 31.8595 55.6731C32.3686 55.0144 34.8624 51.0871 34.8624 51.0871L35.9293 50.4103L38.427 47.5111L41.4824 44.5939L44.0284 40.5531L45.6293 38.2678L47.2247 34.9496L48.1079 33.7763C48.1079 33.7763 52.0056 31.8647 52.3276 31.4634C52.6496 31.0621 53.4807 30.0021 53.4807 30.0021L54.9217 28.8108L55.5045 27.8426C55.5045 27.8426 54.2484 26.99 53.5717 25.9232C52.895 24.8563 52.3622 23.9244 52.3622 23.9244L51.7773 23.1058L45.8162 26.8153L42.234 31.6155L41.2826 34.1311L40.6261 35.4087L39.7398 39.118L38.4768 39.7731L35.1279 41.3878C35.1279 41.3878 37.7716 40.4102 34.3921 41.9421C31.0125 43.474 28.2925 46.5495 28.2925 46.5495L26.6429 48.1943L24.0773 49.143C24.0773 49.143 24.3777 48.9378 22.9186 49.5714C21.4595 50.205 21.3246 50.349 21.1069 50.5236C20.8892 50.6981 20.4754 50.8511 20.4754 50.8511C20.4754 50.8511 20.2974 51.3873 20.472 51.605C20.6465 51.8227 20.6987 51.7094 21.0569 52.4236C21.4151 53.1379 21.4672 53.0245 21.6508 53.5211C21.8345 54.0176 21.4151 53.1379 21.8345 54.0176C22.2538 54.8974 22.2142 54.5357 22.3025 55.5379L22.3909 56.5401L22.8193 57.6988C22.9417 58.0298 23.0551 58.082 23.2603 58.3824C23.4654 58.6829 23.9641 60.2859 25.6715 59.5605L25.6807 59.5571Z" fill="url(#paint16_linear_11_113)" stroke="#883B32" stroke-width="0.0708362" stroke-miterlimit="10"/>
<path d="M25.3344 58.367L27.5724 56.7868C27.5724 56.7868 28.06 56.3243 28.382 55.923C28.704 55.5217 30.001 54.1954 30.001 54.1954L32.7435 51.9583L34.1233 50.6014L34.9328 49.7376L35.2979 48.944" fill="url(#paint17_linear_11_113)"/>
<path d="M25.3344 58.367L27.5724 56.7868C27.5724 56.7868 28.06 56.3243 28.382 55.923C28.704 55.5217 30.001 54.1954 30.001 54.1954L32.7435 51.9583L34.1233 50.6014L34.9328 49.7376L35.2979 48.944" stroke="#883B32" stroke-width="0.0708362" stroke-miterlimit="10"/>
<path d="M41.9163 42.4628L43.9351 38.5229C43.9351 38.5229 45.1007 36.5867 45.1438 36.1944C45.1869 35.8022 45.6654 35.0608 45.6654 35.0608L46.5271 34.0836L47.9159 33.0056L49.3444 32.2892L50.019 31.5694L50.6971 30.0957" fill="url(#paint18_linear_11_113)"/>
<path d="M41.9163 42.4628L43.9351 38.5229C43.9351 38.5229 45.1007 36.5867 45.1438 36.1944C45.1869 35.8022 45.6654 35.0608 45.6654 35.0608L46.5271 34.0836L47.9159 33.0056L49.3444 32.2892L50.019 31.5694L50.6971 30.0957" stroke="#883B32" stroke-width="0.0708362" stroke-miterlimit="10"/>
<path d="M23.0141 51.3286L26.7299 48.925L27.6528 48.1134L28.5405 47.2207L30.9134 45.4965" fill="url(#paint19_linear_11_113)"/>
<path d="M23.0141 51.3286L26.7299 48.925L27.6528 48.1134L28.5405 47.2207L30.9134 45.4965" stroke="#883B32" stroke-width="0.0708362" stroke-miterlimit="10"/>
<path d="M26.4316 52.6985L27.7683 51.7339C27.7683 51.7339 29.2921 50.5119 29.4486 50.1718C29.605 49.8317 30.859 48.8976 30.859 48.8976L31.6469 48.23" fill="url(#paint20_linear_11_113)"/>
<path d="M26.4316 52.6985L27.7683 51.7339C27.7683 51.7339 29.2921 50.5119 29.4486 50.1718C29.605 49.8317 30.859 48.8976 30.859 48.8976L31.6469 48.23" stroke="#883B32" stroke-width="0.0708362" stroke-miterlimit="10"/>
<path d="M40.2101 40.6477C40.2101 40.6477 41.2318 38.5766 41.3882 38.2365C41.5447 37.8964 42.3973 36.6403 42.3973 36.6403L42.928 35.7856L43.2444 34.3515L44.0789 32.5377" fill="url(#paint21_linear_11_113)"/>
<path d="M40.2101 40.6477C40.2101 40.6477 41.2318 38.5766 41.3882 38.2365C41.5447 37.8964 42.3973 36.6403 42.3973 36.6403L42.928 35.7856L43.2444 34.3515L44.0789 32.5377" stroke="#883B32" stroke-width="0.0708362" stroke-miterlimit="10"/>
<path d="M23.907 54.7608L25.696 53.2525" stroke="#883B32" stroke-width="0.0708362" stroke-miterlimit="10"/>
<path d="M31.1478 50.2018L32.9539 48.2169" stroke="#883B32" stroke-width="0.0708362" stroke-miterlimit="10"/>
<path d="M56.8604 52.114C49.822 47.1145 48.2603 37.2277 53.3722 30.0312C58.484 22.8346 68.3337 21.0536 75.3721 26.0531C82.4104 31.0526 83.9721 40.9394 78.8602 48.1359C73.7484 55.3324 63.8987 57.1135 56.8604 52.114Z" fill="#FFE7C6"/>
<path d="M56.0561 51.5428C49.4622 46.859 48.0974 37.4581 53.0077 30.5453C57.9181 23.6325 67.244 21.8256 73.8379 26.5093C80.4318 31.1931 81.7966 40.594 76.8863 47.5068C71.976 54.4196 62.65 56.2266 56.0561 51.5428Z" fill="#FFBA49" stroke="#A6671D" stroke-width="0.0708362" stroke-miterlimit="10"/>
<path d="M72.3347 29.1561C72.3347 29.1561 69.686 29.2447 69.699 29.7464C69.712 30.2482 70.2764 31.8804 70.2764 31.8804" stroke="#A6671D" stroke-width="0.0708362" stroke-miterlimit="10"/>
<path d="M72.7902 33.5423L70.68 34.2597L70.8988 36.3784" stroke="#A6671D" stroke-width="0.0708362" stroke-miterlimit="10"/>
<path d="M73.864 38.6078C73.864 38.6078 70.9591 38.8838 71.0883 39.2219C71.2176 39.56 71.6183 41.0759 71.6183 41.0759" stroke="#A6671D" stroke-width="0.0708362" stroke-miterlimit="10"/>
<path d="M74.3874 42.5503C74.3874 42.5503 72.2534 43.1277 72.0209 43.455C71.7883 43.7824 72.3895 46.0563 72.3895 46.0563" stroke="#A6671D" stroke-width="0.0708362" stroke-miterlimit="10"/>
<path d="M74.7618 47.7343C74.7618 47.7343 73.1403 47.937 72.9659 48.1825" stroke="#A6671D" stroke-width="0.0708362" stroke-miterlimit="10"/>
<path d="M70.4168 48.8344C70.4168 48.8344 68.2935 49.05 68.1084 49.6573C67.9233 50.2646 68.604 51.7331 68.604 51.7331" stroke="#A6671D" stroke-width="0.0708362" stroke-miterlimit="10"/>
<path d="M69.9961 44.226C69.9961 44.226 67.0911 44.5021 67.0804 44.8639C67.0697 45.2256 67.3672 47.407 67.3672 47.407" stroke="#A6671D" stroke-width="0.0708362" stroke-miterlimit="10"/>
<path d="M68.4331 39.6752L66.2098 40.5517L66.7398 42.4057" stroke="#A6671D" stroke-width="0.0708362" stroke-miterlimit="10"/>
<path d="M68.2695 34.8801C68.2695 34.8801 66.2495 34.4303 65.9718 35.3412C65.6942 36.2522 66.3748 37.7207 66.3748 37.7207" stroke="#A6671D" stroke-width="0.0708362" stroke-miterlimit="10"/>
<path d="M67.9768 29.7543C67.9768 29.7543 64.1846 29.8926 64.3506 30.8724C64.5165 31.8522 65.1972 33.3207 65.1972 33.3207" stroke="#A6671D" stroke-width="0.0708362" stroke-miterlimit="10"/>
<path d="M67.2076 25.6369C67.2076 25.6369 63.674 26.4514 63.7451 26.8713C63.8162 27.2912 64.7294 28.4324 64.7294 28.4324" stroke="#A6671D" stroke-width="0.0708362" stroke-miterlimit="10"/>
<path d="M74.7904 27.9518L73.8129 28.9813L75.1752 31.0503" stroke="#A6671D" stroke-width="0.0708362" stroke-miterlimit="10"/>
<path d="M76.859 32.4928L75.018 33.5246L75.522 36.0989" stroke="#A6671D" stroke-width="0.0708362" stroke-miterlimit="10"/>
<path d="M78.0335 36.8977L75.5851 37.7443L76.5061 40.608" stroke="#A6671D" stroke-width="0.0708362" stroke-miterlimit="10"/>
<path d="M77.7227 41.8415C77.7227 41.8415 76.4048 42.1366 76.2541 42.5221C76.1035 42.9076 76.8316 44.6561 76.8316 44.6561" stroke="#A6671D" stroke-width="0.0708362" stroke-miterlimit="10"/>
<path d="M63.8526 35.5595L61.2676 36.4253L61.718 39.0847" stroke="#A6671D" stroke-width="0.0708362" stroke-miterlimit="10"/>
<path d="M58.5979 37.2377L56.0141 38.1113L56.4632 40.763" stroke="#A6671D" stroke-width="0.0708362" stroke-miterlimit="10"/>
<path d="M58.7385 32.5426L56.1534 33.4084L56.6038 36.0678" stroke="#A6671D" stroke-width="0.0708362" stroke-miterlimit="10"/>
<path d="M60.1272 42.0181L57.5421 42.8839L57.9925 45.5433" stroke="#A6671D" stroke-width="0.0708362" stroke-miterlimit="10"/>
<path d="M60.9214 47.1308L58.3376 48.0043L58.7867 50.656" stroke="#A6671D" stroke-width="0.0708362" stroke-miterlimit="10"/>
<path d="M56.0266 43.2846L53.4428 44.1582L53.8919 46.8098" stroke="#A6671D" stroke-width="0.0708362" stroke-miterlimit="10"/>
<path d="M54.6754 39.1302L52.0903 39.996L52.5407 42.6555" stroke="#A6671D" stroke-width="0.0708362" stroke-miterlimit="10"/>
<path d="M62.6549 31.0151L60.0666 31.8854L60.5125 34.5416" stroke="#A6671D" stroke-width="0.0708362" stroke-miterlimit="10"/>
<path d="M64.7523 40.8707L62.1685 41.7442L62.6144 44.4004" stroke="#A6671D" stroke-width="0.0708362" stroke-miterlimit="10"/>
<path d="M65.3842 45.8751L62.7992 46.7409L63.2496 49.4003" stroke="#A6671D" stroke-width="0.0708362" stroke-miterlimit="10"/>
<path d="M66.4326 49.9374L63.8488 50.811L64.2947 53.4671" stroke="#A6671D" stroke-width="0.0708362" stroke-miterlimit="10"/>
<path d="M54.0197 33.9856L54.272 36.7506L52.6742 37.0932" stroke="#A6671D" stroke-width="0.0708362" stroke-miterlimit="10"/>
<path d="M56.051 31.1264L58.3594 30.3034L57.9694 28.4257" stroke="#A6671D" stroke-width="0.0708362" stroke-miterlimit="10"/>
<path d="M62.1808 29.0846L60.6444 29.3408L60.04 27.0714" stroke="#A6671D" stroke-width="0.0708362" stroke-miterlimit="10"/>
<path d="M57.2946 49.4728L56.785 47.7633L54.818 48.4524" stroke="#A6671D" stroke-width="0.0708362" stroke-miterlimit="10"/>
<path d="M58.6504 70.7441C51.4102 66.0417 49.4386 56.2284 54.2467 48.8254C59.0548 41.4225 68.8219 39.2333 76.0621 43.9357C83.3023 48.6381 85.2739 58.4515 80.4658 65.8544C75.6577 73.2573 65.8906 75.4465 58.6504 70.7441Z" fill="#FFE7C6"/>
<path d="M57.8149 70.2078C51.0319 65.8024 49.2772 56.4664 53.8958 49.3553C58.5143 42.2443 67.7571 40.051 74.5401 44.4565C81.3231 48.8619 83.0777 58.1979 78.4592 65.309C73.8407 72.42 64.5979 74.6133 57.8149 70.2078Z" fill="#FFBA49" stroke="#A6671D" stroke-width="0.0708362" stroke-miterlimit="10"/>
<path d="M73.1534 47.1664C73.1534 47.1664 70.5107 47.3652 70.5446 47.8659C70.5784 48.3667 71.2102 49.974 71.2102 49.974" stroke="#A6671D" stroke-width="0.0708362" stroke-miterlimit="10"/>
<path d="M73.7935 51.5253L71.7149 52.3298L72.0187 54.4422" stroke="#A6671D" stroke-width="0.0708362" stroke-miterlimit="10"/>
<path d="M75.0737 56.5461C75.0737 56.5461 72.1828 56.9428 72.326 57.2752C72.4692 57.6076 72.9326 59.1056 72.9326 59.1056" stroke="#A6671D" stroke-width="0.0708362" stroke-miterlimit="10"/>
<path d="M75.7594 60.4556C75.7594 60.4556 73.6513 61.1213 73.4326 61.458C73.2139 61.7948 73.9091 64.0418 73.9091 64.0418" stroke="#A6671D" stroke-width="0.0708362" stroke-miterlimit="10"/>
<path d="M76.3508 65.6277C76.3508 65.6277 74.7392 65.8976 74.5751 66.1501" stroke="#A6671D" stroke-width="0.0708362" stroke-miterlimit="10"/>
<path d="M72.0537 66.8997C72.0537 66.8997 69.9412 67.2035 69.7815 67.8179C69.6218 68.4324 70.363 69.8714 70.363 69.8714" stroke="#A6671D" stroke-width="0.0708362" stroke-miterlimit="10"/>
<path d="M71.4436 62.3209C71.4436 62.3209 68.5527 62.7175 68.557 63.0794C68.5613 63.4413 68.9493 65.6084 68.9493 65.6084" stroke="#A6671D" stroke-width="0.0708362" stroke-miterlimit="10"/>
<path d="M69.6962 57.8342L67.5082 58.8071L68.1102 60.6344" stroke="#A6671D" stroke-width="0.0708362" stroke-miterlimit="10"/>
<path d="M69.3288 53.0542C69.3288 53.0542 67.2918 52.6888 67.0523 53.6105C66.8128 54.5322 67.5539 55.9712 67.5539 55.9712" stroke="#A6671D" stroke-width="0.0708362" stroke-miterlimit="10"/>
<path d="M68.8269 47.9406C68.8269 47.9406 65.0438 48.2365 65.2503 49.2086C65.4569 50.1806 66.1981 51.6196 66.1981 51.6196" stroke="#A6671D" stroke-width="0.0708362" stroke-miterlimit="10"/>
<path d="M67.8843 43.8638C67.8843 43.8638 64.3875 44.8246 64.4761 45.2411C64.5646 45.6577 65.5245 46.76 65.5245 46.76" stroke="#A6671D" stroke-width="0.0708362" stroke-miterlimit="10"/>
<path d="M75.5598 45.857L74.6259 46.9262L76.0654 48.9384" stroke="#A6671D" stroke-width="0.0708362" stroke-miterlimit="10"/>
<path d="M77.8077 50.3092L76.0142 51.4119L76.6295 53.9661" stroke="#A6671D" stroke-width="0.0708362" stroke-miterlimit="10"/>
<path d="M79.1718 54.66L76.7608 55.6077L77.7924 58.4323" stroke="#A6671D" stroke-width="0.0708362" stroke-miterlimit="10"/>
<path d="M79.0601 59.614C79.0601 59.614 77.7556 59.9637 77.6211 60.3552C77.4866 60.7466 78.2868 62.4633 78.2868 62.4633" stroke="#A6671D" stroke-width="0.0708362" stroke-miterlimit="10"/>
<path d="M64.9476 53.9128L62.3977 54.89L62.9537 57.5254" stroke="#A6671D" stroke-width="0.0708362" stroke-miterlimit="10"/>
<path d="M59.7677 55.8079L57.2178 56.7851L57.7785 59.4235" stroke="#A6671D" stroke-width="0.0708362" stroke-miterlimit="10"/>
<path d="M59.708 51.1078L57.1628 52.0881L57.7218 54.7188" stroke="#A6671D" stroke-width="0.0708362" stroke-miterlimit="10"/>
<path d="M61.49 60.5172L58.9448 61.4975L59.5038 64.1282" stroke="#A6671D" stroke-width="0.0708362" stroke-miterlimit="10"/>
<path d="M62.5002 65.5956L59.9504 66.5729L60.511 69.2113" stroke="#A6671D" stroke-width="0.0708362" stroke-miterlimit="10"/>
<path d="M57.4497 61.9565L54.8999 62.9337L55.4605 65.5721" stroke="#A6671D" stroke-width="0.0708362" stroke-miterlimit="10"/>
<path d="M55.9219 57.8586L53.3797 58.8342L53.9357 61.4696" stroke="#A6671D" stroke-width="0.0708362" stroke-miterlimit="10"/>
<path d="M63.5547 49.4236L61.0079 50.3961L61.5685 53.0345" stroke="#A6671D" stroke-width="0.0708362" stroke-miterlimit="10"/>
<path d="M66.0646 59.1861L63.5178 60.1587L64.0784 62.7971" stroke="#A6671D" stroke-width="0.0708362" stroke-miterlimit="10"/>
<path d="M66.9028 64.1527L64.3576 65.1329L64.9167 67.7636" stroke="#A6671D" stroke-width="0.0708362" stroke-miterlimit="10"/>
<path d="M68.12 68.175L65.5732 69.1476L66.1338 71.786" stroke="#A6671D" stroke-width="0.0708362" stroke-miterlimit="10"/>
<path d="M55.058 52.7494L55.4251 55.5015L53.843 55.9103" stroke="#A6671D" stroke-width="0.0708362" stroke-miterlimit="10"/>
<path d="M56.9686 49.8079L59.2407 48.8897L58.7699 47.0345" stroke="#A6671D" stroke-width="0.0708362" stroke-miterlimit="10"/>
<path d="M63.003 47.5093L61.4755 47.8339L60.785 45.5899" stroke="#A6671D" stroke-width="0.0708362" stroke-miterlimit="10"/>
<path d="M58.9665 68.0883L58.3894 66.3968L56.4497 67.1718" stroke="#A6671D" stroke-width="0.0708362" stroke-miterlimit="10"/>
<path d="M32.8328 78.0579C26.9678 71.7228 27.4644 61.7257 33.942 55.7288C40.4196 49.732 50.4252 50.0063 56.2902 56.3414C62.1553 62.6766 61.6587 72.6737 55.1811 78.6706C48.7035 84.6674 38.6979 84.3931 32.8328 78.0579Z" fill="#FFE7C6"/>
<path d="M32.1541 77.3331C26.6595 71.3979 27.2492 61.9168 33.4714 56.1564C39.6936 50.396 49.192 50.5377 54.6867 56.4728C60.1813 62.4079 59.5915 71.8891 53.3694 77.6495C47.1472 83.4099 37.6488 83.2682 32.1541 77.3331Z" fill="#FFBA49" stroke="#A6671D" stroke-width="0.0708362" stroke-miterlimit="10"/>
<path d="M52.6774 58.7596C52.6774 58.7596 50.0667 58.3038 49.9766 58.7976C49.8865 59.2913 50.1047 61.0046 50.1047 61.0046" stroke="#A6671D" stroke-width="0.0708362" stroke-miterlimit="10"/>
<path d="M52.2203 63.1419L50.0157 63.4121L49.788 65.5304" stroke="#A6671D" stroke-width="0.0708362" stroke-miterlimit="10"/>
<path d="M52.2374 68.3244C52.2374 68.3244 49.3375 67.9995 49.3948 68.3569C49.4521 68.7143 49.5338 70.2802 49.5338 70.2802" stroke="#A6671D" stroke-width="0.0708362" stroke-miterlimit="10"/>
<path d="M51.9389 72.2862C51.9389 72.2862 49.7319 72.4142 49.4372 72.687C49.1426 72.9598 49.2652 75.3087 49.2652 75.3087" stroke="#A6671D" stroke-width="0.0708362" stroke-miterlimit="10"/>
<path d="M51.2469 77.441C51.2469 77.441 49.6183 77.3072 49.3973 77.5118" stroke="#A6671D" stroke-width="0.0708362" stroke-miterlimit="10"/>
<path d="M46.7692 77.6197C46.7692 77.6197 44.6468 77.3959 44.3413 77.9524C44.0357 78.5089 44.4011 80.0857 44.4011 80.0857" stroke="#A6671D" stroke-width="0.0708362" stroke-miterlimit="10"/>
<path d="M47.3014 73.0312C47.3014 73.0312 44.4015 72.7063 44.3169 73.0583C44.2323 73.4102 44.0766 75.6062 44.0766 75.6062" stroke="#A6671D" stroke-width="0.0708362" stroke-miterlimit="10"/>
<path d="M46.7041 68.249L44.3481 68.6594L44.4833 70.5786" stroke="#A6671D" stroke-width="0.0708362" stroke-miterlimit="10"/>
<path d="M47.5251 63.5292C47.5251 63.5292 45.64 62.6752 45.1817 63.5099C44.7233 64.3446 45.0887 65.9215 45.0887 65.9215" stroke="#A6671D" stroke-width="0.0708362" stroke-miterlimit="10"/>
<path d="M48.2854 58.4484C48.2854 58.4484 44.5453 57.807 44.507 58.8C44.4688 59.793 44.8342 61.3699 44.8342 61.3699" stroke="#A6671D" stroke-width="0.0708362" stroke-miterlimit="10"/>
<path d="M48.3793 54.2648C48.3793 54.2648 44.7537 54.3382 44.7373 54.7637C44.7209 55.1893 45.381 56.4934 45.381 56.4934" stroke="#A6671D" stroke-width="0.0708362" stroke-miterlimit="10"/>
<path d="M55.3277 58.0845L54.1641 58.8882L55.0658 61.1921" stroke="#A6671D" stroke-width="0.0708362" stroke-miterlimit="10"/>
<path d="M56.4185 62.9482L54.4052 63.581L54.375 66.2081" stroke="#A6671D" stroke-width="0.0708362" stroke-miterlimit="10"/>
<path d="M56.6652 67.5003L54.1032 67.8278L54.4102 70.8191" stroke="#A6671D" stroke-width="0.0708362" stroke-miterlimit="10"/>
<path d="M55.3486 72.2759C55.3486 72.2759 53.9983 72.2949 53.7718 72.6414C53.5454 72.9878 53.8999 74.8484 53.8999 74.8484" stroke="#A6671D" stroke-width="0.0708362" stroke-miterlimit="10"/>
<path d="M43.0597 63.286L40.3559 63.608L40.2482 66.2992" stroke="#A6671D" stroke-width="0.0708362" stroke-miterlimit="10"/>
<path d="M37.576 63.8558L34.8643 64.1775L34.7646 66.8691" stroke="#A6671D" stroke-width="0.0708362" stroke-miterlimit="10"/>
<path d="M38.6758 59.2814L35.9679 59.6072L35.8602 62.2984" stroke="#A6671D" stroke-width="0.0708362" stroke-miterlimit="10"/>
<path d="M38.0947 68.8406L35.3868 69.1664L35.2792 71.8576" stroke="#A6671D" stroke-width="0.0708362" stroke-miterlimit="10"/>
<path d="M37.8237 74.0151L35.1161 74.333L35.0123 77.0283" stroke="#A6671D" stroke-width="0.0708362" stroke-miterlimit="10"/>
<path d="M33.8207 69.248L31.1131 69.5659L31.0092 72.2612" stroke="#A6671D" stroke-width="0.0708362" stroke-miterlimit="10"/>
<path d="M33.3492 64.897L30.6413 65.2228L30.5337 67.914" stroke="#A6671D" stroke-width="0.0708362" stroke-miterlimit="10"/>
<path d="M42.8182 58.5929L40.1065 58.9146L40.0068 61.6061" stroke="#A6671D" stroke-width="0.0708362" stroke-miterlimit="10"/>
<path d="M42.8561 68.6728L40.1444 68.9945L40.0446 71.686" stroke="#A6671D" stroke-width="0.0708362" stroke-miterlimit="10"/>
<path d="M42.4498 73.6927L39.7381 74.0145L39.6343 76.7097" stroke="#A6671D" stroke-width="0.0708362" stroke-miterlimit="10"/>
<path d="M42.6427 77.8904L39.931 78.2121L39.8312 80.9036" stroke="#A6671D" stroke-width="0.0708362" stroke-miterlimit="10"/>
<path d="M33.7613 59.7355L33.4418 62.4935L31.8118 62.4978" stroke="#A6671D" stroke-width="0.0708362" stroke-miterlimit="10"/>
<path d="M36.3392 57.349L38.7631 57.0202L38.766 55.1024" stroke="#A6671D" stroke-width="0.0708362" stroke-miterlimit="10"/>
<path d="M42.753 56.6012L41.1925 56.5411L41.0737 54.1963" stroke="#A6671D" stroke-width="0.0708362" stroke-miterlimit="10"/>
<path d="M33.7903 75.5609L33.6458 73.7794L31.5752 74.0548" stroke="#A6671D" stroke-width="0.0708362" stroke-miterlimit="10"/>
<path d="M45.1597 35.3177C45.1597 35.3177 40.3859 34.908 37.0376 38.1757C33.695 41.4436 33.4303 48.332 34.5037 49.5096C35.5712 50.6927 41.9164 53.9481 43.1607 53.7662C44.4108 53.5844 50.2999 48.6646 50.2728 42.7827C50.2457 36.9008 46.6975 34.8906 45.1599 35.3119L45.1597 35.3177Z" fill="#FFFCEF" stroke="#3C464B" stroke-width="0.0708362" stroke-miterlimit="10"/>
<path d="M42.0575 42.2495C42.0575 42.2495 39.2778 41.3304 37.2088 42.4706C35.1397 43.6109 33.5036 46.6146 34.4961 48.4285C35.4944 50.2426 39.1404 52.2795 40.3903 52.1036C41.6405 51.9218 44.3964 48.8072 44.3317 46.399C44.2729 43.9911 43.4604 42.666 42.0573 42.2553L42.0575 42.2495Z" fill="#FEB041" stroke="#3C464B" stroke-width="0.0708362" stroke-miterlimit="10"/>
<path d="M30.2171 31.1967C30.2171 31.1967 34.5646 33.2161 35.8381 37.715C37.1116 42.2139 33.9161 48.3178 32.4001 48.8074C30.8841 49.2971 23.7633 48.9738 22.7724 48.1955C21.7815 47.4172 19.1157 40.2185 22.0632 35.1294C25.0106 30.0404 29.0927 30.0592 30.2138 31.1919L30.2171 31.1967Z" fill="#FFFCEF" stroke="#3C464B" stroke-width="0.0708362" stroke-miterlimit="10"/>
<path d="M29.4659 38.7515C29.4659 38.7515 32.331 39.3368 33.5664 41.3556C34.7938 43.3728 34.723 46.7935 32.9551 47.8711C31.1873 48.9487 27.0098 48.9037 26.0189 48.1254C25.028 47.3471 24.1837 43.2792 25.438 41.2159C26.6876 39.1558 28.0505 38.412 29.474 38.7531L29.4659 38.7515Z" fill="#FEB041" stroke="#3C464B" stroke-width="0.0708362" stroke-miterlimit="10"/>
</g>
<defs>
<linearGradient id="paint0_linear_11_113" x1="40.5139" y1="33.4288" x2="45.9373" y2="54.2292" gradientUnits="userSpaceOnUse">
<stop stop-color="#F25E5E"/>
<stop offset="0.56" stop-color="#FF2B2B"/>
<stop offset="1" stop-color="#FC7D7D"/>
</linearGradient>
<linearGradient id="paint1_linear_11_113" x1="31.0575" y1="50.8691" x2="32.5886" y2="56.7415" gradientUnits="userSpaceOnUse">
<stop stop-color="#F25E5E"/>
<stop offset="0.56" stop-color="#FF2B2B"/>
<stop offset="1" stop-color="#FC7D7D"/>
</linearGradient>
<linearGradient id="paint2_linear_11_113" x1="41.0744" y1="36.8491" x2="44.3581" y2="49.4432" gradientUnits="userSpaceOnUse">
<stop stop-color="#F25E5E"/>
<stop offset="0.56" stop-color="#FF2B2B"/>
<stop offset="1" stop-color="#FC7D7D"/>
</linearGradient>
<linearGradient id="paint3_linear_11_113" x1="44.5377" y1="37.6686" x2="47.3168" y2="48.3273" gradientUnits="userSpaceOnUse">
<stop stop-color="#F25E5E"/>
<stop offset="0.56" stop-color="#FF2B2B"/>
<stop offset="1" stop-color="#FC7D7D"/>
</linearGradient>
<linearGradient id="paint4_linear_11_113" x1="36.3566" y1="44.0112" x2="37.4524" y2="48.2139" gradientUnits="userSpaceOnUse">
<stop stop-color="#F25E5E"/>
<stop offset="0.56" stop-color="#FF2B2B"/>
<stop offset="1" stop-color="#FC7D7D"/>
</linearGradient>
<linearGradient id="paint5_linear_11_113" x1="15.3817" y1="35.8799" x2="56.1376" y2="30.4691" gradientUnits="userSpaceOnUse">
<stop stop-color="#F25E5E"/>
<stop offset="0.56" stop-color="#FF2B2B"/>
<stop offset="1" stop-color="#FC7D7D"/>
</linearGradient>
<linearGradient id="paint6_linear_11_113" x1="18.7291" y1="44.151" x2="31.2325" y2="42.491" gradientUnits="userSpaceOnUse">
<stop stop-color="#F25E5E"/>
<stop offset="0.56" stop-color="#FF2B2B"/>
<stop offset="1" stop-color="#FC7D7D"/>
</linearGradient>
<linearGradient id="paint7_linear_11_113" x1="38.1994" y1="30.7198" x2="50.6153" y2="29.0715" gradientUnits="userSpaceOnUse">
<stop stop-color="#F25E5E"/>
<stop offset="0.56" stop-color="#FF2B2B"/>
<stop offset="1" stop-color="#FC7D7D"/>
</linearGradient>
<linearGradient id="paint8_linear_11_113" x1="18.1914" y1="38.089" x2="27.541" y2="36.8477" gradientUnits="userSpaceOnUse">
<stop stop-color="#F25E5E"/>
<stop offset="0.56" stop-color="#FF2B2B"/>
<stop offset="1" stop-color="#FC7D7D"/>
</linearGradient>
<linearGradient id="paint9_linear_11_113" x1="21.2458" y1="40.3507" x2="27.6311" y2="39.503" gradientUnits="userSpaceOnUse">
<stop stop-color="#F25E5E"/>
<stop offset="0.56" stop-color="#FF2B2B"/>
<stop offset="1" stop-color="#FC7D7D"/>
</linearGradient>
<linearGradient id="paint10_linear_11_113" x1="37.0857" y1="29.7081" x2="43.4711" y2="28.8603" gradientUnits="userSpaceOnUse">
<stop stop-color="#F25E5E"/>
<stop offset="0.56" stop-color="#FF2B2B"/>
<stop offset="1" stop-color="#FC7D7D"/>
</linearGradient>
<linearGradient id="paint11_linear_11_113" x1="43.2874" y1="40.5834" x2="53.1611" y2="59.6774" gradientUnits="userSpaceOnUse">
<stop stop-color="#F25E5E"/>
<stop offset="0.56" stop-color="#FF2B2B"/>
<stop offset="1" stop-color="#FC7D7D"/>
</linearGradient>
<linearGradient id="paint12_linear_11_113" x1="37.9066" y1="59.6788" x2="40.6942" y2="65.0696" gradientUnits="userSpaceOnUse">
<stop stop-color="#F25E5E"/>
<stop offset="0.56" stop-color="#FF2B2B"/>
<stop offset="1" stop-color="#FC7D7D"/>
</linearGradient>
<linearGradient id="paint13_linear_11_113" x1="44.5878" y1="43.7962" x2="50.5661" y2="55.357" gradientUnits="userSpaceOnUse">
<stop stop-color="#F25E5E"/>
<stop offset="0.56" stop-color="#FF2B2B"/>
<stop offset="1" stop-color="#FC7D7D"/>
</linearGradient>
<linearGradient id="paint14_linear_11_113" x1="48.1466" y1="43.8324" x2="53.2062" y2="53.6167" gradientUnits="userSpaceOnUse">
<stop stop-color="#F25E5E"/>
<stop offset="0.56" stop-color="#FF2B2B"/>
<stop offset="1" stop-color="#FC7D7D"/>
</linearGradient>
<linearGradient id="paint15_linear_11_113" x1="41.5642" y1="51.8218" x2="43.5592" y2="55.6798" gradientUnits="userSpaceOnUse">
<stop stop-color="#F25E5E"/>
<stop offset="0.56" stop-color="#FF2B2B"/>
<stop offset="1" stop-color="#FC7D7D"/>
</linearGradient>
<linearGradient id="paint16_linear_11_113" x1="19.3134" y1="48.5126" x2="57.8751" y2="34.2536" gradientUnits="userSpaceOnUse">
<stop stop-color="#F25E5E"/>
<stop offset="0.56" stop-color="#FF2B2B"/>
<stop offset="1" stop-color="#FC7D7D"/>
</linearGradient>
<linearGradient id="paint17_linear_11_113" x1="24.401" y1="55.8427" x2="36.2313" y2="51.4683" gradientUnits="userSpaceOnUse">
<stop stop-color="#F25E5E"/>
<stop offset="0.56" stop-color="#FF2B2B"/>
<stop offset="1" stop-color="#FC7D7D"/>
</linearGradient>
<linearGradient id="paint18_linear_11_113" x1="40.433" y1="38.4512" x2="52.1805" y2="34.1073" gradientUnits="userSpaceOnUse">
<stop stop-color="#F25E5E"/>
<stop offset="0.56" stop-color="#FF2B2B"/>
<stop offset="1" stop-color="#FC7D7D"/>
</linearGradient>
<linearGradient id="paint19_linear_11_113" x1="22.5406" y1="50.0481" x2="31.3869" y2="46.777" gradientUnits="userSpaceOnUse">
<stop stop-color="#F25E5E"/>
<stop offset="0.56" stop-color="#FF2B2B"/>
<stop offset="1" stop-color="#FC7D7D"/>
</linearGradient>
<linearGradient id="paint20_linear_11_113" x1="26.0185" y1="51.5812" x2="32.0601" y2="49.3472" gradientUnits="userSpaceOnUse">
<stop stop-color="#F25E5E"/>
<stop offset="0.56" stop-color="#FF2B2B"/>
<stop offset="1" stop-color="#FC7D7D"/>
</linearGradient>
<linearGradient id="paint21_linear_11_113" x1="39.1237" y1="37.7097" x2="45.1653" y2="35.4757" gradientUnits="userSpaceOnUse">
<stop stop-color="#F25E5E"/>
<stop offset="0.56" stop-color="#FF2B2B"/>
<stop offset="1" stop-color="#FC7D7D"/>
</linearGradient>
</defs>
</svg>
