<svg width="110" height="90" viewBox="0 0 110 90" fill="none" xmlns="http://www.w3.org/2000/svg">
<mask id="mask0_45_519" style="mask-type:alpha" maskUnits="userSpaceOnUse" x="-459" y="-127" width="779" height="390">
<path d="M320 262.5C320 211.35 309.925 160.701 290.351 113.445C270.777 66.1885 242.086 23.2503 205.918 -12.9181C169.75 -49.0865 126.812 -77.7769 79.5552 -97.3511C32.2989 -116.925 -18.3502 -127 -69.5 -127C-120.65 -127 -171.299 -116.925 -218.555 -97.3511C-265.812 -77.7769 -308.75 -49.0865 -344.918 -12.9181C-381.087 23.2504 -409.777 66.1885 -429.351 113.445C-448.925 160.701 -459 211.35 -459 262.5H-345.143C-345.143 226.302 -338.014 190.458 -324.161 157.016C-310.309 123.573 -290.005 93.1866 -264.409 67.5908C-238.813 41.9949 -208.427 21.6912 -174.984 7.83882C-141.542 -6.01355 -105.698 -13.1433 -69.5 -13.1433C-33.302 -13.1433 2.54153 -6.01356 35.9841 7.83881C69.4267 21.6912 99.8134 41.9949 125.409 67.5908C151.005 93.1866 171.309 123.573 185.161 157.016C199.014 190.458 206.143 226.302 206.143 262.5H320Z" fill="#FFEAC8" fill-opacity="0.5"/>
</mask>
<g mask="url(#mask0_45_519)">
<rect width="110" height="90" fill="#FFEAC8"/>
</g>
</svg>
