<svg width="400" height="199" viewBox="0 0 400 199" fill="none" xmlns="http://www.w3.org/2000/svg">
<path d="M347.517 44.4432C353.649 47.9708 358.926 52.838 362.677 59.1974C369.587 70.602 378.603 79.8332 386.004 90.7362C388.769 94.539 391.443 98.7997 391.563 104.694C390.916 110.444 388.169 117.046 383.681 122.309C379.51 127.876 373.967 131.612 368.659 134.511C360.636 138.678 352.786 140.241 345.109 141.722C321.56 146.021 298.434 148.702 275.413 151.077C260.675 152.535 246.037 153.658 231.525 154.413C220.585 154.842 209.634 155.248 199.148 154.462C192.75 153.937 187.054 151.925 180.564 151.611C157.168 149.474 132.65 150.093 109.269 147.91C97.2692 146.748 85.0675 145.571 75.1146 140.446C70.8563 137.626 66.2782 135.272 61.2096 133.736C47.3229 128.733 32.5281 125.269 19.544 118.734C14.7824 116.475 10.7624 113.104 7.16987 109.292C4.30921 105.792 2.56081 100.607 4.04263 94.3091C5.28005 89.3549 8.3644 84.4618 11.2668 79.7939C22.6606 62.2094 38.2476 47.2347 54.4409 36.8031C64.9691 30.2325 75.9523 24.7484 86.2368 23.1373C95.028 21.698 103.301 22.4614 110.072 25.6308C112.035 26.2536 113.511 27.8504 115.698 28.0029C128.46 19.5496 141.876 13.3223 154.356 11.4376C160.817 10.5272 166.972 10.859 172.271 12.7173C176.386 14.5766 180.716 16.3919 183.445 20.1156C183.634 20.8352 184.106 21.0448 184.876 20.7449C187.575 19.8398 190.279 18.0468 192.977 16.8245C206.102 10.5253 219.561 8.2329 229.635 12.3158C233.84 14.0202 237.82 16.2759 240.818 19.6511C241.075 20.2678 241.584 20.4049 242.35 20.066C248.373 17.8619 253.611 18.914 259.543 17.0869C281.138 12.2077 301.781 15.907 312.032 31.744C313.787 33.8597 314.461 37.7006 317.978 37.4069C329.026 37.1454 338.931 39.8677 347.517 44.4432ZM331.478 42.1831C332.257 43.6281 333.438 44.8569 333.386 46.9588C333.435 51.7329 330.813 57.2017 328.334 62.2359C323.88 70.2628 318.646 78.2298 312.216 84.9427C309.606 87.4761 306.655 90.2812 303.701 90.7248C303.165 88.5918 305.686 86.319 306.469 84.0354C308.159 80.756 308.427 79.8155 309.664 77.2682C313.88 68.5831 315.373 59.6425 315.221 51.8297C314.624 40.2171 309.27 31.5015 301.931 25.8771C291.879 18.4575 277.895 16.8657 263.106 19.2872C268.935 21.301 273.143 26.4947 273.089 34.2991C272.794 41.6425 269.406 49.928 265.132 57.5287C260.457 66.0401 255.002 74.3962 248.661 81.9516C247.651 81.6848 246.926 80.7813 247.873 79.2304C251.506 71.7973 253.484 64.1347 253.817 57.177C254.42 42.2191 248.301 30.9208 239.866 23.2992C235.301 19.4654 230.709 15.4085 224.37 14.2445C214.619 11.8348 202.46 14.7687 190.679 20.7632C194.016 21.5652 197.615 21.9198 200.482 23.5591C206.324 26.2642 211.235 31.0989 212.106 38.9057C214.565 49.7484 209.718 64.5509 201.622 77.0219C198.968 80.995 196.397 85.243 192.892 88.5048C191.095 87.0323 193.328 83.3064 193.675 80.6807C197.893 60.3404 194.899 41.99 186.708 29.0564C180.679 19.3406 170.535 13.3412 157.72 14.1302C145.06 14.9502 130.909 20.8869 117.618 29.7732C119.014 30.9227 120.104 32.5636 121.895 33.1617C125.4 32.5644 129.09 31.4389 132.278 31.8965C137.998 32.1225 142.703 35.1408 144.348 40.7623C146.036 45.5186 145.358 51.8631 143.451 58.1576C140.87 66.5745 136.533 75.0821 131.432 83.0615C130.414 85.1241 128.143 84.4853 129.04 82.5376C132.318 70.0819 131.491 58.5691 127.91 49.5205C123.565 38.312 115.3 30.2074 104.227 27.1482C93.5508 23.7386 79.9168 25.8512 66.4614 32.8418C62.4979 35.0734 58.3475 36.7159 54.5838 39.9707C51.3705 41.38 48.2935 43.9085 45.2563 46.273C34.2096 54.6587 24.0198 65.5569 15.6046 77.4615C11.8517 83.1909 7.22674 89.3641 6.42668 95.5415C5.52202 102.025 8.84004 106.062 12.058 109.34C17.9694 114.49 25.1518 117.98 32.7682 120.588C45.3381 125.544 59.075 128.465 71.2756 134.055C75.0717 135.701 78.0574 138.596 82.1139 139.84C93.4899 143.486 106.191 144.521 118.854 145.464C131.177 146.209 143.647 146.604 156.124 146.982C167.872 147.521 179.782 147.745 190.935 149.69C199.925 152.125 210.21 151.748 220.256 151.72C245.38 151.031 271.053 148.718 296.912 145.725C302.119 144.954 307.165 144.885 312.532 143.458C314.198 143.804 316.243 143.126 318.082 143.003C325.743 142.036 333.477 140.793 341.23 139.474C349.084 137.986 356.962 136.777 365.149 133.333C369.246 131.466 373.477 129.238 377.286 125.742C383.26 120.607 388.346 112.497 388.71 105.614C388.88 101.716 387.056 99.1041 385.593 96.4153C381.824 90.0165 377.237 84.4267 372.584 78.954C368.209 73.3763 364.036 67.5919 360.146 61.5194C353.566 51.4073 343.634 44.5639 331.478 42.1831ZM324.261 41.9842C321.927 41.1842 319.5 40.5355 316.764 40.5861C316.788 43.9177 317.972 46.5811 317.933 49.9735C318.398 54.391 317.383 59.4495 316.874 64.2784C315.693 67.5221 314.958 70.7522 313.71 74.0073C312.418 77.7504 310.261 81.4162 308.803 85.1526C314.529 79.7961 319.327 73.1436 323.346 66.3712C326.523 60.8686 329.823 54.9939 330.596 49.3792C330.694 44.9354 327.367 43.0976 324.261 41.9842ZM257.283 21.6228C253.391 20.8898 248.934 21.2967 244.396 22.5463C247.335 25.9755 250.088 29.6261 252.13 33.9457C255.137 39.2315 256.174 46.1181 256.905 53.0382C256.448 55.7299 256.551 58.24 256.159 60.9308C255.631 64.3456 254.682 67.8665 253.75 71.3671C259.275 63.9301 263.854 55.873 267.359 47.7158C269.812 41.5916 271.236 35.0659 269.564 30.3949C267.476 25.1888 262.943 21.9943 257.283 21.6228ZM198.921 26.8399C197.044 25.625 194.701 25.1455 192.491 24.5021C190.924 24.2444 189.45 23.5534 187.536 24.2896C192.963 31.4608 196.269 40.7696 197.698 51.1756C198.39 55.3485 198.078 60.0832 198.651 64.3147C198.025 66.0338 198.202 67.5882 198.014 69.2053C197.823 72.944 197.289 74.1271 196.818 77.9566C202.693 69.7867 207.004 63.4003 209.005 54.5721C211.836 41.6827 208.21 29.9995 198.921 26.8399ZM131.73 35C129.229 34.9898 126.72 34.7854 123.93 35.8207C126.742 39.8403 129.625 43.8769 131.176 49.0505C131.777 50.7949 132.005 52.8766 133.103 54.2183C132.824 56.6106 133.593 58.5522 133.635 60.8201C134.275 65.3927 133.617 70.582 133.307 75.5882C138.332 66.3439 142.752 56.1375 142.5 47.4149C142.425 40.1762 137.854 35.5741 131.73 35Z" fill="#961600" stroke="#961600" stroke-width="0.265725"/>
<path d="M331.481 42.1595C343.635 44.5401 353.567 51.3832 360.145 61.494C364.035 67.5658 368.207 73.3496 372.582 78.9268C377.235 84.3989 381.821 89.9882 385.59 96.3864C387.053 99.075 388.877 101.687 388.707 105.584C388.342 112.466 383.257 120.576 377.284 125.71C373.475 129.206 369.244 131.433 365.148 133.3C356.962 136.744 349.085 137.953 341.232 139.441C333.479 140.76 325.746 142.003 318.085 142.97C316.247 143.092 314.202 143.77 312.536 143.424C307.873 141.546 301.839 142.777 296.423 142.634C285.102 143.015 273.625 143.844 262.51 143.634C248.311 143.634 234.734 142.087 220.675 141.719C197.478 141.165 176.018 136.537 154.972 131.328C142.775 128.674 130.329 126.539 117.999 124.155C107.598 122.187 97.7203 119.195 87.4509 116.968C69.8483 112.984 51.8416 109.262 37.477 99.7366C32.9884 96.5935 28.7088 92.6272 27.5513 86.138C26.7486 81.08 29.4253 74.5568 32.6204 68.918C37.1596 61.6953 42.4445 54.8201 48.1882 48.5416C50.6092 45.8985 52.6655 42.9305 54.6128 39.9474C58.3761 36.6929 62.5262 35.0505 66.4892 32.8191C79.9433 25.8293 93.576 23.7169 104.251 27.1261C115.323 30.185 123.587 38.2889 127.932 49.4962C131.513 58.544 132.34 70.0556 129.061 82.5101C128.165 84.4576 130.436 85.0964 131.454 83.0339C136.554 75.0553 140.891 66.5486 143.471 58.1325C145.378 51.8386 146.057 45.4947 144.368 40.7389C142.723 35.1179 138.019 32.0999 132.299 31.874C129.112 31.4164 125.423 32.5418 121.918 33.1391C120.127 32.5411 119.036 30.9002 117.641 29.7509C130.931 20.8654 145.08 14.9293 157.739 14.1094C170.552 13.3205 180.696 19.3193 186.724 29.0342C194.914 41.9664 197.908 60.315 193.691 80.6534C193.344 83.2788 191.435 87.06 195.307 83.4508C198.644 80.8698 198.983 80.9676 201.637 76.9949C209.732 64.5252 214.578 49.7241 212.119 38.8825C211.249 31.0764 206.338 26.2422 200.497 23.5374C197.63 21.8982 194.032 21.5437 190.695 20.7417C202.475 14.7479 214.632 11.8142 224.383 14.2237C230.721 15.3876 235.312 19.4441 239.877 23.2775C248.311 30.8983 254.429 42.1956 253.827 57.1519C253.494 64.109 251.516 71.7708 247.883 79.2032C246.937 80.754 247.661 81.6574 248.671 81.9241C255.011 74.3695 260.466 66.0142 265.141 57.5037C269.414 49.9036 272.802 41.619 273.097 34.2763C273.151 26.4727 268.944 21.2795 263.114 19.2659C277.902 16.8446 291.885 18.4363 301.936 25.8551C309.274 31.479 314.628 40.1937 315.225 51.8052C315.377 59.6173 313.884 68.5569 309.668 77.2412C308.355 79.4396 307.245 81.7132 306.474 84.0077C305.691 86.2911 303.17 88.5636 303.706 90.6964C306.659 90.2529 309.61 87.4481 312.221 84.9149C318.65 78.2027 323.883 70.2364 328.337 62.2103C330.815 57.1767 333.437 51.7084 333.389 46.9348C333.44 44.833 332.259 43.6044 331.481 42.1595Z" fill="#FBAA1B" stroke="#FBAA1B" stroke-width="0.265725"/>
<path d="M324.335 41.6469C327.446 42.7618 330.778 44.6019 330.68 49.0515C329.906 54.6733 326.601 60.5557 323.419 66.0653C319.396 72.8464 314.591 79.5074 308.857 84.8708C310.317 81.1296 312.477 77.4592 313.771 73.7112C315.02 70.4519 315.756 67.2176 316.939 63.9698C320.882 59.5851 322.956 54.122 324.431 49.0899C325.263 46.2579 324.734 43.9182 324.335 41.6469Z" fill="#F9CF8C" stroke="#F9CF8C" stroke-width="0.265725"/>
<path d="M316.856 40.2613C319.594 40.2106 322.023 40.8597 324.357 41.6601C324.756 43.9298 325.285 46.2683 324.453 49.098C322.979 54.1267 320.907 59.5861 316.967 63.9677C317.476 59.1359 318.491 54.0744 318.026 49.6543C318.065 46.2599 316.881 43.5952 316.856 40.2613Z" fill="#F0C786" stroke="#F0C786" stroke-width="0.265725"/>
<path d="M257.396 21.4427C263.059 21.8145 267.596 25.011 269.685 30.2204C271.358 34.8945 269.934 41.4244 267.478 47.5525C263.971 55.715 259.389 63.7773 253.861 71.2191C254.794 67.7163 255.743 64.1931 256.272 60.776C256.664 58.0835 256.561 55.5718 257.018 52.8784C260.347 47.7522 261.037 42.3174 261.583 37.3776C262.204 30.8009 260.094 25.7141 257.396 21.4427Z" fill="#F9CF8C" stroke="#F9CF8C" stroke-width="0.265725"/>
<path d="M244.535 22.3847C249.073 21.1352 253.529 20.7283 257.421 21.4613C260.116 25.7296 262.225 30.8128 261.605 37.3848C261.059 42.3211 260.37 47.7519 257.043 52.8744C256.312 45.9549 255.275 39.0687 252.268 33.7833C250.227 29.464 247.474 25.8136 244.535 22.3847Z" fill="#F0C786" stroke="#F0C786" stroke-width="0.265725"/>
<path d="M199.021 26.8127C208.315 29.9735 211.943 41.6629 209.111 54.5595C207.108 63.3924 202.376 72.576 196.498 80.7502C196.97 76.9187 197.923 72.941 198.114 69.2004C198.302 67.5824 198.125 66.0272 198.751 64.3072C201.243 59.4931 201.722 54.7522 202.461 50.1487C203.297 44.2939 204.155 38.2107 202.73 33.4416C201.847 30.9164 200.331 28.943 199.021 26.8127Z" fill="#F9CF8C" stroke="#F9CF8C" stroke-width="0.265725"/>
<path d="M192.617 24.493C194.828 25.1363 197.17 25.6159 199.047 26.8307C200.356 28.9598 201.871 30.9316 202.754 33.4557C204.178 38.2221 203.321 44.3018 202.485 50.1532C201.747 54.754 201.268 59.4922 198.777 64.3036C198.205 60.0723 198.516 55.3377 197.825 51.165C196.396 40.7596 193.089 31.4514 187.663 24.2805C189.577 23.5444 191.05 24.2353 192.617 24.493Z" fill="#F0C786" stroke="#F0C786" stroke-width="0.265725"/>
<path d="M296.317 142.782C301.731 142.926 307.764 141.695 312.426 143.573C307.061 144.999 302.016 145.069 296.811 145.84C270.962 148.831 245.298 151.143 220.183 151.832C210.141 151.86 199.859 152.237 190.873 149.803C179.723 147.859 167.818 147.634 156.074 147.096C143.601 146.718 131.135 146.323 118.817 145.578C106.159 144.636 93.4625 143.601 82.0906 139.956C78.0355 138.713 75.0509 135.819 71.2561 134.174C59.06 128.586 45.3279 125.666 32.7626 120.712C25.149 118.104 17.9691 114.616 12.0598 109.468C8.84305 106.191 5.52623 102.155 6.43056 95.6745C7.23034 89.4993 11.8536 83.3284 15.6052 77.6012C24.0174 65.701 34.2035 54.8068 45.2463 46.4242C48.2823 44.0606 51.3582 41.533 54.5704 40.1243C52.6236 43.1066 50.5679 46.0738 48.1475 48.7162C42.4053 54.993 37.1218 61.8663 32.5838 69.087C29.3895 74.7242 26.7136 81.2457 27.5161 86.3023C28.6732 92.7898 32.9517 96.755 37.4391 99.8972C51.7999 109.42 69.8019 113.141 87.3999 117.124C97.6665 119.35 107.542 122.342 117.939 124.308C130.266 126.692 142.709 128.827 154.904 131.48C175.944 136.688 197.398 141.314 220.589 141.868C234.644 142.236 248.217 143.782 262.413 143.783C273.525 143.993 284.999 143.163 296.317 142.782Z" fill="#F4A10F" stroke="#F4A10F" stroke-width="0.265725"/>
<path d="M131.834 35.1434C137.96 35.7174 142.533 40.3215 142.608 47.5629C142.86 56.2888 138.438 66.499 133.412 75.7467C133.722 70.7387 134.379 65.5474 133.74 60.9732C133.697 58.7044 132.928 56.762 133.207 54.3688C136.065 46.6758 134.127 40.2751 131.834 35.1434Z" fill="#F9CF8C" stroke="#F9CF8C" stroke-width="0.265725"/>
<path d="M124.063 35.9758C126.852 34.9407 129.36 35.145 131.861 35.1553C134.152 40.2839 136.089 46.6807 133.233 54.3691C132.136 53.0277 131.908 50.9466 131.307 49.2026C129.756 44.0301 126.874 39.9944 124.063 35.9758Z" fill="#F0C786" stroke="#F0C786" stroke-width="0.265725"/>
<mask id="path-12-outside-1_11_263" maskUnits="userSpaceOnUse" x="19.6382" y="41.2617" width="355" height="93" fill="black">
<rect fill="white" x="19.6382" y="41.2617" width="355" height="93"/>
<path d="M38.5541 42.128H56.6594C65.387 42.128 71.7935 44.1706 75.8788 48.2559C80.057 52.2484 81.3568 58.0978 79.7784 65.8041C78.85 70.5394 76.5752 75.0889 72.9541 79.4528C69.4259 83.8166 64.2264 88.0876 57.3557 92.2657L53.5954 85.1629C57.6807 82.8417 61.1161 79.7777 63.9015 75.971C66.6869 72.1642 68.4974 68.2182 69.3331 64.1329C70.1687 59.5834 69.4723 56.2873 67.244 54.2446C65.1085 52.1091 60.8375 51.0414 54.431 51.0414H46.7711L40.0861 84.4665H56.6594L61.5339 87.5305C66.4548 88.7375 70.0759 91.1516 72.397 94.7726C74.7182 98.3937 75.3217 103.036 74.2076 108.7C72.722 115.942 69.1474 121.513 63.4837 125.412C57.82 129.312 50.7635 131.262 42.3144 131.262H20.7273L38.5541 42.128ZM41.8966 122.348C48.6745 122.348 53.7811 121.095 57.2164 118.588C60.6518 115.988 62.8802 112.042 63.9015 106.75C64.83 102.386 64.1336 99.09 61.8124 96.8617C59.4912 94.5405 55.0345 93.3799 48.4423 93.3799H38.4148L32.5654 122.348H41.8966ZM98.5132 131.819C93.1281 131.819 89.0428 130.148 86.2573 126.805C83.5648 123.37 83.0077 117.706 84.5861 109.814L92.8031 68.8681H102.831L94.6136 109.535C93.6852 114.456 93.6387 117.938 94.4744 119.981C95.31 121.931 97.4455 122.905 100.881 122.905C104.223 122.905 107.659 121.931 111.187 119.981C114.808 117.938 118.243 115.385 121.493 112.321L126.089 117.195C122.746 121.188 118.522 124.623 113.415 127.501C108.309 130.38 103.341 131.819 98.5132 131.819ZM117.733 122.348L128.457 68.8681H138.484L127.76 122.209L126.228 131.262H117.176L117.733 122.348ZM173.374 51.0414L169.893 68.8681H191.898L190.087 77.7815H168.082L160.979 113.156C160.329 116.313 160.515 118.82 161.536 120.677C162.558 122.441 164.879 123.323 168.5 123.323C172.771 123.323 177.088 122.952 181.452 122.209L181.731 131.122C177.088 131.958 172.353 132.376 167.525 132.376C160.933 132.376 156.244 130.658 153.459 127.223C150.673 123.788 149.977 118.542 151.37 111.485L158.055 77.9208L147.748 77.3637L149.42 68.8681H159.865L163.347 51.0414H173.374ZM232.916 51.0414L229.434 68.8681H251.439L249.628 77.7815H227.623L220.521 113.156C219.871 116.313 220.056 118.82 221.078 120.677C222.099 122.441 224.42 123.323 228.041 123.323C232.312 123.323 236.63 122.952 240.994 122.209L241.272 131.122C236.63 131.958 231.894 132.376 227.066 132.376C220.474 132.376 215.785 130.658 213 127.223C210.215 123.788 209.518 118.542 210.911 111.485L217.596 77.9208L207.29 77.3637L208.961 68.8681H219.406L222.888 51.0414H232.916ZM282.012 133.072C273.191 133.072 267.342 129.962 264.464 123.741C261.678 117.52 261.307 109.35 263.349 99.2293C265.299 89.4803 268.735 81.6811 273.656 75.8317C278.669 69.9823 285.401 67.0576 293.85 67.0576C302.67 67.0576 308.52 70.168 311.398 76.3888C314.276 82.6096 314.694 90.7802 312.652 100.901C310.702 110.557 307.174 118.356 302.067 124.298C297.053 130.148 290.368 133.072 282.012 133.072ZM282.43 124.159C287.722 124.159 291.9 122.302 294.964 118.588C298.121 114.781 300.581 108.328 302.345 99.2293C304.017 90.7802 304.11 84.7915 302.624 81.2633C301.231 77.7351 298.167 75.971 293.432 75.971C288.233 75.971 284.101 77.8743 281.037 81.6811C277.973 85.4879 275.512 91.8943 273.656 100.901C271.891 109.443 271.752 115.478 273.238 119.006C274.723 122.441 277.787 124.159 282.43 124.159ZM329.158 77.9208L330.69 68.8681H339.743L339.186 77.7815L328.462 131.262H318.434L329.158 77.9208ZM362.305 90.5945C363.233 85.6735 363.279 82.2382 362.444 80.2884C361.608 78.2457 359.473 77.2244 356.037 77.2244C352.695 77.2244 349.213 78.2457 345.592 80.2884C342.064 82.2382 338.675 84.7451 335.425 87.809L330.829 82.9345C334.172 78.9421 338.396 75.5067 343.503 72.6284C348.61 69.7502 353.577 68.311 358.405 68.311C363.79 68.311 367.829 70.0287 370.522 73.4641C373.307 76.8066 373.911 82.4239 372.332 90.3159L364.115 131.262H354.088L362.305 90.5945Z"/>
</mask>
<path d="M38.5541 42.128H56.6594C65.387 42.128 71.7935 44.1706 75.8788 48.2559C80.057 52.2484 81.3568 58.0978 79.7784 65.8041C78.85 70.5394 76.5752 75.0889 72.9541 79.4528C69.4259 83.8166 64.2264 88.0876 57.3557 92.2657L53.5954 85.1629C57.6807 82.8417 61.1161 79.7777 63.9015 75.971C66.6869 72.1642 68.4974 68.2182 69.3331 64.1329C70.1687 59.5834 69.4723 56.2873 67.244 54.2446C65.1085 52.1091 60.8375 51.0414 54.431 51.0414H46.7711L40.0861 84.4665H56.6594L61.5339 87.5305C66.4548 88.7375 70.0759 91.1516 72.397 94.7726C74.7182 98.3937 75.3217 103.036 74.2076 108.7C72.722 115.942 69.1474 121.513 63.4837 125.412C57.82 129.312 50.7635 131.262 42.3144 131.262H20.7273L38.5541 42.128ZM41.8966 122.348C48.6745 122.348 53.7811 121.095 57.2164 118.588C60.6518 115.988 62.8802 112.042 63.9015 106.75C64.83 102.386 64.1336 99.09 61.8124 96.8617C59.4912 94.5405 55.0345 93.3799 48.4423 93.3799H38.4148L32.5654 122.348H41.8966ZM98.5132 131.819C93.1281 131.819 89.0428 130.148 86.2573 126.805C83.5648 123.37 83.0077 117.706 84.5861 109.814L92.8031 68.8681H102.831L94.6136 109.535C93.6852 114.456 93.6387 117.938 94.4744 119.981C95.31 121.931 97.4455 122.905 100.881 122.905C104.223 122.905 107.659 121.931 111.187 119.981C114.808 117.938 118.243 115.385 121.493 112.321L126.089 117.195C122.746 121.188 118.522 124.623 113.415 127.501C108.309 130.38 103.341 131.819 98.5132 131.819ZM117.733 122.348L128.457 68.8681H138.484L127.76 122.209L126.228 131.262H117.176L117.733 122.348ZM173.374 51.0414L169.893 68.8681H191.898L190.087 77.7815H168.082L160.979 113.156C160.329 116.313 160.515 118.82 161.536 120.677C162.558 122.441 164.879 123.323 168.5 123.323C172.771 123.323 177.088 122.952 181.452 122.209L181.731 131.122C177.088 131.958 172.353 132.376 167.525 132.376C160.933 132.376 156.244 130.658 153.459 127.223C150.673 123.788 149.977 118.542 151.37 111.485L158.055 77.9208L147.748 77.3637L149.42 68.8681H159.865L163.347 51.0414H173.374ZM232.916 51.0414L229.434 68.8681H251.439L249.628 77.7815H227.623L220.521 113.156C219.871 116.313 220.056 118.82 221.078 120.677C222.099 122.441 224.42 123.323 228.041 123.323C232.312 123.323 236.63 122.952 240.994 122.209L241.272 131.122C236.63 131.958 231.894 132.376 227.066 132.376C220.474 132.376 215.785 130.658 213 127.223C210.215 123.788 209.518 118.542 210.911 111.485L217.596 77.9208L207.29 77.3637L208.961 68.8681H219.406L222.888 51.0414H232.916ZM282.012 133.072C273.191 133.072 267.342 129.962 264.464 123.741C261.678 117.52 261.307 109.35 263.349 99.2293C265.299 89.4803 268.735 81.6811 273.656 75.8317C278.669 69.9823 285.401 67.0576 293.85 67.0576C302.67 67.0576 308.52 70.168 311.398 76.3888C314.276 82.6096 314.694 90.7802 312.652 100.901C310.702 110.557 307.174 118.356 302.067 124.298C297.053 130.148 290.368 133.072 282.012 133.072ZM282.43 124.159C287.722 124.159 291.9 122.302 294.964 118.588C298.121 114.781 300.581 108.328 302.345 99.2293C304.017 90.7802 304.11 84.7915 302.624 81.2633C301.231 77.7351 298.167 75.971 293.432 75.971C288.233 75.971 284.101 77.8743 281.037 81.6811C277.973 85.4879 275.512 91.8943 273.656 100.901C271.891 109.443 271.752 115.478 273.238 119.006C274.723 122.441 277.787 124.159 282.43 124.159ZM329.158 77.9208L330.69 68.8681H339.743L339.186 77.7815L328.462 131.262H318.434L329.158 77.9208ZM362.305 90.5945C363.233 85.6735 363.279 82.2382 362.444 80.2884C361.608 78.2457 359.473 77.2244 356.037 77.2244C352.695 77.2244 349.213 78.2457 345.592 80.2884C342.064 82.2382 338.675 84.7451 335.425 87.809L330.829 82.9345C334.172 78.9421 338.396 75.5067 343.503 72.6284C348.61 69.7502 353.577 68.311 358.405 68.311C363.79 68.311 367.829 70.0287 370.522 73.4641C373.307 76.8066 373.911 82.4239 372.332 90.3159L364.115 131.262H354.088L362.305 90.5945Z" fill="#961600"/>
<path d="M38.5541 42.128V41.5338H38.0669L37.9714 42.0115L38.5541 42.128ZM75.8788 48.2559L75.4585 48.6762L75.4683 48.6856L75.8788 48.2559ZM79.7784 65.8041L79.1963 65.6849L79.1953 65.6898L79.7784 65.8041ZM72.9541 79.4528L72.4968 79.0733L72.492 79.0792L72.9541 79.4528ZM57.3557 92.2657L56.8306 92.5438L57.1256 93.1011L57.6645 92.7734L57.3557 92.2657ZM53.5954 85.1629L53.3018 84.6462L52.8004 84.9312L53.0702 85.4409L53.5954 85.1629ZM69.3331 64.1329L69.9154 64.252L69.9175 64.2402L69.3331 64.1329ZM67.244 54.2446L66.8238 54.6648L66.8329 54.6739L66.8425 54.6826L67.244 54.2446ZM46.7711 51.0414V50.4471H46.2839L46.1884 50.9248L46.7711 51.0414ZM40.0861 84.4665L39.5034 84.35L39.3612 85.0608H40.0861V84.4665ZM56.6594 84.4665L56.9756 83.9634L56.8306 83.8723H56.6594V84.4665ZM61.5339 87.5305L61.2176 88.0336L61.299 88.0847L61.3923 88.1076L61.5339 87.5305ZM74.2076 108.7L74.7897 108.819L74.7906 108.814L74.2076 108.7ZM20.7273 131.262L20.1446 131.145L20.0025 131.856H20.7273V131.262ZM57.2164 118.588L57.5668 119.068L57.575 119.062L57.2164 118.588ZM63.9015 106.75L63.3202 106.626L63.318 106.637L63.9015 106.75ZM61.8124 96.8617L61.3921 97.282L61.4009 97.2904L61.8124 96.8617ZM38.4148 93.3799V92.7857H37.9286L37.8323 93.2623L38.4148 93.3799ZM32.5654 122.348L31.9829 122.231L31.8392 122.943H32.5654V122.348ZM38.5541 42.7222H56.6594V41.5338H38.5541V42.7222ZM56.6594 42.7222C65.3087 42.7222 71.5305 44.748 75.4586 48.6761L76.299 47.8358C72.0565 43.5933 65.4653 41.5338 56.6594 41.5338V42.7222ZM75.4683 48.6856C79.4477 52.4881 80.7502 58.0984 79.1963 65.6849L80.3606 65.9234C81.9635 58.0972 80.6663 52.0087 76.2894 47.8263L75.4683 48.6856ZM79.1953 65.6898C78.2891 70.3117 76.0656 74.7725 72.4968 79.0733L73.4114 79.8322C77.0848 75.4053 79.4109 70.767 80.3616 65.9185L79.1953 65.6898ZM72.492 79.0792C69.0211 83.3722 63.8824 87.6013 57.047 91.758L57.6645 92.7734C64.5705 88.5738 69.8307 84.261 73.4162 79.8264L72.492 79.0792ZM57.8809 91.9877L54.1206 84.8848L53.0702 85.4409L56.8306 92.5438L57.8809 91.9877ZM53.8889 85.6795C58.0476 83.3167 61.5462 80.1961 64.381 76.3219L63.4219 75.6201C60.6859 79.3593 57.3138 82.3667 53.3018 84.6462L53.8889 85.6795ZM64.381 76.3219C67.2103 72.4552 69.0604 68.4314 69.9152 64.252L68.7509 64.0138C67.9345 68.005 66.1635 71.8732 63.4219 75.6201L64.381 76.3219ZM69.9175 64.2402C70.7693 59.6028 70.0935 56.0505 67.6455 53.8066L66.8425 54.6826C68.8512 56.524 69.5681 59.5639 68.7486 64.0255L69.9175 64.2402ZM67.6642 53.8244C66.4931 52.6534 64.7783 51.8145 62.5833 51.2657C60.3846 50.716 57.6629 50.4471 54.431 50.4471V51.6356C57.6056 51.6356 60.2227 51.9006 62.295 52.4187C64.3709 52.9376 65.8594 53.7004 66.8238 54.6648L67.6642 53.8244ZM54.431 50.4471H46.7711V51.6356H54.431V50.4471ZM46.1884 50.9248L39.5034 84.35L40.6687 84.5831L47.3538 51.1579L46.1884 50.9248ZM40.0861 85.0608H56.6594V83.8723H40.0861V85.0608ZM56.3431 84.9696L61.2176 88.0336L61.8501 87.0274L56.9756 83.9634L56.3431 84.9696ZM61.3923 88.1076C66.1934 89.2852 69.6723 91.623 71.8968 95.0933L72.8973 94.4519C70.4794 90.6801 66.7162 88.1898 61.6754 86.9534L61.3923 88.1076ZM71.8968 95.0933C74.1102 98.5463 74.7195 103.019 73.6245 108.585L74.7906 108.814C75.924 103.053 75.3262 98.2411 72.8973 94.4519L71.8968 95.0933ZM73.6255 108.58C72.1682 115.685 68.6739 121.117 63.1467 124.923L63.8207 125.902C69.6209 121.908 73.2758 116.199 74.7897 108.819L73.6255 108.58ZM63.1467 124.923C57.6028 128.74 50.671 130.668 42.3144 130.668V131.856C50.8561 131.856 58.0371 129.884 63.8207 125.902L63.1467 124.923ZM42.3144 130.668H20.7273V131.856H42.3144V130.668ZM21.31 131.378L39.1368 42.2445L37.9714 42.0115L20.1446 131.145L21.31 131.378ZM41.8966 122.943C48.7313 122.943 53.9853 121.682 57.5667 119.068L56.8662 118.108C53.5769 120.508 48.6177 121.754 41.8966 121.754V122.943ZM57.575 119.062C61.1547 116.353 63.4431 112.261 64.4849 106.863L63.318 106.637C62.3172 111.823 60.1489 115.624 56.8579 118.114L57.575 119.062ZM64.4827 106.874C65.4356 102.395 64.7474 98.8555 62.2239 96.433L61.4009 97.2904C63.5198 99.3245 64.2243 102.378 63.3203 106.626L64.4827 106.874ZM62.2326 96.4415C59.7305 93.9394 55.0545 92.7857 48.4423 92.7857V93.9741C55.0145 93.9741 59.252 95.1416 61.3922 97.2819L62.2326 96.4415ZM48.4423 92.7857H38.4148V93.9741H48.4423V92.7857ZM37.8323 93.2623L31.9829 122.231L33.1479 122.466L38.9973 93.4975L37.8323 93.2623ZM32.5654 122.943H41.8966V121.754H32.5654V122.943ZM86.2573 126.805L85.7897 127.172L85.7951 127.179L85.8008 127.185L86.2573 126.805ZM84.5861 109.814L84.0035 109.697L84.0034 109.697L84.5861 109.814ZM92.8031 68.8681V68.2739H92.3163L92.2205 68.7512L92.8031 68.8681ZM102.831 68.8681L103.413 68.9858L103.557 68.2739H102.831V68.8681ZM94.6136 109.535L94.0311 109.418L94.0297 109.425L94.6136 109.535ZM94.4744 119.981L93.9243 120.206L93.9282 120.215L94.4744 119.981ZM111.187 119.981L111.474 120.501L111.479 120.498L111.187 119.981ZM121.493 112.321L121.925 111.913L121.518 111.481L121.085 111.888L121.493 112.321ZM126.089 117.195L126.545 117.577L126.884 117.172L126.521 116.788L126.089 117.195ZM113.415 127.501L113.124 126.984L113.415 127.501ZM117.733 122.348L117.15 122.232L117.142 122.271L117.14 122.311L117.733 122.348ZM128.457 68.8681V68.2739H127.97L127.874 68.7513L128.457 68.8681ZM138.484 68.8681L139.067 68.9852L139.21 68.2739H138.484V68.8681ZM127.76 122.209L127.178 122.092L127.176 122.101L127.174 122.11L127.76 122.209ZM126.228 131.262V131.856H126.73L126.814 131.361L126.228 131.262ZM117.176 131.262L116.583 131.225L116.543 131.856H117.176V131.262ZM98.5132 131.225C93.2586 131.225 89.36 129.6 86.7138 126.425L85.8008 127.185C88.7255 130.695 92.9975 132.413 98.5132 132.413V131.225ZM86.725 126.438C84.2015 123.219 83.5978 117.785 85.1688 109.93L84.0034 109.697C82.4175 117.627 82.9281 123.521 85.7897 127.172L86.725 126.438ZM85.1687 109.931L93.3857 68.985L92.2205 68.7512L84.0035 109.697L85.1687 109.931ZM92.8031 69.4623H102.831V68.2739H92.8031V69.4623ZM102.248 68.7504L94.0312 109.418L95.1961 109.653L103.413 68.9858L102.248 68.7504ZM94.0297 109.425C93.5616 111.906 93.3121 114.043 93.2883 115.83C93.2646 117.609 93.464 119.08 93.9244 120.206L95.0243 119.756C94.6491 118.839 94.4539 117.547 94.4766 115.845C94.4992 114.15 94.7372 112.086 95.1976 109.646L94.0297 109.425ZM93.9282 120.215C94.9083 122.502 97.3712 123.5 100.881 123.5V122.311C97.5198 122.311 95.7117 121.359 95.0205 119.747L93.9282 120.215ZM100.881 123.5C104.343 123.5 107.876 122.489 111.474 120.501L110.9 119.461C107.441 121.372 104.104 122.311 100.881 122.311V123.5ZM111.479 120.498C115.145 118.43 118.619 115.848 121.901 112.753L121.085 111.888C117.868 114.922 114.471 117.446 110.895 119.463L111.479 120.498ZM121.061 112.728L125.657 117.603L126.521 116.788L121.925 111.913L121.061 112.728ZM125.633 116.814C122.342 120.745 118.176 124.136 113.124 126.984L113.707 128.019C118.868 125.11 123.151 121.631 126.545 117.577L125.633 116.814ZM113.124 126.984C108.087 129.823 103.219 131.225 98.5132 131.225V132.413C103.463 132.413 108.53 130.937 113.707 128.019L113.124 126.984ZM118.315 122.465L129.039 68.9849L127.874 68.7513L117.15 122.232L118.315 122.465ZM128.457 69.4623H138.484V68.2739H128.457V69.4623ZM137.902 68.751L127.178 122.092L128.343 122.326L139.067 68.9852L137.902 68.751ZM127.174 122.11L125.642 131.163L126.814 131.361L128.346 122.308L127.174 122.11ZM126.228 130.668H117.176V131.856H126.228V130.668ZM117.769 131.299L118.326 122.385L117.14 122.311L116.583 131.225L117.769 131.299ZM173.374 51.0414L173.958 51.1553L174.096 50.4471H173.374V51.0414ZM169.893 68.8681L169.309 68.7542L169.171 69.4623H169.893V68.8681ZM191.898 68.8681L192.48 68.9864L192.625 68.2739H191.898V68.8681ZM190.087 77.7815V78.3757H190.573L190.669 77.8998L190.087 77.7815ZM168.082 77.7815V77.1873H167.595L167.5 77.6645L168.082 77.7815ZM160.979 113.156L161.561 113.276L161.562 113.273L160.979 113.156ZM161.536 120.677L161.016 120.964L161.022 120.975L161.536 120.677ZM181.452 122.209L182.046 122.191L182.025 121.509L181.352 121.623L181.452 122.209ZM181.731 131.122L181.836 131.707L182.341 131.616L182.325 131.104L181.731 131.122ZM151.37 111.485L150.787 111.369L150.787 111.37L151.37 111.485ZM158.055 77.9208L158.637 78.0368L158.771 77.3644L158.087 77.3274L158.055 77.9208ZM147.748 77.3637L147.165 77.249L147.033 77.9201L147.716 77.957L147.748 77.3637ZM149.42 68.8681V68.2739H148.931L148.837 68.7534L149.42 68.8681ZM159.865 68.8681V69.4623H160.355L160.448 68.982L159.865 68.8681ZM163.347 51.0414V50.4471H162.858L162.764 50.9275L163.347 51.0414ZM172.791 50.9275L169.309 68.7542L170.476 68.982L173.958 51.1553L172.791 50.9275ZM169.893 69.4623H191.898V68.2739H169.893V69.4623ZM191.315 68.7498L189.505 77.6632L190.669 77.8998L192.48 68.9864L191.315 68.7498ZM190.087 77.1873H168.082V78.3757H190.087V77.1873ZM167.5 77.6645L160.397 113.039L161.562 113.273L168.665 77.8985L167.5 77.6645ZM160.397 113.037C159.733 116.263 159.899 118.932 161.016 120.963L162.057 120.391C161.132 118.708 160.926 116.364 161.561 113.276L160.397 113.037ZM161.022 120.975C162.212 123.031 164.833 123.917 168.5 123.917V122.729C164.925 122.729 162.903 121.852 162.051 120.379L161.022 120.975ZM168.5 123.917C172.806 123.917 177.156 123.543 181.552 122.795L181.352 121.623C177.02 122.361 172.736 122.729 168.5 122.729V123.917ZM180.858 122.228L181.137 131.141L182.325 131.104L182.046 122.191L180.858 122.228ZM181.625 130.538C177.019 131.367 172.319 131.782 167.525 131.782V132.97C172.388 132.97 177.158 132.549 181.836 131.707L181.625 130.538ZM167.525 131.782C161.022 131.782 156.546 130.087 153.92 126.849L152.997 127.597C155.942 131.229 160.844 132.97 167.525 132.97V131.782ZM153.92 126.849C151.3 123.617 150.573 118.59 151.953 111.6L150.787 111.37C149.381 118.493 150.047 123.958 152.997 127.597L153.92 126.849ZM151.952 111.601L158.637 78.0368L157.472 77.8047L150.787 111.369L151.952 111.601ZM158.087 77.3274L147.781 76.7703L147.716 77.957L158.023 78.5141L158.087 77.3274ZM148.332 77.4784L150.003 68.9828L148.837 68.7534L147.165 77.249L148.332 77.4784ZM149.42 69.4623H159.865V68.2739H149.42V69.4623ZM160.448 68.982L163.93 51.1553L162.764 50.9275L159.282 68.7542L160.448 68.982ZM163.347 51.6356H173.374V50.4471H163.347V51.6356ZM232.916 51.0414L233.499 51.1553L233.637 50.4471H232.916V51.0414ZM229.434 68.8681L228.851 68.7542L228.713 69.4623H229.434V68.8681ZM251.439 68.8681L252.021 68.9864L252.166 68.2739H251.439V68.8681ZM249.628 77.7815V78.3757H250.114L250.211 77.8998L249.628 77.7815ZM227.623 77.7815V77.1873H227.137L227.041 77.6645L227.623 77.7815ZM220.521 113.156L221.103 113.276L221.103 113.273L220.521 113.156ZM221.078 120.677L220.557 120.964L220.563 120.975L221.078 120.677ZM240.994 122.209L241.587 122.191L241.566 121.509L240.894 121.623L240.994 122.209ZM241.272 131.122L241.377 131.707L241.882 131.616L241.866 131.104L241.272 131.122ZM210.911 111.485L210.328 111.369L210.328 111.37L210.911 111.485ZM217.596 77.9208L218.179 78.0368L218.313 77.3644L217.628 77.3274L217.596 77.9208ZM207.29 77.3637L206.707 77.249L206.575 77.9201L207.258 77.957L207.29 77.3637ZM208.961 68.8681V68.2739H208.472L208.378 68.7534L208.961 68.8681ZM219.406 68.8681V69.4623H219.896L219.99 68.982L219.406 68.8681ZM222.888 51.0414V50.4471H222.399L222.305 50.9275L222.888 51.0414ZM232.333 50.9275L228.851 68.7542L230.017 68.982L233.499 51.1553L232.333 50.9275ZM229.434 69.4623H251.439V68.2739H229.434V69.4623ZM250.857 68.7498L249.046 77.6632L250.211 77.8998L252.021 68.9864L250.857 68.7498ZM249.628 77.1873H227.623V78.3757H249.628V77.1873ZM227.041 77.6645L219.938 113.039L221.103 113.273L228.206 77.8985L227.041 77.6645ZM219.939 113.037C219.274 116.263 219.44 118.932 220.557 120.963L221.598 120.391C220.673 118.708 220.467 116.364 221.103 113.276L219.939 113.037ZM220.563 120.975C221.754 123.031 224.374 123.917 228.041 123.917V122.729C224.466 122.729 222.444 121.852 221.592 120.379L220.563 120.975ZM228.041 123.917C232.347 123.917 236.698 123.543 241.093 122.795L240.894 121.623C236.562 122.361 232.278 122.729 228.041 122.729V123.917ZM240.4 122.228L240.678 131.141L241.866 131.104L241.587 122.191L240.4 122.228ZM241.167 130.538C236.56 131.367 231.86 131.782 227.066 131.782V132.97C231.929 132.97 236.699 132.549 241.377 131.707L241.167 130.538ZM227.066 131.782C220.563 131.782 216.088 130.087 213.462 126.849L212.538 127.597C215.483 131.229 220.385 132.97 227.066 132.97V131.782ZM213.462 126.849C210.841 123.617 210.114 118.59 211.494 111.6L210.328 111.37C208.922 118.493 209.588 123.958 212.538 127.597L213.462 126.849ZM211.494 111.601L218.179 78.0368L217.013 77.8047L210.328 111.369L211.494 111.601ZM217.628 77.3274L207.322 76.7703L207.258 77.957L217.564 78.5141L217.628 77.3274ZM207.873 77.4784L209.544 68.9828L208.378 68.7534L206.707 77.249L207.873 77.4784ZM208.961 69.4623H219.406V68.2739H208.961V69.4623ZM219.99 68.982L223.471 51.1553L222.305 50.9275L218.823 68.7542L219.99 68.982ZM222.888 51.6356H232.916V50.4471H222.888V51.6356ZM264.464 123.741L263.921 123.984L263.924 123.991L264.464 123.741ZM263.349 99.2293L263.932 99.3469L263.932 99.3458L263.349 99.2293ZM273.656 75.8317L273.204 75.445L273.201 75.4492L273.656 75.8317ZM312.652 100.901L313.234 101.018L313.234 101.018L312.652 100.901ZM302.067 124.298L301.616 123.911L301.616 123.911L302.067 124.298ZM294.964 118.588L294.507 118.209L294.506 118.21L294.964 118.588ZM302.345 99.2293L301.762 99.114L301.762 99.1162L302.345 99.2293ZM302.624 81.2633L302.071 81.4815L302.076 81.4939L302.624 81.2633ZM273.656 100.901L274.237 101.021L274.237 101.021L273.656 100.901ZM273.238 119.006L272.69 119.236L272.692 119.242L273.238 119.006ZM282.012 132.478C277.668 132.478 274.103 131.712 271.288 130.215C268.482 128.723 266.39 126.489 265.003 123.492L263.924 123.991C265.416 127.214 267.687 129.646 270.73 131.264C273.765 132.878 277.535 133.667 282.012 133.667V132.478ZM265.006 123.498C262.291 117.435 261.902 109.405 263.932 99.3469L262.767 99.1117C260.712 109.295 261.065 117.605 263.921 123.984L265.006 123.498ZM263.932 99.3458C265.868 89.6662 269.27 81.9676 274.11 76.2142L273.201 75.4492C268.199 81.3946 264.73 89.2944 262.767 99.1128L263.932 99.3458ZM274.107 76.2184C278.996 70.5144 285.555 67.6518 293.85 67.6518V66.4634C285.246 66.4634 278.343 69.4501 273.204 75.445L274.107 76.2184ZM293.85 67.6518C298.194 67.6518 301.758 68.4181 304.573 69.915C307.379 71.4072 309.472 73.6412 310.859 76.6383L311.937 76.1393C310.446 72.9156 308.175 70.484 305.131 68.8657C302.097 67.2522 298.326 66.4634 293.85 66.4634V67.6518ZM310.859 76.6383C313.663 82.6996 314.099 90.7271 312.069 100.783L313.234 101.018C315.29 90.8332 314.889 82.5196 311.937 76.1393L310.859 76.6383ZM312.069 100.783C310.134 110.365 306.642 118.063 301.616 123.911L302.518 124.685C307.705 118.649 311.269 110.749 313.234 101.018L312.069 100.783ZM301.616 123.911C296.725 129.617 290.211 132.478 282.012 132.478V133.667C290.525 133.667 297.381 130.678 302.518 124.685L301.616 123.911ZM282.43 124.753C287.879 124.753 292.233 122.832 295.422 118.966L294.506 118.21C291.567 121.772 287.565 123.565 282.43 123.565V124.753ZM295.421 118.967C298.676 115.042 301.16 108.468 302.929 99.3424L301.762 99.1162C300.003 108.189 297.565 114.52 294.507 118.209L295.421 118.967ZM302.928 99.3446C303.768 95.0989 304.216 91.4518 304.263 88.4102C304.31 85.375 303.959 82.9033 303.172 81.0327L302.076 81.4939C302.774 83.1515 303.12 85.4382 303.074 88.3917C303.029 91.3387 302.594 94.9106 301.763 99.114L302.928 99.3446ZM303.177 81.0451C302.435 79.1657 301.235 77.7333 299.578 76.7791C297.93 75.8304 295.87 75.3767 293.432 75.3767V76.5652C295.73 76.5652 297.569 76.9936 298.985 77.809C300.392 78.6189 301.42 79.8327 302.071 81.4815L303.177 81.0451ZM293.432 75.3767C288.066 75.3767 283.759 77.3516 280.574 81.3085L281.5 82.0537C284.443 78.3971 288.399 76.5652 293.432 76.5652V75.3767ZM280.574 81.3085C277.419 85.2285 274.936 91.7498 273.074 100.781L274.237 101.021C276.089 92.0389 278.527 85.7472 281.5 82.0537L280.574 81.3085ZM273.074 100.78C272.187 105.072 271.705 108.754 271.634 111.82C271.563 114.878 271.901 117.363 272.69 119.236L273.785 118.775C273.088 117.12 272.753 114.824 272.822 111.847C272.891 108.877 273.36 105.271 274.237 101.021L273.074 100.78ZM272.692 119.242C273.483 121.071 274.706 122.462 276.359 123.389C278.004 124.311 280.038 124.753 282.43 124.753V123.565C280.179 123.565 278.36 123.148 276.94 122.352C275.53 121.561 274.478 120.377 273.783 118.77L272.692 119.242ZM329.158 77.9208L329.741 78.0379L329.742 78.0289L329.744 78.0199L329.158 77.9208ZM330.69 68.8681V68.2739H330.188L330.104 68.769L330.69 68.8681ZM339.743 68.8681L340.336 68.9052L340.375 68.2739H339.743V68.8681ZM339.186 77.7815L339.768 77.8983L339.776 77.8588L339.779 77.8186L339.186 77.7815ZM328.462 131.262V131.856H328.949L329.044 131.379L328.462 131.262ZM318.434 131.262L317.852 131.145L317.708 131.856H318.434V131.262ZM362.305 90.5945L362.887 90.7122L362.889 90.7046L362.305 90.5945ZM362.444 80.2884L361.894 80.5134L361.898 80.5225L362.444 80.2884ZM345.592 80.2884L345.879 80.8085L345.884 80.8059L345.592 80.2884ZM335.425 87.809L334.993 88.2167L335.4 88.649L335.833 88.2414L335.425 87.809ZM330.829 82.9345L330.374 82.5531L330.035 82.958L330.397 83.3422L330.829 82.9345ZM370.522 73.4641L370.054 73.8306L370.059 73.8377L370.065 73.8445L370.522 73.4641ZM372.332 90.3159L372.915 90.4328L372.915 90.4325L372.332 90.3159ZM364.115 131.262V131.856H364.602L364.698 131.379L364.115 131.262ZM354.088 131.262L353.505 131.144L353.361 131.856H354.088V131.262ZM329.744 78.0199L331.276 68.9673L330.104 68.769L328.572 77.8216L329.744 78.0199ZM330.69 69.4623H339.743V68.2739H330.69V69.4623ZM339.15 68.8311L338.592 77.7444L339.779 77.8186L340.336 68.9052L339.15 68.8311ZM338.603 77.6647L327.879 131.145L329.044 131.379L339.768 77.8983L338.603 77.6647ZM328.462 130.668H318.434V131.856H328.462V130.668ZM319.017 131.379L329.741 78.0379L328.575 77.8036L317.852 131.145L319.017 131.379ZM362.889 90.7046C363.357 88.2243 363.606 86.0989 363.63 84.3353C363.654 82.5798 363.455 81.1386 362.99 80.0543L361.898 80.5225C362.269 81.388 362.464 82.6393 362.442 84.3192C362.419 85.991 362.181 88.0437 361.721 90.4843L362.889 90.7046ZM362.994 80.0634C362.02 77.6835 359.561 76.6302 356.037 76.6302V77.8186C359.384 77.8186 361.196 78.808 361.894 80.5134L362.994 80.0634ZM356.037 76.6302C352.57 76.6302 348.989 77.69 345.3 79.7708L345.884 80.8059C349.437 78.8014 352.819 77.8186 356.037 77.8186V76.6302ZM345.305 79.7683C341.728 81.7446 338.3 84.2822 335.018 87.3767L335.833 88.2414C339.05 85.208 342.399 82.7318 345.879 80.8085L345.305 79.7683ZM335.858 87.4014L331.262 82.5269L330.397 83.3422L334.993 88.2167L335.858 87.4014ZM331.285 83.316C334.576 79.3849 338.743 75.9936 343.795 73.1461L343.211 72.1108C338.05 75.0198 333.767 78.4993 330.374 82.5531L331.285 83.316ZM343.795 73.1461C348.831 70.3073 353.699 68.9053 358.405 68.9053V67.7168C353.455 67.7168 348.388 69.193 343.211 72.1108L343.795 73.1461ZM358.405 68.9053C363.655 68.9053 367.5 70.5724 370.054 73.8306L370.989 73.0975C368.158 69.485 363.926 67.7168 358.405 67.7168V68.9053ZM370.065 73.8445C372.668 76.9678 373.321 82.3439 371.749 90.1994L372.915 90.4325C374.501 82.5038 373.946 76.6453 370.978 73.0837L370.065 73.8445ZM371.75 90.199L363.533 131.145L364.698 131.379L372.915 90.4328L371.75 90.199ZM364.115 130.668H354.088V131.856H364.115V130.668ZM354.67 131.379L362.887 90.7122L361.722 90.4768L353.505 131.144L354.67 131.379Z" fill="#961600" mask="url(#path-12-outside-1_11_263)"/>
<mask id="path-14-outside-2_11_263" maskUnits="userSpaceOnUse" x="352.155" y="122.426" width="38" height="58" fill="black">
<rect fill="white" x="352.155" y="122.426" width="38" height="58"/>
<path fill-rule="evenodd" clip-rule="evenodd" d="M385.208 154.218C385.719 154.171 385.935 153.543 385.56 153.192L357.156 126.587C356.776 126.232 356.155 126.502 356.155 127.022L356.211 166.115C356.212 166.635 356.833 166.904 357.212 166.548L365.027 159.219L366.075 158.234C366.375 157.952 366.865 158.054 367.027 158.433L367.595 159.754L374.542 175.87C374.672 176.173 375.025 176.312 375.327 176.179L379.779 174.221C380.083 174.088 380.218 173.732 380.081 173.43L372.801 157.49L372.21 156.189C372.041 155.817 372.291 155.389 372.698 155.352L374.119 155.224L385.208 154.218Z"/>
</mask>
<path fill-rule="evenodd" clip-rule="evenodd" d="M385.208 154.218C385.719 154.171 385.935 153.543 385.56 153.192L357.156 126.587C356.776 126.232 356.155 126.502 356.155 127.022L356.211 166.115C356.212 166.635 356.833 166.904 357.212 166.548L365.027 159.219L366.075 158.234C366.375 157.952 366.865 158.054 367.027 158.433L367.595 159.754L374.542 175.87C374.672 176.173 375.025 176.312 375.327 176.179L379.779 174.221C380.083 174.088 380.218 173.732 380.081 173.43L372.801 157.49L372.21 156.189C372.041 155.817 372.291 155.389 372.698 155.352L374.119 155.224L385.208 154.218Z" fill="white"/>
<path d="M365.027 159.219L367.466 161.819L367.467 161.818L365.027 159.219ZM367.595 159.754L364.319 161.161L364.321 161.165L367.595 159.754ZM372.801 157.49L369.555 158.964L369.558 158.971L372.801 157.49ZM374.119 155.224L374.439 158.775L374.441 158.775L374.119 155.224ZM372.698 155.352L372.378 151.801L372.698 155.352ZM379.779 174.221L381.215 177.485L379.779 174.221ZM380.081 173.43L383.324 171.949L380.081 173.43ZM366.075 158.234L368.515 160.833L366.075 158.234ZM367.027 158.433L370.303 157.025L367.027 158.433ZM374.542 175.87L371.268 177.282L374.542 175.87ZM375.327 176.179L376.762 179.443L375.327 176.179ZM385.56 153.192L387.998 150.59L385.56 153.192ZM385.208 154.218L384.886 150.667L385.208 154.218ZM357.156 126.587L354.719 129.19L357.156 126.587ZM354.719 129.19L383.123 155.794L387.998 150.59L359.593 123.985L354.719 129.19ZM359.777 166.11L359.721 127.017L352.59 127.027L352.646 166.121L359.777 166.11ZM362.587 156.618L354.773 163.947L359.651 169.148L367.466 161.819L362.587 156.618ZM363.634 155.635L362.586 156.62L367.467 161.818L368.515 160.833L363.634 155.635ZM370.871 158.346L370.303 157.025L363.752 159.84L364.319 161.161L370.871 158.346ZM377.816 174.459L370.869 158.343L364.321 161.165L371.268 177.282L377.816 174.459ZM378.344 170.957L373.892 172.915L376.762 179.443L381.215 177.485L378.344 170.957ZM369.558 158.971L376.838 174.911L383.324 171.949L376.044 156.009L369.558 158.971ZM368.964 157.664L369.555 158.964L376.047 156.016L375.457 154.715L368.964 157.664ZM373.799 151.673L372.378 151.801L373.018 158.903L374.439 158.775L373.799 151.673ZM384.886 150.667L373.797 151.673L374.441 158.775L385.53 157.768L384.886 150.667ZM375.457 154.715C376.303 156.578 375.056 158.719 373.018 158.903L372.378 151.801C369.525 152.058 367.78 155.055 368.964 157.664L375.457 154.715ZM381.215 177.485C383.339 176.551 384.288 174.06 383.324 171.949L376.838 174.911C376.149 173.404 376.827 171.625 378.344 170.957L381.215 177.485ZM368.515 160.833C367.013 162.244 364.565 161.734 363.752 159.84L370.303 157.025C369.164 154.374 365.737 153.66 363.634 155.635L368.515 160.833ZM352.646 166.121C352.651 169.76 356.997 171.638 359.651 169.148L354.773 163.947C356.669 162.169 359.773 163.511 359.777 166.11L352.646 166.121ZM371.268 177.282C372.182 179.402 374.648 180.372 376.762 179.443L373.892 172.915C375.401 172.252 377.163 172.944 377.816 174.459L371.268 177.282ZM383.123 155.794C381.251 154.041 382.331 150.899 384.886 150.667L385.53 157.768C389.106 157.444 390.618 153.045 387.998 150.59L383.123 155.794ZM359.593 123.985C356.934 121.495 352.585 123.384 352.59 127.027L359.721 127.017C359.724 129.619 356.618 130.969 354.719 129.19L359.593 123.985Z" fill="#961600" mask="url(#path-14-outside-2_11_263)"/>
</svg>
