<svg width="38" height="38" viewBox="0 0 38 38" fill="none" xmlns="http://www.w3.org/2000/svg">
<g clip-path="url(#clip0_471_60)">
<path d="M19 0C13.962 0 9.12594 2.00302 5.56641 5.56492C2.0032 9.12824 0.00098702 13.9608 0 19C0 24.0371 2.00391 28.8732 5.56641 32.4351C9.12594 35.997 13.962 38 19 38C24.038 38 28.8741 35.997 32.4336 32.4351C35.9961 28.8732 38 24.0371 38 19C38 13.9629 35.9961 9.12683 32.4336 5.56492C28.8741 2.00302 24.038 0 19 0Z" fill="url(#paint0_linear_471_60)"/>
<path d="M8.60034 18.7996C14.14 16.3866 17.8332 14.7956 19.6797 14.027C24.9582 11.8322 26.0536 11.451 26.7691 11.4381C26.9264 11.4356 27.2767 11.4745 27.5053 11.6593C27.6953 11.8151 27.7488 12.0259 27.7755 12.1739C27.7992 12.3217 27.8319 12.6587 27.8052 12.9217C27.5202 15.9261 26.2822 23.2168 25.6528 26.5818C25.3886 28.0057 24.8632 28.483 24.3555 28.5296C23.2511 28.6312 22.4139 27.8005 21.3452 27.1002C19.6738 26.0038 18.7297 25.3216 17.1058 24.252C15.2296 23.0158 16.4467 22.3362 17.5155 21.2259C17.7946 20.9353 22.6574 16.5133 22.7494 16.1122C22.7613 16.0621 22.7732 15.875 22.6603 15.7765C22.5505 15.6776 22.3872 15.7115 22.2685 15.7382C22.0992 15.7762 19.4303 17.542 14.2528 21.0353C13.4958 21.556 12.81 21.8099 12.1925 21.7965C11.5157 21.782 10.2094 21.413 9.23862 21.0977C8.05112 20.7108 7.10409 20.5063 7.18721 19.8493C7.22878 19.5073 7.70081 19.1573 8.60034 18.7996Z" fill="white"/>
</g>
<defs>
<linearGradient id="paint0_linear_471_60" x1="1900" y1="0" x2="1900" y2="3800" gradientUnits="userSpaceOnUse">
<stop stop-color="#2AABEE"/>
<stop offset="1" stop-color="#229ED9"/>
</linearGradient>
<clipPath id="clip0_471_60">
<rect width="38" height="38" fill="white"/>
</clipPath>
</defs>
</svg>
