<svg width="580" height="262" viewBox="0 0 580 262" fill="none" xmlns="http://www.w3.org/2000/svg">
<path d="M653.846 56.3275C666.39 62.4231 677.553 70.9706 686.067 82.2737C701.69 102.536 720.942 118.791 737.412 138.128C743.512 144.864 749.527 152.43 750.939 163.051C750.84 173.445 746.858 185.465 739.248 195.145C732.309 205.362 722.357 212.335 712.689 217.79C698.036 225.647 683.195 228.801 668.67 231.801C624.068 240.564 579.96 246.392 535.993 251.663C507.834 254.925 479.799 257.58 451.935 259.566C430.901 260.808 409.841 262.013 389.441 261.045C376.984 260.374 365.586 256.992 352.993 256.706C307.4 253.859 260.192 256.028 214.619 253.099C191.22 251.52 167.428 249.923 147.188 241.112C138.403 236.211 129.094 232.164 119.002 229.614C91.1919 221.192 61.937 215.583 35.5631 204.361C25.9187 200.492 17.4833 194.588 9.78492 187.871C3.56179 181.684 -0.851375 172.412 0.748708 160.995C2.14593 152.01 7.12089 143.056 11.7896 134.516C30.2658 102.326 57.3593 74.6595 86.5325 55.1573C105.542 42.8593 125.647 32.5004 145.179 29.1538C161.863 26.181 177.987 27.2015 191.692 32.624C195.607 33.6623 198.776 36.4775 203.027 36.6584C225.973 20.8703 250.627 9.0669 274.343 5.13264C286.632 3.21351 298.581 3.54697 309.184 6.66913C317.5 9.84419 326.221 12.9304 332.236 19.5261C332.744 20.8153 333.698 21.1728 335.124 20.599C340.153 18.8513 345.014 15.5026 349.979 13.1831C374.055 1.26276 399.578 -3.44874 419.845 3.47853C428.304 6.3704 436.439 10.2657 442.901 16.2214C443.521 17.3221 444.532 17.5473 445.942 16.9035C457.128 12.671 467.451 14.3426 478.537 10.7935C519.249 1.06889 559.842 6.85019 582.8 34.9598C586.612 38.6983 588.683 45.5936 595.413 44.9128C616.69 43.9663 636.355 48.448 653.846 56.3275ZM622.432 52.9426C624.224 55.5141 626.751 57.6786 627.072 61.4702C628.121 70.0746 624.153 80.0464 620.376 89.2283C613.383 103.891 604.875 118.478 593.806 130.857C589.273 135.536 584.137 140.72 578.525 141.646C577.062 137.824 581.474 133.619 582.529 129.468C585.134 123.483 585.464 121.776 587.341 117.131C593.743 101.292 594.836 85.1106 592.977 71.0324C589.501 50.1232 577.42 34.6413 562.126 24.8174C541.236 11.8739 513.921 9.60562 485.855 14.6069C497.512 17.9867 506.676 27.1687 508.133 41.2406C509.033 54.4918 504.152 69.5742 497.421 83.4604C490.1 99.0054 481.241 114.304 470.513 128.197C468.508 127.76 466.93 126.162 468.447 123.326C473.972 109.769 476.258 95.8703 475.508 83.3128C473.677 56.3214 459.603 36.2162 441.795 22.8391C432.213 16.124 422.536 9.00784 410.067 7.18198C390.759 3.25716 367.873 9.06921 346.331 20.3824C352.933 21.6848 359.952 22.1692 365.815 25.0013C377.633 29.6267 388.083 38.1313 391.326 52.1678C398.244 71.6088 391.85 98.5028 378.717 121.333C374.388 128.61 370.276 136.379 364.162 142.409C360.397 139.832 363.964 133.019 364.108 128.271C368.178 91.4206 358.726 58.4679 340.324 35.504C326.74 18.248 305.956 7.86861 281.376 9.84211C257.098 11.8648 230.969 23.1757 207.09 39.7673C210.013 41.7794 212.447 44.6909 216.024 45.6921C222.672 44.4645 229.57 42.2767 235.815 42.9646C246.903 43.1261 256.589 48.365 260.891 58.4286C265.103 66.9304 265.063 78.3973 262.642 89.8268C259.343 105.112 252.674 120.635 244.424 135.24C242.871 139.002 238.359 137.948 239.7 134.398C243.536 111.802 239.635 91.083 230.91 74.9245C220.279 54.9051 202.701 40.6497 180.712 35.6109C159.419 29.9233 133.522 34.3181 108.945 47.4991C101.74 51.6927 94.0567 54.8322 87.4424 60.8617C81.521 63.5405 76.087 68.2311 70.6971 72.6244C51.0498 88.2169 33.5597 108.302 19.697 130.125C13.5987 140.615 5.90585 151.943 5.59782 163.114C5.14909 174.841 12.3625 181.975 19.231 187.747C31.674 196.778 46.2382 202.759 61.4637 207.134C86.7219 215.528 113.826 220.204 138.498 229.756C146.156 232.559 152.499 237.651 160.579 239.718C183.271 245.802 207.998 247.123 232.632 248.277C256.57 249.09 280.723 249.267 304.885 249.411C327.673 249.877 350.71 249.77 372.631 252.797C390.473 256.8 410.254 255.677 429.642 255.195C478.006 252.872 527.105 247.598 576.426 241.092C586.324 239.477 596.052 239.135 606.127 236.332C609.413 236.884 613.225 235.574 616.75 235.274C631.346 233.201 646.028 230.628 660.732 227.916C675.596 224.896 690.562 222.378 705.678 215.816C713.213 212.274 720.935 208.076 727.589 201.61C738.095 192.096 746.289 177.256 745.615 164.833C745.163 157.798 741.118 153.168 737.755 148.384C729.199 137.01 719.225 127.13 709.147 117.464C699.584 107.597 690.37 97.3487 681.645 86.5687C666.92 68.6219 646.376 56.7119 622.432 52.9426ZM608.458 52.8944C603.793 51.5526 598.977 50.4875 593.706 50.6965C594.419 56.7015 597.238 61.4521 597.841 67.5695C599.624 75.5131 598.677 84.6761 598.661 93.4033C597.03 99.3017 596.257 105.156 594.501 111.078C592.755 117.882 589.325 124.583 587.258 131.382C597.24 121.479 605.172 109.28 611.573 96.8979C616.606 86.8414 621.801 76.1086 622.17 65.9535C621.469 57.9381 614.679 54.7681 608.458 52.8944ZM475.082 19.0679C467.422 17.9138 458.9 18.8391 450.388 21.2869C456.749 27.3425 462.795 33.8054 467.6 41.5048C474.464 50.9045 477.843 63.275 480.641 75.7188C480.297 80.5909 480.999 85.1116 480.78 89.9793C480.444 96.1581 479.317 102.546 478.218 108.897C487.395 95.2524 494.622 80.5304 499.756 65.6741C503.267 54.5282 504.709 42.7026 500.546 34.3538C495.473 25.0583 486.082 19.4944 475.082 19.0679ZM363.458 30.9829C359.591 28.8735 354.972 28.1097 350.576 27.0449C347.5 26.6477 344.517 25.4654 340.97 26.8749C352.88 39.5696 361.127 56.2089 365.969 74.907C368.139 82.4 368.485 90.9491 370.438 98.5529C369.573 101.679 370.226 104.473 370.187 107.397C370.567 114.145 369.773 116.301 369.63 123.225C379.336 108.244 386.38 96.5452 388.476 80.5439C391.362 57.1855 382.023 36.2794 363.458 30.9829ZM235.378 48.5832C230.548 48.6722 225.665 48.4116 220.486 50.398C226.718 57.5235 233.092 64.6766 237.122 73.9367C238.631 77.0556 239.489 80.7986 241.876 83.1701C241.815 87.4949 243.689 90.9621 244.225 95.0488C246.374 103.265 246.144 112.648 246.548 121.686C254.398 104.805 260.887 86.2151 258.655 70.501C257.062 57.4546 247.316 49.3548 235.378 48.5832Z" fill="#FFE8BE" stroke="#FFE8BE" stroke-width="0.355584"/>
<path d="M622.433 52.9425C646.376 56.7117 666.921 68.6224 681.645 86.5686C690.371 97.3486 699.584 107.597 709.148 117.464C719.226 127.13 729.199 137.01 737.756 148.383C741.119 153.168 745.164 157.798 745.616 164.833C746.289 177.256 738.095 192.096 727.589 201.61C720.936 208.076 713.213 212.274 705.679 215.816C690.563 222.378 675.597 224.895 660.733 227.916C646.029 230.628 631.347 233.201 616.751 235.274C613.226 235.574 609.414 236.884 606.127 236.331C596.749 233.146 585.345 235.624 574.86 235.599C553.079 236.773 531.086 238.762 509.585 238.862C482.171 239.472 455.648 237.267 428.431 237.207C383.533 237.206 341.175 229.786 299.499 221.299C275.418 217.039 250.961 213.725 226.678 209.956C206.205 206.857 186.534 201.886 166.261 198.314C131.479 191.888 95.9683 185.952 66.3278 169.395C57.0323 163.921 47.9757 156.954 44.4421 145.305C41.8798 136.22 45.7417 124.344 50.7817 114.04C58.0997 100.822 66.927 88.1996 76.7594 76.6328C80.9046 71.7633 84.2805 66.3237 87.4429 60.8616C94.0573 54.8321 101.741 51.6925 108.946 47.499C133.522 34.318 159.42 29.9232 180.712 35.6108C202.701 40.6496 220.279 54.9049 230.911 74.9244C239.636 91.0829 243.537 111.802 239.701 134.398C238.359 137.948 242.872 139.002 244.424 135.239C252.674 120.635 259.344 105.111 262.642 89.8267C265.064 78.3972 265.103 66.9303 260.891 58.4285C256.59 48.3649 246.904 43.126 235.816 42.9645C229.571 42.2766 222.672 44.4644 216.025 45.692C212.448 44.6908 210.014 41.7793 207.09 39.7672C230.969 23.1756 257.099 11.8646 281.377 9.842C305.956 7.86849 326.741 18.2479 340.325 35.5039C358.726 58.4678 368.179 91.4205 364.108 128.271C363.965 133.019 361.036 139.918 367.789 133.245C373.714 128.448 374.388 128.61 378.718 121.333C391.85 98.5027 398.245 71.6087 391.327 52.1677C388.084 38.1312 377.634 29.6266 365.816 25.0012C359.953 22.1691 352.934 21.6847 346.331 20.3823C367.874 9.06908 390.76 3.25705 410.068 7.18188C422.537 9.00773 432.214 16.1238 441.795 22.8389C459.603 36.2161 473.677 56.3213 475.508 83.3127C476.259 95.8702 473.972 109.769 468.447 123.325C466.93 126.162 468.509 127.76 470.514 128.197C481.242 114.304 490.1 99.0053 497.422 83.4602C504.152 69.574 509.033 54.4917 508.133 41.2404C506.676 27.1686 497.513 17.9865 485.856 14.6068C513.921 9.60551 541.236 11.8738 562.126 24.8173C577.42 34.6412 589.502 50.1231 592.978 71.0323C594.836 85.1104 593.744 101.292 587.342 117.131C585.247 121.151 583.558 125.298 582.53 129.468C581.475 133.618 577.063 137.824 578.525 141.646C584.138 140.72 589.274 135.536 593.806 130.856C604.875 118.478 613.384 103.89 620.377 89.2282C624.153 80.0462 628.122 70.0745 627.072 61.47C626.751 57.6784 624.225 55.514 622.433 52.9425Z" fill="#FFE8BE" stroke="#FFE8BE" stroke-width="0.355584"/>
<path d="M608.458 52.8948C614.679 54.7684 621.469 57.9384 622.17 65.9539C621.801 76.109 616.607 86.8417 611.574 96.8983C605.172 109.28 597.24 121.479 587.258 131.382C589.325 124.583 592.755 117.882 594.501 111.079C596.257 105.157 597.03 99.3021 598.661 93.4036C605.387 85.3399 608.292 75.4149 610.131 66.2913C611.168 61.1567 609.681 56.9669 608.458 52.8948Z" fill="#F9CF8C" stroke="#F9CF8C" stroke-width="0.355584"/>
<path d="M593.705 50.696C598.976 50.487 603.792 51.5521 608.457 52.8939C609.68 56.966 611.167 61.1566 610.129 66.2905C608.291 75.4141 605.386 85.3391 598.66 93.4028C598.676 84.6756 599.623 75.5127 597.84 67.5691C597.237 61.4516 594.419 56.7017 593.705 50.696Z" fill="#FFE8BE" stroke="#FFE8BE" stroke-width="0.355584"/>
<path d="M475.082 19.0681C486.083 19.4945 495.474 25.0584 500.547 34.3539C504.709 42.7028 503.267 54.5283 499.756 65.6743C494.623 80.5306 487.396 95.2525 478.218 108.897C479.318 102.547 480.445 96.1583 480.781 89.9795C480.999 85.1117 480.297 80.591 480.641 75.7189C486.038 66.3405 486.281 56.5196 486.347 47.5965C486.229 35.7213 481.141 26.6475 475.082 19.0681Z" fill="#F9CF8C" stroke="#F9CF8C" stroke-width="0.355584"/>
<path d="M450.388 21.2867C458.9 18.8389 467.422 17.9136 475.082 19.0677C481.14 26.6472 486.228 35.7209 486.347 47.5962C486.281 56.5193 486.038 66.3401 480.64 75.7186C477.843 63.2748 474.464 50.9043 467.6 41.5046C462.794 33.8053 456.749 27.3424 450.388 21.2867Z" fill="#FFE8BE" stroke="#FFE8BE" stroke-width="0.355584"/>
<path d="M363.458 30.9832C382.022 36.2791 391.361 57.1852 388.476 80.5443C386.38 96.5456 379.087 113.296 369.381 128.277C369.524 121.353 370.567 114.145 370.187 107.397C370.226 104.474 369.573 101.679 370.438 98.5532C374.284 89.7719 374.259 81.209 374.763 72.8827C375.206 62.2974 375.643 51.2998 371.941 42.7679C369.732 38.2559 366.412 34.7654 363.458 30.9832Z" fill="#F9CF8C" stroke="#F9CF8C" stroke-width="0.355584"/>
<path d="M350.577 27.0457C354.973 28.1106 359.592 28.8744 363.459 30.9838C366.413 34.766 369.732 38.2558 371.942 42.7684C375.644 51.3003 375.207 62.298 374.764 72.8832C374.26 81.2095 374.285 89.7726 370.439 98.5538C368.486 90.95 368.14 82.4009 365.97 74.9078C361.128 56.2098 352.881 39.5705 340.97 26.8758C344.518 25.4663 347.501 26.6486 350.577 27.0457Z" fill="#FFE8BE" stroke="#FFE8BE" stroke-width="0.355584"/>
<path d="M574.859 235.6C585.345 235.625 596.749 233.146 606.127 236.332C596.052 239.136 586.324 239.478 576.426 241.092C527.105 247.599 478.006 252.872 429.642 255.195C410.254 255.677 390.473 256.8 372.631 252.797C350.71 249.77 327.673 249.877 304.885 249.412C280.723 249.267 256.57 249.091 232.631 248.277C207.998 247.123 183.27 245.802 160.579 239.718C152.499 237.651 146.156 232.56 138.498 229.756C113.826 220.204 86.7218 215.529 61.4635 207.134C46.238 202.76 31.6738 196.778 19.2309 187.747C12.3624 181.976 5.14895 174.841 5.59768 163.114C5.90571 151.943 13.5985 140.615 19.6969 130.125C33.5596 108.302 51.0497 88.2171 70.6969 72.6246C76.0869 68.2313 81.5209 63.5407 87.4422 60.8619C84.2798 66.324 80.9039 71.7637 76.7587 76.6332C66.9263 88.2 58.099 100.823 50.781 114.04C45.741 124.344 41.8791 136.22 44.4414 145.305C47.975 156.955 57.0316 163.922 66.3271 169.395C95.9675 185.952 131.478 191.888 166.261 198.314C186.533 201.886 206.204 206.857 226.677 209.957C250.96 213.725 275.417 217.039 299.498 221.299C341.175 229.787 383.532 237.207 428.43 237.208C455.647 237.267 482.17 239.472 509.584 238.863C531.086 238.763 553.078 236.774 574.859 235.6Z" fill="#FFE8BE" stroke="#FFE8BE" stroke-width="0.355584"/>
<path d="M235.378 48.5832C247.315 49.3542 257.062 57.4547 258.655 70.5011C260.887 86.2152 254.398 104.805 246.547 121.686C246.143 112.648 246.374 103.265 244.224 95.0489C243.689 90.9622 241.815 87.495 241.875 83.1702C245.851 69.1837 240.83 57.7325 235.378 48.5832Z" fill="#F9CF8C" stroke="#F9CF8C" stroke-width="0.355584"/>
<path d="M220.487 50.3988C225.666 48.4125 230.549 48.6731 235.379 48.584C240.831 57.7333 245.852 69.1845 241.877 83.171C239.49 80.7994 238.632 77.0565 237.123 73.9376C233.093 64.6775 226.719 57.5244 220.487 50.3988Z" fill="#FFE8BE" stroke="#FFE8BE" stroke-width="0.355584"/>
<path d="M235.497 100V87.6364H239.82C240.681 87.6364 241.391 87.7853 241.951 88.0831C242.51 88.3769 242.927 88.7733 243.2 89.2724C243.474 89.7674 243.611 90.3168 243.611 90.9205C243.611 91.4517 243.516 91.8904 243.327 92.2365C243.142 92.5826 242.896 92.8563 242.591 93.0575C242.289 93.2588 241.961 93.4077 241.607 93.5043V93.625C241.985 93.6491 242.365 93.782 242.748 94.0234C243.13 94.2649 243.45 94.611 243.707 95.0618C243.965 95.5125 244.094 96.0639 244.094 96.7159C244.094 97.3357 243.953 97.8931 243.671 98.3881C243.389 98.8832 242.945 99.2756 242.337 99.5653C241.729 99.8551 240.938 100 239.964 100H235.497ZM236.994 98.6719H239.964C240.942 98.6719 241.637 98.4827 242.047 98.1044C242.462 97.7221 242.669 97.2592 242.669 96.7159C242.669 96.2973 242.562 95.911 242.349 95.5568C242.136 95.1986 241.832 94.9129 241.438 94.6996C241.043 94.4822 240.576 94.3736 240.037 94.3736H236.994V98.6719ZM236.994 93.0696H239.771C240.222 93.0696 240.629 92.9811 240.991 92.804C241.357 92.6269 241.647 92.3774 241.86 92.0554C242.077 91.7334 242.186 91.3551 242.186 90.9205C242.186 90.3771 241.997 89.9163 241.619 89.538C241.24 89.1557 240.641 88.9645 239.82 88.9645H236.994V93.0696ZM252.204 96.2088V90.7273H253.629V100H252.204V98.4304H252.108C251.89 98.9013 251.552 99.3017 251.094 99.6317C250.635 99.9577 250.055 100.121 249.355 100.121C248.775 100.121 248.26 99.994 247.809 99.7404C247.359 99.4828 247.005 99.0965 246.747 98.5813C246.489 98.0621 246.361 97.4081 246.361 96.6193V90.7273H247.785V96.5227C247.785 97.1989 247.974 97.7382 248.353 98.1406C248.735 98.5431 249.222 98.7443 249.814 98.7443C250.168 98.7443 250.528 98.6538 250.894 98.4727C251.265 98.2915 251.575 98.0138 251.824 97.6396C252.078 97.2653 252.204 96.7884 252.204 96.2088ZM260.271 90.7273V91.9347H255.466V90.7273H260.271ZM256.866 88.5057H258.291V97.3438C258.291 97.7462 258.349 98.0481 258.466 98.2493C258.587 98.4465 258.74 98.5793 258.925 98.6477C259.114 98.7121 259.313 98.7443 259.523 98.7443C259.68 98.7443 259.808 98.7363 259.909 98.7202C260.01 98.7 260.09 98.6839 260.15 98.6719L260.44 99.9517C260.344 99.9879 260.209 100.024 260.036 100.06C259.863 100.101 259.643 100.121 259.378 100.121C258.975 100.121 258.581 100.034 258.195 99.8612C257.812 99.6881 257.494 99.4245 257.241 99.0703C256.991 98.7161 256.866 98.2694 256.866 97.7301V88.5057ZM266.447 90.7273V91.9347H261.642V90.7273H266.447ZM263.042 88.5057H264.467V97.3438C264.467 97.7462 264.525 98.0481 264.642 98.2493C264.763 98.4465 264.916 98.5793 265.101 98.6477C265.29 98.7121 265.489 98.7443 265.698 98.7443C265.855 98.7443 265.984 98.7363 266.085 98.7202C266.185 98.7 266.266 98.6839 266.326 98.6719L266.616 99.9517C266.519 99.9879 266.385 100.024 266.212 100.06C266.039 100.101 265.819 100.121 265.554 100.121C265.151 100.121 264.757 100.034 264.37 99.8612C263.988 99.6881 263.67 99.4245 263.416 99.0703C263.167 98.7161 263.042 98.2694 263.042 97.7301V88.5057ZM272.258 100.193C271.42 100.193 270.686 99.994 270.054 99.5955C269.426 99.1971 268.935 98.6397 268.581 97.9233C268.231 97.2069 268.056 96.3698 268.056 95.4119C268.056 94.446 268.231 93.6029 268.581 92.8825C268.935 92.162 269.426 91.6026 270.054 91.2042C270.686 90.8058 271.42 90.6065 272.258 90.6065C273.095 90.6065 273.827 90.8058 274.455 91.2042C275.087 91.6026 275.578 92.162 275.928 92.8825C276.282 93.6029 276.459 94.446 276.459 95.4119C276.459 96.3698 276.282 97.2069 275.928 97.9233C275.578 98.6397 275.087 99.1971 274.455 99.5955C273.827 99.994 273.095 100.193 272.258 100.193ZM272.258 98.9134C272.893 98.9134 273.417 98.7504 273.827 98.4244C274.238 98.0984 274.542 97.6697 274.739 97.1385C274.936 96.6072 275.035 96.0317 275.035 95.4119C275.035 94.7921 274.936 94.2146 274.739 93.6793C274.542 93.1441 274.238 92.7114 273.827 92.3814C273.417 92.0514 272.893 91.8864 272.258 91.8864C271.622 91.8864 271.098 92.0514 270.688 92.3814C270.277 92.7114 269.974 93.1441 269.776 93.6793C269.579 94.2146 269.481 94.7921 269.481 95.4119C269.481 96.0317 269.579 96.6072 269.776 97.1385C269.974 97.6697 270.277 98.0984 270.688 98.4244C271.098 98.7504 271.622 98.9134 272.258 98.9134ZM280.059 94.4219V100H278.634V90.7273H280.01V92.1761H280.131C280.349 91.7053 280.679 91.3269 281.121 91.0412C281.564 90.7514 282.135 90.6065 282.836 90.6065C283.464 90.6065 284.013 90.7353 284.484 90.9929C284.955 91.2464 285.321 91.6328 285.583 92.152C285.844 92.6671 285.975 93.3191 285.975 94.108V100H284.55V94.2045C284.55 93.4761 284.361 92.9086 283.983 92.5021C283.604 92.0916 283.085 91.8864 282.425 91.8864C281.97 91.8864 281.564 91.985 281.206 92.1822C280.852 92.3794 280.572 92.6671 280.367 93.0455C280.161 93.4238 280.059 93.8826 280.059 94.4219ZM309.056 94.0355V95.3636H292.056V94.0355H309.056ZM315.141 100V90.7273H316.566V94.7599H317.507L320.84 90.7273H322.675L318.932 95.1946L322.723 100H320.888L317.845 96.0881H316.566V100H315.141ZM327 100.217C326.413 100.217 325.88 100.107 325.401 99.8853C324.922 99.6599 324.541 99.3359 324.26 98.9134C323.978 98.4867 323.837 97.9716 323.837 97.3679C323.837 96.8366 323.942 96.406 324.151 96.076C324.36 95.742 324.64 95.4804 324.99 95.2912C325.34 95.102 325.727 94.9612 326.149 94.8686C326.576 94.772 327.004 94.6955 327.435 94.6392C327.999 94.5668 328.455 94.5124 328.805 94.4762C329.16 94.436 329.417 94.3696 329.578 94.277C329.743 94.1844 329.826 94.0234 329.826 93.794V93.7457C329.826 93.1501 329.663 92.6873 329.337 92.3572C329.015 92.0272 328.526 91.8622 327.87 91.8622C327.19 91.8622 326.656 92.0111 326.27 92.3089C325.884 92.6068 325.612 92.9247 325.455 93.2628L324.103 92.7798C324.344 92.2164 324.666 91.7777 325.069 91.4638C325.475 91.1458 325.918 90.9245 326.397 90.7997C326.88 90.6709 327.355 90.6065 327.821 90.6065C328.119 90.6065 328.461 90.6428 328.848 90.7152C329.238 90.7836 329.614 90.9265 329.977 91.1438C330.343 91.3612 330.647 91.6892 330.888 92.1278C331.13 92.5665 331.25 93.1541 331.25 93.8906V100H329.826V98.7443H329.753C329.657 98.9455 329.496 99.1609 329.27 99.3903C329.045 99.6197 328.745 99.8149 328.371 99.9759C327.997 100.137 327.54 100.217 327 100.217ZM327.218 98.9375C327.781 98.9375 328.256 98.8268 328.642 98.6055C329.033 98.3841 329.327 98.0984 329.524 97.7482C329.725 97.3981 329.826 97.0298 329.826 96.6435V95.3395C329.765 95.4119 329.633 95.4783 329.427 95.5387C329.226 95.5951 328.993 95.6454 328.727 95.6896C328.465 95.7299 328.21 95.7661 327.96 95.7983C327.715 95.8265 327.516 95.8506 327.363 95.8707C326.992 95.919 326.646 95.9975 326.324 96.1062C326.006 96.2108 325.749 96.3698 325.552 96.5831C325.358 96.7924 325.262 97.0781 325.262 97.4403C325.262 97.9354 325.445 98.3097 325.811 98.5632C326.181 98.8127 326.65 98.9375 327.218 98.9375ZM333.03 100V98.6719H333.368C333.646 98.6719 333.877 98.6175 334.062 98.5089C334.247 98.3962 334.396 98.201 334.509 97.9233C334.626 97.6416 334.714 97.2512 334.775 96.7521C334.839 96.2491 334.885 95.6091 334.913 94.8324L335.082 90.7273H341.264V100H339.839V92.0554H336.435L336.29 95.3636C336.258 96.1243 336.189 96.7944 336.085 97.3739C335.984 97.9495 335.829 98.4324 335.62 98.8228C335.414 99.2132 335.141 99.507 334.799 99.7042C334.457 99.9014 334.028 100 333.513 100H333.03ZM346.607 100.217C346.019 100.217 345.486 100.107 345.007 99.8853C344.528 99.6599 344.148 99.3359 343.866 98.9134C343.584 98.4867 343.444 97.9716 343.444 97.3679C343.444 96.8366 343.548 96.406 343.757 96.076C343.967 95.742 344.246 95.4804 344.597 95.2912C344.947 95.102 345.333 94.9612 345.756 94.8686C346.182 94.772 346.611 94.6955 347.042 94.6392C347.605 94.5668 348.062 94.5124 348.412 94.4762C348.766 94.436 349.024 94.3696 349.185 94.277C349.35 94.1844 349.432 94.0234 349.432 93.794V93.7457C349.432 93.1501 349.269 92.6873 348.943 92.3572C348.621 92.0272 348.132 91.8622 347.476 91.8622C346.796 91.8622 346.263 92.0111 345.876 92.3089C345.49 92.6068 345.218 92.9247 345.061 93.2628L343.709 92.7798C343.951 92.2164 344.273 91.7777 344.675 91.4638C345.082 91.1458 345.524 90.9245 346.003 90.7997C346.486 90.6709 346.961 90.6065 347.428 90.6065C347.726 90.6065 348.068 90.6428 348.454 90.7152C348.845 90.7836 349.221 90.9265 349.583 91.1438C349.949 91.3612 350.253 91.6892 350.495 92.1278C350.736 92.5665 350.857 93.1541 350.857 93.8906V100H349.432V98.7443H349.36C349.263 98.9455 349.102 99.1609 348.877 99.3903C348.651 99.6197 348.352 99.8149 347.977 99.9759C347.603 100.137 347.146 100.217 346.607 100.217ZM346.824 98.9375C347.388 98.9375 347.863 98.8268 348.249 98.6055C348.639 98.3841 348.933 98.0984 349.13 97.7482C349.332 97.3981 349.432 97.0298 349.432 96.6435V95.3395C349.372 95.4119 349.239 95.4783 349.034 95.5387C348.833 95.5951 348.599 95.6454 348.333 95.6896C348.072 95.7299 347.816 95.7661 347.567 95.7983C347.321 95.8265 347.122 95.8506 346.969 95.8707C346.599 95.919 346.253 95.9975 345.931 96.1062C345.613 96.2108 345.355 96.3698 345.158 96.5831C344.965 96.7924 344.868 97.0781 344.868 97.4403C344.868 97.9354 345.051 98.3097 345.418 98.5632C345.788 98.8127 346.257 98.9375 346.824 98.9375ZM358.528 98.0682L361.764 90.7273H363.116L359.108 100H357.949L354.013 90.7273H355.341L358.528 98.0682ZM354.882 90.7273V100H353.457V90.7273H354.882ZM362.175 100V90.7273H363.599V100H362.175ZM373.089 87.25L373.814 88.1193C373.532 88.393 373.206 88.5842 372.836 88.6928C372.466 88.8015 372.047 88.8679 371.58 88.892C371.113 88.9162 370.594 88.9403 370.023 88.9645C369.379 88.9886 368.845 89.1456 368.423 89.4354C368 89.7251 367.674 90.1437 367.445 90.6911C367.215 91.2384 367.069 91.9105 367.004 92.7074H367.125C367.439 92.1278 367.873 91.7012 368.429 91.4276C368.984 91.1539 369.58 91.017 370.216 91.017C370.94 91.017 371.592 91.1861 372.172 91.5241C372.751 91.8622 373.21 92.3633 373.548 93.0273C373.886 93.6914 374.055 94.5104 374.055 95.4844C374.055 96.4543 373.882 97.2914 373.536 97.9957C373.194 98.7 372.713 99.2434 372.093 99.6257C371.478 100.004 370.755 100.193 369.926 100.193C369.097 100.193 368.371 99.998 367.747 99.6076C367.123 99.2132 366.638 98.6296 366.292 97.8569C365.946 97.0801 365.773 96.1203 365.773 94.9773V93.9872C365.773 91.9226 366.123 90.357 366.823 89.2905C367.527 88.224 368.586 87.6726 369.998 87.6364C370.498 87.6203 370.942 87.6162 371.333 87.6243C371.723 87.6323 372.063 87.6142 372.353 87.57C372.643 87.5257 372.888 87.419 373.089 87.25ZM369.926 98.9134C370.485 98.9134 370.966 98.7725 371.369 98.4908C371.775 98.209 372.087 97.8126 372.305 97.3015C372.522 96.7863 372.631 96.1806 372.631 95.4844C372.631 94.8082 372.52 94.2327 372.299 93.7578C372.081 93.2829 371.769 92.9207 371.363 92.6712C370.956 92.4216 370.469 92.2969 369.902 92.2969C369.487 92.2969 369.115 92.3673 368.785 92.5082C368.455 92.649 368.173 92.8563 367.94 93.13C367.706 93.4036 367.525 93.7377 367.397 94.1321C367.272 94.5265 367.205 94.9773 367.197 95.4844C367.197 96.5227 367.441 97.3538 367.928 97.9776C368.415 98.6014 369.081 98.9134 369.926 98.9134ZM377.152 103.477C376.911 103.477 376.695 103.457 376.506 103.417C376.317 103.381 376.186 103.344 376.114 103.308L376.476 102.053C376.822 102.141 377.128 102.173 377.394 102.149C377.659 102.125 377.895 102.006 378.1 101.793C378.309 101.584 378.501 101.244 378.674 100.773L378.939 100.048L375.51 90.7273H377.056L379.615 98.1165H379.712L382.272 90.7273H383.817L379.881 101.352C379.704 101.831 379.485 102.228 379.223 102.542C378.961 102.859 378.657 103.095 378.311 103.248C377.969 103.401 377.583 103.477 377.152 103.477ZM385.698 103.477V90.7273H387.074V92.2003H387.243C387.348 92.0393 387.493 91.834 387.678 91.5845C387.867 91.331 388.136 91.1056 388.487 90.9084C388.841 90.7071 389.32 90.6065 389.923 90.6065C390.704 90.6065 391.392 90.8017 391.988 91.1921C392.584 91.5825 393.049 92.1359 393.383 92.8523C393.717 93.5687 393.884 94.4138 393.884 95.3878C393.884 96.3698 393.717 97.221 393.383 97.9414C393.049 98.6578 392.586 99.2132 391.994 99.6076C391.402 99.998 390.72 100.193 389.948 100.193C389.352 100.193 388.875 100.095 388.517 99.8974C388.159 99.6961 387.883 99.4687 387.69 99.2152C387.497 98.9576 387.348 98.7443 387.243 98.5753H387.122V103.477H385.698ZM387.098 95.3636C387.098 96.0639 387.201 96.6817 387.406 97.217C387.611 97.7482 387.911 98.1648 388.305 98.4666C388.7 98.7644 389.183 98.9134 389.754 98.9134C390.35 98.9134 390.847 98.7564 391.245 98.4425C391.648 98.1245 391.95 97.6979 392.151 97.1626C392.356 96.6233 392.459 96.0237 392.459 95.3636C392.459 94.7116 392.358 94.1241 392.157 93.6009C391.96 93.0736 391.66 92.6571 391.258 92.3512C390.859 92.0413 390.358 91.8864 389.754 91.8864C389.175 91.8864 388.688 92.0333 388.293 92.3271C387.899 92.6168 387.601 93.0233 387.4 93.5465C387.199 94.0657 387.098 94.6714 387.098 95.3636ZM398.182 98.3097L398.085 98.9616C398.017 99.4205 397.912 99.9115 397.771 100.435C397.635 100.958 397.492 101.451 397.343 101.914C397.194 102.377 397.071 102.745 396.975 103.018H395.888C395.94 102.761 396.009 102.421 396.093 101.998C396.178 101.576 396.262 101.103 396.347 100.58C396.435 100.06 396.508 99.5291 396.564 98.9858L396.636 98.3097H398.182ZM405.603 100V90.7273H412.895V100H411.471V92.0554H407.028V100H405.603ZM419.385 100.193C418.492 100.193 417.721 99.996 417.073 99.6016C416.429 99.2031 415.932 98.6477 415.582 97.9354C415.236 97.219 415.063 96.3859 415.063 95.4361C415.063 94.4863 415.236 93.6491 415.582 92.9247C415.932 92.1963 416.419 91.6288 417.043 91.2223C417.671 90.8118 418.403 90.6065 419.24 90.6065C419.723 90.6065 420.2 90.687 420.671 90.848C421.142 91.009 421.57 91.2706 421.957 91.6328C422.343 91.991 422.651 92.4659 422.881 93.0575C423.11 93.6491 423.225 94.3776 423.225 95.2429V95.8466H416.077V94.6151H421.776C421.776 94.0919 421.671 93.625 421.462 93.2145C421.257 92.804 420.963 92.48 420.58 92.2425C420.202 92.0051 419.755 91.8864 419.24 91.8864C418.673 91.8864 418.182 92.0272 417.767 92.3089C417.357 92.5866 417.041 92.9489 416.819 93.3956C416.598 93.8423 416.487 94.3213 416.487 94.8324V95.6534C416.487 96.3537 416.608 96.9473 416.85 97.4343C417.095 97.9173 417.435 98.2855 417.87 98.5391C418.305 98.7886 418.81 98.9134 419.385 98.9134C419.759 98.9134 420.097 98.861 420.399 98.7564C420.705 98.6477 420.969 98.4867 421.19 98.2734C421.412 98.0561 421.583 97.7865 421.703 97.4645L423.08 97.8509C422.935 98.3177 422.691 98.7282 422.349 99.0824C422.007 99.4325 421.585 99.7062 421.081 99.9034C420.578 100.097 420.013 100.193 419.385 100.193ZM425.392 103.477V90.7273H426.768V92.2003H426.937C427.042 92.0393 427.187 91.834 427.372 91.5845C427.561 91.331 427.831 91.1056 428.181 90.9084C428.535 90.7071 429.014 90.6065 429.618 90.6065C430.398 90.6065 431.087 90.8017 431.682 91.1921C432.278 91.5825 432.743 92.1359 433.077 92.8523C433.411 93.5687 433.578 94.4138 433.578 95.3878C433.578 96.3698 433.411 97.221 433.077 97.9414C432.743 98.6578 432.28 99.2132 431.688 99.6076C431.097 99.998 430.415 100.193 429.642 100.193C429.046 100.193 428.569 100.095 428.211 99.8974C427.853 99.6961 427.577 99.4687 427.384 99.2152C427.191 98.9576 427.042 98.7443 426.937 98.5753H426.817V103.477H425.392ZM426.792 95.3636C426.792 96.0639 426.895 96.6817 427.1 97.217C427.306 97.7482 427.605 98.1648 428 98.4666C428.394 98.7644 428.877 98.9134 429.449 98.9134C430.044 98.9134 430.541 98.7564 430.94 98.4425C431.342 98.1245 431.644 97.6979 431.845 97.1626C432.051 96.6233 432.153 96.0237 432.153 95.3636C432.153 94.7116 432.053 94.1241 431.851 93.6009C431.654 93.0736 431.354 92.6571 430.952 92.3512C430.553 92.0413 430.052 91.8864 429.449 91.8864C428.869 91.8864 428.382 92.0333 427.988 92.3271C427.593 92.6168 427.296 93.0233 427.094 93.5465C426.893 94.0657 426.792 94.6714 426.792 95.3636ZM439.639 100.193C438.746 100.193 437.975 99.996 437.327 99.6016C436.683 99.2031 436.186 98.6477 435.836 97.9354C435.49 97.219 435.317 96.3859 435.317 95.4361C435.317 94.4863 435.49 93.6491 435.836 92.9247C436.186 92.1963 436.673 91.6288 437.297 91.2223C437.925 90.8118 438.657 90.6065 439.494 90.6065C439.977 90.6065 440.454 90.687 440.925 90.848C441.396 91.009 441.824 91.2706 442.211 91.6328C442.597 91.991 442.905 92.4659 443.134 93.0575C443.364 93.6491 443.479 94.3776 443.479 95.2429V95.8466H436.331V94.6151H442.03C442.03 94.0919 441.925 93.625 441.716 93.2145C441.51 92.804 441.217 92.48 440.834 92.2425C440.456 92.0051 440.009 91.8864 439.494 91.8864C438.927 91.8864 438.436 92.0272 438.021 92.3089C437.611 92.5866 437.295 92.9489 437.073 93.3956C436.852 93.8423 436.741 94.3213 436.741 94.8324V95.6534C436.741 96.3537 436.862 96.9473 437.104 97.4343C437.349 97.9173 437.689 98.2855 438.124 98.5391C438.558 98.7886 439.064 98.9134 439.639 98.9134C440.013 98.9134 440.351 98.861 440.653 98.7564C440.959 98.6477 441.223 98.4867 441.444 98.2734C441.665 98.0561 441.836 97.7865 441.957 97.4645L443.334 97.8509C443.189 98.3177 442.945 98.7282 442.603 99.0824C442.261 99.4325 441.838 99.7062 441.335 99.9034C440.832 100.097 440.267 100.193 439.639 100.193ZM445.646 100V90.7273H449.437C450.435 90.7273 451.228 90.9527 451.816 91.4034C452.403 91.8542 452.697 92.4498 452.697 93.1903C452.697 93.7538 452.53 94.1905 452.196 94.5004C451.862 94.8062 451.433 95.0135 450.91 95.1222C451.252 95.1705 451.584 95.2912 451.906 95.4844C452.232 95.6776 452.502 95.9432 452.715 96.2812C452.928 96.6153 453.035 97.0258 453.035 97.5128C453.035 97.9877 452.914 98.4123 452.673 98.7866C452.431 99.1609 452.085 99.4567 451.634 99.674C451.184 99.8913 450.644 100 450.017 100H445.646ZM446.998 98.696H450.017C450.508 98.696 450.892 98.5793 451.17 98.3459C451.447 98.1125 451.586 97.7945 451.586 97.392C451.586 96.9131 451.447 96.5368 451.17 96.2631C450.892 95.9854 450.508 95.8466 450.017 95.8466H446.998V98.696ZM446.998 94.6151H449.437C449.819 94.6151 450.147 94.5627 450.421 94.4581C450.695 94.3494 450.904 94.1965 451.049 93.9993C451.198 93.7981 451.272 93.5606 451.272 93.2869C451.272 92.8965 451.109 92.5907 450.783 92.3693C450.457 92.1439 450.008 92.0312 449.437 92.0312H446.998V94.6151ZM458.959 100.193C458.122 100.193 457.387 99.994 456.755 99.5955C456.127 99.1971 455.636 98.6397 455.282 97.9233C454.932 97.2069 454.757 96.3698 454.757 95.4119C454.757 94.446 454.932 93.6029 455.282 92.8825C455.636 92.162 456.127 91.6026 456.755 91.2042C457.387 90.8058 458.122 90.6065 458.959 90.6065C459.796 90.6065 460.528 90.8058 461.156 91.2042C461.788 91.6026 462.279 92.162 462.629 92.8825C462.983 93.6029 463.16 94.446 463.16 95.4119C463.16 96.3698 462.983 97.2069 462.629 97.9233C462.279 98.6397 461.788 99.1971 461.156 99.5955C460.528 99.994 459.796 100.193 458.959 100.193ZM458.959 98.9134C459.595 98.9134 460.118 98.7504 460.528 98.4244C460.939 98.0984 461.243 97.6697 461.44 97.1385C461.637 96.6072 461.736 96.0317 461.736 95.4119C461.736 94.7921 461.637 94.2146 461.44 93.6793C461.243 93.1441 460.939 92.7114 460.528 92.3814C460.118 92.0514 459.595 91.8864 458.959 91.8864C458.323 91.8864 457.8 92.0514 457.389 92.3814C456.979 92.7114 456.675 93.1441 456.478 93.6793C456.28 94.2146 456.182 94.7921 456.182 95.4119C456.182 96.0317 456.28 96.6072 456.478 97.1385C456.675 97.6697 456.979 98.0984 457.389 98.4244C457.8 98.7504 458.323 98.9134 458.959 98.9134ZM464.345 102.656V98.6719H465.118C465.307 98.4747 465.47 98.2614 465.607 98.032C465.744 97.8026 465.862 97.5309 465.963 97.217C466.068 96.899 466.156 96.5127 466.229 96.0579C466.301 95.5991 466.366 95.0457 466.422 94.3977L466.736 90.7273H472.628V98.6719H474.053V102.656H472.628V100H465.77V102.656H464.345ZM466.736 98.6719H471.203V92.0554H468.064L467.822 94.3977C467.722 95.3677 467.597 96.2148 467.448 96.9393C467.299 97.6637 467.062 98.2412 466.736 98.6719ZM477.368 97.8991L481.836 90.7273H483.478V100H482.053V92.8281L477.61 100H475.944V90.7273H477.368V97.8991ZM484.825 92.0554V90.7273H492.36V92.0554H489.317V100H487.892V92.0554H484.825ZM497.723 100.193C496.854 100.193 496.105 99.9879 495.478 99.5774C494.85 99.1669 494.367 98.6014 494.029 97.881C493.691 97.1606 493.522 96.3376 493.522 95.4119C493.522 94.4702 493.695 93.6391 494.041 92.9187C494.391 92.1942 494.878 91.6288 495.502 91.2223C496.13 90.8118 496.862 90.6065 497.699 90.6065C498.351 90.6065 498.939 90.7273 499.462 90.9688C499.985 91.2102 500.414 91.5483 500.748 91.983C501.082 92.4176 501.289 92.9247 501.37 93.5043H499.945C499.836 93.0817 499.595 92.7074 499.221 92.3814C498.85 92.0514 498.351 91.8864 497.723 91.8864C497.168 91.8864 496.681 92.0312 496.262 92.321C495.848 92.6068 495.524 93.0112 495.29 93.5344C495.061 94.0536 494.946 94.6634 494.946 95.3636C494.946 96.08 495.059 96.7038 495.284 97.2351C495.514 97.7663 495.836 98.1789 496.25 98.4727C496.669 98.7665 497.16 98.9134 497.723 98.9134C498.094 98.9134 498.43 98.849 498.732 98.7202C499.033 98.5914 499.289 98.4062 499.498 98.1648C499.708 97.9233 499.856 97.6335 499.945 97.2955H501.37C501.289 97.8428 501.09 98.3358 500.772 98.7745C500.458 99.2092 500.042 99.5553 499.522 99.8129C499.007 100.066 498.408 100.193 497.723 100.193ZM509.031 100V92.0312H506.567C506.012 92.0312 505.575 92.16 505.257 92.4176C504.94 92.6752 504.781 93.0294 504.781 93.4801C504.781 93.9228 504.923 94.271 505.209 94.5245C505.499 94.7781 505.895 94.9048 506.398 94.9048H509.393V96.233H506.398C505.771 96.233 505.229 96.1223 504.775 95.9009C504.32 95.6796 503.97 95.3636 503.724 94.9531C503.479 94.5386 503.356 94.0476 503.356 93.4801C503.356 92.9086 503.485 92.4176 503.742 92.0071C504 91.5966 504.368 91.2807 504.847 91.0593C505.33 90.8379 505.903 90.7273 506.567 90.7273H510.383V100H509.031ZM502.849 100L505.481 95.3878H507.026L504.394 100H502.849ZM239.071 121.193C238.202 121.193 237.453 120.988 236.825 120.577C236.197 120.167 235.714 119.601 235.376 118.881C235.038 118.161 234.869 117.338 234.869 116.412C234.869 115.47 235.042 114.639 235.388 113.919C235.739 113.194 236.226 112.629 236.849 112.222C237.477 111.812 238.21 111.607 239.047 111.607C239.699 111.607 240.286 111.727 240.81 111.969C241.333 112.21 241.761 112.548 242.096 112.983C242.43 113.418 242.637 113.925 242.717 114.504H241.293C241.184 114.082 240.942 113.707 240.568 113.381C240.198 113.051 239.699 112.886 239.071 112.886C238.516 112.886 238.029 113.031 237.61 113.321C237.196 113.607 236.872 114.011 236.638 114.534C236.409 115.054 236.294 115.663 236.294 116.364C236.294 117.08 236.407 117.704 236.632 118.235C236.862 118.766 237.183 119.179 237.598 119.473C238.017 119.766 238.508 119.913 239.071 119.913C239.441 119.913 239.777 119.849 240.079 119.72C240.381 119.591 240.637 119.406 240.846 119.165C241.055 118.923 241.204 118.634 241.293 118.295H242.717C242.637 118.843 242.438 119.336 242.12 119.775C241.806 120.209 241.389 120.555 240.87 120.813C240.355 121.066 239.755 121.193 239.071 121.193ZM252.31 121.217C251.722 121.217 251.189 121.107 250.71 120.885C250.231 120.66 249.851 120.336 249.569 119.913C249.288 119.487 249.147 118.972 249.147 118.368C249.147 117.837 249.251 117.406 249.461 117.076C249.67 116.742 249.95 116.48 250.3 116.291C250.65 116.102 251.036 115.961 251.459 115.869C251.885 115.772 252.314 115.696 252.745 115.639C253.308 115.567 253.765 115.512 254.115 115.476C254.469 115.436 254.727 115.37 254.888 115.277C255.053 115.184 255.135 115.023 255.135 114.794V114.746C255.135 114.15 254.972 113.687 254.646 113.357C254.324 113.027 253.835 112.862 253.179 112.862C252.499 112.862 251.966 113.011 251.58 113.309C251.193 113.607 250.922 113.925 250.765 114.263L249.412 113.78C249.654 113.216 249.976 112.778 250.378 112.464C250.785 112.146 251.227 111.924 251.706 111.8C252.189 111.671 252.664 111.607 253.131 111.607C253.429 111.607 253.771 111.643 254.157 111.715C254.548 111.784 254.924 111.926 255.286 112.144C255.652 112.361 255.956 112.689 256.198 113.128C256.439 113.567 256.56 114.154 256.56 114.891V121H255.135V119.744H255.063C254.966 119.946 254.805 120.161 254.58 120.39C254.355 120.62 254.055 120.815 253.68 120.976C253.306 121.137 252.849 121.217 252.31 121.217ZM252.527 119.938C253.091 119.938 253.566 119.827 253.952 119.605C254.342 119.384 254.636 119.098 254.833 118.748C255.035 118.398 255.135 118.03 255.135 117.643V116.339C255.075 116.412 254.942 116.478 254.737 116.539C254.536 116.595 254.302 116.645 254.037 116.69C253.775 116.73 253.519 116.766 253.27 116.798C253.024 116.826 252.825 116.851 252.672 116.871C252.302 116.919 251.956 116.998 251.634 117.106C251.316 117.211 251.058 117.37 250.861 117.583C250.668 117.792 250.571 118.078 250.571 118.44C250.571 118.935 250.754 119.31 251.121 119.563C251.491 119.813 251.96 119.938 252.527 119.938ZM265.366 115.712V117.04H260.247V115.712H265.366ZM260.585 111.727V121H259.16V111.727H260.585ZM266.453 111.727V121H265.028V111.727H266.453ZM274.778 111.727V113.055H270.48V121H269.055V111.727H274.778ZM275.256 121V119.672H275.594C275.872 119.672 276.104 119.618 276.289 119.509C276.474 119.396 276.623 119.201 276.735 118.923C276.852 118.642 276.941 118.251 277.001 117.752C277.065 117.249 277.112 116.609 277.14 115.832L277.309 111.727H283.491V121H282.066V113.055H278.661L278.516 116.364C278.484 117.124 278.416 117.794 278.311 118.374C278.21 118.949 278.056 119.432 277.846 119.823C277.641 120.213 277.367 120.507 277.025 120.704C276.683 120.901 276.254 121 275.739 121H275.256ZM287.529 118.899L291.997 111.727H293.639V121H292.214V113.828L287.771 121H286.105V111.727H287.529V118.899ZM297.673 118.899L302.14 111.727H303.782V121H302.358V113.828L297.915 121H296.248V111.727H297.673V118.899ZM301.199 108.636H302.527C302.527 109.288 302.301 109.822 301.851 110.236C301.4 110.651 300.788 110.858 300.015 110.858C299.255 110.858 298.649 110.651 298.198 110.236C297.752 109.822 297.528 109.288 297.528 108.636H298.856C298.856 108.95 298.943 109.226 299.116 109.463C299.293 109.701 299.593 109.82 300.015 109.82C300.438 109.82 300.74 109.701 300.921 109.463C301.106 109.226 301.199 108.95 301.199 108.636ZM310.159 121.193C309.29 121.193 308.541 120.988 307.913 120.577C307.285 120.167 306.802 119.601 306.464 118.881C306.126 118.161 305.957 117.338 305.957 116.412C305.957 115.47 306.13 114.639 306.476 113.919C306.827 113.194 307.314 112.629 307.937 112.222C308.565 111.812 309.298 111.607 310.135 111.607C310.787 111.607 311.374 111.727 311.898 111.969C312.421 112.21 312.849 112.548 313.183 112.983C313.517 113.418 313.725 113.925 313.805 114.504H312.381C312.272 114.082 312.03 113.707 311.656 113.381C311.286 113.051 310.787 112.886 310.159 112.886C309.604 112.886 309.117 113.031 308.698 113.321C308.283 113.607 307.959 114.011 307.726 114.534C307.497 115.054 307.382 115.663 307.382 116.364C307.382 117.08 307.495 117.704 307.72 118.235C307.949 118.766 308.271 119.179 308.686 119.473C309.104 119.766 309.595 119.913 310.159 119.913C310.529 119.913 310.865 119.849 311.167 119.72C311.469 119.591 311.724 119.406 311.934 119.165C312.143 118.923 312.292 118.634 312.381 118.295H313.805C313.725 118.843 313.526 119.336 313.208 119.775C312.894 120.209 312.477 120.555 311.958 120.813C311.443 121.066 310.843 121.193 310.159 121.193ZM315.888 121V111.727H317.313V115.76H318.254L321.587 111.727H323.422L319.679 116.195L323.47 121H321.635L318.593 117.088H317.313V121H315.888ZM328.404 121.193C327.567 121.193 326.832 120.994 326.201 120.596C325.573 120.197 325.082 119.64 324.728 118.923C324.377 118.207 324.202 117.37 324.202 116.412C324.202 115.446 324.377 114.603 324.728 113.882C325.082 113.162 325.573 112.603 326.201 112.204C326.832 111.806 327.567 111.607 328.404 111.607C329.241 111.607 329.974 111.806 330.601 112.204C331.233 112.603 331.724 113.162 332.074 113.882C332.429 114.603 332.606 115.446 332.606 116.412C332.606 117.37 332.429 118.207 332.074 118.923C331.724 119.64 331.233 120.197 330.601 120.596C329.974 120.994 329.241 121.193 328.404 121.193ZM328.404 119.913C329.04 119.913 329.563 119.75 329.974 119.424C330.384 119.098 330.688 118.67 330.885 118.138C331.082 117.607 331.181 117.032 331.181 116.412C331.181 115.792 331.082 115.215 330.885 114.679C330.688 114.144 330.384 113.711 329.974 113.381C329.563 113.051 329.04 112.886 328.404 112.886C327.768 112.886 327.245 113.051 326.834 113.381C326.424 113.711 326.12 114.144 325.923 114.679C325.726 115.215 325.627 115.792 325.627 116.412C325.627 117.032 325.726 117.607 325.923 118.138C326.12 118.67 326.424 119.098 326.834 119.424C327.245 119.75 327.768 119.913 328.404 119.913ZM340.504 111.727V113.055H336.205V121H334.781V111.727H340.504ZM345.869 121.193C345.032 121.193 344.297 120.994 343.665 120.596C343.038 120.197 342.547 119.64 342.192 118.923C341.842 118.207 341.667 117.37 341.667 116.412C341.667 115.446 341.842 114.603 342.192 113.882C342.547 113.162 343.038 112.603 343.665 112.204C344.297 111.806 345.032 111.607 345.869 111.607C346.706 111.607 347.438 111.806 348.066 112.204C348.698 112.603 349.189 113.162 349.539 113.882C349.893 114.603 350.071 115.446 350.071 116.412C350.071 117.37 349.893 118.207 349.539 118.923C349.189 119.64 348.698 120.197 348.066 120.596C347.438 120.994 346.706 121.193 345.869 121.193ZM345.869 119.913C346.505 119.913 347.028 119.75 347.438 119.424C347.849 119.098 348.153 118.67 348.35 118.138C348.547 117.607 348.646 117.032 348.646 116.412C348.646 115.792 348.547 115.215 348.35 114.679C348.153 114.144 347.849 113.711 347.438 113.381C347.028 113.051 346.505 112.886 345.869 112.886C345.233 112.886 344.71 113.051 344.299 113.381C343.889 113.711 343.585 114.144 343.388 114.679C343.19 115.215 343.092 115.792 343.092 116.412C343.092 117.032 343.19 117.607 343.388 118.138C343.585 118.67 343.889 119.098 344.299 119.424C344.71 119.75 345.233 119.913 345.869 119.913ZM357.027 121V111.727H358.451V115.76H359.393L362.725 111.727H364.561L360.818 116.195L364.609 121H362.774L359.731 117.088H358.451V121H357.027ZM368.886 121.217C368.299 121.217 367.765 121.107 367.286 120.885C366.807 120.66 366.427 120.336 366.145 119.913C365.864 119.487 365.723 118.972 365.723 118.368C365.723 117.837 365.827 117.406 366.037 117.076C366.246 116.742 366.526 116.48 366.876 116.291C367.226 116.102 367.612 115.961 368.035 115.869C368.462 115.772 368.89 115.696 369.321 115.639C369.884 115.567 370.341 115.512 370.691 115.476C371.045 115.436 371.303 115.37 371.464 115.277C371.629 115.184 371.711 115.023 371.711 114.794V114.746C371.711 114.15 371.548 113.687 371.222 113.357C370.901 113.027 370.412 112.862 369.756 112.862C369.075 112.862 368.542 113.011 368.156 113.309C367.769 113.607 367.498 113.925 367.341 114.263L365.988 113.78C366.23 113.216 366.552 112.778 366.954 112.464C367.361 112.146 367.804 111.924 368.282 111.8C368.765 111.671 369.24 111.607 369.707 111.607C370.005 111.607 370.347 111.643 370.733 111.715C371.124 111.784 371.5 111.926 371.862 112.144C372.229 112.361 372.532 112.689 372.774 113.128C373.015 113.567 373.136 114.154 373.136 114.891V121H371.711V119.744H371.639C371.542 119.946 371.381 120.161 371.156 120.39C370.931 120.62 370.631 120.815 370.257 120.976C369.882 121.137 369.425 121.217 368.886 121.217ZM369.104 119.938C369.667 119.938 370.142 119.827 370.528 119.605C370.919 119.384 371.212 119.098 371.41 118.748C371.611 118.398 371.711 118.03 371.711 117.643V116.339C371.651 116.412 371.518 116.478 371.313 116.539C371.112 116.595 370.878 116.645 370.613 116.69C370.351 116.73 370.096 116.766 369.846 116.798C369.601 116.826 369.401 116.851 369.248 116.871C368.878 116.919 368.532 116.998 368.21 117.106C367.892 117.211 367.635 117.37 367.437 117.583C367.244 117.792 367.148 118.078 367.148 118.44C367.148 118.935 367.331 119.31 367.697 119.563C368.067 119.813 368.536 119.938 369.104 119.938ZM375.737 121V111.727H377.161V115.76H378.103L381.435 111.727H383.271L379.528 116.195L383.319 121H381.484L378.441 117.088H377.161V121H375.737ZM393.174 119.672H391.919L389.48 116.05V115.929H390.856L393.174 119.672ZM393.174 112.259L390.856 116.001H389.48V115.881L391.919 112.259H393.174ZM396.265 119.672H395.009L392.571 116.05V115.929H393.947L396.265 119.672ZM396.265 112.259L393.947 116.001H392.571V115.881L395.009 112.259H396.265ZM398.829 121V111.727H400.254V115.76H401.196L404.528 111.727H406.363L402.621 116.195L406.412 121H404.577L401.534 117.088H400.254V121H398.829ZM414.166 115.712V117.04H409.047V115.712H414.166ZM409.385 111.727V121H407.96V111.727H409.385ZM415.253 111.727V121H413.828V111.727H415.253ZM421.622 121.193C420.785 121.193 420.05 120.994 419.418 120.596C418.79 120.197 418.299 119.64 417.945 118.923C417.595 118.207 417.42 117.37 417.42 116.412C417.42 115.446 417.595 114.603 417.945 113.882C418.299 113.162 418.79 112.603 419.418 112.204C420.05 111.806 420.785 111.607 421.622 111.607C422.459 111.607 423.191 111.806 423.819 112.204C424.451 112.603 424.942 113.162 425.292 113.882C425.646 114.603 425.824 115.446 425.824 116.412C425.824 117.37 425.646 118.207 425.292 118.923C424.942 119.64 424.451 120.197 423.819 120.596C423.191 120.994 422.459 121.193 421.622 121.193ZM421.622 119.913C422.258 119.913 422.781 119.75 423.191 119.424C423.602 119.098 423.906 118.67 424.103 118.138C424.3 117.607 424.399 117.032 424.399 116.412C424.399 115.792 424.3 115.215 424.103 114.679C423.906 114.144 423.602 113.711 423.191 113.381C422.781 113.051 422.258 112.886 421.622 112.886C420.986 112.886 420.463 113.051 420.052 113.381C419.642 113.711 419.338 114.144 419.141 114.679C418.943 115.215 418.845 115.792 418.845 116.412C418.845 117.032 418.943 117.607 419.141 118.138C419.338 118.67 419.642 119.098 420.052 119.424C420.463 119.75 420.986 119.913 421.622 119.913ZM427.998 121V111.727H435.291V121H433.866V113.055H429.423V121H427.998ZM437.893 121V111.727H439.318V115.76H440.259L443.592 111.727H445.427L441.684 116.195L445.475 121H443.64L440.597 117.088H439.318V121H437.893ZM449.752 121.217C449.165 121.217 448.632 121.107 448.153 120.885C447.674 120.66 447.293 120.336 447.012 119.913C446.73 119.487 446.589 118.972 446.589 118.368C446.589 117.837 446.694 117.406 446.903 117.076C447.112 116.742 447.392 116.48 447.742 116.291C448.092 116.102 448.479 115.961 448.901 115.869C449.328 115.772 449.756 115.696 450.187 115.639C450.751 115.567 451.207 115.512 451.557 115.476C451.912 115.436 452.169 115.37 452.33 115.277C452.495 115.184 452.578 115.023 452.578 114.794V114.746C452.578 114.15 452.415 113.687 452.089 113.357C451.767 113.027 451.278 112.862 450.622 112.862C449.942 112.862 449.408 113.011 449.022 113.309C448.636 113.607 448.364 113.925 448.207 114.263L446.855 113.78C447.096 113.216 447.418 112.778 447.821 112.464C448.227 112.146 448.67 111.924 449.149 111.8C449.632 111.671 450.107 111.607 450.573 111.607C450.871 111.607 451.213 111.643 451.6 111.715C451.99 111.784 452.366 111.926 452.729 112.144C453.095 112.361 453.399 112.689 453.64 113.128C453.882 113.567 454.002 114.154 454.002 114.891V121H452.578V119.744H452.505C452.409 119.946 452.248 120.161 452.022 120.39C451.797 120.62 451.497 120.815 451.123 120.976C450.748 121.137 450.292 121.217 449.752 121.217ZM449.97 119.938C450.533 119.938 451.008 119.827 451.394 119.605C451.785 119.384 452.079 119.098 452.276 118.748C452.477 118.398 452.578 118.03 452.578 117.643V116.339C452.517 116.412 452.384 116.478 452.179 116.539C451.978 116.595 451.745 116.645 451.479 116.69C451.217 116.73 450.962 116.766 450.712 116.798C450.467 116.826 450.268 116.851 450.115 116.871C449.744 116.919 449.398 116.998 449.076 117.106C448.758 117.211 448.501 117.37 448.304 117.583C448.11 117.792 448.014 118.078 448.014 118.44C448.014 118.935 448.197 119.31 448.563 119.563C448.933 119.813 449.402 119.938 449.97 119.938ZM456.434 119.672L458.752 115.929H460.128V116.05L457.689 119.672H456.434ZM456.434 112.259H457.689L460.128 115.881V116.001H458.752L456.434 112.259ZM459.525 119.672L461.843 115.929H463.219V116.05L460.78 119.672H459.525ZM459.525 112.259H460.78L463.219 115.881V116.001H461.843L459.525 112.259ZM467.908 119.31L467.812 119.962C467.743 120.42 467.639 120.911 467.498 121.435C467.361 121.958 467.218 122.451 467.069 122.914C466.92 123.377 466.798 123.745 466.701 124.018H465.614C465.667 123.761 465.735 123.421 465.82 122.998C465.904 122.576 465.989 122.103 466.073 121.58C466.162 121.06 466.234 120.529 466.291 119.986L466.363 119.31H467.908ZM241.51 136.712V138.04H236.391V136.712H241.51ZM236.729 132.727V142H235.304V132.727H236.729ZM242.597 132.727V142H241.172V132.727H242.597ZM248.966 142.193C248.128 142.193 247.394 141.994 246.762 141.596C246.134 141.197 245.643 140.64 245.289 139.923C244.939 139.207 244.764 138.37 244.764 137.412C244.764 136.446 244.939 135.603 245.289 134.882C245.643 134.162 246.134 133.603 246.762 133.204C247.394 132.806 248.128 132.607 248.966 132.607C249.803 132.607 250.535 132.806 251.163 133.204C251.795 133.603 252.286 134.162 252.636 134.882C252.99 135.603 253.167 136.446 253.167 137.412C253.167 138.37 252.99 139.207 252.636 139.923C252.286 140.64 251.795 141.197 251.163 141.596C250.535 141.994 249.803 142.193 248.966 142.193ZM248.966 140.913C249.601 140.913 250.125 140.75 250.535 140.424C250.946 140.098 251.25 139.67 251.447 139.138C251.644 138.607 251.743 138.032 251.743 137.412C251.743 136.792 251.644 136.215 251.447 135.679C251.25 135.144 250.946 134.711 250.535 134.381C250.125 134.051 249.601 133.886 248.966 133.886C248.33 133.886 247.806 134.051 247.396 134.381C246.985 134.711 246.682 135.144 246.484 135.679C246.287 136.215 246.189 136.792 246.189 137.412C246.189 138.032 246.287 138.607 246.484 139.138C246.682 139.67 246.985 140.098 247.396 140.424C247.806 140.75 248.33 140.913 248.966 140.913ZM266.329 136.712V138.04H261.21V136.712H266.329ZM261.548 132.727V142H260.123V132.727H261.548ZM267.416 132.727V142H265.991V132.727H267.416ZM272.747 142.217C272.159 142.217 271.626 142.107 271.147 141.885C270.668 141.66 270.287 141.336 270.006 140.913C269.724 140.487 269.583 139.972 269.583 139.368C269.583 138.837 269.688 138.406 269.897 138.076C270.106 137.742 270.386 137.48 270.736 137.291C271.086 137.102 271.473 136.961 271.895 136.869C272.322 136.772 272.751 136.696 273.181 136.639C273.745 136.567 274.201 136.512 274.552 136.476C274.906 136.436 275.163 136.37 275.324 136.277C275.489 136.184 275.572 136.023 275.572 135.794V135.746C275.572 135.15 275.409 134.687 275.083 134.357C274.761 134.027 274.272 133.862 273.616 133.862C272.936 133.862 272.402 134.011 272.016 134.309C271.63 134.607 271.358 134.925 271.201 135.263L269.849 134.78C270.09 134.216 270.412 133.778 270.815 133.464C271.221 133.146 271.664 132.924 272.143 132.8C272.626 132.671 273.101 132.607 273.568 132.607C273.865 132.607 274.207 132.643 274.594 132.715C274.984 132.784 275.361 132.926 275.723 133.144C276.089 133.361 276.393 133.689 276.634 134.128C276.876 134.567 276.997 135.154 276.997 135.891V142H275.572V140.744H275.499C275.403 140.946 275.242 141.161 275.016 141.39C274.791 141.62 274.491 141.815 274.117 141.976C273.743 142.137 273.286 142.217 272.747 142.217ZM272.964 140.938C273.527 140.938 274.002 140.827 274.389 140.605C274.779 140.384 275.073 140.098 275.27 139.748C275.471 139.398 275.572 139.03 275.572 138.643V137.339C275.511 137.412 275.379 137.478 275.173 137.539C274.972 137.595 274.739 137.645 274.473 137.69C274.211 137.73 273.956 137.766 273.706 137.798C273.461 137.826 273.262 137.851 273.109 137.871C272.738 137.919 272.392 137.998 272.07 138.106C271.752 138.211 271.495 138.37 271.298 138.583C271.104 138.792 271.008 139.078 271.008 139.44C271.008 139.935 271.191 140.31 271.557 140.563C271.928 140.813 272.396 140.938 272.964 140.938ZM284.378 145.477V132.727H285.755V134.2H285.924C286.028 134.039 286.173 133.834 286.358 133.585C286.547 133.331 286.817 133.106 287.167 132.908C287.521 132.707 288 132.607 288.604 132.607C289.385 132.607 290.073 132.802 290.669 133.192C291.264 133.583 291.729 134.136 292.063 134.852C292.397 135.569 292.564 136.414 292.564 137.388C292.564 138.37 292.397 139.221 292.063 139.941C291.729 140.658 291.266 141.213 290.675 141.608C290.083 141.998 289.401 142.193 288.628 142.193C288.033 142.193 287.556 142.095 287.197 141.897C286.839 141.696 286.564 141.469 286.37 141.215C286.177 140.958 286.028 140.744 285.924 140.575H285.803V145.477H284.378ZM285.779 137.364C285.779 138.064 285.881 138.682 286.087 139.217C286.292 139.748 286.592 140.165 286.986 140.467C287.381 140.764 287.864 140.913 288.435 140.913C289.031 140.913 289.528 140.756 289.926 140.442C290.329 140.125 290.63 139.698 290.832 139.163C291.037 138.623 291.14 138.024 291.14 137.364C291.14 136.712 291.039 136.124 290.838 135.601C290.641 135.074 290.341 134.657 289.938 134.351C289.54 134.041 289.039 133.886 288.435 133.886C287.855 133.886 287.368 134.033 286.974 134.327C286.58 134.617 286.282 135.023 286.081 135.547C285.879 136.066 285.779 136.671 285.779 137.364ZM295.323 145.477C295.082 145.477 294.866 145.457 294.677 145.417C294.488 145.381 294.357 145.344 294.285 145.308L294.647 144.053C294.993 144.141 295.299 144.173 295.565 144.149C295.83 144.125 296.066 144.006 296.271 143.793C296.48 143.584 296.671 143.244 296.844 142.773L297.11 142.048L293.681 132.727H295.227L297.786 140.116H297.883L300.442 132.727H301.988L298.052 143.352C297.875 143.831 297.655 144.228 297.394 144.542C297.132 144.859 296.828 145.095 296.482 145.248C296.14 145.401 295.754 145.477 295.323 145.477ZM307.303 142.193C306.434 142.193 305.686 141.988 305.058 141.577C304.43 141.167 303.947 140.601 303.609 139.881C303.271 139.161 303.102 138.338 303.102 137.412C303.102 136.47 303.275 135.639 303.621 134.919C303.971 134.194 304.458 133.629 305.082 133.222C305.71 132.812 306.442 132.607 307.279 132.607C307.931 132.607 308.519 132.727 309.042 132.969C309.565 133.21 309.994 133.548 310.328 133.983C310.662 134.418 310.869 134.925 310.95 135.504H309.525C309.416 135.082 309.175 134.707 308.801 134.381C308.43 134.051 307.931 133.886 307.303 133.886C306.748 133.886 306.261 134.031 305.843 134.321C305.428 134.607 305.104 135.011 304.871 135.534C304.641 136.054 304.526 136.663 304.526 137.364C304.526 138.08 304.639 138.704 304.865 139.235C305.094 139.766 305.416 140.179 305.83 140.473C306.249 140.766 306.74 140.913 307.303 140.913C307.674 140.913 308.01 140.849 308.312 140.72C308.613 140.591 308.869 140.406 309.078 140.165C309.288 139.923 309.436 139.634 309.525 139.295H310.95C310.869 139.843 310.67 140.336 310.352 140.775C310.038 141.209 309.622 141.555 309.102 141.813C308.587 142.066 307.988 142.193 307.303 142.193ZM313.032 142V132.727H314.457V136.76H315.399L318.731 132.727H320.567L316.824 137.195L320.615 142H318.78L315.737 138.088H314.457V142H313.032ZM325.549 142.193C324.711 142.193 323.977 141.994 323.345 141.596C322.717 141.197 322.226 140.64 321.872 139.923C321.522 139.207 321.347 138.37 321.347 137.412C321.347 136.446 321.522 135.603 321.872 134.882C322.226 134.162 322.717 133.603 323.345 133.204C323.977 132.806 324.711 132.607 325.549 132.607C326.386 132.607 327.118 132.806 327.746 133.204C328.378 133.603 328.869 134.162 329.219 134.882C329.573 135.603 329.75 136.446 329.75 137.412C329.75 138.37 329.573 139.207 329.219 139.923C328.869 140.64 328.378 141.197 327.746 141.596C327.118 141.994 326.386 142.193 325.549 142.193ZM325.549 140.913C326.184 140.913 326.708 140.75 327.118 140.424C327.529 140.098 327.833 139.67 328.03 139.138C328.227 138.607 328.326 138.032 328.326 137.412C328.326 136.792 328.227 136.215 328.03 135.679C327.833 135.144 327.529 134.711 327.118 134.381C326.708 134.051 326.184 133.886 325.549 133.886C324.913 133.886 324.389 134.051 323.979 134.381C323.568 134.711 323.265 135.144 323.067 135.679C322.87 136.215 322.772 136.792 322.772 137.412C322.772 138.032 322.87 138.607 323.067 139.138C323.265 139.67 323.568 140.098 323.979 140.424C324.389 140.75 324.913 140.913 325.549 140.913ZM336.996 140.068L340.232 132.727H341.584L337.576 142H336.417L332.48 132.727H333.809L336.996 140.068ZM333.35 132.727V142H331.925V132.727H333.35ZM340.642 142V132.727H342.067V142H340.642ZM348.877 139.634H350.398C350.43 140.052 350.619 140.37 350.966 140.587C351.316 140.805 351.77 140.913 352.33 140.913C352.901 140.913 353.39 140.797 353.797 140.563C354.203 140.326 354.407 139.943 354.407 139.416C354.407 139.106 354.33 138.837 354.177 138.607C354.024 138.374 353.809 138.193 353.531 138.064C353.254 137.935 352.926 137.871 352.547 137.871H350.953V136.591H352.547C353.115 136.591 353.533 136.462 353.803 136.205C354.077 135.947 354.213 135.625 354.213 135.239C354.213 134.824 354.067 134.492 353.773 134.243C353.479 133.989 353.062 133.862 352.523 133.862C351.98 133.862 351.527 133.985 351.165 134.23C350.803 134.472 350.611 134.784 350.591 135.166H349.094C349.11 134.667 349.263 134.226 349.553 133.844C349.843 133.458 350.237 133.156 350.736 132.939C351.235 132.717 351.807 132.607 352.451 132.607C353.103 132.607 353.668 132.721 354.147 132.951C354.63 133.176 355.002 133.484 355.264 133.874C355.529 134.261 355.662 134.699 355.662 135.19C355.662 135.714 355.515 136.136 355.222 136.458C354.928 136.78 354.56 137.009 354.117 137.146V137.243C354.467 137.267 354.771 137.38 355.028 137.581C355.29 137.778 355.493 138.038 355.638 138.36C355.783 138.678 355.855 139.03 355.855 139.416C355.855 139.98 355.705 140.471 355.403 140.889C355.101 141.304 354.686 141.626 354.159 141.855C353.632 142.08 353.03 142.193 352.354 142.193C351.698 142.193 351.11 142.087 350.591 141.873C350.072 141.656 349.66 141.356 349.354 140.974C349.052 140.587 348.893 140.141 348.877 139.634ZM357.857 142V132.727H361.648C362.646 132.727 363.439 132.953 364.026 133.403C364.614 133.854 364.908 134.45 364.908 135.19C364.908 135.754 364.741 136.19 364.407 136.5C364.073 136.806 363.644 137.013 363.121 137.122C363.463 137.17 363.795 137.291 364.117 137.484C364.443 137.678 364.713 137.943 364.926 138.281C365.139 138.615 365.246 139.026 365.246 139.513C365.246 139.988 365.125 140.412 364.884 140.787C364.642 141.161 364.296 141.457 363.845 141.674C363.395 141.891 362.855 142 362.227 142H357.857ZM359.209 140.696H362.227C362.718 140.696 363.103 140.579 363.381 140.346C363.658 140.112 363.797 139.795 363.797 139.392C363.797 138.913 363.658 138.537 363.381 138.263C363.103 137.985 362.718 137.847 362.227 137.847H359.209V140.696ZM359.209 136.615H361.648C362.03 136.615 362.358 136.563 362.632 136.458C362.906 136.349 363.115 136.196 363.26 135.999C363.409 135.798 363.483 135.561 363.483 135.287C363.483 134.897 363.32 134.591 362.994 134.369C362.668 134.144 362.219 134.031 361.648 134.031H359.209V136.615ZM368.32 145.477C368.079 145.477 367.863 145.457 367.674 145.417C367.485 145.381 367.354 145.344 367.282 145.308L367.644 144.053C367.99 144.141 368.296 144.173 368.562 144.149C368.827 144.125 369.063 144.006 369.268 143.793C369.477 143.584 369.668 143.244 369.842 142.773L370.107 142.048L366.678 132.727H368.224L370.783 140.116H370.88L373.44 132.727H374.985L371.049 143.352C370.872 143.831 370.652 144.228 370.391 144.542C370.129 144.859 369.825 145.095 369.479 145.248C369.137 145.401 368.751 145.477 368.32 145.477ZM383.731 132.727V142H382.306V132.727H383.731ZM383.176 137.146V138.474C382.854 138.595 382.534 138.702 382.216 138.794C381.898 138.883 381.564 138.953 381.214 139.006C380.863 139.054 380.479 139.078 380.061 139.078C379.01 139.078 378.167 138.794 377.531 138.227C376.899 137.659 376.583 136.808 376.583 135.673V132.703H378.008V135.673C378.008 136.148 378.099 136.539 378.28 136.844C378.461 137.15 378.706 137.378 379.016 137.527C379.326 137.676 379.674 137.75 380.061 137.75C380.664 137.75 381.21 137.696 381.697 137.587C382.188 137.474 382.681 137.327 383.176 137.146ZM387.77 139.899L392.237 132.727H393.879V142H392.454V134.828L388.011 142H386.345V132.727H387.77V139.899ZM395.227 134.055V132.727H402.761V134.055H399.718V142H398.294V134.055H395.227ZM409.089 134.055V132.727H416.623V134.055H413.581V142H412.156V134.055H409.089ZM421.987 142.193C421.15 142.193 420.415 141.994 419.784 141.596C419.156 141.197 418.665 140.64 418.311 139.923C417.96 139.207 417.785 138.37 417.785 137.412C417.785 136.446 417.96 135.603 418.311 134.882C418.665 134.162 419.156 133.603 419.784 133.204C420.415 132.806 421.15 132.607 421.987 132.607C422.824 132.607 423.557 132.806 424.184 133.204C424.816 133.603 425.307 134.162 425.657 134.882C426.012 135.603 426.189 136.446 426.189 137.412C426.189 138.37 426.012 139.207 425.657 139.923C425.307 140.64 424.816 141.197 424.184 141.596C423.557 141.994 422.824 142.193 421.987 142.193ZM421.987 140.913C422.623 140.913 423.146 140.75 423.557 140.424C423.967 140.098 424.271 139.67 424.468 139.138C424.665 138.607 424.764 138.032 424.764 137.412C424.764 136.792 424.665 136.215 424.468 135.679C424.271 135.144 423.967 134.711 423.557 134.381C423.146 134.051 422.623 133.886 421.987 133.886C421.351 133.886 420.828 134.051 420.417 134.381C420.007 134.711 419.703 135.144 419.506 135.679C419.309 136.215 419.21 136.792 419.21 137.412C419.21 138.032 419.309 138.607 419.506 139.138C419.703 139.67 420.007 140.098 420.417 140.424C420.828 140.75 421.351 140.913 421.987 140.913ZM435.511 132.727V142H434.087V132.727H435.511ZM434.956 137.146V138.474C434.634 138.595 434.314 138.702 433.996 138.794C433.678 138.883 433.344 138.953 432.994 139.006C432.644 139.054 432.259 139.078 431.841 139.078C430.79 139.078 429.947 138.794 429.311 138.227C428.679 137.659 428.364 136.808 428.364 135.673V132.703H429.788V135.673C429.788 136.148 429.879 136.539 430.06 136.844C430.241 137.15 430.487 137.378 430.796 137.527C431.106 137.676 431.454 137.75 431.841 137.75C432.445 137.75 432.99 137.696 433.477 137.587C433.968 137.474 434.461 137.327 434.956 137.146ZM439.357 136.084H442.013C443.1 136.084 443.931 136.359 444.506 136.911C445.082 137.462 445.37 138.161 445.37 139.006C445.37 139.561 445.241 140.066 444.983 140.521C444.726 140.972 444.347 141.332 443.848 141.602C443.349 141.867 442.737 142 442.013 142H438.125V132.727H439.55V140.672H442.013C442.576 140.672 443.039 140.523 443.402 140.225C443.764 139.927 443.945 139.545 443.945 139.078C443.945 138.587 443.764 138.187 443.402 137.877C443.039 137.567 442.576 137.412 442.013 137.412H439.357V136.084ZM452.851 136.036V137.364H447.442V136.036H452.851ZM455.358 142V132.727H459.149C460.147 132.727 460.94 132.953 461.527 133.403C462.115 133.854 462.409 134.45 462.409 135.19C462.409 135.754 462.242 136.19 461.908 136.5C461.574 136.806 461.145 137.013 460.622 137.122C460.964 137.17 461.296 137.291 461.618 137.484C461.944 137.678 462.214 137.943 462.427 138.281C462.64 138.615 462.747 139.026 462.747 139.513C462.747 139.988 462.626 140.412 462.385 140.787C462.143 141.161 461.797 141.457 461.346 141.674C460.896 141.891 460.356 142 459.728 142H455.358ZM456.71 140.696H459.728C460.219 140.696 460.604 140.579 460.881 140.346C461.159 140.112 461.298 139.795 461.298 139.392C461.298 138.913 461.159 138.537 460.881 138.263C460.604 137.985 460.219 137.847 459.728 137.847H456.71V140.696ZM456.71 136.615H459.149C459.531 136.615 459.859 136.563 460.133 136.458C460.407 136.349 460.616 136.196 460.761 135.999C460.91 135.798 460.984 135.561 460.984 135.287C460.984 134.897 460.821 134.591 460.495 134.369C460.169 134.144 459.72 134.031 459.149 134.031H456.71V136.615ZM470.216 136.036V137.364H464.807V136.036H470.216ZM471.71 134.055V132.727H479.244V134.055H476.202V142H474.777V134.055H471.71ZM484.608 142.193C483.771 142.193 483.037 141.994 482.405 141.596C481.777 141.197 481.286 140.64 480.932 139.923C480.581 139.207 480.406 138.37 480.406 137.412C480.406 136.446 480.581 135.603 480.932 134.882C481.286 134.162 481.777 133.603 482.405 133.204C483.037 132.806 483.771 132.607 484.608 132.607C485.445 132.607 486.178 132.806 486.806 133.204C487.437 133.603 487.928 134.162 488.279 134.882C488.633 135.603 488.81 136.446 488.81 137.412C488.81 138.37 488.633 139.207 488.279 139.923C487.928 140.64 487.437 141.197 486.806 141.596C486.178 141.994 485.445 142.193 484.608 142.193ZM484.608 140.913C485.244 140.913 485.767 140.75 486.178 140.424C486.588 140.098 486.892 139.67 487.089 139.138C487.287 138.607 487.385 138.032 487.385 137.412C487.385 136.792 487.287 136.215 487.089 135.679C486.892 135.144 486.588 134.711 486.178 134.381C485.767 134.051 485.244 133.886 484.608 133.886C483.972 133.886 483.449 134.051 483.039 134.381C482.628 134.711 482.324 135.144 482.127 135.679C481.93 136.215 481.831 136.792 481.831 137.412C481.831 138.032 481.93 138.607 482.127 139.138C482.324 139.67 482.628 140.098 483.039 140.424C483.449 140.75 483.972 140.913 484.608 140.913ZM498.132 132.727V142H496.708V132.727H498.132ZM497.577 137.146V138.474C497.255 138.595 496.935 138.702 496.617 138.794C496.299 138.883 495.965 138.953 495.615 139.006C495.265 139.054 494.88 139.078 494.462 139.078C493.411 139.078 492.568 138.794 491.932 138.227C491.301 137.659 490.985 136.808 490.985 135.673V132.703H492.409V135.673C492.409 136.148 492.5 136.539 492.681 136.844C492.862 137.15 493.108 137.378 493.418 137.527C493.727 137.676 494.076 137.75 494.462 137.75C495.066 137.75 495.611 137.696 496.098 137.587C496.589 137.474 497.082 137.327 497.577 137.146ZM501.978 136.084H504.634C505.721 136.084 506.552 136.359 507.127 136.911C507.703 137.462 507.991 138.161 507.991 139.006C507.991 139.561 507.862 140.066 507.604 140.521C507.347 140.972 506.968 141.332 506.469 141.602C505.97 141.867 505.359 142 504.634 142H500.746V132.727H502.171V140.672H504.634C505.198 140.672 505.66 140.523 506.023 140.225C506.385 139.927 506.566 139.545 506.566 139.078C506.566 138.587 506.385 138.187 506.023 137.877C505.66 137.567 505.198 137.412 504.634 137.412H501.978V136.084ZM235.304 163V153.727H236.729V157.76H237.67L241.003 153.727H242.838L239.095 158.195L242.886 163H241.051L238.009 159.088H236.729V163H235.304ZM247.164 163.217C246.576 163.217 246.043 163.107 245.564 162.885C245.085 162.66 244.704 162.336 244.423 161.913C244.141 161.487 244 160.972 244 160.368C244 159.837 244.105 159.406 244.314 159.076C244.523 158.742 244.803 158.48 245.153 158.291C245.503 158.102 245.89 157.961 246.312 157.869C246.739 157.772 247.168 157.696 247.598 157.639C248.162 157.567 248.618 157.512 248.969 157.476C249.323 157.436 249.58 157.37 249.741 157.277C249.906 157.184 249.989 157.023 249.989 156.794V156.746C249.989 156.15 249.826 155.687 249.5 155.357C249.178 155.027 248.689 154.862 248.033 154.862C247.353 154.862 246.819 155.011 246.433 155.309C246.047 155.607 245.775 155.925 245.618 156.263L244.266 155.78C244.507 155.216 244.829 154.778 245.232 154.464C245.638 154.146 246.081 153.924 246.56 153.8C247.043 153.671 247.518 153.607 247.985 153.607C248.282 153.607 248.624 153.643 249.011 153.715C249.401 153.784 249.778 153.926 250.14 154.144C250.506 154.361 250.81 154.689 251.051 155.128C251.293 155.567 251.414 156.154 251.414 156.891V163H249.989V161.744H249.916C249.82 161.946 249.659 162.161 249.433 162.39C249.208 162.62 248.908 162.815 248.534 162.976C248.16 163.137 247.703 163.217 247.164 163.217ZM247.381 161.938C247.944 161.938 248.419 161.827 248.806 161.605C249.196 161.384 249.49 161.098 249.687 160.748C249.888 160.398 249.989 160.03 249.989 159.643V158.339C249.928 158.412 249.796 158.478 249.59 158.539C249.389 158.595 249.156 158.645 248.89 158.69C248.628 158.73 248.373 158.766 248.123 158.798C247.878 158.826 247.679 158.851 247.526 158.871C247.155 158.919 246.809 158.998 246.487 159.106C246.169 159.211 245.912 159.37 245.715 159.583C245.521 159.792 245.425 160.078 245.425 160.44C245.425 160.935 245.608 161.31 245.974 161.563C246.345 161.813 246.813 161.938 247.381 161.938ZM254.014 163V153.727H255.439V157.76H256.38L259.713 153.727H261.548L257.805 158.195L261.596 163H259.761L256.718 159.088H255.439V163H254.014ZM267.926 163V153.727H271.717C272.715 153.727 273.508 153.953 274.096 154.403C274.683 154.854 274.977 155.45 274.977 156.19C274.977 156.754 274.81 157.19 274.476 157.5C274.142 157.806 273.713 158.013 273.19 158.122C273.532 158.17 273.864 158.291 274.186 158.484C274.512 158.678 274.782 158.943 274.995 159.281C275.209 159.615 275.315 160.026 275.315 160.513C275.315 160.988 275.195 161.412 274.953 161.787C274.712 162.161 274.365 162.457 273.915 162.674C273.464 162.891 272.925 163 272.297 163H267.926ZM269.278 161.696H272.297C272.788 161.696 273.172 161.579 273.45 161.346C273.728 161.112 273.866 160.795 273.866 160.392C273.866 159.913 273.728 159.537 273.45 159.263C273.172 158.985 272.788 158.847 272.297 158.847H269.278V161.696ZM269.278 157.615H271.717C272.1 157.615 272.428 157.563 272.701 157.458C272.975 157.349 273.184 157.196 273.329 156.999C273.478 156.798 273.552 156.561 273.552 156.287C273.552 155.897 273.389 155.591 273.063 155.369C272.737 155.144 272.289 155.031 271.717 155.031H269.278V157.615ZM281.239 163.193C280.37 163.193 279.621 162.988 278.993 162.577C278.365 162.167 277.882 161.601 277.544 160.881C277.206 160.161 277.037 159.338 277.037 158.412C277.037 157.47 277.21 156.639 277.556 155.919C277.907 155.194 278.394 154.629 279.017 154.222C279.645 153.812 280.378 153.607 281.215 153.607C281.867 153.607 282.454 153.727 282.978 153.969C283.501 154.21 283.929 154.548 284.263 154.983C284.598 155.418 284.805 155.925 284.885 156.504H283.461C283.352 156.082 283.11 155.707 282.736 155.381C282.366 155.051 281.867 154.886 281.239 154.886C280.684 154.886 280.197 155.031 279.778 155.321C279.364 155.607 279.04 156.011 278.806 156.534C278.577 157.054 278.462 157.663 278.462 158.364C278.462 159.08 278.575 159.704 278.8 160.235C279.029 160.766 279.351 161.179 279.766 161.473C280.185 161.766 280.676 161.913 281.239 161.913C281.609 161.913 281.945 161.849 282.247 161.72C282.549 161.591 282.805 161.406 283.014 161.165C283.223 160.923 283.372 160.634 283.461 160.295H284.885C284.805 160.843 284.606 161.336 284.288 161.775C283.974 162.209 283.557 162.555 283.038 162.813C282.523 163.066 281.923 163.193 281.239 163.193ZM290.856 163.193C289.962 163.193 289.192 162.996 288.544 162.602C287.9 162.203 287.403 161.648 287.053 160.935C286.706 160.219 286.533 159.386 286.533 158.436C286.533 157.486 286.706 156.649 287.053 155.925C287.403 155.196 287.89 154.629 288.513 154.222C289.141 153.812 289.874 153.607 290.711 153.607C291.194 153.607 291.671 153.687 292.142 153.848C292.613 154.009 293.041 154.271 293.428 154.633C293.814 154.991 294.122 155.466 294.351 156.058C294.581 156.649 294.695 157.378 294.695 158.243V158.847H287.548V157.615H293.246C293.246 157.092 293.142 156.625 292.933 156.214C292.727 155.804 292.433 155.48 292.051 155.243C291.673 155.005 291.226 154.886 290.711 154.886C290.143 154.886 289.652 155.027 289.238 155.309C288.827 155.587 288.511 155.949 288.29 156.396C288.069 156.842 287.958 157.321 287.958 157.832V158.653C287.958 159.354 288.079 159.947 288.32 160.434C288.566 160.917 288.906 161.286 289.341 161.539C289.775 161.789 290.28 161.913 290.856 161.913C291.23 161.913 291.568 161.861 291.87 161.756C292.176 161.648 292.44 161.487 292.661 161.273C292.882 161.056 293.053 160.786 293.174 160.464L294.55 160.851C294.406 161.318 294.162 161.728 293.82 162.082C293.478 162.433 293.055 162.706 292.552 162.903C292.049 163.097 291.484 163.193 290.856 163.193ZM301.934 161.068L305.169 153.727H306.522L302.513 163H301.354L297.418 153.727H298.746L301.934 161.068ZM298.287 153.727V163H296.863V153.727H298.287ZM305.58 163V153.727H307.005V163H305.58ZM311.037 160.899L315.505 153.727H317.147V163H315.722V155.828L311.279 163H309.613V153.727H311.037V160.899ZM323.716 163V161.672H324.054C324.332 161.672 324.564 161.618 324.749 161.509C324.934 161.396 325.083 161.201 325.195 160.923C325.312 160.642 325.401 160.251 325.461 159.752C325.525 159.249 325.572 158.609 325.6 157.832L325.769 153.727H331.951V163H330.526V155.055H327.121L326.976 158.364C326.944 159.124 326.876 159.794 326.771 160.374C326.67 160.949 326.515 161.432 326.306 161.823C326.101 162.213 325.827 162.507 325.485 162.704C325.143 162.901 324.714 163 324.199 163H323.716ZM339.008 157.784V159.112H334.106V157.784H339.008ZM335.313 153.727V163H333.889V153.727H335.313ZM341.857 163.193C341.02 163.193 340.286 162.994 339.654 162.596C339.026 162.197 338.535 161.64 338.181 160.923C337.831 160.207 337.656 159.37 337.656 158.412C337.656 157.446 337.831 156.603 338.181 155.882C338.535 155.162 339.026 154.603 339.654 154.204C340.286 153.806 341.02 153.607 341.857 153.607C342.694 153.607 343.427 153.806 344.055 154.204C344.687 154.603 345.178 155.162 345.528 155.882C345.882 156.603 346.059 157.446 346.059 158.412C346.059 159.37 345.882 160.207 345.528 160.923C345.178 161.64 344.687 162.197 344.055 162.596C343.427 162.994 342.694 163.193 341.857 163.193ZM341.857 161.913C342.493 161.913 343.016 161.75 343.427 161.424C343.837 161.098 344.141 160.67 344.339 160.138C344.536 159.607 344.634 159.032 344.634 158.412C344.634 157.792 344.536 157.215 344.339 156.679C344.141 156.144 343.837 155.711 343.427 155.381C343.016 155.051 342.493 154.886 341.857 154.886C341.221 154.886 340.698 155.051 340.288 155.381C339.877 155.711 339.573 156.144 339.376 156.679C339.179 157.215 339.08 157.792 339.08 158.412C339.08 159.032 339.179 159.607 339.376 160.138C339.573 160.67 339.877 161.098 340.288 161.424C340.698 161.75 341.221 161.913 341.857 161.913ZM355.259 150.25L355.984 151.119C355.702 151.393 355.376 151.584 355.006 151.693C354.636 151.801 354.217 151.868 353.75 151.892C353.283 151.916 352.764 151.94 352.193 151.964C351.549 151.989 351.015 152.146 350.593 152.435C350.17 152.725 349.844 153.144 349.615 153.691C349.385 154.238 349.238 154.911 349.174 155.707H349.295C349.609 155.128 350.043 154.701 350.599 154.428C351.154 154.154 351.75 154.017 352.386 154.017C353.11 154.017 353.762 154.186 354.342 154.524C354.921 154.862 355.38 155.363 355.718 156.027C356.056 156.691 356.225 157.51 356.225 158.484C356.225 159.454 356.052 160.291 355.706 160.996C355.364 161.7 354.883 162.243 354.263 162.626C353.647 163.004 352.925 163.193 352.096 163.193C351.267 163.193 350.54 162.998 349.917 162.608C349.293 162.213 348.808 161.63 348.462 160.857C348.116 160.08 347.943 159.12 347.943 157.977V156.987C347.943 154.923 348.293 153.357 348.993 152.29C349.697 151.224 350.756 150.673 352.168 150.636C352.667 150.62 353.112 150.616 353.503 150.624C353.893 150.632 354.233 150.614 354.523 150.57C354.813 150.526 355.058 150.419 355.259 150.25ZM352.096 161.913C352.655 161.913 353.136 161.772 353.539 161.491C353.945 161.209 354.257 160.813 354.475 160.301C354.692 159.786 354.801 159.181 354.801 158.484C354.801 157.808 354.69 157.233 354.468 156.758C354.251 156.283 353.939 155.921 353.533 155.671C353.126 155.422 352.639 155.297 352.072 155.297C351.657 155.297 351.285 155.367 350.955 155.508C350.625 155.649 350.343 155.856 350.11 156.13C349.876 156.404 349.695 156.738 349.566 157.132C349.442 157.527 349.375 157.977 349.367 158.484C349.367 159.523 349.611 160.354 350.098 160.978C350.585 161.601 351.251 161.913 352.096 161.913ZM359.829 160.899L364.297 153.727H365.939V163H364.514V155.828L360.071 163H358.405V153.727H359.829V160.899ZM373.619 161.068L376.855 153.727H378.207L374.199 163H373.04L369.104 153.727H370.432L373.619 161.068ZM369.973 153.727V163H368.548V153.727H369.973ZM377.265 163V153.727H378.69V163H377.265ZM382.53 157.084H385.186C386.273 157.084 387.104 157.359 387.679 157.911C388.255 158.462 388.542 159.161 388.542 160.006C388.542 160.561 388.414 161.066 388.156 161.521C387.898 161.972 387.52 162.332 387.021 162.602C386.522 162.867 385.91 163 385.186 163H381.298V153.727H382.723V161.672H385.186C385.749 161.672 386.212 161.523 386.574 161.225C386.937 160.927 387.118 160.545 387.118 160.078C387.118 159.587 386.937 159.187 386.574 158.877C386.212 158.567 385.749 158.412 385.186 158.412H382.53V157.084ZM390.015 163V153.727H391.44V163H390.015ZM395.473 160.899L399.94 153.727H401.582V163H400.157V155.828L395.714 163H394.048V153.727H395.473V160.899ZM398.998 150.636H400.327C400.327 151.288 400.101 151.822 399.65 152.236C399.2 152.651 398.588 152.858 397.815 152.858C397.055 152.858 396.449 152.651 395.998 152.236C395.551 151.822 395.328 151.288 395.328 150.636H396.656C396.656 150.95 396.743 151.226 396.916 151.463C397.093 151.701 397.393 151.82 397.815 151.82C398.238 151.82 398.54 151.701 398.721 151.463C398.906 151.226 398.998 150.95 398.998 150.636ZM415.855 150.25L416.579 151.119C416.298 151.393 415.972 151.584 415.601 151.693C415.231 151.801 414.813 151.868 414.346 151.892C413.879 151.916 413.36 151.94 412.788 151.964C412.144 151.989 411.611 152.146 411.188 152.435C410.766 152.725 410.44 153.144 410.21 153.691C409.981 154.238 409.834 154.911 409.77 155.707H409.891C410.204 155.128 410.639 154.701 411.195 154.428C411.75 154.154 412.346 154.017 412.981 154.017C413.706 154.017 414.358 154.186 414.937 154.524C415.517 154.862 415.976 155.363 416.314 156.027C416.652 156.691 416.821 157.51 416.821 158.484C416.821 159.454 416.648 160.291 416.302 160.996C415.96 161.7 415.479 162.243 414.859 162.626C414.243 163.004 413.521 163.193 412.692 163.193C411.863 163.193 411.136 162.998 410.512 162.608C409.889 162.213 409.404 161.63 409.057 160.857C408.711 160.08 408.538 159.12 408.538 157.977V156.987C408.538 154.923 408.888 153.357 409.589 152.29C410.293 151.224 411.351 150.673 412.764 150.636C413.263 150.62 413.708 150.616 414.098 150.624C414.489 150.632 414.829 150.614 415.119 150.57C415.408 150.526 415.654 150.419 415.855 150.25ZM412.692 161.913C413.251 161.913 413.732 161.772 414.134 161.491C414.541 161.209 414.853 160.813 415.07 160.301C415.288 159.786 415.396 159.181 415.396 158.484C415.396 157.808 415.286 157.233 415.064 156.758C414.847 156.283 414.535 155.921 414.128 155.671C413.722 155.422 413.235 155.297 412.668 155.297C412.253 155.297 411.881 155.367 411.551 155.508C411.221 155.649 410.939 155.856 410.706 156.13C410.472 156.404 410.291 156.738 410.162 157.132C410.037 157.527 409.971 157.977 409.963 158.484C409.963 159.523 410.206 160.354 410.693 160.978C411.18 161.601 411.847 161.913 412.692 161.913ZM422.888 163.193C421.995 163.193 421.224 162.996 420.576 162.602C419.932 162.203 419.435 161.648 419.085 160.935C418.739 160.219 418.566 159.386 418.566 158.436C418.566 157.486 418.739 156.649 419.085 155.925C419.435 155.196 419.922 154.629 420.546 154.222C421.174 153.812 421.906 153.607 422.743 153.607C423.226 153.607 423.703 153.687 424.174 153.848C424.645 154.009 425.073 154.271 425.46 154.633C425.846 154.991 426.154 155.466 426.383 156.058C426.613 156.649 426.728 157.378 426.728 158.243V158.847H419.58V157.615H425.279C425.279 157.092 425.174 156.625 424.965 156.214C424.759 155.804 424.466 155.48 424.083 155.243C423.705 155.005 423.258 154.886 422.743 154.886C422.176 154.886 421.685 155.027 421.27 155.309C420.86 155.587 420.544 155.949 420.322 156.396C420.101 156.842 419.99 157.321 419.99 157.832V158.653C419.99 159.354 420.111 159.947 420.353 160.434C420.598 160.917 420.938 161.286 421.373 161.539C421.807 161.789 422.313 161.913 422.888 161.913C423.262 161.913 423.6 161.861 423.902 161.756C424.208 161.648 424.472 161.487 424.693 161.273C424.914 161.056 425.085 160.786 425.206 160.464L426.583 160.851C426.438 161.318 426.194 161.728 425.852 162.082C425.51 162.433 425.088 162.706 424.584 162.903C424.081 163.097 423.516 163.193 422.888 163.193ZM428.074 163V161.672H428.412C428.69 161.672 428.921 161.618 429.106 161.509C429.291 161.396 429.44 161.201 429.553 160.923C429.67 160.642 429.758 160.251 429.818 159.752C429.883 159.249 429.929 158.609 429.957 157.832L430.126 153.727H436.308V163H434.883V155.055H431.479L431.334 158.364C431.302 159.124 431.233 159.794 431.128 160.374C431.028 160.949 430.873 161.432 430.664 161.823C430.458 162.213 430.185 162.507 429.843 162.704C429.501 162.901 429.072 163 428.557 163H428.074ZM440.154 157.084H442.81C443.897 157.084 444.728 157.359 445.303 157.911C445.879 158.462 446.166 159.161 446.166 160.006C446.166 160.561 446.038 161.066 445.78 161.521C445.523 161.972 445.144 162.332 444.645 162.602C444.146 162.867 443.534 163 442.81 163H438.922V153.727H440.347V161.672H442.81C443.373 161.672 443.836 161.523 444.198 161.225C444.561 160.927 444.742 160.545 444.742 160.078C444.742 159.587 444.561 159.187 444.198 158.877C443.836 158.567 443.373 158.412 442.81 158.412H440.154V157.084ZM447.639 163V153.727H449.064V163H447.639ZM453.097 160.899L457.564 153.727H459.206V163H457.782V155.828L453.338 163H451.672V153.727H453.097V160.899ZM456.622 150.636H457.951C457.951 151.288 457.725 151.822 457.274 152.236C456.824 152.651 456.212 152.858 455.439 152.858C454.679 152.858 454.073 152.651 453.622 152.236C453.175 151.822 452.952 151.288 452.952 150.636H454.28C454.28 150.95 454.367 151.226 454.54 151.463C454.717 151.701 455.017 151.82 455.439 151.82C455.862 151.82 456.164 151.701 456.345 151.463C456.53 151.226 456.622 150.95 456.622 150.636ZM239.071 184.193C238.202 184.193 237.453 183.988 236.825 183.577C236.197 183.167 235.714 182.601 235.376 181.881C235.038 181.161 234.869 180.338 234.869 179.412C234.869 178.47 235.042 177.639 235.388 176.919C235.739 176.194 236.226 175.629 236.849 175.222C237.477 174.812 238.21 174.607 239.047 174.607C239.699 174.607 240.286 174.727 240.81 174.969C241.333 175.21 241.761 175.548 242.096 175.983C242.43 176.418 242.637 176.925 242.717 177.504H241.293C241.184 177.082 240.942 176.707 240.568 176.381C240.198 176.051 239.699 175.886 239.071 175.886C238.516 175.886 238.029 176.031 237.61 176.321C237.196 176.607 236.872 177.011 236.638 177.534C236.409 178.054 236.294 178.663 236.294 179.364C236.294 180.08 236.407 180.704 236.632 181.235C236.862 181.766 237.183 182.179 237.598 182.473C238.017 182.766 238.508 182.913 239.071 182.913C239.441 182.913 239.777 182.849 240.079 182.72C240.381 182.591 240.637 182.406 240.846 182.165C241.055 181.923 241.204 181.634 241.293 181.295H242.717C242.637 181.843 242.438 182.336 242.12 182.775C241.806 183.209 241.389 183.555 240.87 183.813C240.355 184.066 239.755 184.193 239.071 184.193ZM244.8 184V174.727H248.591C249.589 174.727 250.382 174.953 250.97 175.403C251.557 175.854 251.851 176.45 251.851 177.19C251.851 177.754 251.684 178.19 251.35 178.5C251.016 178.806 250.587 179.013 250.064 179.122C250.406 179.17 250.738 179.291 251.06 179.484C251.386 179.678 251.656 179.943 251.869 180.281C252.083 180.615 252.189 181.026 252.189 181.513C252.189 181.988 252.069 182.412 251.827 182.787C251.586 183.161 251.239 183.457 250.789 183.674C250.338 183.891 249.799 184 249.171 184H244.8ZM246.152 182.696H249.171C249.662 182.696 250.046 182.579 250.324 182.346C250.602 182.112 250.74 181.795 250.74 181.392C250.74 180.913 250.602 180.537 250.324 180.263C250.046 179.985 249.662 179.847 249.171 179.847H246.152V182.696ZM246.152 178.615H248.591C248.974 178.615 249.302 178.563 249.575 178.458C249.849 178.349 250.058 178.196 250.203 177.999C250.352 177.798 250.426 177.561 250.426 177.287C250.426 176.897 250.263 176.591 249.938 176.369C249.612 176.144 249.163 176.031 248.591 176.031H246.152V178.615ZM258.234 184.193C257.34 184.193 256.57 183.996 255.922 183.602C255.278 183.203 254.781 182.648 254.43 181.935C254.084 181.219 253.911 180.386 253.911 179.436C253.911 178.486 254.084 177.649 254.43 176.925C254.781 176.196 255.268 175.629 255.891 175.222C256.519 174.812 257.252 174.607 258.089 174.607C258.572 174.607 259.049 174.687 259.52 174.848C259.991 175.009 260.419 175.271 260.805 175.633C261.192 175.991 261.5 176.466 261.729 177.058C261.959 177.649 262.073 178.378 262.073 179.243V179.847H254.926V178.615H260.624C260.624 178.092 260.52 177.625 260.31 177.214C260.105 176.804 259.811 176.48 259.429 176.243C259.051 176.005 258.604 175.886 258.089 175.886C257.521 175.886 257.03 176.027 256.616 176.309C256.205 176.587 255.889 176.949 255.668 177.396C255.447 177.842 255.336 178.321 255.336 178.832V179.653C255.336 180.354 255.457 180.947 255.698 181.434C255.944 181.917 256.284 182.286 256.718 182.539C257.153 182.789 257.658 182.913 258.234 182.913C258.608 182.913 258.946 182.861 259.248 182.756C259.554 182.648 259.817 182.487 260.039 182.273C260.26 182.056 260.431 181.786 260.552 181.464L261.928 181.851C261.783 182.318 261.54 182.728 261.198 183.082C260.856 183.433 260.433 183.706 259.93 183.903C259.427 184.097 258.862 184.193 258.234 184.193ZM263.412 184L267.179 179.291L263.46 174.727H265.151L268.241 178.688H269.014V174.727H270.439V178.688H271.188L274.278 174.727H275.969L272.274 179.291L276.017 184H274.303L271.163 180.016H270.439V184H269.014V180.016H268.29L265.126 184H263.412ZM281.559 184.193C280.665 184.193 279.895 183.996 279.247 183.602C278.603 183.203 278.106 182.648 277.756 181.935C277.41 181.219 277.237 180.386 277.237 179.436C277.237 178.486 277.41 177.649 277.756 176.925C278.106 176.196 278.593 175.629 279.217 175.222C279.844 174.812 280.577 174.607 281.414 174.607C281.897 174.607 282.374 174.687 282.845 174.848C283.316 175.009 283.744 175.271 284.131 175.633C284.517 175.991 284.825 176.466 285.054 177.058C285.284 177.649 285.398 178.378 285.398 179.243V179.847H278.251V178.615H283.95C283.95 178.092 283.845 177.625 283.636 177.214C283.43 176.804 283.137 176.48 282.754 176.243C282.376 176.005 281.929 175.886 281.414 175.886C280.847 175.886 280.356 176.027 279.941 176.309C279.531 176.587 279.215 176.949 278.993 177.396C278.772 177.842 278.661 178.321 278.661 178.832V179.653C278.661 180.354 278.782 180.947 279.023 181.434C279.269 181.917 279.609 182.286 280.044 182.539C280.478 182.789 280.983 182.913 281.559 182.913C281.933 182.913 282.271 182.861 282.573 182.756C282.879 182.648 283.143 182.487 283.364 182.273C283.585 182.056 283.756 181.786 283.877 181.464L285.254 181.851C285.109 182.318 284.865 182.728 284.523 183.082C284.181 183.433 283.758 183.706 283.255 183.903C282.752 184.097 282.187 184.193 281.559 184.193ZM288.99 181.899L293.458 174.727H295.1V184H293.675V176.828L289.232 184H287.566V174.727H288.99V181.899ZM301.476 184.193C300.607 184.193 299.858 183.988 299.231 183.577C298.603 183.167 298.12 182.601 297.782 181.881C297.444 181.161 297.275 180.338 297.275 179.412C297.275 178.47 297.448 177.639 297.794 176.919C298.144 176.194 298.631 175.629 299.255 175.222C299.883 174.812 300.615 174.607 301.452 174.607C302.104 174.607 302.692 174.727 303.215 174.969C303.738 175.21 304.167 175.548 304.501 175.983C304.835 176.418 305.042 176.925 305.123 177.504H303.698C303.589 177.082 303.348 176.707 302.973 176.381C302.603 176.051 302.104 175.886 301.476 175.886C300.921 175.886 300.434 176.031 300.015 176.321C299.601 176.607 299.277 177.011 299.043 177.534C298.814 178.054 298.699 178.663 298.699 179.364C298.699 180.08 298.812 180.704 299.037 181.235C299.267 181.766 299.589 182.179 300.003 182.473C300.422 182.766 300.913 182.913 301.476 182.913C301.847 182.913 302.183 182.849 302.484 182.72C302.786 182.591 303.042 182.406 303.251 182.165C303.46 181.923 303.609 181.634 303.698 181.295H305.123C305.042 181.843 304.843 182.336 304.525 182.775C304.211 183.209 303.794 183.555 303.275 183.813C302.76 184.066 302.16 184.193 301.476 184.193ZM307.205 184V174.727H314.498V184H313.073V176.055H308.63V184H307.205ZM320.988 184.193C320.094 184.193 319.323 183.996 318.676 183.602C318.032 183.203 317.535 182.648 317.184 181.935C316.838 181.219 316.665 180.386 316.665 179.436C316.665 178.486 316.838 177.649 317.184 176.925C317.535 176.196 318.022 175.629 318.645 175.222C319.273 174.812 320.006 174.607 320.843 174.607C321.326 174.607 321.803 174.687 322.274 174.848C322.744 175.009 323.173 175.271 323.559 175.633C323.946 175.991 324.254 176.466 324.483 177.058C324.712 177.649 324.827 178.378 324.827 179.243V179.847H317.679V178.615H323.378C323.378 178.092 323.274 177.625 323.064 177.214C322.859 176.804 322.565 176.48 322.183 176.243C321.805 176.005 321.358 175.886 320.843 175.886C320.275 175.886 319.784 176.027 319.37 176.309C318.959 176.587 318.643 176.949 318.422 177.396C318.201 177.842 318.09 178.321 318.09 178.832V179.653C318.09 180.354 318.211 180.947 318.452 181.434C318.698 181.917 319.038 182.286 319.472 182.539C319.907 182.789 320.412 182.913 320.988 182.913C321.362 182.913 321.7 182.861 322.002 182.756C322.308 182.648 322.571 182.487 322.793 182.273C323.014 182.056 323.185 181.786 323.306 181.464L324.682 181.851C324.537 182.318 324.294 182.728 323.952 183.082C323.61 183.433 323.187 183.706 322.684 183.903C322.181 184.097 321.616 184.193 320.988 184.193ZM334.142 174.727V184H332.717V174.727H334.142ZM333.587 179.146V180.474C333.265 180.595 332.945 180.702 332.627 180.794C332.309 180.883 331.975 180.953 331.625 181.006C331.275 181.054 330.89 181.078 330.472 181.078C329.421 181.078 328.578 180.794 327.942 180.227C327.31 179.659 326.994 178.808 326.994 177.673V174.703H328.419V177.673C328.419 178.148 328.51 178.539 328.691 178.844C328.872 179.15 329.117 179.378 329.427 179.527C329.737 179.676 330.085 179.75 330.472 179.75C331.075 179.75 331.621 179.696 332.108 179.587C332.599 179.474 333.092 179.327 333.587 179.146ZM340.644 184.193C339.75 184.193 338.98 183.996 338.332 183.602C337.688 183.203 337.191 182.648 336.841 181.935C336.495 181.219 336.321 180.386 336.321 179.436C336.321 178.486 336.495 177.649 336.841 176.925C337.191 176.196 337.678 175.629 338.302 175.222C338.929 174.812 339.662 174.607 340.499 174.607C340.982 174.607 341.459 174.687 341.93 174.848C342.401 175.009 342.829 175.271 343.216 175.633C343.602 175.991 343.91 176.466 344.139 177.058C344.369 177.649 344.483 178.378 344.483 179.243V179.847H337.336V178.615H343.035C343.035 178.092 342.93 177.625 342.721 177.214C342.515 176.804 342.222 176.48 341.839 176.243C341.461 176.005 341.014 175.886 340.499 175.886C339.932 175.886 339.441 176.027 339.026 176.309C338.616 176.587 338.3 176.949 338.078 177.396C337.857 177.842 337.746 178.321 337.746 178.832V179.653C337.746 180.354 337.867 180.947 338.108 181.434C338.354 181.917 338.694 182.286 339.129 182.539C339.563 182.789 340.068 182.913 340.644 182.913C341.018 182.913 341.356 182.861 341.658 182.756C341.964 182.648 342.228 182.487 342.449 182.273C342.67 182.056 342.841 181.786 342.962 181.464L344.339 181.851C344.194 182.318 343.95 182.728 343.608 183.082C343.266 183.433 342.843 183.706 342.34 183.903C341.837 184.097 341.272 184.193 340.644 184.193ZM338.688 173.182C338.434 173.182 338.209 173.085 338.012 172.892C337.819 172.695 337.722 172.469 337.722 172.216C337.722 171.938 337.819 171.709 338.012 171.528C338.209 171.343 338.434 171.25 338.688 171.25C338.966 171.25 339.195 171.343 339.376 171.528C339.561 171.709 339.654 171.938 339.654 172.216C339.654 172.469 339.561 172.695 339.376 172.892C339.195 173.085 338.966 173.182 338.688 173.182ZM342.165 173.182C341.912 173.182 341.686 173.085 341.489 172.892C341.296 172.695 341.199 172.469 341.199 172.216C341.199 171.938 341.296 171.709 341.489 171.528C341.686 171.343 341.912 171.25 342.165 171.25C342.443 171.25 342.672 171.343 342.853 171.528C343.039 171.709 343.131 171.938 343.131 172.216C343.131 172.469 343.039 172.695 342.853 172.892C342.672 173.085 342.443 173.182 342.165 173.182ZM352.857 178.712V180.04H347.737V178.712H352.857ZM348.075 174.727V184H346.651V174.727H348.075ZM353.943 174.727V184H352.519V174.727H353.943ZM362.751 178.712V180.04H357.632V178.712H362.751ZM357.97 174.727V184H356.545V174.727H357.97ZM363.838 174.727V184H362.413V174.727H363.838ZM367.671 178.084H370.328C371.414 178.084 372.245 178.359 372.821 178.911C373.396 179.462 373.684 180.161 373.684 181.006C373.684 181.561 373.555 182.066 373.298 182.521C373.04 182.972 372.662 183.332 372.163 183.602C371.664 183.867 371.052 184 370.328 184H366.44V174.727H367.864V182.672H370.328C370.891 182.672 371.354 182.523 371.716 182.225C372.078 181.927 372.259 181.545 372.259 181.078C372.259 180.587 372.078 180.187 371.716 179.877C371.354 179.567 370.891 179.412 370.328 179.412H367.671V178.084ZM375.157 184V174.727H376.582V184H375.157ZM380.614 181.899L385.082 174.727H386.724V184H385.299V176.828L380.856 184H379.19V174.727H380.614V181.899ZM384.14 171.636H385.468C385.468 172.288 385.243 172.822 384.792 173.236C384.341 173.651 383.729 173.858 382.957 173.858C382.196 173.858 381.59 173.651 381.14 173.236C380.693 172.822 380.47 172.288 380.47 171.636H381.798C381.798 171.95 381.884 172.226 382.057 172.463C382.234 172.701 382.534 172.82 382.957 172.82C383.379 172.82 383.681 172.701 383.862 172.463C384.047 172.226 384.14 171.95 384.14 171.636ZM395.177 174.727L397.399 178.518L399.62 174.727H401.262L398.268 179.364L401.262 184H399.62L397.399 180.402L395.177 184H393.535L396.481 179.364L393.535 174.727H395.177ZM402.474 184V182.672H402.812C403.09 182.672 403.321 182.618 403.506 182.509C403.692 182.396 403.841 182.201 403.953 181.923C404.07 181.642 404.158 181.251 404.219 180.752C404.283 180.249 404.33 179.609 404.358 178.832L404.527 174.727H410.709V184H409.284V176.055H405.879L405.734 179.364C405.702 180.124 405.633 180.794 405.529 181.374C405.428 181.949 405.273 182.432 405.064 182.823C404.859 183.213 404.585 183.507 404.243 183.704C403.901 183.901 403.472 184 402.957 184H402.474ZM417.21 184.193C416.317 184.193 415.546 183.996 414.898 183.602C414.254 183.203 413.757 182.648 413.407 181.935C413.061 181.219 412.888 180.386 412.888 179.436C412.888 178.486 413.061 177.649 413.407 176.925C413.757 176.196 414.244 175.629 414.868 175.222C415.496 174.812 416.228 174.607 417.065 174.607C417.548 174.607 418.025 174.687 418.496 174.848C418.967 175.009 419.396 175.271 419.782 175.633C420.168 175.991 420.476 176.466 420.706 177.058C420.935 177.649 421.05 178.378 421.05 179.243V179.847H413.902V178.615H419.601C419.601 178.092 419.496 177.625 419.287 177.214C419.082 176.804 418.788 176.48 418.406 176.243C418.027 176.005 417.581 175.886 417.065 175.886C416.498 175.886 416.007 176.027 415.592 176.309C415.182 176.587 414.866 176.949 414.645 177.396C414.423 177.842 414.313 178.321 414.313 178.832V179.653C414.313 180.354 414.433 180.947 414.675 181.434C414.92 181.917 415.26 182.286 415.695 182.539C416.13 182.789 416.635 182.913 417.21 182.913C417.585 182.913 417.923 182.861 418.225 182.756C418.53 182.648 418.794 182.487 419.015 182.273C419.237 182.056 419.408 181.786 419.528 181.464L420.905 181.851C420.76 182.318 420.517 182.728 420.174 183.082C419.832 183.433 419.41 183.706 418.907 183.903C418.404 184.097 417.838 184.193 417.21 184.193ZM430.099 171.25L430.824 172.119C430.542 172.393 430.216 172.584 429.846 172.693C429.475 172.801 429.057 172.868 428.59 172.892C428.123 172.916 427.604 172.94 427.032 172.964C426.388 172.989 425.855 173.146 425.433 173.435C425.01 173.725 424.684 174.144 424.455 174.691C424.225 175.238 424.078 175.911 424.014 176.707H424.135C424.449 176.128 424.883 175.701 425.439 175.428C425.994 175.154 426.59 175.017 427.226 175.017C427.95 175.017 428.602 175.186 429.182 175.524C429.761 175.862 430.22 176.363 430.558 177.027C430.896 177.691 431.065 178.51 431.065 179.484C431.065 180.454 430.892 181.291 430.546 181.996C430.204 182.7 429.723 183.243 429.103 183.626C428.487 184.004 427.765 184.193 426.936 184.193C426.107 184.193 425.38 183.998 424.756 183.608C424.133 183.213 423.648 182.63 423.302 181.857C422.955 181.08 422.782 180.12 422.782 178.977V177.987C422.782 175.923 423.133 174.357 423.833 173.29C424.537 172.224 425.596 171.673 427.008 171.636C427.507 171.62 427.952 171.616 428.342 171.624C428.733 171.632 429.073 171.614 429.363 171.57C429.652 171.526 429.898 171.419 430.099 171.25ZM426.936 182.913C427.495 182.913 427.976 182.772 428.379 182.491C428.785 182.209 429.097 181.813 429.314 181.301C429.532 180.786 429.64 180.181 429.64 179.484C429.64 178.808 429.53 178.233 429.308 177.758C429.091 177.283 428.779 176.921 428.373 176.671C427.966 176.422 427.479 176.297 426.912 176.297C426.497 176.297 426.125 176.367 425.795 176.508C425.465 176.649 425.183 176.856 424.95 177.13C424.716 177.404 424.535 177.738 424.406 178.132C424.282 178.527 424.215 178.977 424.207 179.484C424.207 180.523 424.451 181.354 424.938 181.978C425.425 182.601 426.091 182.913 426.936 182.913ZM434.162 187.477C433.921 187.477 433.705 187.457 433.516 187.417C433.327 187.381 433.196 187.344 433.124 187.308L433.486 186.053C433.832 186.141 434.138 186.173 434.403 186.149C434.669 186.125 434.905 186.006 435.11 185.793C435.319 185.584 435.51 185.244 435.683 184.773L435.949 184.048L432.52 174.727H434.065L436.625 182.116H436.722L439.281 174.727H440.827L436.891 185.352C436.714 185.831 436.494 186.228 436.233 186.542C435.971 186.859 435.667 187.095 435.321 187.248C434.979 187.401 434.593 187.477 434.162 187.477ZM442.707 174.727H444.132V182.672H447.633V174.727H449.058V182.672H452.56V174.727H453.984V184H442.707V174.727ZM460.474 184.193C459.581 184.193 458.81 183.996 458.162 183.602C457.518 183.203 457.021 182.648 456.671 181.935C456.325 181.219 456.152 180.386 456.152 179.436C456.152 178.486 456.325 177.649 456.671 176.925C457.021 176.196 457.508 175.629 458.132 175.222C458.759 174.812 459.492 174.607 460.329 174.607C460.812 174.607 461.289 174.687 461.76 174.848C462.231 175.009 462.659 175.271 463.046 175.633C463.432 175.991 463.74 176.466 463.969 177.058C464.199 177.649 464.313 178.378 464.313 179.243V179.847H457.166V178.615H462.865C462.865 178.092 462.76 177.625 462.551 177.214C462.345 176.804 462.052 176.48 461.669 176.243C461.291 176.005 460.844 175.886 460.329 175.886C459.762 175.886 459.271 176.027 458.856 176.309C458.446 176.587 458.13 176.949 457.908 177.396C457.687 177.842 457.576 178.321 457.576 178.832V179.653C457.576 180.354 457.697 180.947 457.938 181.434C458.184 181.917 458.524 182.286 458.959 182.539C459.393 182.789 459.898 182.913 460.474 182.913C460.848 182.913 461.186 182.861 461.488 182.756C461.794 182.648 462.058 182.487 462.279 182.273C462.5 182.056 462.671 181.786 462.792 181.464L464.169 181.851C464.024 182.318 463.78 182.728 463.438 183.082C463.096 183.433 462.673 183.706 462.17 183.903C461.667 184.097 461.102 184.193 460.474 184.193ZM466.481 184V174.727H467.905V178.76H468.847L472.18 174.727H474.015L470.272 179.195L474.063 184H472.228L469.185 180.088H467.905V184H466.481ZM476.65 184.097C476.352 184.097 476.097 183.99 475.883 183.777C475.67 183.563 475.563 183.308 475.563 183.01C475.563 182.712 475.67 182.457 475.883 182.243C476.097 182.03 476.352 181.923 476.65 181.923C476.948 181.923 477.203 182.03 477.417 182.243C477.63 182.457 477.737 182.712 477.737 183.01C477.737 183.207 477.686 183.388 477.586 183.553C477.489 183.718 477.358 183.851 477.193 183.952C477.032 184.048 476.851 184.097 476.65 184.097Z" fill="#643513"/>
</svg>
