<svg width="38" height="38" viewBox="0 0 38 38" fill="none" xmlns="http://www.w3.org/2000/svg">
<g clip-path="url(#clip0_471_84)">
<path d="M9.84675 0.346752C9.95723 0.236548 10.0884 0.1492 10.2326 0.0897018C10.3769 0.030204 10.5315 -0.000276805 10.6875 1.89405e-06H27.3125C27.6274 1.89405e-06 27.9295 0.125113 28.1522 0.347813C28.3749 0.570512 28.5 0.872557 28.5 1.1875C28.5 2.8025 27.6877 3.97575 26.9657 4.70013C26.6665 4.997 26.372 5.23213 26.125 5.40788V15.9315L26.3102 16.0455C26.7924 16.3471 27.4408 16.7913 28.0939 17.3636C29.355 18.4656 30.875 20.2516 30.875 22.5625C30.875 22.8774 30.7499 23.1795 30.5272 23.4022C30.3045 23.6249 30.0024 23.75 29.6875 23.75H20.1875V34.4375C20.1875 35.093 19.6555 38 19 38C18.3445 38 17.8125 35.093 17.8125 34.4375V23.75H8.3125C7.99756 23.75 7.69551 23.6249 7.47281 23.4022C7.25011 23.1795 7.125 22.8774 7.125 22.5625C7.125 20.2516 8.645 18.4656 9.90375 17.3636C10.5187 16.8308 11.1782 16.3517 11.875 15.9315V5.40788C11.5769 5.19396 11.2959 4.95734 11.0342 4.70013C10.3122 3.97575 9.5 2.80013 9.5 1.1875C9.49972 1.03145 9.5302 0.876879 9.5897 0.732617C9.6492 0.588355 9.73655 0.457235 9.84675 0.346752ZM13.5945 3.68838L13.5992 3.69075C13.795 3.78994 13.9594 3.94144 14.0743 4.12842C14.1892 4.3154 14.25 4.53055 14.25 4.75V16.625C14.25 16.8454 14.1887 17.0614 14.0729 17.2488C13.9571 17.4363 13.7915 17.5879 13.5945 17.6866H13.5898L13.5613 17.7033L13.433 17.7745C12.7335 18.1662 12.0754 18.6277 11.4689 19.152C10.7136 19.8123 10.0795 20.5675 9.747 21.375H28.253C27.9205 20.5675 27.2864 19.8123 26.5311 19.152C25.8876 18.5955 25.1861 18.1098 24.4387 17.7033L24.4102 17.689H24.4055C24.2081 17.5901 24.0423 17.4382 23.9265 17.2502C23.8107 17.0623 23.7496 16.8458 23.75 16.625V4.75C23.7491 4.52036 23.8148 4.29539 23.9392 4.10233C24.0635 3.90927 24.2412 3.7564 24.4506 3.66225C24.754 3.48289 25.034 3.26671 25.2843 3.01863C25.4742 2.82863 25.6524 2.61488 25.7925 2.375H12.2075C12.3516 2.6125 12.521 2.82704 12.7158 3.01863C12.9785 3.27895 13.2738 3.50408 13.5945 3.68838Z" fill="#961600"/>
</g>
<defs>
<clipPath id="clip0_471_84">
<rect width="38" height="38" fill="white"/>
</clipPath>
</defs>
</svg>
