<svg width="26" height="48" viewBox="0 0 26 48" fill="none" xmlns="http://www.w3.org/2000/svg">
<path fill-rule="evenodd" clip-rule="evenodd" d="M12.2817 0.735229C12.6003 0.42159 13.1167 0.421591 13.4353 0.735229L25.2193 12.3374C25.5379 12.651 25.5379 13.1595 25.2193 13.4732L14.7863 23.7452L25.4781 34.2721C25.7966 34.5857 25.7966 35.0942 25.4781 35.4078L13.4353 47.2648C13.1167 47.5784 12.6003 47.5784 12.2817 47.2648L0.238915 35.4078C-0.0796391 35.0942 -0.079638 34.5857 0.238916 34.2721L10.9307 23.7452L0.497667 13.4732C0.179112 13.1595 0.179112 12.651 0.497667 12.3374L12.2817 0.735229ZM4.13147 12.9053L12.8585 4.31295L21.5855 12.9053L12.8585 21.4976L4.13147 12.9053ZM3.87272 34.8399L12.8585 25.9928L21.8443 34.8399L12.8585 43.687L3.87272 34.8399Z" fill="#DC5C3C"/>
</svg>
