<svg width="109" height="34" viewBox="0 0 109 34" fill="none" xmlns="http://www.w3.org/2000/svg">
<path d="M6.94022 32.3H7.24022V32V3.21601H10.9002H11.2002V2.91601V1.20001V0.900009H10.9002H1.22021H0.920215V1.20001V2.91601V3.21601H1.22021H4.88022V32V32.3H5.18022H6.94022ZM29.1808 32.3H29.4808V32V5.60001C29.4808 4.00317 29.1446 2.70835 28.3619 1.81128C27.5721 0.90607 26.3761 0.46001 24.7808 0.46001C23.1856 0.46001 21.9896 0.90607 21.1998 1.81128C20.4171 2.70835 20.0808 4.00317 20.0808 5.60001V32V32.3H20.3808H22.1408H22.4408V32V17.736H27.1208V32V32.3H27.4208H29.1808ZM49.5649 32.3H49.8649V32V5.11601C49.8649 3.67778 49.5855 2.50562 48.9104 1.69063C48.2256 0.863981 47.1811 0.46001 45.7809 0.46001C44.3796 0.46001 43.3561 0.864738 42.6826 1.6927C42.0215 2.50547 41.7419 3.67411 41.6971 5.10559C41.697 5.10594 41.697 5.10629 41.697 5.10664L40.9051 25.8286L40.905 25.8306C40.8614 27.2262 40.6648 28.2902 40.2812 28.9969C40.0922 29.3451 39.8617 29.599 39.5877 29.767C39.3145 29.9347 38.98 30.028 38.5649 30.028H38.2649V30.328V32V32.3H38.5649C40.1909 32.3 41.3585 31.7001 42.1202 30.5546C42.8653 29.434 43.1981 27.8259 43.2647 25.8506C43.2647 25.8504 43.2647 25.8503 43.2647 25.8501L44.0565 5.13099C44.0565 5.13038 44.0566 5.12977 44.0566 5.12917C44.1001 4.26163 44.2408 3.66346 44.5037 3.28524C44.7477 2.93416 45.1271 2.73201 45.7809 2.73201C46.4373 2.73201 46.8398 2.93614 47.0939 3.28922C47.3631 3.66347 47.5049 4.25728 47.5049 5.11601V32V32.3H47.8049H49.5649ZM69.3635 32.3H69.6635V32V1.20001V0.900009H69.3635H67.7355H67.4631L67.4369 1.17111L67.307 2.51349L62.5541 21.8342L62.6234 18.8069L62.6235 18.8069V18.8V1.20001V0.900009H62.3235H60.5635H60.2635V1.20001V32V32.3H60.5635H62.1915H62.4639L62.4901 32.0289L62.62 30.6865L67.3729 11.3658L67.3036 14.3931L67.3035 14.3931V14.4V32V32.3H67.6035H69.3635ZM87.1955 22.9H86.8955V23.2V27.6C86.8955 28.5813 86.7021 29.2934 86.3338 29.7562C85.9761 30.2056 85.4141 30.468 84.5555 30.468C83.6969 30.468 83.1349 30.2056 82.7773 29.7562C82.4089 29.2934 82.2155 28.5813 82.2155 27.6V5.55601C82.2155 4.57454 82.409 3.87505 82.7754 3.42419C83.1315 2.98589 83.6932 2.73201 84.5555 2.73201C85.4179 2.73201 85.9796 2.98589 86.3357 3.42419C86.702 3.87505 86.8955 4.57454 86.8955 5.55601V10V10.3H87.1955H88.9555H89.2555V10V5.55601C89.2555 3.95927 88.9193 2.67434 88.1353 1.78777C87.3446 0.893756 86.1486 0.46001 84.5555 0.46001C82.9625 0.46001 81.7664 0.893756 80.9758 1.78777C80.1918 2.67434 79.8555 3.95927 79.8555 5.55601V27.6C79.8555 29.1969 80.1918 30.4917 80.9745 31.3887C81.7643 32.294 82.9602 32.74 84.5555 32.74C86.1508 32.74 87.3468 32.294 88.1366 31.3887C88.9193 30.4917 89.2555 29.1969 89.2555 27.6V23.2V22.9H88.9555H87.1955ZM108.3 32.3H108.6V32V5.60001C108.6 4.00317 108.264 2.70835 107.481 1.81128C106.691 0.90607 105.495 0.46001 103.9 0.46001C102.305 0.46001 101.109 0.90607 100.319 1.81128C99.5363 2.70835 99.2001 4.00317 99.2001 5.60001V32V32.3H99.5001H101.26H101.56V32V17.736H106.24V32V32.3H106.54H108.3ZM27.1208 5.60001V15.464H22.4408V5.60001C22.4408 4.61876 22.6343 3.90658 23.0026 3.44383C23.3602 2.99447 23.9223 2.73201 24.7808 2.73201C25.6394 2.73201 26.2015 2.99447 26.5591 3.44383C26.9274 3.90658 27.1208 4.61876 27.1208 5.60001ZM106.24 5.60001V15.464H101.56V5.60001C101.56 4.61876 101.753 3.90658 102.122 3.44383C102.479 2.99447 103.041 2.73201 103.9 2.73201C104.759 2.73201 105.321 2.99447 105.678 3.44383C106.047 3.90658 106.24 4.61876 106.24 5.60001Z" fill="#545454" stroke="#545454" stroke-width="0.6"/>
</svg>
