<svg width="25" height="26" viewBox="0 0 25 26" fill="none" xmlns="http://www.w3.org/2000/svg">
<g clip-path="url(#clip0_48_628)">
<path d="M12.5 0.500001C9.18555 0.5 6.00391 1.81777 3.66211 4.16113C1.3179 6.50542 0.000648954 9.68473 -5.46392e-07 13C-6.91246e-07 16.3139 1.31836 19.4955 3.66211 21.8389C6.00391 24.1822 9.18555 25.5 12.5 25.5C15.8145 25.5 18.9961 24.1822 21.3379 21.8389C23.6816 19.4955 25 16.3139 25 13C25 9.68613 23.6816 6.50449 21.3379 4.16113C18.9961 1.81777 15.8145 0.500001 12.5 0.500001Z" fill="url(#paint0_linear_48_628)"/>
<path d="M5.65813 12.868C9.30266 11.2805 11.7323 10.2339 12.9472 9.7282C16.4198 8.28425 17.1406 8.03347 17.6113 8.02498C17.7148 8.02332 17.9452 8.0489 18.0956 8.17048C18.2206 8.27302 18.2558 8.4117 18.2734 8.50906C18.289 8.60632 18.3105 8.828 18.2929 9.00105C18.1054 10.9776 17.2909 15.7741 16.8769 17.988C16.7031 18.9247 16.3573 19.2387 16.0234 19.2694C15.2968 19.3362 14.746 18.7897 14.0429 18.329C12.9433 17.6077 12.3222 17.1589 11.2538 16.4552C10.0195 15.6419 10.8202 15.1948 11.5234 14.4643C11.707 14.2731 14.9062 11.3639 14.9667 11.1001C14.9745 11.0671 14.9823 10.944 14.9081 10.8792C14.8359 10.8141 14.7284 10.8364 14.6503 10.854C14.539 10.879 12.7831 12.0407 9.37688 14.3389C8.87883 14.6815 8.42766 14.8485 8.02141 14.8397C7.5761 14.8302 6.71672 14.5874 6.07805 14.38C5.2968 14.1255 4.67375 13.9909 4.72844 13.5587C4.75579 13.3337 5.06633 13.1034 5.65813 12.868Z" fill="white"/>
</g>
<defs>
<linearGradient id="paint0_linear_48_628" x1="1250" y1="0.500055" x2="1250" y2="2500.5" gradientUnits="userSpaceOnUse">
<stop stop-color="#2AABEE"/>
<stop offset="1" stop-color="#229ED9"/>
</linearGradient>
<clipPath id="clip0_48_628">
<rect width="25" height="25" fill="white" transform="translate(0 0.5)"/>
</clipPath>
</defs>
</svg>
